<svg xmlns="http://www.w3.org/2000/svg" width="520" height="315" viewBox="0 0 520 315">
    <g fill="none" fill-rule="evenodd">
        <g>
            <path fill="#E0E0E0" d="M440.792 55.14c3.227 1.67 6.217 3.757 8.892 6.204l9.508-3.351 8.932 13.935-7.12 7.113c1.098 3.44 1.727 7.01 1.868 10.615l9.116 4.285-3.656 16.124h-10.09c-1.68 3.2-3.788 6.162-6.267 8.805l3.385 9.414-14.097 8.845-7.185-7.043c-3.475 1.08-7.08 1.7-10.72 1.842l-4.27 9.05-16.293-3.62v-9.99c-3.235-1.664-6.229-3.751-8.901-6.206l-9.507 3.352-8.933-13.959 7.12-7.114c-1.098-3.44-1.726-7.01-1.867-10.615l-9.108-4.284 3.584-16.093h10.082c1.683-3.2 3.79-6.165 6.266-8.813l-3.385-9.414 14.178-8.868 7.144 7.05c3.467-1.069 7.06-1.68 10.689-1.818l4.318-9.018 16.293 3.62v9.983l.024-.032zm-14.369 18.97c-9.649-2.133-19.217 3.88-21.374 13.434-2.157 9.553 3.914 19.03 13.561 21.169 9.647 2.139 19.22-3.87 21.384-13.42 1.037-4.59.191-9.399-2.352-13.37-2.544-3.971-6.576-6.78-11.21-7.806l-.009-.008z" transform="translate(28.737)"/>
            <path fill="#E0E0E0" fill-rule="nonzero" d="M351.235 24.274c1.088.148 2.143.477 3.121.972 2.743 1.303 4.946 3.507 6.235 6.236 1.967 4.116 1.666 8.944-.799 12.789-1.434 2.25-3.517 4.023-5.979 5.09-5.43 2.38-11.792.968-15.678-3.478-1.755-2.003-2.867-4.48-3.193-7.113-.3-2.383.052-4.802 1.022-7.003.84-1.91 2.126-3.595 3.752-4.917 2.338-1.924 5.278-2.986 8.318-3.003 1.1-.03 2.197.12 3.249.442 0 .095-1.158-.229-3.241-.15-2.939.127-5.75 1.226-7.983 3.122-1.531 1.287-2.737 2.911-3.52 4.743-.894 2.102-1.208 4.401-.91 6.663.152 1.219.491 2.408 1.006 3.525.517 1.174 1.217 2.26 2.075 3.217 3.675 4.203 9.69 5.537 14.824 3.288 2.328-1.013 4.306-2.678 5.691-4.79 1.246-1.919 1.954-4.13 2.052-6.41.084-1.99-.304-3.971-1.134-5.786-1.202-2.656-3.267-4.838-5.867-6.196-1.94-.957-3.113-1.154-3.041-1.241z" transform="translate(28.737)"/>
            <path fill="#E0E0E0" fill-rule="nonzero" d="M361.796 10.275c-.016-.152-.016-.306 0-.458V8.426c0-1.28-.027-3.125-.08-5.533l.096.11-12.102-2.6.216-.103-3.193 6.671-.056.119h-.136c-2.665.119-5.304.584-7.847 1.383h-.143l-.104-.103-5.3-5.185h.335l-10.378 6.553.128-.348 2.506 6.948.064.174-.127.142c-1.805 1.936-3.341 4.103-4.566 6.442l-.088.174H313.373l.328-.261c-.839 3.739-1.749 7.778-2.683 11.911l-.191-.395 6.73 3.162.199.095v.213c.108 2.63.567 5.235 1.365 7.746l.064.206-.152.158-5.253 5.232.048-.458 6.602 10.275-.447-.15L327 58.522l.215-.071.168.15c1.946 1.826 4.131 3.384 6.498 4.632.088.142-.208-.332.2.332v7.351l-.296-.364 12.03 2.672-.423.205c1.064-2.234 2.128-4.452 3.193-6.655l.095-.205h.232c2.654-.101 5.282-.553 7.815-1.344l.215-.063.152.158 5.317 5.232-.447-.047 10.4-6.482-.143.411-2.49-6.947-.072-.198.143-.15c1.81-1.942 3.35-4.114 4.582-6.458l.088-.182h7.648l-.312.245 2.722-11.903.16.324-6.713-3.162-.152-.07v-.167c-.097-2.637-.548-5.25-1.341-7.77l-.048-.142.104-.11 5.276-5.21v.277c-2.538-4-4.701-7.414-6.545-10.338l.2.07-7.034 2.427h-.071l-.056-.047c-1.474-1.365-3.078-2.585-4.79-3.644l-1.277-.79c-.15-.073-.291-.16-.423-.261l.455.205c.287.15.734.38 1.309.712 1.748 1.024 3.386 2.224 4.885 3.58h-.127l7-2.521.128-.047.08.118 6.633 10.275.104.15-.127.127-5.237 5.24.056-.244c.826 2.56 1.301 5.218 1.413 7.904l-.152-.237 6.73 3.161.215.103-.056.221-2.674 11.912-.056.245h-7.695l.287-.174c-1.253 2.387-2.82 4.598-4.662 6.576l.064-.34c.82 2.277 1.655 4.593 2.507 6.948l.095.26-.231.143-10.377 6.545-.248.15-.207-.198-5.277-5.2.367.086c-2.586.814-5.27 1.28-7.982 1.384l.319-.206c-1.046 2.197-2.115 4.418-3.193 6.663l-.128.269-.295-.071-12.07-2.64-.295-.063v-.3-7.367c.407.664.112.181.207.332-2.433-1.244-4.686-2.808-6.697-4.648l.383.079-7.017 2.474-.287.095-.16-.253-6.593-10.275-.16-.253.216-.206 5.236-5.256-.096.371c-.81-2.563-1.276-5.22-1.389-7.904l.208.308-6.721-3.161-.256-.119.064-.276L313.03 23l.056-.26h7.711l-.287.173c1.263-2.386 2.842-4.594 4.694-6.568l-.072.316c-.862-2.427-1.717-4.798-2.483-6.956l-.08-.221.2-.127 10.425-6.505.184-.118.151.158c1.852 1.826 3.625 3.588 5.269 5.217l-.255-.064c2.589-.797 5.273-1.251 7.982-1.351l-.191.126c1.157-2.371 2.243-4.632 3.193-6.64l.111-.181h.152l11.974 2.743h.096v.095c0 2.37-.019 4.194-.056 5.47v1.406c.01.187.008.375-.008.561z" transform="translate(28.737)"/>
            <path d="M38.117 184.269c1.48 1.103 2.803 2.398 3.935 3.85l5.03-.91 3.32 7.707-4.103 2.94c.265 1.81.287 3.646.064 5.462l4.207 2.877-3.193 7.77-5.045-.79c-1.102 1.464-2.4 2.775-3.856 3.896l.918 4.987-7.783 3.289-2.993-4.103c-1.828.26-3.683.279-5.516.056l-2.906 4.165-7.855-3.122.798-4.995c-1.48-1.096-2.806-2.383-3.943-3.826l-5.03.909-3.32-7.707 4.143-2.964c-.265-1.81-.286-3.646-.064-5.461l-4.199-2.877 3.154-7.778 5.045.79c1.102-1.462 2.396-2.772 3.847-3.896l-.918-4.98 7.8-3.296 3 4.102c1.828-.263 3.684-.282 5.517-.055l2.905-4.166 7.847 3.123-.798 4.995-.008.008zm-8.78 8.339c-4.652-1.851-9.938.382-11.807 4.987-1.87 4.606.386 9.84 5.037 11.69 4.651 1.851 9.937-.382 11.806-4.987 1.873-4.597-.366-9.827-5.005-11.69h-.032z" transform="translate(28.737)"/>
            <path fill="#E0E0E0" fill-rule="nonzero" d="M29.368 192.608c.722.218 1.402.555 2.012.996 2.953 2.052 4.417 5.627 3.743 9.137-.318 1.615-1.067 3.116-2.17 4.347-.592.67-1.284 1.246-2.052 1.707-.792.499-1.66.867-2.57 1.091-3.945 1.02-8.098-.633-10.234-4.07-.97-1.555-1.45-3.36-1.381-5.186.107-3.125 1.828-5.976 4.558-7.548 1.8-1.05 3.914-1.449 5.979-1.13.747.1 1.473.321 2.147.656-.716-.189-1.44-.342-2.171-.459-3.445-.41-6.821 1.176-8.677 4.079-.841 1.327-1.31 2.852-1.357 4.418-.056 1.73.411 3.436 1.34 4.9 2.024 3.246 5.947 4.807 9.676 3.85.847-.214 1.655-.558 2.394-1.02.73-.421 1.387-.955 1.948-1.58 2.017-2.21 2.765-5.28 1.988-8.157-.52-1.934-1.677-3.64-3.29-4.846-.606-.427-1.235-.823-1.883-1.185z" transform="translate(28.737)"/>
            <path fill="#E0E0E0" fill-rule="nonzero" d="M38.117 184.269c-.012-.103-.012-.206 0-.308l.128-.957c.135-.87.319-2.118.566-3.746l.048.094-7.839-3.09.16-.047-2.89 4.18-.048.072h-.095c-1.818-.216-3.657-.192-5.468.071h-.104l-.064-.079c-.934-1.28-1.948-2.656-3.01-4.094l.224.063-7.751 3.32.12-.222c.287 1.581.598 3.233.926 4.972v.134l-.104.08c-1.44 1.115-2.722 2.415-3.816 3.865l-.08.102h-.135l-5.045-.79.255-.142c-.99 2.442-2.051 5.082-3.145 7.777l-.088-.284 4.207 2.869.12.087v.15c-.218 1.792-.196 3.604.064 5.39v.15l-.128.088-4.143 2.972.088-.3c1.053 2.434 2.179 5.05 3.328 7.698l-.287-.15 5.03-.91H9.3l.096.127c1.12 1.423 2.428 2.69 3.887 3.77l.104.254v.308l-.048.316-.104.624-.2 1.257-.407 2.49-.16-.277 7.856 3.122-.312.095 2.906-4.165.088-.127h.152c1.811.227 3.645.209 5.452-.055h.151l.088.119 2.994 4.102-.296-.08 7.783-3.28-.215.222-.91-4.98v-.142l.112-.087c1.442-1.108 2.728-2.403 3.823-3.85l.08-.11h.136l5.045.79-.24.127c1.118-2.73 2.182-5.317 3.193-7.762l.072.237-4.19-2.893-.097-.063v-.11c.226-1.8.21-3.62-.047-5.415v-.103l.087-.055 4.151-2.956-.048.182c-1.277-2.988-2.394-5.533-3.288-7.723l.103.135-5.037.877h-.048v-.04c-.848-1.083-1.796-2.086-2.833-2.995l-.799-.656c-.183-.142-.263-.214-.255-.221l.28.19c.183.134.462.331.798.624 1.067.885 2.04 1.875 2.905 2.956h-.08l5.03-.94h.087l.04.086c.942 2.174 2.052 4.743 3.353 7.69l.048.112-.096.07-4.135 2.98.064-.158c.278 1.833.305 3.694.08 5.533l-.08-.174 4.215 2.862.127.095-.055.142c-.99 2.458-2.036 5.043-3.138 7.785l-.063.159h-.176l-5.021-.894.215-.087c-1.118 1.48-2.428 2.809-3.895 3.952l.08-.229.926 4.98.04.19-.184.07-7.775 3.297-.184.079-.111-.158-3.002-4.103.24.103c-1.852.267-3.731.288-5.588.063l.24-.11c-.959 1.375-1.927 2.764-2.906 4.165l-.12.174-.192-.079-7.847-3.162-.191-.079v-.197c.135-.83.263-1.66.399-2.498l.207-1.249.104-.632.048-.308v-.301l.104.253c-1.5-1.105-2.842-2.405-3.991-3.865l.255.095-5.029.909h-.208l-.08-.19-3.32-7.706-.08-.19.168-.119 4.143-2.964-.096.238c-.269-1.834-.29-3.694-.064-5.533l.112.229-4.207-2.877-.16-.11.072-.175c1.102-2.703 2.171-5.335 3.193-7.77l.064-.173h.184l5.045.79-.216.087c1.12-1.484 2.436-2.813 3.912-3.952l-.08.205c-.32-1.739-.63-3.438-.91-4.98v-.165l.151-.063L19.565 176l.136-.063.088.126 2.985 4.11-.16-.07c1.853-.265 3.733-.278 5.589-.04l-.144.063 2.922-4.15.063-.087.096.04 7.831 3.162h.064v.063c-.28 1.58-.495 2.837-.639 3.699-.08.403-.135.72-.175.956l-.104.459z" transform="translate(28.737)"/>
            <path fill="#E0E0E0" d="M104.852 226.28c2.595 1.914 4.917 4.165 6.905 6.694l8.82-1.58 5.812 13.507-7.257 5.201c.462 3.172.497 6.391.104 9.572l7.368 5.043-5.524 13.619-8.844-1.407c-1.937 2.57-4.213 4.87-6.77 6.837l1.597 8.695-13.635 5.762-5.252-7.185c-3.204.457-6.454.492-9.667.103l-5.069 7.31-13.754-5.469 1.42-8.758c-2.592-1.919-4.915-4.173-6.904-6.702l-8.78 1.58-5.82-13.5 7.264-5.2c-.466-3.172-.5-6.392-.104-9.573l-7.416-5.01 5.524-13.62 8.845 1.407c1.933-2.57 4.207-4.869 6.761-6.837l-1.596-8.734 13.634-5.762 5.253 7.193c3.203-.465 6.454-.5 9.667-.103l5.092-7.303 13.754 5.477-1.42 8.758-.008-.016zm-15.319 14.606c-5.97-2.377-12.8-.958-17.302 3.595-4.502 4.553-5.79 11.343-3.265 17.204 2.525 5.86 8.368 9.637 14.803 9.57 6.435-.069 12.194-3.969 14.593-9.881 3.274-8.072-.678-17.243-8.829-20.488z" transform="translate(28.737)"/>
        </g>
        <g fill-rule="nonzero">
            <path fill="#EBEBEB" d="M107.446 118.783L11.224 118.783 11.224 0.3 84.823 0.514 107.446 24.827z" transform="translate(25.544 20.55)"/>
            <path fill="#263238" d="M40.009 67.896c-.12.119-1.724-1.312-4.207-3.715-2.483-2.402-5.851-5.785-9.523-9.58l-.407-.426.407-.427c3.656-3.818 7.016-7.232 9.491-9.659 2.475-2.426 4.143-3.912 4.239-3.778.096.134-1.245 1.77-3.552 4.355-2.307 2.585-5.588 6.086-9.236 9.912v-.83c3.672 3.794 6.937 7.272 9.26 9.833 2.322 2.56 3.656 4.197 3.528 4.315zM78.62 40.311c.12-.119 1.725 1.312 4.208 3.715 2.482 2.403 5.85 5.77 9.523 9.564l.407.427-.407.427-.04.04c-3.656 3.817-7.017 7.231-9.491 9.658-2.475 2.427-4.072 3.873-4.2 3.754-.127-.118 1.246-1.77 3.561-4.355 2.315-2.584 5.588-6.086 9.228-9.912h.04v.854c-3.664-3.794-6.937-7.272-9.26-9.833-2.323-2.56-3.696-4.236-3.568-4.339zM47.608 72.252c-.295-.182 4.702-8.79 11.176-19.239 6.474-10.45 11.926-18.772 12.221-18.59.296.181-4.75 8.789-11.135 19.238-6.387 10.45-11.974 18.764-12.262 18.59z" transform="translate(25.544 20.55)"/>
            <path fill="#E0E0E0" d="M84.823.522l-.088 19.847c-.007 1.384.555 2.711 1.556 3.677 1.001.966 2.356 1.488 3.753 1.445l17.402-.64L84.823.52z" transform="translate(25.544 20.55)"/>
            <path fill="#6F3895" d="M0 80.559H42.667V106.239H0z" transform="translate(25.544 20.55)"/>
            <path fill="#FFF" d="M12.118 98.651l1.117-1.288c.595.964 1.646 1.56 2.786 1.58 1.517 0 2.3-.916 2.3-2.694v-7.446h-4.838V87.15h6.729v9.003c0 2.956-1.453 4.418-4.19 4.418-1.542.033-3-.685-3.904-1.92zM22.894 98.896l.703-1.478c1.25 1.004 2.813 1.547 4.422 1.534 2.315 0 3.313-.893 3.313-2.047 0-3.241-8.11-1.194-8.11-6.118 0-2.047 1.596-3.794 5.124-3.794 1.52-.028 3.014.381 4.303 1.178l-.63 1.517c-1.096-.699-2.37-1.074-3.673-1.083-2.275 0-3.257.949-3.257 2.103 0 3.24 8.119 1.217 8.119 6.086 0 2.023-1.645 3.77-5.189 3.77-1.852.05-3.664-.54-5.125-1.668z" transform="translate(25.544 20.55)"/>
        </g>
        <g fill-rule="nonzero">
            <path fill="#61A5B0" d="M3.44 19.168C1.3 20.255-.034 22.452 0 24.835L.294 71.84c.012 2.194 1.173 4.225 3.066 5.366l39.418 23.262 37.734-24.226c1.802-1.179 2.88-3.18 2.866-5.32l-.36-49.076c-.001-2.478-1.479-4.721-3.768-5.723L42.116.221 3.441 19.168z" transform="translate(211.54 8.695)"/>
            <path fill="#000" d="M42.116.221l.639 100.248 37.678-24.178c1.827-1.153 2.933-3.15 2.93-5.296l-.296-49.274c-.012-2.433-1.48-4.627-3.736-5.589L42.116.222z" opacity=".2" transform="translate(211.54 8.695)"/>
            <path fill="#FFF" d="M53.148 56.514l-22.99.143-4.693 11.002-6.387.04L38.42 23.712h6.115L64.492 67.47h-6.49l-4.854-10.956zm-2.195-5.003L41.51 30.036 32.29 51.63l18.663-.119z" transform="translate(211.54 8.695)"/>
        </g>
        <g fill-rule="nonzero">
            <path fill="#263238" d="M0.224 0.371H217.22299999999998V125.57199999999999H0.224z" transform="translate(235.487 85.365)"/>
            <path fill="#E0E0E0" d="M17.195 119.273c-.112 0-.208-25.601-.208-57.178 0-31.577.096-57.179.208-57.179.111 0 .207 25.594.207 57.179s-.096 57.178-.207 57.178zM12.772 9.738c-2.387.274-4.797.274-7.184 0 2.387-.274 4.797-.274 7.184 0zM12.772 17.27c-2.387.275-4.797.275-7.184 0 2.387-.274 4.797-.274 7.184 0zM12.772 24.803c-2.386.285-4.798.285-7.184 0 2.387-.274 4.797-.274 7.184 0zM12.772 32.344c-2.387.274-4.797.274-7.184 0 2.387-.274 4.797-.274 7.184 0zM12.772 39.876c-2.387.274-4.797.274-7.184 0 2.387-.274 4.797-.274 7.184 0zM12.772 47.425c-2.386.284-4.798.284-7.184 0 2.387-.274 4.797-.274 7.184 0zM12.772 54.95c-2.387.273-4.797.273-7.184 0 2.387-.275 4.797-.275 7.184 0zM12.772 62.482c-2.387.274-4.797.274-7.184 0 2.387-.274 4.797-.274 7.184 0zM12.772 70.023c-2.387.274-4.797.274-7.184 0 2.386-.285 4.798-.285 7.184 0zM12.772 77.555c-2.387.274-4.797.274-7.184 0 2.387-.274 4.797-.274 7.184 0zM12.772 85.088c-2.387.274-4.797.274-7.184 0 2.387-.274 4.797-.274 7.184 0zM12.772 92.628c-2.387.274-4.797.274-7.184 0 2.387-.274 4.797-.274 7.184 0zM12.772 100.161c-2.387.274-4.797.274-7.184 0 2.387-.274 4.797-.274 7.184 0zM12.772 107.694c-2.387.274-4.797.274-7.184 0 2.387-.274 4.797-.274 7.184 0zM12.772 115.234c-2.387.274-4.797.274-7.184 0 2.387-.274 4.797-.274 7.184 0z" transform="translate(235.487 85.365)"/>
            <path fill="#6F3895" d="M41.51 9.295c0 .11-4.175.206-9.332.206-5.157 0-9.324-.095-9.324-.206 0-.11 4.175-.205 9.324-.205s9.332.087 9.332.205z" transform="translate(235.487 85.365)"/>
            <path fill="#E8505B" d="M41.51 115.234c0 .11-4.175.206-9.332.206-5.157 0-9.324-.095-9.324-.206 0-.11 4.175-.205 9.324-.205s9.332.087 9.332.205z" transform="translate(235.487 85.365)"/>
            <path fill="#6F3895" d="M67.509 24.803c0 .119-7.807.214-17.442.214s-17.45-.095-17.45-.214c0-.118 7.807-.205 17.45-.205 9.643 0 17.442.094 17.442.205z" transform="translate(235.487 85.365)"/>
            <path fill="#E0E0E0" d="M107.861 24.803c0 .119-7.807.214-17.442.214s-17.45-.095-17.45-.214c0-.118 7.807-.205 17.45-.205 9.643 0 17.442.094 17.442.205zM92.439 32.344c0 .11-11.511.205-25.712.205s-25.712-.095-25.712-.205c0-.111 11.51-.206 25.712-.206 14.2 0 25.712.087 25.712.206zM92.439 39.876c0 .119-11.511.206-25.712.206s-25.712-.087-25.712-.206c0-.118 11.51-.205 25.712-.205 14.2 0 25.712.095 25.712.205zM127.842 62.482c0 .119-11.511.206-25.712.206-14.202 0-25.72-.087-25.72-.206 0-.118 11.51-.205 25.72-.205 14.209 0 25.712.094 25.712.205zM112.555 47.425c0 .118-11.511.213-25.712.213s-25.712-.095-25.712-.213c0-.119 11.51-.206 25.712-.206 14.2 0 25.712.08 25.712.206zM175.41 47.425c0 .118-11.511.213-25.712.213s-25.712-.095-25.712-.213c0-.119 11.51-.206 25.712-.206 14.201 0 25.712.08 25.712.206z" transform="translate(235.487 85.365)"/>
            <path fill="#FAFAFA" d="M153.554 32.344c0 .11-11.511.205-25.712.205-14.202 0-25.712-.095-25.712-.205 0-.111 11.51-.206 25.712-.206 14.2 0 25.712.087 25.712.206zM189.076 62.482c0 .119-11.51.206-25.712.206-14.2 0-25.712-.087-25.712-.206 0-.118 11.511-.205 25.712-.205s25.712.094 25.712.205z" transform="translate(235.487 85.365)"/>
            <path fill="#455A64" d="M182.004 39.876c0 .119-17.882.206-39.914.206s-39.913-.087-39.913-.206c0-.118 17.873-.205 39.913-.205 22.04 0 39.914.095 39.914.205z" transform="translate(235.487 85.365)"/>
            <path fill="#FAFAFA" d="M41.51 17.27c0 .12-4.175.206-9.332.206-5.157 0-9.324-.087-9.324-.205 0-.12 4.175-.206 9.324-.206s9.332.095 9.332.206zM41.51 107.694c0 .118-4.175.205-9.332.205-5.157 0-9.324-.087-9.324-.205 0-.119 4.175-.206 9.324-.206s9.332.095 9.332.206zM50.777 47.425c0 .118-4.175.213-9.323.213-5.15 0-9.324-.095-9.324-.213 0-.119 4.175-.206 9.324-.206 5.148 0 9.323.08 9.323.206z" transform="translate(235.487 85.365)"/>
            <path fill="#6F3895" d="M200.26 47.425c0 .118-4.175.213-9.324.213s-9.332-.095-9.332-.213c0-.119 4.175-.206 9.332-.206 5.157 0 9.324.08 9.324.206z" transform="translate(235.487 85.365)"/>
            <path fill="#E8505B" d="M67.509 77.508c0 .118-7.807.205-17.442.205s-17.45-.087-17.45-.205c0-.119 7.807-.206 17.45-.206 9.643 0 17.442.095 17.442.206z" transform="translate(235.487 85.365)"/>
            <path fill="#E0E0E0" d="M107.861 77.508c0 .118-7.807.205-17.442.205s-17.45-.087-17.45-.205c0-.119 7.807-.206 17.45-.206 9.643 0 17.442.095 17.442.206zM92.439 85.048c0 .111-11.511.206-25.712.206s-25.712-.095-25.712-.206c0-.11 11.51-.205 25.712-.205 14.2 0 25.712.087 25.712.205zM92.439 92.581c0 .11-11.511.206-25.712.206s-25.712-.095-25.712-.206c0-.11 11.51-.205 25.712-.205 14.2 0 25.712.102 25.712.205zM112.555 100.114c0 .118-11.511.205-25.712.205s-25.712-.087-25.712-.205c0-.119 11.51-.206 25.712-.206 14.2 0 25.712.095 25.712.206zM175.41 100.114c0 .118-11.511.205-25.712.205s-25.712-.087-25.712-.205c0-.119 11.51-.206 25.712-.206 14.201 0 25.712.095 25.712.206z" transform="translate(235.487 85.365)"/>
            <path fill="#FAFAFA" d="M153.554 85.048c0 .111-11.511.206-25.712.206-14.202 0-25.712-.095-25.712-.206 0-.11 11.51-.205 25.712-.205 14.2 0 25.712.087 25.712.205z" transform="translate(235.487 85.365)"/>
            <path fill="#455A64" d="M182.004 92.581c0 .11-17.882.206-39.914.206s-39.913-.095-39.913-.206c0-.11 17.873-.205 39.913-.205 22.04 0 39.914.102 39.914.205z" transform="translate(235.487 85.365)"/>
            <path fill="#FAFAFA" d="M50.777 100.114c0 .118-4.175.205-9.323.205-5.15 0-9.324-.087-9.324-.205 0-.119 4.175-.206 9.324-.206 5.148 0 9.323.095 9.323.206z" transform="translate(235.487 85.365)"/>
            <path fill="#6F3895" d="M200.26 100.114c0 .118-4.175.205-9.324.205s-9.332-.087-9.332-.205c0-.119 4.175-.206 9.332-.206 5.157 0 9.324.095 9.324.206z" transform="translate(235.487 85.365)"/>
        </g>
        <g fill="#6F3895" fill-rule="nonzero" transform="translate(426.271 179.424)">
            <path d="M55.128 29.783c-.144.087-1.493-2.134-4.215-5.944-1.365-1.905-3.081-4.197-5.205-6.742-2.396-2.88-5.009-5.578-7.815-8.07-1.619-1.444-3.345-2.765-5.164-3.953-1.899-1.285-4.012-2.227-6.243-2.782-1.105-.264-2.256-.28-3.368-.047-1.086.26-2.053.872-2.746 1.739-.738.955-1.256 2.058-1.517 3.232-.305 1.262-.471 2.553-.495 3.85-.003 2.762.302 5.516.91 8.212.611 2.845 1.411 5.646 2.395 8.386 4.237 11.6 10.512 22.364 18.535 31.799 1.905 2.218 3.953 4.312 6.131 6.268 2.055 1.867 4.312 3.506 6.73 4.884 1.14.64 2.351 1.148 3.608 1.518 1.152.371 2.375.48 3.576.316 1.108-.156 2.13-.68 2.897-1.486.761-.835 1.323-1.83 1.645-2.908.624-2.191.856-4.473.686-6.743-.125-2.15-.41-4.286-.854-6.394-.793-3.652-1.86-7.24-3.193-10.734-1.157-3.098-2.307-5.715-3.289-7.833-1.971-4.244-3.24-6.505-3.097-6.592.447.454.823.97 1.118 1.533.662 1.052 1.596 2.617 2.706 4.703 1.11 2.087 2.395 4.672 3.648 7.77 1.46 3.519 2.632 7.148 3.504 10.852.513 2.17.855 4.378 1.022 6.6.225 2.47.007 4.958-.647 7.351-.383 1.335-1.065 2.567-1.995 3.605-1.028 1.097-2.396 1.823-3.888 2.063-1.469.221-2.97.113-4.39-.317-1.388-.396-2.727-.944-3.992-1.636-2.56-1.424-4.952-3.128-7.128-5.082-2.27-2-4.403-4.147-6.386-6.426-8.23-9.584-14.639-20.563-18.919-32.407-1.008-2.841-1.824-5.746-2.443-8.695-.614-2.844-.909-5.746-.878-8.655.032-1.44.225-2.87.575-4.268.338-1.428.992-2.765 1.916-3.912.96-1.158 2.279-1.969 3.752-2.308 1.37-.275 2.786-.243 4.143.094 2.426.646 4.716 1.717 6.761 3.162 1.859 1.256 3.617 2.651 5.26 4.173 2.803 2.602 5.39 5.422 7.736 8.434 2.067 2.64 3.704 5.027 4.973 7.011 1.27 1.984 2.171 3.58 2.762 4.671.376.524.671 1.1.878 1.708z"/>
            <path d="M30.486 29.735c.143.087-1.15 2.245-3.193 6.324-1.006 2.023-2.18 4.529-3.37 7.493-1.356 3.353-2.442 6.807-3.248 10.33-.465 2.028-.764 4.09-.894 6.166-.19 2.191.027 4.398.639 6.513.32 1.043.865 2.006 1.596 2.821.74.787 1.713 1.324 2.778 1.534 1.15.221 2.336.189 3.472-.095 1.23-.283 2.422-.708 3.553-1.265 2.407-1.203 4.667-2.675 6.737-4.386 2.189-1.795 4.253-3.733 6.179-5.802 8.105-8.826 14.497-19.056 18.854-30.178 1.015-2.631 1.847-5.327 2.491-8.07.625-2.59.947-5.242.958-7.904.002-1.254-.145-2.504-.44-3.723-.252-1.131-.75-2.194-1.46-3.114-.67-.85-1.591-1.471-2.634-1.779-1.063-.28-2.173-.33-3.257-.15-2.185.414-4.276 1.217-6.17 2.371-1.816 1.016-3.548 2.17-5.181 3.454-2.823 2.287-5.46 4.79-7.887 7.486-2.147 2.37-3.888 4.544-5.269 6.323-2.762 3.588-4.135 5.699-4.278 5.612.179-.588.448-1.145.798-1.652.599-1.036 1.517-2.553 2.81-4.434 1.293-1.882 2.953-4.134 5.053-6.616 2.382-2.833 5.001-5.461 7.83-7.857 1.656-1.407 3.426-2.676 5.293-3.794 2.057-1.286 4.336-2.186 6.722-2.656 1.325-.236 2.686-.187 3.99.143 1.407.406 2.651 1.235 3.561 2.37.89 1.116 1.522 2.411 1.852 3.795.347 1.354.53 2.745.543 4.142.02 2.822-.293 5.636-.934 8.386-.646 2.836-1.489 5.625-2.523 8.347C61.06 41.26 54.518 51.72 46.18 60.696c-1.986 2.128-4.12 4.117-6.386 5.952-2.206 1.797-4.617 3.333-7.184 4.576-1.273.607-2.612 1.066-3.991 1.367-1.401.32-2.855.337-4.263.048-1.42-.308-2.71-1.046-3.688-2.11-.89-1.015-1.547-2.21-1.924-3.502-.64-2.315-.842-4.726-.599-7.114.179-2.157.537-4.295 1.07-6.394.904-3.571 2.108-7.061 3.6-10.434 1.317-2.972 2.61-5.453 3.736-7.437 1.126-1.984 2.076-3.478 2.746-4.474.67-.996 1.126-1.478 1.19-1.439z"/>
            <path d="M41.23 20.638c0 .174-2.53.213-7.072.648-2.267.221-5.037.545-8.215 1.106-3.59.627-7.127 1.531-10.576 2.704-1.997.667-3.933 1.5-5.788 2.49-1.982.988-3.765 2.327-5.26 3.951-.732.813-1.276 1.773-1.597 2.814-.285 1.043-.235 2.149.144 3.162.422 1.086 1.078 2.068 1.924 2.877.89.89 1.885 1.673 2.961 2.332 2.297 1.393 4.748 2.52 7.304 3.359 2.7.896 5.457 1.61 8.254 2.134 11.846 2.182 23.996 2.182 35.842 0 2.793-.53 5.545-1.248 8.238-2.15 2.559-.84 5.012-1.968 7.312-3.359 1.073-.661 2.064-1.444 2.954-2.332.843-.805 1.498-1.785 1.916-2.869.376-1.014.423-2.12.135-3.162-.32-1.04-.864-2.001-1.596-2.813-1.501-1.619-3.283-2.957-5.26-3.953-1.853-.98-3.784-1.81-5.772-2.481-3.449-1.174-6.986-2.077-10.577-2.704-3.193-.56-5.947-.885-8.214-1.106-4.534-.435-7.073-.474-7.073-.648.602-.154 1.223-.217 1.844-.19 1.206-.04 2.994-.063 5.285 0 2.29.063 5.109.316 8.35.79 3.682.511 7.314 1.331 10.856 2.45 2.08.66 4.104 1.485 6.05 2.467 2.185 1.055 4.155 2.499 5.812 4.26.91.995 1.591 2.173 1.996 3.454.397 1.387.352 2.86-.128 4.221-.49 1.339-1.269 2.555-2.283 3.565-.983 1.001-2.082 1.884-3.273 2.632-2.413 1.503-4.996 2.72-7.695 3.628-2.775.948-5.613 1.706-8.494 2.268-12.103 2.298-24.537 2.298-36.64 0-2.88-.562-5.718-1.32-8.493-2.268-2.699-.91-5.28-2.128-7.696-3.628-1.188-.748-2.284-1.631-3.264-2.632-1.015-1.01-1.794-2.226-2.284-3.565-.484-1.36-.528-2.835-.127-4.22.398-1.283 1.077-2.462 1.987-3.455 1.657-1.761 3.627-3.205 5.812-4.26 1.946-.982 3.97-1.807 6.05-2.466 3.545-1.12 7.18-1.94 10.865-2.45 3.24-.46 6.05-.672 8.342-.791 2.29-.119 4.079-.08 5.292 0 .624-.03 1.248.034 1.852.19z"/>
            <ellipse cx="43.198" cy="37.525" rx="6.617" ry="6.68" transform="rotate(-80.76 43.198 37.525)"/>
        </g>
        <g fill-rule="nonzero">
            <path fill="#455A64" d="M17.203.53h237.442c2.972 0 5.38 2.385 5.38 5.327v146.226c.005 3.057-1.219 5.99-3.4 8.154-2.182 2.163-5.143 3.378-8.23 3.378H22.639c-6.424 0-11.631-5.156-11.631-11.516V6.663c0-1.627.65-3.189 1.812-4.34C13.982 1.174 15.559.528 17.203.53z" transform="translate(104.572 147.807)"/>
            <path fill="#455A64" d="M.599 151.514H270.41v3.407c.004 2.883-1.151 5.649-3.21 7.687-2.06 2.037-4.855 3.18-7.766 3.173H11.55c-2.908 0-5.696-1.145-7.75-3.182-2.055-2.037-3.207-4.8-3.202-7.678v-3.423.016z" transform="translate(104.572 147.807)"/>
            <path fill="#E0E0E0" d="M17.697 7.011H252.641V144.701H17.697z" transform="translate(104.572 147.807)"/>
            <path fill="#263238" d="M110.966 151.514L114.319 156.794 161.424 156.794 164.538 151.514z" transform="translate(104.572 147.807)"/>
            <path fill="#263238" d="M11.056 151.467H260.066V152.467H11.056zM24.666 14.986H246.231V144.701H24.666z" transform="translate(104.572 147.807)"/>
            <path fill="#E0E0E0" d="M41.67 140.891c-.12 0-.208-27.625-.208-61.7 0-34.074.087-61.7.207-61.7s.208 27.618.208 61.7c0 34.083-.096 61.7-.208 61.7zM37.199 28.676c-1.188.203-2.396.272-3.6.206-1.204.066-2.412-.003-3.6-.206 1.188-.203 2.396-.272 3.6-.205 1.204-.067 2.412.002 3.6.205zM37.518 21.673c-1.188.203-2.396.272-3.6.206-1.204.066-2.412-.003-3.6-.206 1.188-.203 2.396-.272 3.6-.205 1.204-.067 2.412.002 3.6.205zM37.199 36.225c-1.188.203-2.396.271-3.6.205-1.204.066-2.412-.002-3.6-.205 1.187-.208 2.396-.277 3.6-.206 1.204-.07 2.412-.002 3.6.206zM37.199 43.773c-1.188.203-2.396.272-3.6.206-1.204.066-2.412-.003-3.6-.206 1.187-.207 2.396-.276 3.6-.205 1.204-.071 2.412-.002 3.6.205zM37.199 51.321c-1.188.203-2.396.272-3.6.206-1.204.066-2.412-.003-3.6-.206 1.187-.207 2.396-.276 3.6-.205 1.204-.07 2.412-.002 3.6.205zM37.199 58.862c-1.187.213-2.396.284-3.6.213-1.205.071-2.413 0-3.6-.213 1.188-.203 2.396-.272 3.6-.205 1.204-.067 2.412.002 3.6.205zM37.199 66.395c-1.188.207-2.396.276-3.6.205-1.204.071-2.413.002-3.6-.205 1.188-.203 2.396-.272 3.6-.206 1.204-.066 2.412.003 3.6.206zM37.199 73.959c-1.188.207-2.396.276-3.6.205-1.204.071-2.413.002-3.6-.205 1.188-.203 2.396-.272 3.6-.206 1.204-.066 2.412.003 3.6.206zM37.199 81.507c-1.188.208-2.396.277-3.6.206-1.204.07-2.413.002-3.6-.206 1.188-.203 2.396-.272 3.6-.205 1.204-.067 2.412.002 3.6.205zM37.199 89.056c-1.188.203-2.396.272-3.6.205-1.204.067-2.412-.002-3.6-.205 1.188-.203 2.396-.272 3.6-.206 1.204-.066 2.412.003 3.6.206zM37.199 96.604c-1.188.203-2.396.272-3.6.206-1.204.066-2.412-.003-3.6-.206 1.187-.207 2.396-.276 3.6-.205 1.204-.071 2.412-.002 3.6.205zM37.199 104.153c-1.188.203-2.396.271-3.6.205-1.204.066-2.412-.002-3.6-.205 1.187-.208 2.396-.277 3.6-.206 1.204-.07 2.412-.002 3.6.206zM37.199 111.701c-1.188.203-2.396.272-3.6.206-1.204.066-2.412-.003-3.6-.206 1.187-.207 2.396-.276 3.6-.205 1.204-.071 2.412-.002 3.6.205zM37.199 119.242c-1.187.212-2.396.284-3.6.213-1.205.07-2.413 0-3.6-.213 1.188-.203 2.396-.272 3.6-.206 1.204-.066 2.412.003 3.6.206zM37.199 126.79c-1.188.207-2.396.276-3.6.206-1.204.07-2.413.001-3.6-.206 1.188-.203 2.396-.272 3.6-.205 1.204-.067 2.412.002 3.6.205zM37.199 134.37c-1.188.207-2.396.276-3.6.206-1.204.07-2.413.001-3.6-.206 1.188-.203 2.396-.272 3.6-.205 1.204-.067 2.412.002 3.6.205z" transform="translate(104.572 147.807)"/>
            <path fill="#6F3895" d="M66.048 28.234c0 .11-4.183.205-9.34.205-5.156 0-9.34-.095-9.34-.205 0-.111 4.184-.206 9.34-.206 5.157 0 9.34.087 9.34.206zM66.048 134.37c0 .119-4.183.206-9.34.206-5.156 0-9.34-.087-9.34-.206 0-.118 4.184-.205 9.34-.205 5.157 0 9.34.063 9.34.205zM92.063 43.773c0 .11-7.823.206-17.473.206-9.651 0-17.474-.095-17.474-.206 0-.11 7.823-.205 17.474-.205 9.65 0 17.473.086 17.473.205z" transform="translate(104.572 147.807)"/>
            <path fill="#E0E0E0" d="M132.511 43.773c0 .11-7.823.206-17.474.206-9.65 0-17.474-.095-17.474-.206 0-.11 7.823-.205 17.474-.205s17.474.086 17.474.205zM117.033 51.321c0 .111-11.527.206-25.752.206s-25.76-.095-25.76-.206c0-.11 11.535-.205 25.76-.205 14.225 0 25.752.087 25.752.205zM117.033 58.862c0 .119-11.527.213-25.752.213s-25.76-.094-25.76-.213 11.535-.205 25.76-.205c14.225 0 25.752.094 25.752.205zM152.468 81.507c0 .119-11.535.206-25.752.206-14.217 0-25.76-.087-25.76-.206 0-.118 11.535-.205 25.76-.205 14.225 0 25.752.11 25.752.205zM137.19 66.395c0 .118-11.528.205-25.753.205s-25.752-.087-25.752-.205c0-.119 11.527-.206 25.752-.206s25.752.11 25.752.206zM200.14 66.395c0 .118-11.535.205-25.752.205-14.217 0-25.76-.087-25.76-.205 0-.119 11.527-.206 25.76-.206 14.233 0 25.752.11 25.752.206z" transform="translate(104.572 147.807)"/>
            <path fill="#FAFAFA" d="M178.244 51.321c0 .111-11.527.206-25.752.206s-25.752-.095-25.752-.206c0-.11 11.527-.205 25.752-.205s25.752.087 25.752.205zM213.83 81.507c0 .119-11.535.206-25.752.206-14.217 0-25.76-.087-25.76-.206 0-.118 11.527-.205 25.76-.205 14.233 0 25.752.11 25.752.205z" transform="translate(104.572 147.807)"/>
            <path fill="#455A64" d="M206.75 58.862c0 .119-17.913.213-39.993.213-22.08 0-39.993-.094-39.993-.213s17.897-.205 39.993-.205c22.096 0 39.993.094 39.993.205z" transform="translate(104.572 147.807)"/>
            <path fill="#FAFAFA" d="M66.048 36.225c0 .11-4.183.205-9.34.205-5.156 0-9.34-.095-9.34-.205 0-.111 4.184-.206 9.34-.206 5.157 0 9.34.087 9.34.206zM66.048 126.79c0 .119-4.183.206-9.34.206-5.156 0-9.34-.087-9.34-.206s4.184-.205 9.34-.205c5.157 0 9.34.094 9.34.205zM75.308 66.395c0 .118-4.183.205-9.34.205-5.156 0-9.347-.087-9.347-.205 0-.119 4.183-.206 9.347-.206 5.165 0 9.34.11 9.34.206z" transform="translate(104.572 147.807)"/>
            <path fill="#6F3895" d="M225.03 66.395c0 .118-4.183.205-9.348.205-5.165 0-9.34-.087-9.34-.205 0-.119 4.183-.206 9.34-.206s9.348.11 9.348.206zM92.063 96.557c0 .118-7.823.205-17.473.205-9.651 0-17.474-.087-17.474-.205 0-.119 7.823-.206 17.474-.206 9.65 0 17.473.08 17.473.206z" transform="translate(104.572 147.807)"/>
            <path fill="#E0E0E0" d="M132.511 96.557c0 .118-7.823.205-17.474.205-9.65 0-17.474-.087-17.474-.205 0-.119 7.823-.206 17.474-.206s17.474.08 17.474.206zM117.033 104.105c0 .119-11.527.206-25.752.206s-25.76-.087-25.76-.206c0-.118 11.535-.205 25.76-.205 14.225 0 25.752.095 25.752.205zM117.033 111.654c0 .11-11.527.205-25.752.205s-25.76-.095-25.76-.205c0-.111 11.535-.206 25.76-.206 14.225 0 25.752.095 25.752.206zM137.19 119.202c0 .11-11.528.206-25.753.206s-25.752-.095-25.752-.206c0-.11 11.527-.205 25.752-.205s25.752.087 25.752.205zM200.14 119.202c0 .11-11.535.206-25.752.206-14.217 0-25.76-.095-25.76-.206 0-.11 11.527-.205 25.76-.205 14.233 0 25.752.087 25.752.205z" transform="translate(104.572 147.807)"/>
            <path fill="#FAFAFA" d="M178.244 104.105c0 .119-11.527.206-25.752.206s-25.752-.087-25.752-.206c0-.118 11.527-.205 25.752-.205s25.752.095 25.752.205z" transform="translate(104.572 147.807)"/>
            <path fill="#455A64" d="M206.75 111.654c0 .11-17.913.205-39.993.205-22.08 0-39.993-.095-39.993-.205 0-.111 17.897-.206 39.993-.206 22.096 0 39.993.095 39.993.206z" transform="translate(104.572 147.807)"/>
            <path fill="#FAFAFA" d="M75.308 119.202c0 .11-4.183.206-9.34.206-5.156 0-9.347-.095-9.347-.206 0-.11 4.183-.205 9.347-.205 5.165 0 9.34.087 9.34.205z" transform="translate(104.572 147.807)"/>
            <path fill="#6F3895" d="M225.03 119.202c0 .11-4.183.206-9.348.206-5.165 0-9.34-.095-9.34-.206 0-.11 4.183-.205 9.34-.205s9.348.087 9.348.205z" transform="translate(104.572 147.807)"/>
        </g>
        <path fill="#263238" fill-rule="nonzero" d="M519.532 313.615c0 .113-116.306.21-259.754.21-143.447 0-259.778-.097-259.778-.21 0-.113 116.283-.21 259.778-.21 143.496 0 259.754.09 259.754.21z"/>
        <g fill-rule="nonzero">
            <path fill="#FFBE9D" d="M34.405 73.753l3.193 9.88c1.254 4.086 4.707 7.136 8.949 7.905l21.281 3.952 5.788-.19-5.788-7.114-15.965-5.406c-1.55-.347-2.78-1.516-3.193-3.035L42.284 66.03l-8.07 4.9.191 2.822z" transform="translate(379.972 195.232)"/>
            <path fill="#000" d="M19.158 7.454c.107-1.552-.314-3.093-1.197-4.38-.728-1.342-2-2.314-3.497-2.67-1.771-.202-3.462.786-4.142 2.418-.632 1.625-.392 3.457.638 4.869.518.718 1.175 1.328 1.932 1.794-2.215 1.45-3.896 3.571-4.79 6.047-.243.852-.53 1.69-.862 2.513-.33.837-.957 1.526-1.764 1.937-.599.26-1.285.292-1.9.521-1.045.409-1.827 1.292-2.1 2.372-.24 1.086-.036 2.223.568 3.161.362.421.61.927.718 1.47-.025.375-.103.745-.232 1.099-.31 1.28.257 2.611 1.4 3.284 1.142.673 2.594.53 3.582-.352.319.953.97 1.763 1.836 2.285.91.427 2.243 0 2.434-.94.469.97 1.54 1.508 2.607 1.308 1.069-.2 1.867-1.089 1.943-2.162l17.163-18.583c-2.594-6.75-12.605-6.15-14.337-5.991z" transform="translate(379.972 195.232)"/>
            <path fill="#FFBE9D" d="M16.253 13.911c-1.104.119-1.935 1.05-1.916 2.15l1.213 28.613c.048 3.383 6.235 7.375 9.89 7.304 3.689-.08 2.61-3.953 2.659-7.17.088-5.374.088-7.39.088-7.358 0 .031 4.661-.79 5.627-6.79.487-2.996.336-7.904.08-11.92-.231-3.612-2.65-8.046-6.29-7.666L16.253 13.91z" transform="translate(379.972 195.232)"/>
            <path fill="#263238" d="M32.314 22.637c0 .437-.358.79-.799.79-.2.016-.397-.05-.547-.18-.15-.131-.24-.317-.25-.515-.002-.418.327-.765.75-.79.207-.03.417.03.578.162.161.133.258.326.268.533zM32.817 21.294c-.096.102-.687-.332-1.533-.332-.846 0-1.453.419-1.54.316-.089-.103.055-.221.319-.419.364-.247.795-.38 1.237-.38.435.002.859.137 1.213.388.264.197.351.38.304.427zM24.1 22.637c0 .42-.329.766-.75.79-.2.014-.396-.052-.546-.183-.15-.13-.24-.315-.253-.512 0-.421.333-.77.758-.79.2-.015.396.05.545.181.149.132.237.317.246.514zM24.562 21.452c-.095.095-.686-.332-1.524-.332s-1.461.419-1.549.316c-.088-.103.056-.23.32-.419.362-.25.795-.383 1.237-.38.438-.004.867.132 1.221.388.256.198.343.38.295.427zM27.612 27.617c.442-.141.9-.224 1.365-.245.207 0 .415-.063.447-.213.02-.218-.03-.437-.144-.625l-.63-1.62c-.59-1.37-1.065-2.783-1.421-4.229.692 1.324 1.282 2.698 1.764 4.11l.607 1.62c.131.26.17.555.111.838-.066.152-.198.265-.359.309-.117.033-.238.049-.36.047-.457.06-.921.063-1.38.008z" transform="translate(379.972 195.232)"/>
            <path fill="#EB996E" d="M28.187 37.45c-2.863.043-5.682-.702-8.143-2.15 0 0 1.972 4.134 8.063 3.572l.08-1.422zM27.253 29.617c-.326-.404-.84-.613-1.357-.554-.373.036-.715.219-.95.506-.234.282-.26.68-.064.988.273.305.706.415 1.093.277.4-.136.766-.35 1.078-.632.094-.068.175-.15.24-.245.06-.097.06-.22 0-.317" transform="translate(379.972 195.232)"/>
            <path fill="#263238" d="M25.137 28.186c.136 0 .144.893.918 1.534.775.64 1.748.545 1.756.671.008.127-.215.174-.622.182-.535.011-1.056-.168-1.469-.506-.394-.32-.648-.779-.71-1.28-.032-.38.063-.6.127-.6z" transform="translate(379.972 195.232)"/>
            <path fill="#E8505B" d="M24.938 19.99c-.08.229-.918.126-1.9.237-.982.11-1.788.387-1.916.181-.128-.205.08-.308.4-.53.43-.267.915-.434 1.42-.49.504-.058 1.016.002 1.493.175.359.142.543.324.503.427zM32.505 18.89c-.143.19-.726 0-1.42 0-.695 0-1.286.127-1.422-.07-.135-.198 0-.285.296-.467.34-.222.743-.33 1.15-.308.408.005.805.137 1.133.38.247.173.327.371.263.466z" transform="translate(379.972 195.232)"/>
            <path fill="#FFBE9D" d="M15.007 23.546c-.504-.274-1.122-.243-1.596.08-1.17.663-1.7 2.054-1.266 3.318.434 1.263 1.71 2.045 3.046 1.867" transform="translate(379.972 195.232)"/>
            <path fill="#000" d="M24.578 9.066c2.07.105 4.078.722 5.844 1.794 1.992 1.023 3.492 2.79 4.167 4.909.173.44.155.932-.048 1.36-.399.498-1.098.647-1.669.355-.546-.3-1.01-.726-1.357-1.241-.293 1.152-1.345 1.954-2.544 1.941-1.2-.013-2.234-.838-2.5-1.996-.106 1.196-1.135 2.104-2.348 2.07-1.193-.104-2.212-.898-2.594-2.023-.144 1.044-.509 2.045-1.07 2.94-.59.908-1.69 1.353-2.754 1.115.223.884.21 1.81-.04 2.687-.283.898-1.208 1.438-2.139 1.25-.846-.285-1.173-1.273-1.373-2.135-.43-1.65-.646-3.347-.646-5.05-.12-3.624 2.433-6.798 6.026-7.494 1.734-.398 3.515-.56 5.293-.482" transform="translate(379.972 195.232)"/>
            <path fill="#EB996E" d="M14.584 27.016c0-.04-.231.056-.527-.079-.353-.224-.556-.621-.53-1.037.027-.415.278-.784.658-.962.303-.119.527-.064.543-.111.016-.048-.208-.19-.615-.095-.231.054-.439.182-.59.364-.185.224-.291.501-.304.79-.06.54.25 1.054.759 1.257.39.11.638-.103.606-.127z" transform="translate(379.972 195.232)"/>
            <path fill="#263238" d="M12.27 27.332s-.089 0-.248.064c-1.108.398-2.046 1.16-2.658 2.158-.333.548-.52 1.17-.543 1.81-.022.737.152 1.467.503 2.118.381.712.928 1.325 1.596 1.786.728.5 1.59.774 2.475.79 1.76-.008 3.369-.99 4.167-2.545.342-.657.492-1.396.43-2.134-.155-1.574-1.143-2.949-2.594-3.612-.227-.1-.465-.171-.71-.213-.087-.012-.176-.012-.263 0 0 .04.35.079.918.355.795.402 1.45 1.033 1.875 1.81.289.532.466 1.115.52 1.716.042.685-.107 1.369-.432 1.976-.747 1.428-2.223 2.337-3.847 2.371-1.617-.057-3.082-.96-3.848-2.371-.645-1.148-.645-2.544 0-3.691.447-.764 1.085-1.401 1.852-1.85.51-.395.822-.514.806-.538z" transform="translate(379.972 195.232)"/>
            <path fill="#E0E0E0" d="M17.29 8.695c-.064 0-.183-.53-.566-1.313-.973-2.08-2.888-3.576-5.157-4.03-.862-.19-1.421-.182-1.421-.246.478-.134.983-.15 1.469-.047 2.434.324 4.496 1.936 5.38 4.205.219.444.32.937.295 1.43zM3.313 31.537s-.104 0-.216-.197c-.147-.236-.199-.519-.143-.79.091-.45.362-.843.75-1.091.486-.294.99-.558 1.509-.79.595-.275.995-.846 1.045-1.495-.034-.768-.17-1.528-.407-2.26-.116-.433-.16-.882-.127-1.328.04-.487.239-.947.566-1.312.722-.664 1.609-1.126 2.57-1.336.888-.184 1.694-.644 2.3-1.312.412-.719.545-1.562.375-2.371-.126-.784-.18-1.578-.16-2.372.145-1.729.974-3.331 2.307-4.457.209-.18.436-.336.679-.467.077-.056.163-.099.255-.126 0 0-.32.237-.798.711-.697.669-1.241 1.477-1.597 2.371-.252.623-.4 1.283-.439 1.953-.004.776.063 1.551.2 2.316.195.907.041 1.854-.431 2.655-.649.747-1.526 1.264-2.499 1.47-.892.192-1.717.612-2.395 1.218-.504.654-.642 1.515-.367 2.292.238.769.365 1.567.375 2.371-.032.39-.179.76-.423 1.067-.22.267-.49.487-.798.648-.521.238-1.03.502-1.525.79-.351.209-.608.543-.718.933-.1.305-.058.637.112.91zM24.994 15.998c-.072 0-.12-.64-.44-1.58-.822-2.559-2.85-4.56-5.436-5.368-.974-.316-1.596-.363-1.596-.435.57-.082 1.153-.03 1.7.15 2.77.692 4.934 2.832 5.636 5.573.17.536.217 1.104.136 1.66z" transform="translate(379.972 195.232)"/>
            <path fill="#E0E0E0" d="M29.895 13.358c-.3-.65-.652-1.273-1.054-1.865-1.057-1.361-2.512-2.366-4.167-2.878-1.672-.473-3.422-.61-5.149-.403-1.333.143-2.155.324-2.17.261.677-.289 1.396-.473 2.13-.545 1.77-.304 3.586-.201 5.309.3 1.74.526 3.25 1.618 4.287 3.099.306.445.545.933.71 1.446.075.186.11.385.104.585z" transform="translate(379.972 195.232)"/>
            <path fill="#263238" d="M19.278 7.153c.04 0-.152.395-.623.878-1.266 1.235-3.018 1.857-4.79 1.699-.67-.08-1.06-.245-1.045-.292 1.184.057 2.369-.085 3.504-.42 1.081-.458 2.079-1.088 2.954-1.865zM23.549 118.42c-14.616-4.79-4.59-23.934-4.59-23.934l63.86 5.952c2.463-.02 4.83.936 6.578 2.653 1.747 1.717 2.73 4.054 2.73 6.492.002 2.428-.97 4.757-2.705 6.474-1.734 1.717-4.086 2.68-6.539 2.679l-59.35-.316" transform="translate(379.972 195.232)"/>
            <path fill="#263238" d="M8.597 118.404c-14.24-4.743-4.43-23.926-4.43-23.926l62.264 5.817c6.083.08 9.053 2.98 9.053 9.13 0 5.05-1.9 9.31-9.037 9.168l-57.866-.19" transform="translate(379.972 195.232)"/>
            <path fill="#455A64" d="M23.054 97.719h.694l1.996.087 7.328.355 24.163 1.312c1.182.056 2.347.158 3.497.174 1.15.016 2.29.064 3.4.135 1.11.07 2.211.15 3.281.26 1.062.069 2.11.282 3.113.633.967.367 1.847.927 2.587 1.644.713.705 1.258 1.558 1.596 2.498.312.872.526 1.776.639 2.695.116.846.175 1.699.175 2.553.03 1.47-.242 2.93-.798 4.292-.433 1.006-1.097 1.9-1.94 2.608-.516.441-1.116.777-1.764.988-.439.143-.447.095 0-.063.625-.234 1.202-.58 1.7-1.02.809-.713 1.442-1.6 1.853-2.592.537-1.34.795-2.772.758-4.213-.004-.841-.065-1.68-.184-2.514-.117-.898-.333-1.78-.646-2.632-.325-.89-.843-1.7-1.517-2.37-.71-.697-1.562-1.236-2.499-1.582-.98-.339-2.004-.543-3.04-.608-1.063-.111-2.156-.19-3.266-.253-1.11-.063-2.243-.11-3.392-.127-1.15-.016-2.315-.118-3.497-.174L33.12 98.398l-7.32-.466-1.988-.142-.519-.048c-.08.003-.16-.005-.24-.023z" transform="translate(379.972 195.232)"/>
            <path fill="#D74C41" d="M45.198 98.96l-5.125-2.482-3.56-11.77-.344-15.017 7.232-3.02-5.739-14.267c-1.046-2.11-3.153-7.698-8.59-9.54-.085-.795-.023-1.599.184-2.371.431-.696-13.235-1.115-14.01-.838-.774.277.12 2.75 0 3.162-4.853 1.328-9.578 3.304-11.35 9.927-.687 2.577-.463 8.015-.088 10.64l3.8 19.862-2.132 6.521s-7.464 15.39-4.638 21.412c2.826 6.023 7.648 7.367 7.648 7.367l37.183-.071-.471-19.515z" transform="translate(379.972 195.232)"/>
            <path fill="#000" d="M7.879 75.405c.7 3.187 1.611 6.324 2.73 9.39.713 1.947 1.72 3.775 2.985 5.423 1.884 2.145 4.395 3.659 7.185 4.331 2.771.666 5.645.806 8.47.411l-14.074-7.904L11.43 74.18 7.88 75.405z" opacity=".3" transform="translate(379.972 195.232)"/>
            <path fill="#263238" d="M36.496 84.297c-.056-.353-.088-.71-.095-1.067-.04-.743-.088-1.723-.144-2.9-.104-2.459-.231-5.842-.343-9.588-.112-3.747-.2-7.114-.24-9.588 0-1.185 0-2.166-.04-2.909-.019-.356-.005-.713.04-1.067.063.35.095.704.096 1.06.04.743.088 1.723.144 2.9.104 2.459.231 5.85.343 9.596.112 3.747.2 7.114.24 9.588v2.908c.032.355.032.713 0 1.067zM22.726 70.268c-.08.045-.166.08-.255.102l-.798.285-3.066 1.075-11.223 3.833-.184.064v-.19c-.798-4.047-1.652-8.774-2.618-13.88-.152-2.513-.655-5.145-.439-7.904.092-.667.275-1.318.543-1.936.247-.614.56-1.2.934-1.747.745-1.075 1.764-1.937 2.953-2.498 2.281-1.143 5.028-.85 7.01.751.805.811 1.44 1.773 1.867 2.83.43.967.798 1.96 1.102 2.972.59 1.944 1.037 3.786 1.484 5.47l2.036 7.903c.223.902.407 1.62.535 2.142.056.222.096.404.127.546.032.142.04.182 0 .182-.026-.064-.047-.13-.063-.198-.048-.147-.104-.337-.168-.569-.152-.522-.36-1.241-.615-2.158-.527-1.889-1.26-4.56-2.179-7.849-.455-1.644-.918-3.477-1.517-5.406-.308-.996-.676-1.972-1.101-2.925-.415-1.006-1.025-1.922-1.796-2.695-1.866-1.484-4.437-1.747-6.57-.672-1.128.53-2.093 1.349-2.794 2.371-.358.522-.655 1.081-.886 1.668-.261.584-.436 1.201-.519 1.834-.215 2.664.28 5.296.431 7.849.942 5.114 1.812 9.84 2.555 13.887l-.224-.126 11.176-3.644 3.129-.996.838-.26.295-.111z" transform="translate(379.972 195.232)"/>
            <path fill="#263238" d="M11.535 73.943c-.112 0-.407-.577-.663-1.367-.255-.79-.375-1.463-.263-1.494.112-.032.407.577.662 1.367.256.79.376 1.462.264 1.494zM15.167 72.916c-.112 0-.36-.57-.543-1.328-.183-.76-.255-1.407-.144-1.431.112-.024.36.57.543 1.336.184.767.288 1.399.144 1.423zM18.887 71.611c-.104 0-.351-.458-.543-1.09-.192-.633-.255-1.178-.152-1.21.104-.031.36.459.551 1.091.192.632.256 1.178.144 1.21zM38.883 68.576c-.095.063-.519-.466-.798-1.225-.28-.759-.335-1.43-.223-1.446.111-.016.327.577.606 1.304.28.727.511 1.312.415 1.367zM41.661 67.02c-.104.046-.439-.404-.75-1.013-.311-.608-.48-1.154-.375-1.201.103-.048.439.403.75 1.012.311.608.479 1.154.375 1.201zM17.394 43.473s.064.134.072.355h-.216c-.129-.62-.214-1.249-.255-1.88-.134-.746-.134-1.508 0-2.253.262.711.394 1.463.391 2.22.064.628.085 1.26.064 1.89h-.216c.072-.23.12-.332.16-.332zM20.755 43.473c-.363-1.196-.459-2.456-.28-3.692.253.576.373 1.2.352 1.826.113.62.089 1.256-.072 1.866zM24.195 44.208c-.219-.717-.3-1.467-.24-2.213-.075-.745-.015-1.497.176-2.221.215.717.296 1.467.24 2.213.076.745.016 1.497-.176 2.22zM27.037 43.741c-.202-.608-.273-1.252-.207-1.889-.065-.64.006-1.285.207-1.897.206.61.277 1.258.208 1.897.07.637-.001 1.282-.208 1.89zM45.437 99.386c0 .111-6.945-.26-15.478-.837-8.534-.577-15.463-1.139-15.455-1.25.008-.11 6.937.262 15.479.839 8.541.577 15.462 1.13 15.454 1.248z" transform="translate(379.972 195.232)"/>
            <path fill="#FFBE9D" d="M9.58 74.884l3.424 11.065c1.221 4.131 4.678 7.236 8.948 8.039l21.282 4 5.787-.182-1.971-4.893-19.821-7.762c-1.557-.362-2.784-1.544-3.193-3.075l-2.994-11.113-11.463 3.92z" transform="translate(379.972 195.232)"/>
            <path fill="#455A64" d="M28.354 98.114L28.53 96.746 44.886 96.114 52.909 76.077 83.474 78.132 73.161 100.374z" transform="translate(379.972 195.232)"/>
            <path fill="#FFF" d="M64.939 89.072c-.475.734-1.46.95-2.202.482-.743-.468-.963-1.442-.493-2.179.47-.737 1.455-.957 2.2-.493.36.224.614.582.707.993.093.41.017.842-.212 1.197z" transform="translate(379.972 195.232)"/>
        </g>
        <g fill-rule="nonzero">
            <path fill="#263238" d="M94.522 118.633c13.323-4.79 6.482-24.685 6.482-24.685l-67.613 6.134c-2.536-.013-4.972.976-6.77 2.747-1.798 1.772-2.809 4.18-2.809 6.69 0 5.213 4.267 9.438 9.531 9.438l61.195-.324" transform="translate(91.8 30.826)"/>
            <path fill="#3A3847" d="M7.464 173.717l-.136-6.632 12.86-4.529.527 9.248-.719.34c-3.233 1.518-16.524 7.461-19.006 7.683-2.77.253 6.474-6.11 6.474-6.11z" transform="translate(91.8 30.826)"/>
            <path fill="#FFF" d="M3.017 177.005s-3.145 2.45-2.458 2.853c.686.403 14.368-5.106 20.156-8.054l-.128-.26-15.885 6.56s-.974-1.352-1.685-1.099z" opacity=".4" transform="translate(91.8 30.826)"/>
            <path fill="#263238" d="M20.755 171.464l-.192.103-.575.277-2.139.964c-1.812.79-4.326 1.889-7.128 3.02-2.802 1.13-5.373 2.102-7.233 2.781l-2.21.79-.607.206-.216.056.2-.087.598-.23 2.195-.837c1.852-.704 4.407-1.692 7.185-2.822 2.778-1.13 5.324-2.197 7.144-2.972l2.156-.925.59-.253c.073-.036.151-.06.232-.07z" transform="translate(91.8 30.826)"/>
            <path fill="#263238" d="M4.79 178.285c-.233-.316-.5-.605-.799-.861-.339-.215-.7-.392-1.077-.53.428-.014.846.13 1.173.403.35.233.6.585.703.988zM7.583 175.092s-.27-.103-.558-.308c-.288-.206-.503-.387-.48-.427.21.058.403.16.568.3.287.206.494.396.47.435zM8.35 174.191c0 .04-.256 0-.543-.11-.287-.111-.495-.214-.479-.253.016-.04.255 0 .535.11s.495.214.487.253zM8.501 172.824c0 .04-.247.19-.59.332-.202.109-.425.174-.655.19 0-.04.248-.19.59-.333.203-.109.426-.174.655-.19zM8.382 171.954s-.216.285-.615.482c-.24.145-.519.212-.798.19.223-.126.455-.237.694-.332.228-.137.468-.25.719-.34z" transform="translate(91.8 30.826)"/>
            <path fill="#263238" d="M6.753 174.223c-.245.146-.516.248-.798.3-.292.08-.592.13-.894.15-.183.02-.368.02-.55 0-.114-.014-.217-.07-.288-.158-.072-.108-.072-.248 0-.356.486-.538 1.289-.66 1.916-.292.179.104.334.244.455.411.087.119.111.19.103.198-.171-.207-.38-.381-.614-.514-.247-.124-.523-.179-.799-.158-.344.022-.666.178-.894.435-.08.134 0 .26.192.284.17.02.341.02.51 0 .293-.016.584-.053.871-.11.487-.103.782-.214.79-.19z" transform="translate(91.8 30.826)"/>
            <path fill="#263238" d="M6.57 174.333s-.2-.134-.304-.49c-.05-.21-.05-.43 0-.64.043-.283.225-.527.487-.648.177-.025.344.088.383.26.028.128.028.26 0 .388-.034.21-.092.413-.175.609-.066.184-.172.351-.311.49 0 0 .095-.198.207-.53.064-.19.11-.386.136-.585.04-.205 0-.521-.216-.482-.215.04-.32.332-.375.53-.043.192-.043.392 0 .585.041.175.097.347.168.513zM19.198 168.358c-.297.113-.587.242-.87.387-.67.37-1.223.917-1.596 1.581-.37.665-.549 1.416-.52 2.174 0 .577.152.924.128.932-.024.008-.055-.079-.103-.237-.067-.224-.11-.454-.128-.687-.071-.784.095-1.572.479-2.261.393-.682.982-1.232 1.692-1.58.213-.11.438-.195.67-.254.08-.031.163-.05.248-.055zM15.965 163.884c.414.77.785 1.561 1.11 2.371.366.798.686 1.616.958 2.45-.415-.767-.783-1.56-1.102-2.37-.37-.798-.693-1.616-.966-2.45zM14.369 172.91c-.52.358-1.084.65-1.677.87-.577.265-1.186.457-1.812.57 0-.04.799-.31 1.748-.712.95-.403 1.74-.767 1.74-.727z" transform="translate(91.8 30.826)"/>
            <path fill="#263238" d="M16.7 171.954c.04 0 0 .19 0 .403v.396c0 .007-.136-.159-.128-.404.008-.245.096-.41.128-.395zM17.139 170.516c.04 0 0 .166-.064.34-.064.173-.16.3-.2.284-.04-.016 0-.166.056-.34.056-.174.168-.3.208-.284zM18.2 169.504c0 .047-.151.11-.303.237s-.24.277-.28.26c-.04-.015 0-.213.176-.378.176-.166.4-.159.407-.12zM18.999 168.903s0 .127-.096.198c-.096.071-.176.118-.2.087-.024-.032 0-.119.096-.198.096-.079.176-.11.2-.087z" transform="translate(91.8 30.826)"/>
            <path fill="#263238" d="M59.071 99.181l-37.757.703c-6.037.11-11.072 4.603-11.807 10.537L2.02 170.674h20.507l6.258-52.041H58.56l.511-19.452z" transform="translate(91.8 30.826)"/>
            <path fill="#455A64" d="M2.283 166.84c0 .095 4.486.206 10.034.237 5.548.032 9.939-.102 10.034-.11.63-.064-4.494-.206-10.034-.237-5.54-.032-10.034.047-10.034.11zM79.826 97.284c-.06-.009-.123-.009-.183 0h-.551l-2.124.087-7.807.363-25.744 1.32c-1.26.056-2.506.159-3.727.174-1.222.016-2.435.072-3.625.135-1.189.063-2.354.15-3.488.268-1.13.068-2.246.28-3.32.633-1.022.369-1.96.933-2.763 1.66-.738.707-1.308 1.568-1.668 2.521-.334.877-.565 1.79-.687 2.72-.12.853-.178 1.714-.175 2.576-.028 1.489.27 2.966.87 4.331.468 1.03 1.176 1.935 2.067 2.64.56.442 1.195.78 1.876.996.471.135.48.095 0-.063-.663-.237-1.279-.588-1.82-1.035-.853-.71-1.528-1.605-1.971-2.617-.568-1.345-.84-2.795-.799-4.252.006-.85.072-1.697.2-2.537.12-.91.35-1.802.686-2.656.346-.91.892-1.734 1.597-2.41.772-.7 1.68-1.238 2.666-1.582 1.05-.34 2.139-.545 3.241-.608 1.134-.111 2.291-.19 3.472-.253 1.182-.064 2.395-.11 3.617-.127 1.22-.016 2.466-.118 3.727-.174l25.744-1.422 7.8-.475 2.123-.142.55-.047c.073.002.146-.006.216-.024z" transform="translate(91.8 30.826)"/>
            <path fill="#B78876" d="M67.852 72.291l-3.28 10.18c-1.28 4.224-4.84 7.383-9.22 8.181L36.28 95.885l-1.485-3.494-1.397-5.169 16.5-5.533c1.62-.354 2.905-1.574 3.33-3.162l6.569-14.148 8.318 5.05-.264 2.862z" transform="translate(91.8 30.826)"/>
            <path fill="#F2AA47" d="M75.835 40.438c-6.985.79-9.228 3.62-12.086 7.706-1.178 1.695-2.126 3.537-2.818 5.478L55.64 68.466l11.04 3.375-.423 12.117-5.03 14.757 42.412 3.304-.12-21.444-.303-12.94c.4-4.9 1.429-15.294.551-17.752-3.776-10.536-12.102-8.513-18.208-10.015-2.798-.284-5.617-.284-8.414 0" transform="translate(91.8 30.826)"/>
            <path fill="#FAFAFA" d="M103.67 79.223c0 .11-8.294.206-18.527.206-10.234 0-18.536-.095-18.536-.206 0-.11 8.302-.205 18.536-.205 10.233 0 18.527.086 18.527.205zM103.048 86.55c0 .119-8.294.206-18.528.206-10.234 0-18.528-.087-18.528-.206 0-.118 8.294-.205 18.528-.205 10.234 0 18.528.095 18.528.205zM103.247 94.96c0 .119-8.78.206-19.597.206-10.817 0-19.59-.087-19.59-.206 0-.118 8.781-.205 19.59-.205 10.808 0 19.597.094 19.597.205z" transform="translate(91.8 30.826)"/>
            <path fill="#000" d="M98.098 74.536c-.558 2.837-.798 5.904-1.772 8.631-.646 2.037-1.601 3.964-2.834 5.715-1.844 2.276-4.353 3.932-7.184 4.742-2.802.854-16.269 3.842-19.158 3.62l24.634-11.547 2.97-12.141 3.344.98z" opacity=".3" transform="translate(91.8 30.826)"/>
            <path fill="#B78876" d="M96.661 74.11l-2.714 10.322c-1.06 4.318-4.483 7.68-8.852 8.694l-21.753 5.051-5.971.063v-8.133l21.888-5.849c1.608-.423 2.841-1.702 3.193-3.312l2.108-9.074L96.66 74.11z" transform="translate(91.8 30.826)"/>
            <path fill="#FAFAFA" d="M103.886 49.266c0 .111-9.14.206-20.42.206-11.28 0-20.42-.095-20.42-.206 0-.11 9.14-.205 20.42-.205 11.28 0 20.42.095 20.42.205zM104.141 56.262c0 .11-9.85.205-22.008.205-12.157 0-22.008-.095-22.008-.205 0-.111 9.85-.206 22.008-.206s22.008.063 22.008.206zM103.566 63.826c0 .118-10.377.284-23.15.387-12.771.103-23.149.087-23.149 0s10.378-.292 23.15-.387c12.772-.095 23.15-.11 23.15 0zM103.247 71.84c0 .111-8.294.206-18.528.206-10.233 0-18.527-.095-18.527-.205 0-.111 8.294-.206 18.527-.206 10.234 0 18.528.087 18.528.206z" transform="translate(91.8 30.826)"/>
            <path fill="#263238" d="M100.381 74.97c-.003-.057-.003-.115 0-.173l.072-.498c.072-.467.168-1.107.296-1.92.263-1.669.646-4.095 1.07-7.115.422-3.019.91-6.702 1.149-10.828.088-2.04.255-4.3-.799-6.324-.523-1.01-1.294-1.875-2.243-2.513-.988-.656-2.111-1.086-3.289-1.257h-.047c-1.344-.317-2.753-.22-4.04.277-1.362.433-2.63 1.117-3.735 2.015-.217.186-.407.398-.567.633-.157.254-.298.518-.423.79-.245.538-.45 1.093-.615 1.66-.307 1.132-.553 2.28-.734 3.438-.415 2.285-.799 4.513-1.206 6.656-.798 4.284-1.492 8.236-2.131 11.737l-.12-.182 12.277 2.6 3.377.744.878.205c.104.019.206.048.303.087-.103.01-.207.01-.31 0l-.895-.158-3.393-.656-12.325-2.466h-.151v-.158c.614-3.502 1.317-7.47 2.075-11.753.383-2.15.777-4.371 1.182-6.664.184-1.171.432-2.332.742-3.477.168-.588.381-1.161.639-1.716.135-.276.279-.553.439-.79.183-.27.404-.516.654-.727 1.152-.934 2.47-1.645 3.888-2.095 1.37-.52 2.87-.61 4.294-.26h-.048c1.246.176 2.434.633 3.473 1.335 1.014.672 1.838 1.589 2.395 2.664.255.506.46 1.036.614 1.58.132.549.218 1.106.256 1.668l.048.79v.791c0 .538-.04 1.06-.072 1.581-.272 4.15-.798 7.801-1.245 10.837-.447 3.035-.887 5.47-1.19 7.113-.16.79-.28 1.447-.367 1.913l-.104.49c-.019.045-.043.087-.072.127zM66.535 83.784c.047-.365.066-.732.056-1.099v-3.004c0-2.529 0-6.03-.072-9.888-.072-3.857-.112-7.358-.176-9.888 0-1.225-.063-2.237-.087-3.003.002-.368-.028-.736-.088-1.099-.047.364-.066.732-.056 1.099v3.003c0 2.53 0 6.023.072 9.888.072 3.866.112 7.36.175 9.896.04 1.218.064 2.23.088 2.996-.002.368.028.736.088 1.099z" transform="translate(91.8 30.826)"/>
            <path fill="#455A64" d="M79.85 99.971L80.225 98.209 63.757 96.47 56.573 76.03 23.03 75.808 34.022 99.505z" transform="translate(91.8 30.826)"/>
            <path fill="#FFF" d="M44.519 88.874c.566-.353.861-1.01.747-1.662-.113-.653-.613-1.174-1.266-1.319-.653-.145-1.33.114-1.714.656-.385.542-.401 1.26-.042 1.82.233.366.604.625 1.031.72.427.095.875.018 1.244-.215" transform="translate(91.8 30.826)"/>
            <path fill="#263238" d="M67.35 6.805c-1.854.284-3.329 1.689-3.686 3.511-.358 1.823.478 3.672 2.089 4.623.657.452 1.498.55 2.243.26.622-.396 1.059-1.022 1.213-1.738.69-2.25.5-4.674-.535-6.79" transform="translate(91.8 30.826)"/>
            <path fill="#B78876" d="M81.191 47.148c-1.915 0-3.75-.757-5.1-2.103-1.349-1.346-2.1-3.17-2.084-5.066 0-2.458.072-4.592.072-4.592s-5.756-.53-6.17-6.165c-.416-5.636-.248-18.646-.248-18.646 6.427-3.215 14.11-2.725 20.068 1.28l.886.593-.271 27.664C88.3 44 85.116 47.131 81.19 47.148z" transform="translate(91.8 30.826)"/>
            <path fill="#AA6550" d="M74.087 35.308c2.647-.104 5.202-.99 7.336-2.545 0 0-1.501 4.165-7.185 4.007l-.151-1.462z" transform="translate(91.8 30.826)"/>
            <path fill="#B78876" d="M87.146 18.662c.104 0 3.6-.49 3.273 3.604-.327 4.094-4.39 2.371-4.39 2.284 0-.087 1.117-5.888 1.117-5.888z" transform="translate(91.8 30.826)"/>
            <path fill="#AA6550" d="M87.41 23.214s.071.056.183.127c.169.083.363.1.543.047.572-.296.936-.878.95-1.517.038-.35-.003-.704-.12-1.036-.053-.266-.24-.487-.495-.585-.168-.059-.355.007-.447.158-.064.111-.04.198-.064.198s-.08-.071-.04-.237c.032-.1.097-.186.184-.245.121-.076.267-.102.407-.071.342.093.609.357.703.695.144.367.198.763.16 1.154-.018.75-.491 1.415-1.198 1.684-.229.043-.465-.015-.647-.158-.12-.11-.135-.206-.12-.214z" transform="translate(91.8 30.826)"/>
            <path fill="#263238" d="M71.62 12.907c.956-.55 1.855-1.193 2.682-1.92.702 1.09 1.862 1.812 3.16 1.966 1.297.153 2.596-.279 3.538-1.176.046.745.47 1.417 1.125 1.786.66.356 1.456.356 2.115 0l.088 6.521c-.058.63.088 1.26.415 1.803.177.252.458.414.767.44.309.026.613-.086.83-.306-.133-.796-.056-1.613.223-2.371.338-.783 1.242-1.16 2.044-.854.236-1.272.314-2.567.231-3.857-.009-.402.048-.802.168-1.186.224-.356.327-.079.742-.166 1.237-.312 2.133-1.372 2.228-2.632.045-1.254-.557-2.445-1.597-3.162-1.033-.702-2.293-1-3.536-.837.764-.846.764-2.126 0-2.972-.785-.806-1.901-1.208-3.026-1.091-1.101.063-2.346.672-2.482 1.763C81.05 2.453 79.188.783 76.947.722c-2.242-.06-4.195 1.505-4.6 3.689-1.326-.585-3.194-1.226-4.503-.633-1.573.617-2.642 2.082-2.738 3.755 0 0-.335 4.473 2.523 5.374 2.857.902 3.991 0 3.991 0zM69.193 19.602c0 .437.358.79.799.79.414.002.76-.31.798-.719 0-.436-.358-.79-.798-.79-.415-.002-.761.31-.799.72zM69.018 18.71c.095.102.702-.34 1.596-.333.894.008 1.485.427 1.597.316.111-.11-.056-.229-.336-.427-.752-.52-1.753-.52-2.506 0-.311.214-.4.396-.351.443zM77.607 19.8c0 .436.357.79.798.79.412.002.757-.306.798-.711 0-.437-.357-.79-.798-.79-.411-.003-.757.305-.798.71z" transform="translate(91.8 30.826)"/>
            <path fill="#263238" d="M77.431 18.867c.096.103.703-.34 1.597-.332.894.008 1.493.427 1.596.324.104-.103-.056-.237-.335-.434-.37-.255-.81-.39-1.261-.388-.448 0-.885.14-1.245.403-.28.198-.352.388-.352.427zM74.342 25.183c-.452-.148-.922-.233-1.397-.253-.215 0-.423-.064-.463-.214-.017-.225.033-.45.144-.648l.654-1.652c.602-1.4 1.088-2.846 1.453-4.323-.714 1.348-1.317 2.752-1.804 4.197l-.623 1.667c-.136.263-.175.565-.111.854.066.153.198.269.359.316.123.03.249.045.375.048.469.06.944.062 1.413.008zM76.873 25.767c-.144 0-.144.917-.942 1.581-.799.664-1.789.554-1.796.68-.008.126.223.182.638.19.546.008 1.077-.174 1.5-.514.406-.33.667-.803.727-1.32.04-.395-.064-.624-.127-.617zM77.24 15.54c.08.229.942.118 1.948.237 1.005.118 1.828.395 1.955.19.128-.206-.08-.317-.407-.546-.437-.278-.935-.449-1.453-.498-.515-.066-1.038-.006-1.524.174-.328.15-.56.332-.52.443zM69.329 16.25c.152.19.742 0 1.46 0 .72 0 1.31.127 1.454-.07.143-.198-.04-.293-.304-.475-.72-.457-1.649-.429-2.339.072-.255.181-.335.379-.271.474z" transform="translate(91.8 30.826)"/>
            <path fill="#455A64" d="M70.965 6.537s-.08-.04-.223-.071c-.266-.03-.53.075-.702.278-.172.204-.229.48-.152.733.12.425.437.768.854.925.5.193 1.06.158 1.533-.095.531-.312.877-.86.926-1.47.065-.673-.203-1.336-.719-1.778-.546-.496-1.284-.73-2.02-.64-.741.09-1.429.43-1.947.964-.48.504-.806 1.13-.942 1.81-.23 1.178-.024 2.399.583 3.438.41.708.968 1.322 1.636 1.802.47.332.798.474.758.506-.305-.072-.594-.198-.854-.371-.73-.448-1.343-1.06-1.788-1.787-.692-1.088-.945-2.394-.71-3.66.142-.755.496-1.457 1.021-2.023.585-.605 1.364-.99 2.204-1.09.858-.085 1.711.203 2.339.79.594.541.89 1.332.798 2.126-.079.723-.504 1.364-1.142 1.723-.567.287-1.234.31-1.82.063-.484-.208-.842-.63-.966-1.138-.101-.396.058-.813.4-1.043.206-.144.47-.182.71-.103.184.024.231.103.223.11z" transform="translate(91.8 30.826)"/>
        </g>
    </g>
</svg>
