<svg xmlns="http://www.w3.org/2000/svg" width="156" height="164" viewBox="0 0 156 164">
    <g fill="none" fill-rule="evenodd">
        <g>
            <g>
                <g>
                    <path fill="#000" d="M0 4L154 4 154 0 0 0z" transform="translate(-153 -454) translate(154 454)"/>
                    <path fill="#FFF" stroke="#000" stroke-width=".4" d="M0 163L154 163 154 3 0 3z" transform="translate(-153 -454) translate(154 454)"/>
                    <path fill="#252F3E" fill-rule="nonzero" d="M13.008 148l1.055-2.725h3.433L18.563 148h1.03l-3.368-8.602h-.838L12 148h1.008zm4.178-3.621h-2.772l1.008-2.654c.16-.45.283-.862.369-1.237.137.489.27.9.398 1.237l.997 2.654zm5.5 3.621l1.675-5.701c.187-.613.324-1.178.41-1.694.004.079.057.311.158.698.102.386.194.707.276.96L26.933 148h.985l2.29-8.566h-1.054l-1.348 5.279c-.207.797-.347 1.473-.422 2.027-.129-.761-.287-1.445-.474-2.05l-1.612-5.256h-1.054l-1.535 5.209c-.207.683-.364 1.382-.47 2.097-.085-.601-.222-1.273-.41-2.015l-1.353-5.291h-1.055l2.28 8.566h.984zm10.801.117c.938 0 1.68-.21 2.227-.633.547-.422.82-1.01.82-1.763 0-.586-.169-1.063-.506-1.43-.338-.367-.957-.71-1.855-1.031-.535-.192-.933-.366-1.192-.525-.26-.158-.445-.332-.554-.521-.11-.19-.164-.433-.164-.73 0-.402.148-.716.445-.943.297-.227.71-.34 1.237-.34.667 0 1.355.149 2.062.445l.31-.867c-.714-.312-1.497-.468-2.349-.468-.816 0-1.473.195-1.969.585-.496.391-.744.917-.744 1.577 0 .629.171 1.138.513 1.529.342.39.91.728 1.708 1.014.57.203.995.384 1.274.545.28.16.479.335.598.524.119.19.179.433.179.73 0 .449-.168.8-.504 1.051-.336.252-.836.378-1.5.378-.407 0-.817-.043-1.23-.129-.415-.086-.798-.203-1.15-.351v.96c.548.262 1.329.393 2.344.393zm10.004 0c.937 0 1.68-.21 2.226-.633.547-.422.82-1.01.82-1.763 0-.586-.168-1.063-.506-1.43-.338-.367-.956-.71-1.855-1.031-.535-.192-.932-.366-1.192-.525-.26-.158-.445-.332-.554-.521-.11-.19-.164-.433-.164-.73 0-.402.148-.716.445-.943.297-.227.71-.34 1.237-.34.668 0 1.355.149 2.062.445l.31-.867c-.714-.312-1.497-.468-2.349-.468-.816 0-1.473.195-1.969.585-.496.391-.744.917-.744 1.577 0 .629.171 1.138.513 1.529.342.39.911.728 1.708 1.014.57.203.995.384 1.274.545.28.16.479.335.598.524.12.19.179.433.179.73 0 .449-.168.8-.504 1.051-.336.252-.836.378-1.5.378-.406 0-.817-.043-1.23-.129-.415-.086-.798-.203-1.15-.351v.96c.548.262 1.329.393 2.345.393zm4.743 2.766c.532 0 .98-.152 1.345-.454.365-.303.685-.816.958-1.538l2.76-7.313h-1.043c-.899 2.484-1.429 3.968-1.59 4.45-.163.483-.27.824-.32 1.023h-.047c-.074-.371-.266-.975-.574-1.81l-1.407-3.663h-1.043l2.59 6.457-.357.914c-.285.75-.762 1.125-1.43 1.125-.265 0-.506-.023-.72-.07v.78c.289.066.581.099.878.099zm7.855-2.766c.805 0 1.43-.162 1.875-.486.446-.324.668-.785.668-1.383 0-.426-.133-.78-.4-1.06-.269-.282-.783-.561-1.545-.838-.555-.207-.93-.366-1.125-.475-.195-.11-.337-.225-.425-.346-.088-.12-.132-.267-.132-.44 0-.253.118-.452.352-.597.234-.144.582-.217 1.043-.217.523 0 1.107.133 1.752.399l.346-.791c-.66-.281-1.336-.422-2.028-.422-.742 0-1.326.151-1.752.454-.425.303-.638.716-.638 1.24 0 .292.061.544.184.755.123.211.31.4.563.566.252.166.677.36 1.274.583.63.242 1.052.452 1.269.63.217.177.325.391.325.641 0 .332-.137.58-.41.741-.274.162-.664.243-1.172.243-.328 0-.67-.044-1.023-.134-.353-.09-.684-.213-.993-.37v.903c.477.27 1.14.404 1.992.404zm6.209 0c.164 0 .349-.016.554-.05.205-.033.36-.075.466-.126v-.744c-.094.028-.221.054-.381.08-.16.025-.326.037-.498.037-.32 0-.573-.103-.756-.31-.184-.207-.276-.504-.276-.89v-3.78h1.864v-.756h-1.864v-1.488h-.562l-.41 1.37-.92.405v.469h.92v3.82c0 1.309.62 1.963 1.863 1.963zm5.166 0c.433 0 .803-.032 1.11-.096.307-.065.632-.171.976-.32v-.867c-.676.289-1.36.434-2.051.434-.656 0-1.165-.196-1.527-.586-.36-.391-.551-.963-.57-1.717h4.423v-.615c0-.868-.234-1.566-.703-2.095-.469-.53-1.106-.794-1.91-.794-.86 0-1.544.305-2.054.914-.51.61-.765 1.432-.765 2.467 0 1.027.275 1.83.824 2.408.548.578 1.297.867 2.247.867zm1.318-3.943h-3.357c.054-.594.235-1.059.542-1.395.306-.336.717-.504 1.233-.504.508 0 .898.163 1.172.49.273.326.41.796.41 1.409zM72.606 148v-3.37c0-.831.141-1.43.425-1.795.283-.365.73-.548 1.339-.548.464 0 .806.128 1.025.384.219.256.328.64.328 1.151V148h.973v-3.586c0-.723.144-1.258.433-1.605.29-.348.737-.522 1.342-.522.461 0 .8.128 1.02.384.218.256.328.64.328 1.151V148h.972v-4.19c0-.82-.18-1.416-.542-1.79-.36-.373-.905-.56-1.631-.56-.465 0-.88.099-1.243.294-.363.195-.64.46-.832.797h-.047c-.308-.727-.964-1.09-1.968-1.09-.414 0-.788.088-1.122.264-.334.175-.593.42-.777.732h-.047l-.158-.879h-.79V148h.972zm11.939.117c.805 0 1.43-.162 1.875-.486.445-.324.668-.785.668-1.383 0-.426-.134-.78-.401-1.06-.268-.282-.783-.561-1.544-.838-.555-.207-.93-.366-1.125-.475-.196-.11-.337-.225-.425-.346-.088-.12-.132-.267-.132-.44 0-.253.117-.452.352-.597.234-.144.582-.217 1.042-.217.524 0 1.108.133 1.752.399l.346-.791c-.66-.281-1.336-.422-2.027-.422-.742 0-1.326.151-1.752.454-.426.303-.639.716-.639 1.24 0 .292.062.544.185.755.123.211.31.4.562.566.252.166.677.36 1.275.583.629.242 1.051.452 1.268.63.217.177.325.391.325.641 0 .332-.136.58-.41.741-.273.162-.664.243-1.172.243-.328 0-.669-.044-1.022-.134-.354-.09-.685-.213-.993-.37v.903c.476.27 1.14.404 1.992.404zm8.609-.117v-5.45c0-.827-.028-1.542-.083-2.144h.047L96.025 148h.802l2.93-7.582h.047c-.055.742-.082 1.43-.082 2.062V148h.996v-8.566H99.23l-2.737 7.066h-.047l-2.712-7.066h-1.5V148h.92zm11.476.117c.476 0 .874-.071 1.192-.214.318-.142.638-.415.958-.817h.047l.193.914h.721v-4.383c0-.75-.185-1.295-.554-1.635-.369-.34-.936-.51-1.702-.51-.379 0-.757.05-1.134.147-.377.098-.723.233-1.04.404l.3.745c.675-.329 1.28-.493 1.816-.493.476 0 .823.12 1.04.36.216.241.325.613.325 1.117v.398l-1.09.036c-2.074.062-3.111.742-3.111 2.039 0 .605.18 1.072.542 1.4.36.328.86.492 1.497.492zm.193-.803c-.383 0-.68-.091-.894-.275-.212-.184-.319-.451-.319-.803 0-.449.171-.78.513-.993.342-.213.9-.333 1.673-.36l.972-.041v.58c0 .598-.172 1.062-.518 1.394-.346.332-.821.498-1.427.498zm6.045.686v-3.37c0-.835.156-1.435.468-1.798.313-.363.805-.545 1.477-.545.508 0 .88.129 1.119.387.238.258.357.648.357 1.172V148h.973v-4.19c0-.82-.195-1.416-.586-1.79-.39-.373-.972-.56-1.746-.56-.441 0-.842.088-1.201.262-.36.174-.639.419-.838.735h-.047l-.158-.879h-.791V148h.973zm8.1.117c.477 0 .875-.071 1.193-.214.318-.142.638-.415.958-.817h.047l.193.914h.721v-4.383c0-.75-.184-1.295-.554-1.635-.369-.34-.936-.51-1.702-.51-.379 0-.757.05-1.134.147-.377.098-.723.233-1.04.404l.3.745c.675-.329 1.28-.493 1.816-.493.476 0 .823.12 1.04.36.216.241.325.613.325 1.117v.398l-1.09.036c-2.074.062-3.111.742-3.111 2.039 0 .605.18 1.072.542 1.4.361.328.86.492 1.497.492zm.194-.803c-.383 0-.68-.091-.893-.275-.213-.184-.32-.451-.32-.803 0-.449.171-.78.513-.993.342-.213.9-.333 1.673-.36l.972-.041v.58c0 .598-.172 1.062-.518 1.394-.346.332-.821.498-1.427.498zm6.894 3.569c1.094 0 1.926-.187 2.496-.56.57-.373.856-.915.856-1.626 0-.558-.187-.984-.56-1.277-.373-.293-.907-.44-1.602-.44h-1.137c-.352 0-.6-.042-.744-.126-.145-.083-.217-.213-.217-.39 0-.331.207-.607.621-.825.168.03.348.047.54.047.75 0 1.339-.188 1.769-.563.43-.375.644-.877.644-1.506 0-.277-.043-.526-.129-.747-.086-.22-.183-.4-.293-.536l1.19-.14v-.616h-2.22c-.27-.078-.573-.117-.91-.117-.772 0-1.37.19-1.792.571-.422.381-.633.923-.633 1.626 0 .422.105.797.314 1.125.209.328.48.56.811.697-.27.165-.467.334-.592.51-.125.176-.187.381-.187.615 0 .208.056.39.167.545.111.157.249.272.413.346-.453.102-.805.295-1.055.58-.25.285-.375.623-.375 1.014 0 .57.228 1.012.683 1.324.455.313 1.102.469 1.942.469zm.282-5.883c-.454 0-.807-.115-1.061-.346-.254-.23-.38-.57-.38-1.02 0-.484.122-.849.368-1.095s.598-.37 1.055-.37c.96 0 1.441.483 1.441 1.448 0 .922-.474 1.383-1.423 1.383zm-.27 5.139c-.547 0-.967-.09-1.26-.27-.293-.18-.44-.443-.44-.79 0-.395.124-.698.37-.91.246-.21.59-.315 1.031-.315h1.166c.594 0 .998.067 1.213.202.215.134.322.376.322.723 0 .418-.196.75-.589.993-.392.245-.997.367-1.813.367zm7.603-2.022c.434 0 .804-.032 1.11-.096.307-.065.632-.171.976-.32v-.867c-.676.289-1.36.434-2.05.434-.657 0-1.166-.196-1.527-.586-.361-.391-.552-.963-.571-1.717h4.423v-.615c0-.868-.234-1.566-.703-2.095-.468-.53-1.105-.794-1.91-.794-.86 0-1.544.305-2.054.914-.51.61-.764 1.432-.764 2.467 0 1.027.274 1.83.823 2.408.549.578 1.298.867 2.247.867zm1.318-3.943h-3.357c.055-.594.235-1.059.542-1.395.307-.336.718-.504 1.233-.504.508 0 .899.163 1.172.49.274.326.41.796.41 1.409zm3.824 3.826v-3.445c0-.63.185-1.155.554-1.576.37-.422.813-.633 1.333-.633.203 0 .438.029.703.088l.135-.903c-.227-.047-.483-.07-.768-.07-.402 0-.771.113-1.107.34-.336.226-.623.549-.861.967h-.047l-.112-1.19h-.802V148h.972zM14.174 130v-3.37h1.008c1.101 0 1.948-.233 2.54-.7.591-.466.887-1.133.887-2 0-1.664-1.07-2.496-3.21-2.496h-2.221V130h.996zm.896-4.225h-.896v-3.48h1.113c.785 0 1.363.139 1.734.416.372.277.557.7.557 1.266 0 .628-.197 1.085-.592 1.37-.394.286-1.033.428-1.916.428zm7.603 4.342c.454 0 .857-.084 1.21-.252.354-.168.63-.41.83-.726h.052l.14.861h.804v-6.422h-.973v3.375c0 .832-.155 1.432-.466 1.799-.31.367-.802.55-1.474.55-.507 0-.88-.128-1.119-.386-.238-.258-.357-.648-.357-1.172v-4.166h-.984v4.201c0 .817.194 1.41.583 1.782.388.37.973.556 1.754.556zm8.236 0c.836 0 1.49-.292 1.96-.876.471-.584.706-1.403.706-2.458 0-1.054-.233-1.87-.7-2.446-.467-.576-1.122-.864-1.966-.864-.89 0-1.562.32-2.015.96h-.047c.031-.394.047-.84.047-1.335v-2.215h-.973V130h.697l.205-.826h.07c.235.32.525.557.87.712.347.154.728.231 1.146.231zm-.117-.814c-.664 0-1.146-.195-1.447-.583-.3-.389-.451-1.034-.451-1.937 0-.902.146-1.544.44-1.925.292-.38.77-.57 1.435-.57.613 0 1.066.204 1.36.614.292.41.439 1.034.439 1.87 0 .816-.147 1.442-.44 1.877-.293.436-.738.654-1.336.654zm5.605.697v-9.117h-.972V130h.972zm2.705-7.512c.156 0 .291-.053.404-.16.114-.108.17-.271.17-.49 0-.219-.056-.381-.17-.486-.113-.106-.248-.159-.404-.159-.164 0-.3.052-.41.156-.11.103-.164.266-.164.489 0 .219.054.382.164.49.11.107.246.16.41.16zm.48 7.512v-6.422h-.972V130h.972zm4.78.117c.652 0 1.193-.111 1.622-.334v-.861c-.562.23-1.111.346-1.646.346-.625 0-1.097-.211-1.415-.633-.319-.422-.478-1.028-.478-1.817 0-1.664.653-2.496 1.957-2.496.196 0 .42.029.674.085.254.057.488.128.703.214l.3-.826c-.177-.09-.419-.168-.727-.234-.309-.067-.618-.1-.926-.1-.957 0-1.695.293-2.212.879-.518.586-.776 1.416-.776 2.49 0 1.047.254 1.857.764 2.429.51.572 1.23.858 2.16.858zm8.497 0c.937 0 1.68-.21 2.226-.633.547-.422.82-1.01.82-1.763 0-.586-.168-1.063-.506-1.43-.338-.367-.956-.71-1.855-1.031-.535-.192-.932-.366-1.192-.525-.26-.158-.445-.332-.554-.521-.11-.19-.164-.433-.164-.73 0-.402.148-.716.445-.943.297-.227.71-.34 1.237-.34.668 0 1.355.149 2.062.445l.31-.867c-.714-.312-1.497-.468-2.349-.468-.816 0-1.473.195-1.969.585-.496.391-.744.916-.744 1.577 0 .629.171 1.138.513 1.529.342.39.911.728 1.708 1.014.57.203.995.384 1.274.545.28.16.479.335.598.524.12.19.179.433.179.73 0 .449-.168.8-.504 1.051-.336.252-.836.378-1.5.378-.407 0-.817-.043-1.23-.129-.415-.086-.798-.203-1.15-.351v.96c.548.262 1.329.393 2.345.393zm7.515 0c.433 0 .804-.032 1.11-.096.307-.065.632-.171.976-.32v-.867c-.676.289-1.36.434-2.051.434-.656 0-1.165-.196-1.526-.586-.362-.391-.552-.963-.572-1.717h4.424v-.615c0-.868-.234-1.566-.703-2.095-.469-.53-1.105-.794-1.91-.794-.86 0-1.544.305-2.054.914-.51.61-.764 1.432-.764 2.467 0 1.027.274 1.83.823 2.408.549.578 1.298.867 2.247.867zm1.318-3.943h-3.357c.054-.594.235-1.059.542-1.395.306-.336.718-.504 1.233-.504.508 0 .899.163 1.172.49.273.326.41.796.41 1.409zm5.418 3.943c.652 0 1.193-.111 1.623-.334v-.861c-.563.23-1.112.346-1.647.346-.625 0-1.096-.211-1.415-.633-.318-.422-.477-1.028-.477-1.817 0-1.664.652-2.496 1.957-2.496.195 0 .42.029.674.085.254.057.488.128.703.214l.299-.826c-.176-.09-.418-.168-.727-.234-.309-.067-.617-.1-.926-.1-.957 0-1.694.293-2.212.879-.517.586-.776 1.416-.776 2.49 0 1.047.255 1.857.765 2.429.51.572 1.23.858 2.159.858zm5.23 0c.164 0 .348-.016.554-.05.205-.033.36-.075.465-.126v-.744c-.093.028-.22.054-.38.08-.16.025-.327.037-.499.037-.32 0-.572-.103-.755-.31-.184-.207-.276-.504-.276-.89v-3.78h1.864v-.756h-1.864v-1.488h-.562l-.41 1.37-.92.405v.469h.92v3.82c0 1.309.62 1.963 1.863 1.963zm5.019 0c.93 0 1.658-.294 2.186-.882.527-.588.79-1.405.79-2.452 0-1.02-.264-1.828-.793-2.426-.53-.597-1.244-.896-2.142-.896-.93 0-1.656.292-2.18.876-.523.584-.785 1.4-.785 2.446 0 .676.121 1.266.363 1.77.243.504.586.89 1.032 1.16.445.27.955.404 1.529.404zm.023-.814c-.636 0-1.119-.215-1.447-.645-.328-.43-.492-1.054-.492-1.875 0-.828.162-1.451.486-1.869.325-.418.805-.627 1.442-.627.644 0 1.132.212 1.462.636.33.424.495 1.044.495 1.86 0 .824-.165 1.45-.495 1.878-.33.428-.814.642-1.45.642zm5.781.697v-3.445c0-.63.185-1.155.554-1.576.37-.422.813-.633 1.333-.633.203 0 .438.029.703.088l.135-.903c-.227-.047-.483-.07-.768-.07-.402 0-.771.113-1.107.34-.336.226-.623.549-.861.967h-.047l-.112-1.19h-.802V130h.972zm8.486 0v-3.37h1.008c1.101 0 1.948-.233 2.54-.7.591-.466.887-1.133.887-2 0-1.664-1.07-2.496-3.21-2.496h-2.221V130h.996zm.896-4.225h-.896v-3.48h1.113c.785 0 1.363.139 1.734.416.372.277.557.7.557 1.266 0 .628-.197 1.085-.592 1.37-.394.286-1.033.428-1.916.428zm6.894 4.342c.477 0 .874-.071 1.193-.214.318-.142.638-.415.958-.817h.047l.193.914h.72v-4.383c0-.75-.184-1.295-.553-1.635-.37-.34-.936-.51-1.702-.51-.379 0-.757.05-1.134.147-.377.098-.724.233-1.04.404l.299.745c.676-.329 1.281-.493 1.816-.493.477 0 .824.12 1.04.36.217.241.326.613.326 1.117v.398l-1.09.036c-2.075.062-3.112.742-3.112 2.039 0 .605.181 1.072.542 1.4.362.328.86.492 1.497.492zm.194-.803c-.383 0-.68-.091-.894-.275-.213-.184-.32-.451-.32-.803 0-.449.172-.78.514-.993.341-.213.899-.333 1.672-.36l.973-.041v.58c0 .598-.173 1.062-.518 1.394-.346.332-.822.498-1.427.498zm6.044.686v-3.445c0-.63.185-1.155.554-1.576.37-.422.814-.633 1.333-.633.203 0 .438.029.703.088l.135-.903c-.227-.047-.482-.07-.768-.07-.402 0-.771.113-1.107.34-.336.226-.623.549-.861.967h-.047l-.112-1.19h-.802V130h.972zm6.01.117c.164 0 .348-.016.553-.05.206-.033.36-.075.466-.126v-.744c-.094.028-.22.054-.38.08-.16.025-.327.037-.499.037-.32 0-.572-.103-.756-.31-.183-.207-.275-.504-.275-.89v-3.78h1.863v-.756h-1.863v-1.488h-.562l-.41 1.37-.92.405v.469h.92v3.82c0 1.309.62 1.963 1.863 1.963zm3.425-.117v-3.37c0-.835.156-1.435.469-1.798.312-.363.805-.545 1.476-.545.508 0 .881.129 1.12.387.238.258.357.648.357 1.172V130h.973v-4.19c0-.82-.196-1.416-.586-1.79-.39-.373-.973-.56-1.746-.56-.442 0-.842.088-1.202.262-.359.174-.638.419-.837.735h-.047l-.159-.879h-.79V130h.972zm9.256.117c.433 0 .803-.032 1.11-.096.307-.065.632-.171.976-.32v-.867c-.676.289-1.36.434-2.051.434-.657 0-1.165-.196-1.527-.586-.361-.391-.551-.963-.57-1.717h4.423v-.615c0-.868-.234-1.566-.703-2.095-.469-.53-1.106-.794-1.91-.794-.86 0-1.544.305-2.054.914-.51.61-.765 1.432-.765 2.467 0 1.027.275 1.83.824 2.408.548.578 1.297.867 2.247.867zm1.318-3.943h-3.357c.054-.594.235-1.059.542-1.395.306-.336.717-.504 1.233-.504.508 0 .898.163 1.172.49.273.326.41.796.41 1.409zM129.51 130v-3.445c0-.63.184-1.155.553-1.576.37-.422.814-.633 1.333-.633.204 0 .438.029.704.088l.134-.903c-.226-.047-.482-.07-.767-.07-.403 0-.772.113-1.108.34-.336.226-.623.549-.861.967h-.047l-.111-1.19h-.803V130h.973zM14.965 112.117c.937 0 1.68-.21 2.226-.633.547-.421.82-1.01.82-1.763 0-.586-.168-1.063-.506-1.43-.338-.367-.956-.71-1.855-1.031-.535-.192-.932-.366-1.192-.525-.26-.158-.444-.332-.554-.521-.11-.19-.164-.433-.164-.73 0-.402.149-.716.446-.943.296-.227.709-.34 1.236-.34.668 0 1.355.149 2.062.445l.31-.867c-.714-.312-1.497-.468-2.349-.468-.816 0-1.472.195-1.968.585-.497.391-.745.916-.745 1.577 0 .629.171 1.138.513 1.529.342.39.911.728 1.708 1.014.57.203.995.384 1.275.545.279.16.478.335.597.524.12.19.179.433.179.73 0 .449-.168.8-.504 1.051-.336.252-.836.378-1.5.378-.406 0-.816-.043-1.23-.129-.415-.086-.797-.203-1.149-.351v.96c.547.262 1.328.393 2.344.393zm7.369 0c.93 0 1.658-.294 2.185-.882.527-.588.791-1.405.791-2.452 0-1.02-.264-1.828-.794-2.426-.53-.597-1.243-.896-2.141-.896-.93 0-1.657.292-2.18.876-.524.584-.785 1.4-.785 2.446 0 .676.12 1.266.363 1.77.242.504.586.89 1.031 1.16.446.27.955.404 1.53.404zm.023-.814c-.637 0-1.12-.215-1.447-.645-.328-.43-.492-1.054-.492-1.875 0-.828.162-1.451.486-1.869.324-.418.805-.627 1.441-.627.645 0 1.132.212 1.462.636.33.424.495 1.044.495 1.86 0 .824-.165 1.45-.495 1.878-.33.428-.813.642-1.45.642zm5.78.697v-9.117h-.972V112h.973zm4.481.117c.453 0 .856-.084 1.21-.252.353-.168.63-.41.829-.726h.053l.14.861h.803v-6.422h-.973v3.375c0 .832-.155 1.432-.465 1.799-.31.367-.802.55-1.474.55-.508 0-.88-.128-1.12-.386-.237-.258-.357-.648-.357-1.172v-4.166h-.984v4.201c0 .817.194 1.41.583 1.782.389.37.974.556 1.755.556zm7.181 0c.164 0 .349-.016.554-.05.205-.033.36-.075.466-.126v-.744c-.094.028-.221.054-.381.08-.16.025-.326.037-.498.037-.32 0-.572-.103-.756-.31-.184-.207-.275-.504-.275-.89v-3.78h1.863v-.756h-1.863v-1.488h-.563l-.41 1.37-.92.405v.469h.92v3.82c0 1.309.621 1.963 1.863 1.963zm2.945-7.629c.156 0 .291-.053.404-.16.114-.108.17-.271.17-.49 0-.219-.056-.381-.17-.486-.113-.106-.248-.159-.404-.159-.164 0-.3.052-.41.156-.11.103-.164.266-.164.489 0 .219.055.382.164.49.11.107.246.16.41.16zm.48 7.512v-6.422h-.972V112h.973zm4.78.117c.93 0 1.658-.294 2.185-.882.527-.588.791-1.405.791-2.452 0-1.02-.265-1.828-.794-2.426-.53-.597-1.243-.896-2.141-.896-.93 0-1.657.292-2.18.876-.524.584-.785 1.4-.785 2.446 0 .676.12 1.266.363 1.77.242.504.586.89 1.031 1.16.446.27.955.404 1.53.404zm.023-.814c-.637 0-1.12-.215-1.447-.645-.328-.43-.492-1.054-.492-1.875 0-.828.162-1.451.486-1.869.324-.418.805-.627 1.441-.627.645 0 1.132.212 1.462.636.33.424.495 1.044.495 1.86 0 .824-.165 1.45-.495 1.878-.33.428-.813.642-1.45.642zm5.78.697v-3.37c0-.835.157-1.435.47-1.798.312-.363.804-.545 1.476-.545.508 0 .881.129 1.12.387.238.258.357.648.357 1.172V112h.972v-4.19c0-.82-.195-1.416-.586-1.79-.39-.373-.972-.56-1.746-.56-.441 0-.841.088-1.2.262-.36.174-.64.419-.839.735h-.047l-.158-.879h-.79V112h.972zm10.953 0v-3.37h1.008c1.102 0 1.948-.233 2.54-.7.592-.466.888-1.133.888-2 0-1.664-1.07-2.496-3.211-2.496h-2.22V112h.995zm.897-4.225h-.897v-3.48h1.113c.786 0 1.364.139 1.735.416.37.277.556.7.556 1.266 0 .628-.197 1.085-.591 1.37-.395.286-1.034.428-1.916.428zM71.965 112v-3.445c0-.63.184-1.155.554-1.576.369-.422.813-.633 1.333-.633.203 0 .437.029.703.088l.134-.903c-.226-.047-.482-.07-.767-.07-.402 0-.772.113-1.108.34-.335.226-.623.549-.86.967h-.048l-.111-1.19h-.803V112h.973zm6.642.117c.93 0 1.658-.294 2.186-.882.527-.588.79-1.405.79-2.452 0-1.02-.264-1.828-.793-2.426-.53-.597-1.244-.896-2.142-.896-.93 0-1.656.292-2.18.876-.523.584-.785 1.4-.785 2.446 0 .676.121 1.266.363 1.77.243.504.586.89 1.032 1.16.445.27.955.404 1.529.404zm.023-.814c-.636 0-1.119-.215-1.447-.645-.328-.43-.492-1.054-.492-1.875 0-.828.162-1.451.486-1.869.325-.418.805-.627 1.442-.627.644 0 1.132.212 1.462.636.33.424.495 1.044.495 1.86 0 .824-.165 1.45-.495 1.878-.33.428-.814.642-1.45.642zm7.352.697l2.437-6.422h-1.043c-.797 2.188-1.31 3.607-1.538 4.257-.228.65-.364 1.08-.407 1.286h-.047c-.055-.266-.238-.844-.55-1.734l-1.384-3.809h-1.043L84.845 112h1.137zm4.11-7.512c.157 0 .292-.053.405-.16.113-.108.17-.271.17-.49 0-.219-.057-.381-.17-.486-.113-.106-.248-.159-.404-.159-.164 0-.301.052-.41.156-.11.103-.165.266-.165.489 0 .219.055.382.164.49.11.107.247.16.41.16zm.481 7.512v-6.422H89.6V112h.973zm4.515.117c.895 0 1.567-.326 2.016-.978h.053l.129.861h.79v-9.117h-.972v2.613l.023.451.041.463h-.076c-.465-.633-1.133-.95-2.004-.95-.836 0-1.488.294-1.957.88-.469.586-.703 1.408-.703 2.467 0 1.058.234 1.875.7 2.449.467.574 1.12.861 1.96.861zm.123-.814c-.582 0-1.023-.21-1.324-.627-.3-.418-.451-1.037-.451-1.858 0-.808.151-1.434.454-1.878.303-.443.74-.665 1.31-.665.664 0 1.147.195 1.45.583.303.39.454 1.038.454 1.949v.205c0 .804-.15 1.387-.448 1.749-.3.361-.78.542-1.445.542zm7.791.814c.434 0 .804-.032 1.11-.096.307-.065.632-.171.976-.32v-.867c-.676.289-1.36.434-2.05.434-.657 0-1.166-.196-1.527-.586-.362-.391-.552-.963-.572-1.717h4.424v-.615c0-.868-.234-1.566-.703-2.095-.469-.53-1.105-.794-1.91-.794-.86 0-1.544.305-2.054.914-.51.61-.764 1.432-.764 2.467 0 1.027.274 1.83.823 2.408.549.578 1.298.867 2.247.867zm1.318-3.943h-3.357c.055-.594.235-1.059.542-1.395.307-.336.718-.504 1.233-.504.508 0 .899.163 1.172.49.274.326.41.796.41 1.409zm3.824 3.826v-3.445c0-.63.185-1.155.554-1.576.369-.422.813-.633 1.333-.633.203 0 .437.029.703.088l.135-.903c-.227-.047-.483-.07-.768-.07-.402 0-.771.113-1.107.34-.336.226-.623.549-.862.967h-.046l-.112-1.19h-.803V112h.973z" transform="translate(-153 -454) translate(154 454)"/>
                    <path fill="#252F3E" d="M37.559 25.083c.29.186.726.334 1.271.445.545.148 1.126.185 1.707.185.58 0 1.09-.074 1.561-.222.473-.148.872-.37 1.235-.63.327-.26.618-.593.8-1 .18-.408.29-.815.29-1.334 0-.593-.182-1.112-.509-1.593-.327-.445-.908-.815-1.707-1.075l-1.561-.518c-.581-.186-1.017-.408-1.235-.63-.218-.222-.327-.482-.327-.815 0-.445.182-.815.509-1 .363-.223.835-.334 1.489-.334.799 0 1.489.148 2.142.445.182.074.327.148.436.148.182 0 .254-.111.254-.37v-.445c0-.149-.036-.297-.109-.37-.072-.112-.181-.223-.327-.297-.109-.074-.29-.148-.472-.186-.181-.074-.4-.11-.617-.185-.218-.037-.472-.11-.726-.11-.255-.075-.509-.075-.763-.075-.508 0-.944.074-1.38.185-.436.148-.835.334-1.162.593-.327.26-.581.556-.8.926-.217.37-.29.778-.29 1.26 0 .593.182 1.149.545 1.63.363.519.944.89 1.78 1.149l1.598.518c.544.186.907.37 1.125.593.218.222.29.482.29.778 0 .445-.18.815-.58 1.075-.4.259-.908.37-1.634.37-.436 0-.872-.037-1.308-.148-.436-.074-.835-.222-1.235-.408-.109-.037-.217-.074-.29-.11-.073-.038-.145-.038-.218-.038-.182 0-.254.111-.254.37v.556c0 .112.036.223.072.334.11.148.218.222.4.333M18.366 19.992c-.401-.074-.802-.074-1.166-.074-1.129 0-2.04.295-2.731.886-.692.59-1.02 1.366-1.02 2.326 0 .923.255 1.625.801 2.179.547.553 1.275.812 2.222.812 1.31 0 2.404-.517 3.278-1.55.109.258.218.48.327.664.11.184.255.369.4.517.11.11.22.147.329.147.073 0 .182-.037.291-.11l.692-.48c.146-.111.219-.222.219-.333 0-.074-.037-.147-.073-.258-.146-.296-.292-.554-.364-.812-.073-.259-.11-.591-.11-.997v-3.692c0-1.219-.291-2.142-.91-2.77-.62-.627-1.566-.922-2.914-.922-.619 0-1.202.073-1.748.221-.51.148-.983.295-1.384.517-.145.074-.255.148-.291.221-.073.074-.073.222-.073.407v.553c0 .222.073.37.219.37.036 0 .109 0 .182-.037.072-.037.218-.074.4-.148.4-.148.801-.295 1.202-.37.4-.11.801-.147 1.202-.147.874 0 1.457.185 1.82.517.365.332.51.96.51 1.81v.811c-.473-.11-.873-.184-1.31-.258zm1.274 1.994c0 .369-.036.701-.109.96-.073.258-.182.516-.364.701-.291.332-.656.59-1.056.702-.4.147-.802.221-1.166.221-.51 0-.91-.148-1.165-.406s-.4-.665-.4-1.182c0-.553.181-.996.546-1.292.364-.295.91-.443 1.638-.443.328 0 .692.037 1.057.074.364.037.692.11 1.02.185v.48z" transform="translate(-153 -454) translate(154 454)"/>
                    <g>
                        <path fill="#252F3E" d="M13.44 9.71c.074.223.148.371.223.446.074.074.222.112.445.112h.966c.222 0 .37-.038.445-.112.074-.075.149-.223.223-.447l1.745-7.33 1.782 7.33c.037.224.111.372.223.447.074.074.26.112.445.112h.965c.186 0 .335-.038.446-.112.074-.075.186-.223.223-.447L24.318.928c.037-.112.074-.224.074-.26 0-.075.038-.112.038-.187 0-.186-.075-.26-.26-.26h-1.04c-.223 0-.371.037-.445.111-.075.075-.149.224-.223.447l-1.968 7.628-1.82-7.665c-.036-.224-.11-.373-.222-.447-.074-.074-.26-.112-.445-.112h-.929c-.222 0-.37.038-.445.112-.074.074-.149.223-.223.447l-1.782 7.516L12.735.742c-.075-.224-.149-.373-.223-.447-.074-.074-.223-.112-.446-.112h-1.114c-.185 0-.26.075-.26.26 0 .075.038.224.112.447l2.636 8.82" transform="translate(-153 -454) translate(154 454) translate(11.819 15.525)"/>
                        <path fill="#F90" d="M30.258 15.217c-4.158 1.786-8.724 2.642-12.845 2.642-6.126 0-12.067-1.675-16.856-4.503-.408-.26-.743.186-.371.521 4.455 4.019 10.32 6.437 16.855 6.437 4.641 0 10.062-1.45 13.812-4.242.556-.446.037-1.116-.595-.855" transform="translate(-153 -454) translate(154 454) translate(11.819 15.525)"/>
                    </g>
                    <path fill="#F90" d="M39.753 28.81c-.34.23-.265.575.075.536 1.211-.153 3.974-.498 4.428.153.492.613-.53 3.219-.984 4.406-.151.345.151.498.492.23 2.043-1.724 2.573-5.363 2.157-5.861-.416-.575-4.011-.997-6.168.536" transform="translate(-153 -454) translate(154 454)"/>
                    <path fill="#252F3E" d="M54.76 23.268c-.074 0-.149-.037-.149-.148v-6.113c0-.075.038-.149.15-.149h.187c.112 0 .15.037.15.149l.037.37c.262-.222.56-.37.822-.482.262-.11.524-.148.823-.148.598 0 1.047.222 1.383.63.337.408.524 1 .524 1.704 0 .741-.187 1.334-.524 1.779-.374.444-.822.667-1.458.667-.56 0-1.047-.223-1.533-.63v2.223c0 .074-.037.148-.15.148h-.261zm1.87-2.223c.486 0 .86-.148 1.122-.482.262-.333.374-.815.374-1.445 0-1.26-.486-1.89-1.458-1.89-.486 0-1.01.186-1.496.594v2.63c.262.222.486.37.71.482.225.037.487.11.748.11zM60.93 21.638c-.424 0-.772-.114-1.042-.38-.27-.227-.386-.568-.386-.985 0-.455.154-.796.463-1.062.31-.265.734-.379 1.274-.379.425 0 .85.076 1.352.228v-.758c0-.38-.078-.645-.27-.797-.194-.151-.464-.227-.889-.227-.424 0-.888.076-1.351.227-.039 0-.116.038-.154.038-.078 0-.078-.038-.078-.113v-.19c0-.038 0-.076.039-.114l.077-.076c.502-.19 1.004-.303 1.583-.303.54 0 .965.114 1.236.341.27.228.386.569.386 1.024v3.26c0 .076-.039.152-.155.152h-.193c-.077 0-.154-.038-.154-.152l-.039-.379c-.54.455-1.12.645-1.699.645zm.078-.455c.231 0 .502-.038.772-.152.27-.114.54-.227.85-.417v-1.137c-.425-.114-.812-.152-1.236-.152-.888 0-1.313.341-1.313.986 0 .265.077.493.232.644.154.152.386.228.695.228zM64.55 21.23c-.079 0-.158-.036-.158-.146v-4.191c0-.073.04-.146.158-.146h.197c.119 0 .158.037.158.146l.04.51c.236-.255.473-.437.71-.51.236-.11.512-.146.788-.146h.237c.079 0 .158.037.158.146v.219c0 .036 0 .036-.04.073 0 .036-.04.036-.079.036h-.355c-.276 0-.552.036-.788.146-.237.11-.434.255-.67.474v3.243c0 .073-.04.146-.159.146h-.197M69.209 21.638c-.37 0-.63-.116-.815-.308-.185-.192-.297-.461-.297-.846V17.37h-.704c-.074 0-.148-.038-.148-.154v-.077c0-.038 0-.077.037-.115 0-.038.037-.038.111-.038l.741-.077.075-1.23c0-.04.037-.078.037-.116.037-.038.037-.038.11-.038h.149c.074 0 .148.038.148.153v1.23h1.297c.074 0 .148.04.148.154v.193c0 .077-.037.153-.148.153h-1.297v3.115c0 .269.037.423.148.538.112.115.297.154.52.154.184 0 .333 0 .444-.039.074 0 .11-.038.148-.038h.074c.074 0 .111.038.111.115v.154c0 .115-.037.154-.111.192-.222 0-.482.039-.778.039M71.06 21.6c-.073 0-.147-.039-.147-.153v-4.394c0-.077.037-.153.147-.153h.183c.11 0 .147.038.147.153l.037.382c.293-.23.587-.382.917-.497.33-.114.623-.19.917-.19.44 0 .77.114.99.343.22.23.33.573.33 1.07v3.247c0 .077-.037.153-.147.153h-.256c-.074 0-.147-.038-.147-.153v-2.98c0-.42-.073-.687-.22-.878-.147-.192-.404-.268-.697-.268-.587 0-1.174.191-1.724.611v3.592c0 .076-.037.153-.147.153h-.183M78.297 21.638c-.683 0-1.223-.19-1.546-.607-.36-.417-.54-1.023-.54-1.858 0-.758.18-1.364.54-1.781.36-.417.863-.645 1.474-.645.54 0 .935.152 1.223.493.287.303.431.758.431 1.365 0 .227 0 .417-.036.568 0 .076-.072.152-.144.152h-2.948c0 .645.144 1.137.395 1.44.252.304.684.456 1.223.456.431 0 .827-.076 1.187-.228.072-.038.143-.038.143-.038.036 0 .036 0 .072.038 0 .038.036.038.036.076v.152c0 .113-.036.151-.108.19-.467.113-.899.227-1.402.227zm1.079-2.768v-.303c0-.455-.108-.758-.288-.986-.216-.227-.503-.341-.899-.341-.935 0-1.402.53-1.474 1.63h2.66zM80.852 21.23c-.079 0-.158-.036-.158-.146v-4.191c0-.073.04-.146.158-.146h.197c.119 0 .158.037.158.146l.04.51c.236-.255.473-.437.71-.51.236-.11.512-.146.788-.146h.237c.079 0 .158.037.158.146v.219c0 .036 0 .036-.04.073 0 .036-.04.036-.079.036h-.355c-.276 0-.552.036-.788.146-.237.11-.434.255-.67.474v3.243c0 .073-.04.146-.159.146h-.197M54.758 31.38c-.073 0-.147-.038-.147-.154v-4.39c0-.077.037-.154.147-.154h.183c.11 0 .147.039.147.154l.037.385c.293-.23.587-.385.917-.5.33-.116.623-.193.917-.193.44 0 .77.116.99.347.22.23.33.578.33 1.078v3.273c0 .077-.036.154-.146.154h-.257c-.074 0-.147-.038-.147-.154v-3.042c0-.423-.073-.693-.22-.886-.147-.192-.403-.27-.697-.27-.587 0-1.174.193-1.724.617v3.62c0 .077-.037.154-.147.154h-.183M61.995 31.826c-.683 0-1.223-.19-1.546-.606-.36-.417-.54-1.024-.54-1.858 0-.758.18-1.365.54-1.782.36-.417.863-.644 1.474-.644.54 0 .935.151 1.223.493.288.303.431.758.431 1.365 0 .227 0 .417-.036.568 0 .076-.072.152-.143.152h-2.95c0 .644.145 1.137.396 1.44.252.304.684.455 1.223.455.432 0 .827-.075 1.187-.227.072-.038.144-.038.144-.038.036 0 .036 0 .071.038 0 .038.036.038.036.076v.151c0 .114-.036.152-.107.19-.432.114-.9.227-1.403.227zm1.079-2.805v-.303c0-.455-.108-.759-.288-.986-.216-.227-.503-.341-.899-.341-.935 0-1.402.53-1.474 1.63h2.66zM65.949 31.826c-.371 0-.63-.114-.816-.305-.185-.191-.296-.459-.296-.84v-3.134h-.704c-.074 0-.148-.038-.148-.153v-.076c0-.038 0-.076.037-.115 0-.038.037-.038.111-.038l.741-.076.074-1.223c0-.038.037-.076.037-.115.037-.038.037-.038.111-.038h.149c.074 0 .148.038.148.153v1.223h1.297c.074 0 .148.038.148.153v.19c0 .077-.037.153-.148.153h-1.297v3.095c0 .268.037.42.148.535.111.115.296.153.519.153.185 0 .333 0 .444-.038.074 0 .111-.038.148-.038h.075c.074 0 .11.038.11.114v.153c0 .115-.036.153-.11.191-.223.038-.482.076-.778.076M68.904 31.419c-.076 0-.151-.037-.189-.11l-1.432-4.118c-.038-.073-.038-.11-.038-.146 0-.036.038-.073.113-.073h.302c.075 0 .113.037.15.11l1.245 3.754 1.093-3.754c.037-.073.075-.11.188-.11h.34c.075 0 .15.037.188.11l1.093 3.754 1.281-3.79c.038-.074.076-.11.151-.11h.264c.075 0 .113.036.113.073 0 .036 0 .073-.038.146l-1.507 4.118c-.038.073-.076.11-.189.11h-.301c-.076 0-.151-.037-.189-.11L70.45 27.52l-1.093 3.754c-.038.073-.075.11-.188.11h-.264M76.211 31.826c-.643 0-1.144-.225-1.501-.64-.358-.413-.536-1.015-.536-1.805 0-.752.178-1.354.536-1.806.357-.413.858-.64 1.501-.64.644 0 1.144.227 1.502.64.357.414.536 1.016.536 1.806 0 .753-.179 1.354-.536 1.806-.358.414-.858.64-1.502.64zm0-.489c1.001 0 1.502-.64 1.502-1.956 0-1.317-.5-1.956-1.502-1.956-1 0-1.501.64-1.501 1.956 0 1.317.5 1.956 1.501 1.956zM79.63 31.382c-.08 0-.158-.036-.158-.145v-4.155c0-.073.04-.146.157-.146h.198c.118 0 .157.036.157.146l.04.51c.236-.255.473-.437.71-.51.236-.11.513-.146.789-.146h.236c.08 0 .158.036.158.146v.218c0 .037 0 .037-.04.073-.039.037-.039.037-.078.037h-.355c-.276 0-.552.036-.79.145-.236.11-.433.256-.67.474v3.244c0 .073-.039.146-.157.146h-.198M82.887 31.419c-.078 0-.155-.036-.155-.145v-6.231c0-.072.039-.145.155-.145h.27c.077 0 .154.036.154.145v3.912l2.24-1.883c.077-.073.154-.073.231-.073h.348c.077 0 .116.036.116.073 0 .036-.039.072-.116.145L83.852 29.1l2.47 2.138c.04.036.078.072.078.108 0 .073-.039.073-.116.073h-.386c-.077 0-.154-.036-.193-.073l-2.394-2.1v2.028c0 .072-.038.145-.154.145h-.27" transform="translate(-153 -454) translate(154 454)"/>
                    <path fill="#000" d="M13.414 54.763c-.501-.188-.862-.419-1.083-.692-.22-.273-.331-.618-.331-1.036 0-.54.196-.972.59-1.293.392-.32.92-.481 1.58-.481.552 0 1.094.104 1.626.311v.98c-.549-.171-1.057-.257-1.526-.257-.664 0-.996.217-.996.652 0 .162.057.295.171.397.115.102.33.21.647.326l.63.235c.523.194.896.421 1.12.683.223.262.334.602.334 1.02 0 .591-.208 1.058-.626 1.4-.418.342-.99.513-1.718.513-.317 0-.633-.03-.95-.09-.315-.06-.586-.143-.812-.247v-.983c.281.087.583.156.906.208.322.052.613.077.873.077.333 0 .59-.061.77-.184.181-.124.271-.3.271-.53 0-.177-.055-.317-.165-.42-.11-.104-.332-.22-.666-.345l-.645-.244zm4.653.714c.022.382.134.656.337.825.202.168.521.252.957.252.378 0 .817-.072 1.319-.215v.837c-.196.104-.43.184-.705.242-.274.057-.557.086-.85.086-.72 0-1.267-.198-1.642-.595-.374-.397-.562-.976-.562-1.739 0-.734.186-1.305.559-1.713.372-.407.888-.611 1.55-.611.56 0 .99.156 1.292.468.302.313.453.76.453 1.34 0 .126-.008.27-.025.43-.016.162-.037.293-.062.393h-2.621zm.922-1.761c-.279 0-.498.084-.658.252-.16.168-.25.414-.273.736h1.659v-.147c0-.56-.243-.841-.728-.841zm4.64 3.573c-.238.096-.492.144-.762.144-.763 0-1.145-.434-1.145-1.3V51h1.236v5.033c0 .16.027.272.081.338.054.066.143.099.267.099.08 0 .187-.009.322-.025v.844zm1.771-1.812c.023.382.135.656.338.825.202.168.521.252.957.252.377 0 .817-.072 1.319-.215v.837c-.196.104-.43.184-.705.242-.274.057-.558.086-.85.086-.72 0-1.267-.198-1.642-.595-.374-.397-.562-.976-.562-1.739 0-.734.186-1.305.558-1.713.373-.407.89-.611 1.551-.611.56 0 .99.156 1.292.468.302.313.453.76.453 1.34 0 .126-.008.27-.025.43-.016.162-.037.293-.062.393H25.4zm.923-1.761c-.279 0-.498.084-.658.252-.16.168-.25.414-.273.736h1.658v-.147c0-.56-.242-.841-.727-.841zm5.859 3.468c-.152.093-.335.164-.55.213-.215.049-.438.073-.67.073-.69 0-1.216-.195-1.58-.586-.363-.391-.545-.954-.545-1.688 0-.729.192-1.297.577-1.705.384-.408.917-.612 1.598-.612.413 0 .795.091 1.145.274v.836c-.333-.098-.638-.147-.914-.147-.397 0-.688.102-.874.307-.186.205-.28.527-.28.967v.122c0 .437.092.757.276.96.183.204.468.305.853.305.276 0 .597-.052.964-.155v.836zm3.456.076c-.306.12-.648.18-1.026.18-.48 0-.834-.113-1.063-.342-.228-.228-.343-.584-.343-1.065v-2.128h-.653v-.778l.686-.134.187-1.207h1.017v1.186h1.17v.933h-1.17v2.064c0 .185.045.315.136.39.091.074.244.11.459.11.174 0 .374-.016.6-.05v.841zM17.859 76.418c-1.928 0-3.387-.536-4.376-1.608C12.494 73.74 12 72.16 12 70.074c0-2.072.512-3.653 1.537-4.744 1.025-1.09 2.496-1.636 4.413-1.636.878 0 1.734.131 2.568.394.072.025.126.061.162.109.036.048.054.125.054.232v.39c0 .156-.072.234-.216.234-.06 0-.235-.035-.523-.107-.266-.07-.58-.128-.942-.17-.361-.043-.687-.064-.978-.064-1.651 0-2.884.427-3.698 1.28-.815.852-1.222 2.135-1.222 3.848v.448c0 3.408 1.598 5.112 4.795 5.112.784 0 1.556-.102 2.315-.304.216-.06.36-.09.432-.09.144 0 .216.077.216.233v.39c0 .11-.018.188-.054.235-.036.046-.09.082-.162.106-.903.298-1.85.448-2.838.448zm8.843.07c-1.327 0-2.358-.42-3.094-1.259-.735-.839-1.103-2.01-1.103-3.512 0-1.5.368-2.667 1.103-3.5.736-.834 1.767-1.25 3.094-1.25s2.358.416 3.093 1.25c.736.833 1.103 2 1.103 3.5 0 1.502-.367 2.673-1.103 3.512-.735.839-1.766 1.259-3.093 1.259zm0-.928c2.086 0 3.128-1.281 3.128-3.843 0-2.549-1.042-3.823-3.128-3.823-2.086 0-3.13 1.274-3.13 3.823 0 2.562 1.044 3.843 3.13 3.843zm6.818.66c-.183 0-.274-.088-.274-.266V67.5c0-.178.091-.267.274-.267h.362c.19 0 .293.089.307.267l.07.768c.59-.416 1.211-.737 1.862-.963.651-.226 1.284-.339 1.9-.339.88 0 1.552.23 2.017.688.464.458.695 1.134.695 2.026v6.274c0 .178-.09.267-.27.267h-.49c-.18 0-.27-.09-.27-.267V70.11c0-.774-.15-1.337-.45-1.69-.301-.35-.784-.527-1.449-.527-1.205 0-2.38.38-3.523 1.142v6.918c0 .178-.092.267-.275.267h-.486zm12.295.268c-.482 0-.961-.048-1.438-.142-.476-.095-.907-.225-1.292-.392-.144-.06-.216-.18-.216-.357v-.304c0-.145.067-.218.2-.218.022 0 .078.013.17.037.091.025.263.078.515.16.676.203 1.388.304 2.136.304.734 0 1.294-.146 1.68-.437.387-.292.58-.717.58-1.275 0-.323-.118-.597-.353-.823-.235-.226-.63-.44-1.184-.643l-1.646-.607c-1.29-.477-1.936-1.257-1.936-2.34 0-.74.28-1.339.842-1.797.56-.458 1.292-.688 2.196-.688.808 0 1.598.148 2.368.444.144.06.216.18.216.361v.267c0 .153-.065.23-.195.23-.086 0-.237-.029-.453-.086-.76-.203-1.423-.304-1.99-.304-.651 0-1.146.128-1.484.384-.338.256-.507.634-.507 1.135 0 .405.118.718.353.938.236.22.697.46 1.384.72l1.446.539c.676.249 1.168.555 1.475.92.308.363.461.814.461 1.35 0 .807-.298 1.446-.895 1.917-.597.471-1.408.707-2.433.707zm7.937 0c-.867 0-1.532-.232-1.996-.696-.464-.464-.696-1.144-.696-2.039V67.5c0-.178.09-.267.27-.267h.49c.18 0 .27.089.27.267v5.826c0 .786.151 1.354.453 1.706.302.352.779.528 1.43.528.59 0 1.144-.09 1.662-.27.517-.178 1.072-.47 1.662-.876V67.5c0-.178.091-.267.274-.267h.486c.183 0 .274.089.274.267v8.454c0 .178-.091.267-.274.267h-.361c-.18 0-.283-.09-.308-.267l-.07-.715c-1.147.832-2.336 1.249-3.566 1.249zm8.934-.214c-.482 0-.859-.14-1.13-.419-.272-.279-.407-.67-.407-1.17V63.267c0-.178.091-.267.274-.267h.486c.183 0 .274.09.274.267v11.398c0 .262.051.447.154.554.102.107.285.16.548.16.072 0 .154-.006.246-.017.091-.01.166-.016.224-.016.169 0 .253.084.253.25v.337c0 .145-.077.236-.232.271-.194.047-.424.07-.69.07zm5.788.053c-.712 0-1.255-.187-1.629-.562-.374-.375-.56-.92-.56-1.634v-6.003h-1.426c-.183 0-.274-.09-.274-.27v-.177c0-.096.018-.168.054-.216.036-.048.11-.077.22-.088l1.463-.128.129-2.356c.01-.096.037-.164.078-.206.042-.04.106-.061.192-.061h.324c.18 0 .27.09.27.267v2.34h2.626c.18 0 .27.089.27.267v.357c0 .18-.09.271-.27.271h-2.626v5.95c0 .487.106.831.318 1.034.212.203.564.304 1.057.304.35 0 .657-.03.923-.09.133-.022.239-.042.318-.06.078-.018.136-.027.172-.027.133 0 .2.071.2.214v.267c0 .202-.067.328-.2.377-.471.154-1.014.23-1.629.23zm4.086-.106c-.18 0-.27-.09-.27-.267V67.5c0-.178.09-.267.27-.267h.49c.18 0 .27.089.27.267v8.454c0 .178-.09.267-.27.267h-.49zm.254-10.918c-.241 0-.43-.071-.57-.215-.138-.144-.207-.335-.207-.573 0-.238.07-.428.208-.57.138-.143.328-.214.569-.214.24 0 .43.071.57.213.138.143.207.333.207.571 0 .238-.07.43-.208.573-.138.144-.328.215-.57.215zm3.672 10.918c-.183 0-.274-.09-.274-.267V67.5c0-.178.091-.267.274-.267h.362c.191 0 .293.089.307.267l.071.768c.59-.416 1.21-.737 1.862-.963.65-.226 1.283-.339 1.898-.339.881 0 1.554.23 2.018.688.464.458.696 1.134.696 2.026v6.274c0 .178-.09.267-.27.267h-.49c-.18 0-.27-.09-.27-.267V70.11c0-.774-.151-1.337-.452-1.69-.3-.35-.783-.527-1.448-.527-1.205 0-2.38.38-3.523 1.142v6.918c0 .178-.092.267-.274.267h-.487zm13.201 3.896c-.507 0-1.001-.05-1.483-.152-.482-.101-.905-.242-1.268-.423-.133-.057-.2-.182-.2-.373v-.25c0-.154.067-.23.2-.23.036 0 .076.005.119.016.043.01.118.034.226.07.856.273 1.64.41 2.352.41 1.12 0 1.941-.274 2.466-.821.525-.548.787-1.411.787-2.59v-.875c-.445.37-.94.661-1.483.876-.543.215-1.06.322-1.554.322-1.158 0-2.086-.408-2.786-1.225-.7-.817-1.049-1.898-1.049-3.242 0-1.442.347-2.58 1.04-3.414.695-.833 1.638-1.25 2.833-1.25 1.132 0 2.138.399 3.016 1.195l.075-.66c.025-.179.127-.268.307-.268h.362c.18 0 .27.089.27.267v8.31c0 1.404-.361 2.473-1.084 3.207-.724.733-1.772 1.1-3.146 1.1zm.399-4.952c.903 0 1.836-.38 2.8-1.14v-4.969c-.493-.405-.968-.7-1.427-.885-.458-.184-.946-.277-1.465-.277-.964 0-1.69.31-2.179.93-.489.62-.733 1.536-.733 2.749 0 1.169.256 2.06.769 2.673.512.613 1.257.92 2.235.92zM12.27 93.367c-.18 0-.27-.089-.27-.266V81.267c0-.178.09-.267.27-.267h4.06c1.148 0 2.063.333 2.745.999.68.665 1.021 1.558 1.021 2.68 0 1.104-.34 1.99-1.021 2.656-.682.667-1.597 1-2.746 1h-3.297v4.766c0 .177-.09.266-.27.266h-.491zm4.022-5.978c1.787 0 2.68-.904 2.68-2.71 0-1.821-.893-2.732-2.68-2.732h-3.26v5.442h3.26zm8.226 6.175c-.832 0-1.494-.235-1.983-.705-.49-.47-.735-1.098-.735-1.882 0-.87.302-1.554.905-2.053.604-.499 1.426-.748 2.467-.748.807 0 1.67.137 2.589.41v-1.5c0-.725-.175-1.245-.525-1.561-.35-.316-.93-.474-1.74-.474-.821 0-1.702.15-2.643.447-.11.036-.202.054-.275.054-.119 0-.179-.078-.179-.234v-.283c0-.096.018-.17.054-.224.037-.053.096-.097.18-.133.954-.369 1.963-.553 3.026-.553 1.063 0 1.85.22 2.364.66.513.44.77 1.106.77 1.997V93.1c0 .177-.09.266-.27.266h-.383c-.18 0-.277-.089-.287-.266l-.075-.767c-1.038.82-2.125 1.23-3.26 1.23zm.146-.927c.458 0 .953-.092 1.484-.276.531-.185 1.069-.444 1.613-.777v-2.231c-.81-.216-1.596-.324-2.356-.324-1.69 0-2.535.642-2.535 1.927 0 .55.15.967.454 1.253.302.285.749.428 1.34.428zm7.192.73c-.183 0-.275-.089-.275-.266v-8.443c0-.178.092-.267.275-.267h.341c.195 0 .297.089.309.267l.091 1.037c.46-.5.911-.854 1.351-1.062.44-.208.937-.312 1.492-.312.195 0 .353.006.475.017.18.01.27.106.27.287v.443c0 .049-.018.094-.054.135-.036.041-.084.062-.146.062-.096 0-.188-.003-.272-.009-.085-.005-.212-.008-.381-.008-.555 0-1.047.101-1.476.304-.428.202-.841.529-1.238.98V93.1c0 .177-.092.266-.275.266h-.487zm8.767.107c-.713 0-1.257-.187-1.632-.562-.374-.374-.562-.918-.562-1.632v-5.995h-1.427c-.183 0-.275-.09-.275-.27v-.177c0-.096.018-.167.054-.215.036-.048.11-.077.22-.088l1.466-.128.129-2.353c.011-.096.037-.164.079-.205.042-.041.105-.062.191-.062h.325c.18 0 .27.09.27.267v2.337h2.631c.181 0 .271.089.271.267v.356c0 .18-.09.271-.27.271h-2.631v5.942c0 .486.106.83.318 1.033.213.202.566.303 1.06.303.35 0 .657-.03.924-.09.133-.022.24-.041.318-.06.08-.017.137-.026.173-.026.133 0 .2.071.2.213v.267c0 .202-.067.328-.2.377-.472.154-1.016.23-1.632.23zm4.023-.107c-.183 0-.275-.089-.275-.266v-8.443c0-.178.092-.267.275-.267h.362c.192 0 .294.089.308.267l.071.766c.591-.415 1.213-.735 1.865-.961.652-.226 1.286-.338 1.902-.338.883 0 1.556.229 2.021.686.465.458.697 1.133.697 2.024v6.266c0 .177-.09.266-.27.266h-.491c-.18 0-.271-.089-.271-.266v-5.835c0-.774-.15-1.336-.452-1.688-.3-.35-.784-.527-1.45-.527-1.208 0-2.384.38-3.53 1.14v6.91c0 .177-.092.266-.275.266h-.487zm13.874.267c-1.435 0-2.515-.401-3.24-1.204-.726-.802-1.09-1.995-1.09-3.577 0-1.498.366-2.661 1.098-3.488.73-.827 1.754-1.24 3.07-1.24 1.099 0 1.94.308 2.526.926.586.618.879 1.504.879 2.657 0 .476-.024.834-.071 1.075-.036.177-.139.266-.308.266h-6.14c.011 1.25.289 2.172.833 2.766.543.595 1.383.892 2.518.892.868 0 1.695-.149 2.48-.447.159-.06.267-.09.326-.09.05 0 .093.021.128.064.037.042.055.093.055.153v.267c0 .191-.067.315-.2.373-.869.405-1.823.607-2.864.607zm2.231-5.405c.011-.167.017-.363.017-.59 0-.856-.212-1.504-.635-1.944-.423-.44-1.044-.66-1.863-.66-1.91 0-2.918 1.065-3.026 3.194h5.507zm3.569 5.138c-.183 0-.275-.089-.275-.266v-8.443c0-.178.092-.267.275-.267h.341c.195 0 .297.089.308.267l.092 1.037c.46-.5.91-.854 1.35-1.062.44-.208.938-.312 1.493-.312.194 0 .352.006.475.017.18.01.27.106.27.287v.443c0 .049-.018.094-.054.135-.036.041-.084.062-.146.062-.097 0-.188-.003-.272-.009-.085-.005-.212-.008-.381-.008-.555 0-1.047.101-1.476.304-.429.202-.841.529-1.238.98V93.1c0 .177-.092.266-.275.266h-.487z" transform="translate(-153 -454) translate(154 454)"/>
                </g>
                <path stroke="#000" d="M0.5 0.5H153.5V162.5H0.5z" transform="translate(-153 -454) translate(154 454)"/>
            </g>
        </g>
    </g>
</svg>
