<svg xmlns="http://www.w3.org/2000/svg" width="382" height="286" viewBox="0 0 382 286">
    <defs>
        <filter id="f1jx53buoa" width="105.6%" height="184.9%" x="-2.8%" y="-42.4%" filterUnits="objectBoundingBox">
            <feGaussianBlur in="SourceGraphic" stdDeviation="2.808"/>
        </filter>
    </defs>
    <g fill="none" fill-rule="evenodd" transform="matrix(-1 0 0 1 382 0)">
        <ellipse cx="222.826" cy="267.235" fill="#D8D8D8" filter="url(#f1jx53buoa)" rx="150.673" ry="9.928"/>
        <path fill="#707070" fill-rule="nonzero" d="M320.144 260.11l-15.552 1.029-2.115-29.172 22.706-1.746.25 1.793c1.026 8.014 4.665 40.834 3.436 46.337-1.368 6.143-8.725-18.242-8.725-18.242z"/>
        <path fill="#FFF" fill-rule="nonzero" d="M324.172 272.021s3.11 8.497 4.48 7.313c1.368-1.185-1.09-34.488-3.453-49.082l-.638.094 3.11 38.822s-3.56 1.123-3.499 2.853z" opacity=".4"/>
        <path fill="#263238" fill-rule="nonzero" d="M324.499 229.925c.05.162.081.33.093.499 0 .436.125.904.187 1.434.171 1.435.373 3.212.622 5.286.482 4.474 1.089 10.648 1.555 17.493.467 6.845.825 13.034.996 17.525.077 2.089.124 3.866.17 5.316v1.45c.024.166.024.334 0 .5v-.5c0-.436 0-.904-.093-1.45-.077-1.434-.17-3.212-.28-5.3-.233-4.491-.59-10.68-1.104-17.525-.513-6.845-1.057-13.004-1.477-17.478-.202-2.09-.374-3.851-.498-5.301 0-.53-.093-.998-.124-1.435-.031-.436-.047-.514-.047-.514z"/>
        <path fill="#263238" fill-rule="nonzero" d="M328.185 269.09c-.863.296-1.688.694-2.457 1.185-.704.576-1.34 1.23-1.898 1.949.654-1.854 2.394-3.1 4.355-3.118v-.016zM323.193 260.811c0 .078-.405.515-1.042.998-.638.483-1.213.795-1.26.717-.047-.078.404-.53 1.042-.998.638-.467 1.197-.795 1.26-.717zM321.777 258.535c.078 0-.202.545-.606 1.076-.405.53-.824.92-.902.857-.078-.062.202-.53.622-1.076.42-.545.809-.92.886-.857zM318.962 257.24c.217.491.323 1.024.311 1.56.11.514.11 1.045 0 1.559-.108 0-.233-.67-.31-1.56-.11-.513-.11-1.044 0-1.558zM316.94 256.866c.65 1.024.837 2.277.514 3.446-.123-.57-.207-1.148-.249-1.73-.136-.564-.224-1.137-.264-1.716z"/>
        <path fill="#263238" fill-rule="nonzero" d="M320.72 261.98c.159.61.206 1.244.14 1.871-.041.683-.14 1.361-.296 2.027-.087.408-.217.805-.389 1.185-.112.23-.306.407-.544.5-.28.094-.588.007-.777-.22-.828-1.426-.535-3.241.7-4.334.349-.31.756-.548 1.197-.701.31-.094.498-.11.498 0-.572.226-1.1.553-1.556.967-.458.462-.777 1.046-.917 1.683-.203.75-.09 1.55.31 2.214.234.281.576.14.747-.202.17-.347.296-.713.374-1.092.179-.643.303-1.3.373-1.964.14-1.248.093-1.934.14-1.934z"/>
        <path fill="#263238" fill-rule="nonzero" d="M320.86 262.464c-.383.248-.838.358-1.291.312-.493-.027-.973-.172-1.4-.421-.588-.275-.994-.835-1.073-1.482.064-.397.425-.677.824-.639.302.012.595.097.856.25.436.21.84.484 1.197.81.622.546.871.983.84 1.014-.031.031-.358-.359-.995-.826-.367-.277-.764-.513-1.182-.702-.405-.234-1.136-.359-1.182.125-.047.483.497.92.886 1.169.383.24.812.395 1.26.452.42.012.842-.009 1.26-.062zM316.583 231.032s0 .842.233 2.151c.335 1.698 1.125 3.272 2.286 4.553 1.18 1.266 2.688 2.178 4.355 2.635 1.275.359 2.115.343 2.115.405 0 .063-.218 0-.59 0-.525-.01-1.047-.077-1.556-.202-4.176-.92-7.088-4.715-6.905-8.997-.004-.183.017-.367.062-.545z"/>
        <path fill="#263238" fill-rule="nonzero" d="M304.7 234.945c1.971-.344 3.96-.573 5.957-.686 1.988-.226 3.987-.34 5.988-.343-1.97.344-3.96.573-5.956.686-1.988.235-3.987.35-5.988.343zM323.177 244.69c.412 1.374.657 2.792.731 4.225.19 1.423.19 2.865 0 4.288-.109 0-.124-1.918-.327-4.257-.202-2.339-.513-4.24-.404-4.256zM322.742 238.968c0-.078.42.124.87.296.452.171.84.234.84.343 0 .11-.45.187-.964 0-.513-.187-.809-.561-.746-.64zM319.911 237.019c0-.078.389.093.715.374.327.28.53.561.467.64-.062.077-.373-.094-.7-.375-.326-.28-.544-.561-.482-.64zM318.465 234.025c.109 0 .124.406.31.811.187.405.436.717.374.795-.062.078-.482-.14-.7-.655-.218-.514-.078-.982.016-.95zM317.734 231.874s.249.109.357.343c.11.234.125.467 0 .499-.124.03-.248-.11-.373-.343-.124-.234-.078-.468.016-.5z"/>
        <path fill="#000" fill-rule="nonzero" d="M2.238 0.375L3.886 29.561 0.387 29.764 0.387 0.281z" opacity=".3" transform="translate(313.567 230.75)"/>
        <path fill="#263238" fill-rule="nonzero" d="M191.294 153.949s-17.372 107.423 6.47 110.791c23.841 3.368 118.041-1.013 118.041-1.013l-1.275-36-82.147-5.988 6.64-66.652-47.73-1.138z"/>
        <path fill="#707070" fill-rule="nonzero" d="M250.035 257.319l-15.553 1.029-2.115-29.172 22.722-1.746.249 1.793c1.026 8.014 4.666 40.834 3.437 46.337-1.369 6.143-8.74-18.241-8.74-18.241z"/>
        <path fill="#FFF" fill-rule="nonzero" d="M254.063 269.2s3.11 8.496 4.479 7.311c1.368-1.184-1.089-34.487-3.437-49.08l-.654.093 3.11 38.822s-3.545 1.154-3.498 2.853z" opacity=".4"/>
        <path fill="#263238" fill-rule="nonzero" d="M254.405 227.072c.054.155.085.318.093.483 0 .436.125.904.187 1.434.17 1.45.373 3.212.622 5.286.482 4.474 1.073 10.649 1.555 17.493.482 6.845.824 13.034.995 17.525 0 2.089.125 3.866.172 5.316v1.45c.016.166.016.333 0 .5-.02-.166-.02-.334 0-.5 0-.436 0-.904-.094-1.45 0-1.434-.17-3.211-.28-5.3-.233-4.491-.59-10.68-1.104-17.525-.513-6.845-1.058-13.003-1.555-17.478l-.513-5.301c0-.53-.078-.998-.125-1.434.002-.168.017-.335.047-.5z"/>
        <path fill="#263238" fill-rule="nonzero" d="M258.075 266.3c-1.764.5-3.3 1.603-4.339 3.117.652-1.848 2.384-3.093 4.34-3.118zM253.098 257.99c0 .077-.42.53-1.057.997-.638.468-1.198.795-1.26.717-.062-.078.42-.53 1.058-.998.637-.467 1.197-.717 1.26-.717zM251.683 255.744s-.202.546-.622 1.076-.809.92-.886.873c-.078-.047.202-.546.606-1.092.405-.545.824-.92.902-.857zM248.822 254.45c.216.49.323 1.023.31 1.559.124.512.124 1.047 0 1.56-.215-.491-.316-1.025-.295-1.56-.123-.512-.129-1.045-.015-1.56zM246.846 254.091c.653 1.017.84 2.266.514 3.43-.14-.561-.224-1.136-.25-1.715-.142-.562-.23-1.136-.264-1.715z"/>
        <path fill="#263238" fill-rule="nonzero" d="M250.626 259.19c.157.61.2 1.245.124 1.87-.026.69-.125 1.375-.295 2.043-.08.403-.205.795-.374 1.17-.12.229-.318.406-.56.498-.274.093-.577.006-.762-.218-.834-1.426-.54-3.245.7-4.334.35-.31.757-.55 1.198-.702.31-.094.497-.11.497-.078-.574.222-1.101.55-1.555.967-.47.457-.794 1.043-.933 1.684-.191.752-.073 1.55.327 2.214.233.28.575.14.746-.203.164-.35.289-.715.373-1.092.186-.623.326-1.258.42-1.902.094-1.2 0-1.917.094-1.917z"/>
        <path fill="#263238" fill-rule="nonzero" d="M250.75 259.673c-.376.249-.827.36-1.275.312-.494-.027-.973-.171-1.4-.421-.589-.275-.994-.835-1.073-1.481.056-.402.422-.686.824-.64.3.02.592.104.856.25.431.218.834.49 1.197.81.622.546.871.983.84 1.014-.031.031-.373-.343-.995-.826-.37-.274-.766-.509-1.182-.702-.42-.218-1.136-.343-1.182.125-.047.468.482.92.886 1.185.379.233.803.382 1.244.436.421.013.842-.008 1.26-.062zM246.489 228.24s0 .843.233 2.153c.624 3.484 3.209 6.29 6.625 7.187 1.291.359 2.13.343 2.13.405 0 .063-.217 0-.59 0-.524-.01-1.046-.079-1.555-.202-3.573-.822-6.277-3.755-6.812-7.39-.078-.516-.104-1.039-.078-1.56-.013-.198.002-.398.047-.592zM234.607 232.154c1.97-.344 3.96-.573 5.956-.686 1.988-.226 3.987-.34 5.988-.343-1.971.344-3.96.579-5.957.702-1.987.235-3.986.344-5.987.327zM253.067 241.899c.43 1.37.682 2.79.747 4.225.179 1.424.179 2.864 0 4.288-.109 0-.125-1.902-.327-4.257-.202-2.354-.513-4.24-.42-4.256z"/>
        <path fill="#263238" fill-rule="nonzero" d="M252.647 236.161s.42.14.871.297c.451.155.84.233.84.343 0 .109-.45.187-.964 0-.513-.188-.809-.546-.747-.64zM249.817 234.228c0-.078.373.094.7.374.326.28.544.561.482.64-.062.077-.373-.094-.7-.375-.327-.28-.544-.561-.482-.639zM248.37 231.234c.094 0 .125.406.312.811.186.406.42.717.357.795-.062.078-.466-.124-.684-.654-.218-.53-.078-.983.016-.952zM247.624 229.083c.093 0 .249.109.373.343.125.234.125.468 0 .499-.124.031-.249-.11-.357-.343-.11-.234-.094-.452-.016-.5z"/>
        <path fill="#000" fill-rule="nonzero" d="M2.129 0.125L3.778 29.296 0.263 29.499 0.263 0.016z" opacity=".3" transform="translate(243.582 228.225)"/>
        <path fill="#263238" fill-rule="nonzero" d="M106.736 244.627c1.82 18.788 33.266 20.861 59.83 20.908 36.314.094 77.061.25 77.061.25l.093-39.103-88.99 1.793s78.54-42.985 87.435-56.97c5.423-8.32 6.406-18.784 2.629-27.971l-66.098 8.84-49.627 45.308c-12.006 11.101-15.552 13.253-20.218 22.42-3.546 7.328-2.955 15.061-2.115 24.525z"/>
        <path fill="#455A64" fill-rule="nonzero" d="M136.067 236.66c3.314-1.034 6.547-2.31 9.674-3.82 3.218-1.266 6.338-2.772 9.331-4.506-6.54 2.315-12.907 5.098-19.051 8.326h.046zM142.257 227.072c2.26.44 4.558.639 6.859.592 2.295.207 4.606.155 6.89-.156-2.258-.45-4.558-.654-6.86-.608-2.295-.207-4.606-.15-6.889.172zM234.669 265.785c-.233 0-.435-8.716-.435-19.474 0-10.758.202-19.458.435-19.458.233 0 .451 8.716.451 19.458 0 10.743-.14 19.474-.451 19.474z"/>
        <path fill="#455A64" fill-rule="nonzero" d="M238.76 175.355c-.246.241-.51.46-.794.655l-2.38 1.73c-2.083 1.482-5.116 3.571-8.926 6.113-7.59 5.067-18.181 11.896-29.985 19.286-11.804 7.39-22.536 14.032-30.358 18.71-3.904 2.354-7.092 4.24-9.332 5.503-1.104.64-1.975 1.123-2.581 1.419l-.218.11h-.078.093l.265-.172c.155-.094.233-.125.249-.11l41.524-25.959c11.789-7.39 22.427-14.141 30.094-19.084l9.067-5.893 2.457-1.56c.265-.29.568-.542.902-.748z"/>
        <path fill="#455A64" fill-rule="nonzero" d="M243.627 265.785c-.059-.24-.085-.486-.078-.733 0-.561 0-1.279-.093-2.167 0-1.98-.109-4.678-.202-8.155-.14-7.062-.311-16.932-.529-28.485l.389.359c-7.636.312-16.05.546-24.884.748-17.76.39-33.857.593-45.49.78l-13.78.202h-3.763c-.435.041-.872.041-1.307 0 .433-.062.87-.099 1.307-.109l3.748-.187c3.25-.14 7.963-.296 13.78-.467l45.49-1.014c8.818-.203 17.216-.42 24.883-.686h.39v.39c.092 11.569.17 21.438.232 28.5v10.307c-.012.24-.043.48-.093.717zM28.135 148.164l-19.798-8.076-8.197-8.045 12.442-.998 37.108 14.687c1.222.479 2.195 1.437 2.694 2.653.5 1.216.481 2.584-.05 3.786-1.018 2.304-3.635 3.432-6.003 2.588l-18.196-6.595z"/>
        <path fill="#263238" fill-rule="nonzero" d="M47.886 149.677c-1.907-.493-3.778-1.118-5.599-1.871l-13.281-5.02-13.313-5.052-4.028-1.482c-.533-.132-1.053-.31-1.556-.53 1.968.185 3.897.663 5.724 1.42 3.468 1.122 8.196 2.821 13.39 4.801 5.195 1.98 9.83 3.867 13.189 5.27 1.889.669 3.72 1.493 5.474 2.464zM.078 132.043L5.319 137.172 7.341 131.45z"/>
        <path fill="#263238" fill-rule="nonzero" d="M12.147 131.31c-.232 1.611-.759 3.165-1.555 4.584-.525 1.535-1.314 2.965-2.333 4.225.231-1.611.759-3.165 1.555-4.584.524-1.534 1.314-2.965 2.333-4.225z"/>
        <path fill="#FFBE9D" fill-rule="nonzero" d="M13.438 142.614c-.731 2.837 4.743 3.118 4.665 4.77-.85-.095-1.698.203-2.303.81-.605.606-.902 1.456-.807 2.309 0 1.122 2.395 1.559 4.012 1.653.885.079 1.585.781 1.664 1.668 0 .296 0 .64.078 1.013.171 3.119 5.708 2.604 5.708 2.604s4.868-.296 6.22-.624c1.354-.327 13.407-.39 13.407-.39l-2.069-21.609-5.567.327-9.036.234c-1.363-.651-2.604-1.532-3.67-2.603-1.372-1.286-2.56-2.755-3.53-4.366-.267-.7-.948-1.15-1.694-1.123-.746.029-1.391.53-1.604 1.248-.295 1.559 1.633 5.909 5.91 9.495 4.277 3.586-8.118 4.521-11.307 4.521"/>
        <path fill="#FFBE9D" fill-rule="nonzero" d="M144.341 83.102s-26.905 37.17-33.126 38.635c-6.221 1.466-72.847 13.533-72.847 13.533l.746 21.516s86.051-2.416 94.403-10.04c8.351-7.625 33.515-46.385 33.515-46.385l-22.69-17.26z"/>
        <path fill="#EB996E" fill-rule="nonzero" d="M125.399 146.09s.186.312.715.624c2.03 1.141 4.595.507 5.863-1.45.947-1.392 1.037-3.198.233-4.677-.434-.784-1.143-1.379-1.99-1.668-.797-.254-1.662-.187-2.41.187-.64.33-1.114.914-1.306 1.61-.192.696-.085 1.44.294 2.054.571.777 1.586 1.082 2.489.748.606-.265.746-.64.715-.655-.031-.015-.264.234-.809.359-.74.193-1.522-.108-1.944-.749-.25-.479-.298-1.038-.135-1.554.164-.515.526-.943 1.006-1.19.592-.274 1.266-.307 1.882-.093.665.232 1.22.705 1.555 1.325.679 1.248.619 2.77-.155 3.96-.605 1.004-1.626 1.685-2.784 1.856-1.116.081-2.233-.157-3.22-.686z"/>
        <path fill="#D74C41" fill-rule="nonzero" d="M175.042 94.421l-25.6 43.92-29.424-24.43s20.373-33.46 30.015-43.828l25.009 24.338z"/>
        <path fill="#D74C41" fill-rule="nonzero" d="M135.896 61.835s26.16-25.85 49.566 6.362c14.712 20.268 45.101 51.045 55.801 64.703 2.41 3.119 6.221 7.702 3.546 10.556-8.056 8.746-30.031 28.329-70.716 13.72l-37.481-53.01c-6.594-9.215-2.426-20.503-.28-33.397l-.436-8.934z"/>
        <path fill="#263238" fill-rule="nonzero" d="M179.318 87.639c-.093 0 0-1.03-.404-2.807-.46-2.515-1.4-4.919-2.768-7.078-2.003-3.216-4.939-5.74-8.414-7.234-4.279-1.763-9.047-1.929-13.437-.468-2.256.795-4.36 1.97-6.221 3.477-1.747 1.386-3.342 2.954-4.76 4.677-2.372 2.96-4.528 6.086-6.453 9.355-1.711 2.79-3.11 5.052-4.137 6.58-.498.763-.933 1.34-1.213 1.73-.127.21-.284.4-.467.561.394-.862.857-1.69 1.384-2.479l3.888-6.704c1.87-3.371 3.997-6.592 6.361-9.635 2.926-3.81 6.836-6.742 11.307-8.482 4.579-1.522 9.554-1.322 13.997.561 3.597 1.582 6.61 4.254 8.616 7.64 1.37 2.243 2.25 4.75 2.581 7.36.1.701.142 1.41.125 2.12.05.272.056.551.015.826z"/>
        <path fill="#000" fill-rule="nonzero" d="M24.557 0.421L11.649 52.87 0.358 37.092z" opacity=".2" transform="translate(154.108 92.722)"/>
        <path fill="#263238" fill-rule="nonzero" d="M156.814 55.568c-.827 1.23-1.764 2.384-2.8 3.445l-7.091 7.967c-2.768 3.119-5.226 5.972-6.967 8.077-.882 1.186-1.854 2.302-2.909 3.336.682-1.318 1.506-2.557 2.458-3.695 1.633-2.198 4.043-5.13 6.811-8.248 2.769-3.118 5.366-5.862 7.279-7.795.985-1.118 2.062-2.15 3.22-3.087zM150.858 136.003c-1.522-1.085-2.976-2.261-4.355-3.524-2.66-2.214-6.376-5.192-10.529-8.435-4.152-3.242-7.963-6.142-10.653-8.325-1.353-1.092-2.426-1.98-3.11-2.62-.685-.639-1.12-.997-1.09-1.044 1.605.96 3.138 2.033 4.589 3.212 2.784 2.058 6.625 4.895 10.793 8.138 4.168 3.243 7.854 6.315 10.42 8.653 1.275 1.154 2.302 2.12 2.97 2.822.365.335.689.712.965 1.123zM210.096 161.682c-.651-.6-1.264-1.24-1.835-1.918-1.135-1.263-2.768-3.118-4.743-5.457-3.95-4.677-9.332-11.194-14.993-18.57-5.66-7.374-10.637-14.234-14.121-19.254-1.742-2.51-3.11-4.553-4.06-5.987-.52-.721-.983-1.482-1.383-2.277.6.655 1.15 1.354 1.648 2.09l4.261 5.83c3.609 4.928 8.616 11.71 14.293 19.1 5.677 7.39 10.887 14.032 14.79 18.71l4.557 5.628c.584.658 1.114 1.362 1.586 2.105z"/>
        <path fill="#263238" fill-rule="nonzero" d="M214.886 147.852c-.704.836-1.552 1.539-2.503 2.074-2.187 1.447-4.577 2.556-7.092 3.29-2.523.754-5.143 1.133-7.776 1.122-1.086.07-2.176-.052-3.22-.358 3.623-.134 7.22-.657 10.731-1.56 3.444-1.155 6.75-2.687 9.86-4.568zM215.555 141.055c-.777 1.001-1.706 1.874-2.753 2.588-4.855 3.77-10.617 6.19-16.703 7.016-1.245.24-2.52.287-3.779.14 4.192-.664 8.304-1.762 12.27-3.274 3.86-1.788 7.533-3.956 10.965-6.47zM101.635 26.163c-2.768.323-5.538-.589-7.574-2.495-2.003-1.906-3.307-4.432-3.702-7.172-.389-1.428-.051-2.956.902-4.085 1.073-.982 3.313-.359 3.204 1.091-1.1-.92-1.746-2.274-1.773-3.71.02-1.452.987-2.72 2.38-3.119.69-.14 1.406.02 1.972.438.566.42.929 1.059.998 1.76-.788-.717-1.433-1.58-1.897-2.54-.678-1.142-.39-2.611.667-3.411 1.057-.8 2.545-.674 3.454.292 1.055.906 1.872 2.057 2.38 3.352-.92-2.08-.822-4.471.264-6.47 1.773 2.76 5.366 3.804 8.632 3.602 3.245-.43 6.446-1.15 9.564-2.152 3.153-1.003 6.558-.853 9.611.42 3.11 1.56 4.9 4.834 6.532 7.906 3.826 7.203 7.777 14.827 7.512 22.981"/>
        <path fill="#FFBE9D" fill-rule="nonzero" d="M155.819 56.145l-21.291-47.32-1.96-.312c-13.22-2.151-19.813-3.929-28.134 6.61-3.576 5.201-4.2 11.89-1.648 17.666 3.032 6.829 7.123 15.778 10.03 21.017 5.164 9.355 15.32 5.706 15.32 5.706l10.249 16.06 17.434-19.427z"/>
        <path fill="#263238" fill-rule="nonzero" d="M109.27 37.404c.274-.54.21-1.19-.162-1.667-.372-.477-.987-.694-1.575-.558-.589.137-1.045.603-1.17 1.196-.28.809.143 1.693.948 1.98.803.27 1.674-.152 1.96-.951zM105.087 35.845c.234 0 .778-1.123 2.053-1.824 1.275-.702 2.582-.546 2.644-.796.062-.25-.28-.311-.855-.405-1.572-.204-3.092.643-3.748 2.09-.218.53-.203.904-.094.935zM120.453 29.795c-.328.729-.054 1.588.635 1.99.69.402 1.57.216 2.04-.43.425-.742.175-1.688-.56-2.121-.74-.426-1.683-.175-2.115.561zM119.178 29.452c.233.078.762-1.122 2.053-1.824 1.29-.702 2.581-.546 2.628-.795.047-.25-.264-.327-.84-.405-1.569-.212-3.09.63-3.748 2.073-.233.546-.202.92-.093.951zM120.266 43.126c-.803.106-1.585.338-2.317.686-.358.156-.669.218-.793 0-.19-.332-.287-.709-.28-1.092-.124-1.044-.249-2.089-.389-3.118-.242-2.743-.763-5.455-1.555-8.092-.052 2.75.178 5.498.684 8.201l.467 3.119c-.001.569.197 1.12.56 1.559.242.2.562.28.87.218.218-.048.427-.127.623-.234 1.384-.67 2.177-1.138 2.13-1.247z"/>
        <path fill="#EB996E" fill-rule="nonzero" d="M128.042 59.388c4.365-2.253 7.96-5.76 10.327-10.072 0 0 .747 8.31-9.036 12.473l-1.29-2.401z"/>
        <path fill="#FFBE9D" fill-rule="nonzero" d="M138.79 19.334c.155-.172 7.48-4.522 9.657 3.492 1.882 6.938-5.94 8.139-6.034 7.92-.094-.218-3.624-11.412-3.624-11.412z"/>
        <path fill="#EB996E" fill-rule="nonzero" d="M143.828 26.677h.358c.317.016.629-.09.87-.296.7-.887.843-2.091.374-3.118-.187-.582-.5-1.114-.918-1.56-.28-.377-.728-.593-1.197-.576-.302.03-.539.273-.56.576v.359c0 .031-.187 0-.233-.359-.022-.173.016-.35.109-.498.165-.138.376-.21.59-.203.583-.086 1.17.131 1.556.577.49.47.858 1.054 1.073 1.7.53 1.175.283 2.558-.622 3.476-.318.245-.733.326-1.12.218-.218-.14-.311-.28-.28-.296z"/>
        <path fill="#263238" fill-rule="nonzero" d="M108.213 30.902c0 .749-.715 1.372-1.555 1.715-.735.397-1.633.33-2.302-.171-.482-.53 0-1.762 1.322-2.308 1.322-.545 2.52.047 2.535.764zM121.682 24.432c-.14.733-1.042 1.2-1.944 1.559-.902.359-1.882.764-2.52.374-.295-.202-.389-.67-.171-1.231.68-1.447 2.314-2.177 3.841-1.716.56.281.84.702.794 1.014zM125.585 40.148c.234-.094.793 1.653 0 3.586-.793 1.933-2.488 2.697-2.581 2.479-.094-.218 1.073-1.17 1.773-2.838.7-1.668.56-3.18.808-3.227z"/>
        <path fill="#263238" fill-rule="nonzero" d="M100.344 26.24c4.36-.02 8.43-2.188 10.886-5.8 1.556-2.385 2.396-5.55 4.993-6.688 2.597-1.138 5.1.187 7.605 1.013 2.504.827 5.832.873 7.06-1.45 1.093 4.964 3.768 9.435 7.621 12.738.643.624 1.436 1.07 2.302 1.294.9.2 1.821-.236 2.24-1.06.186-.862 0-1.762-.514-2.479-2.441-4.537-4.448-9.775-6.89-14.313-.96-1.604-2.328-2.922-3.965-3.82-1.963-.978-4.168-1.363-6.346-1.106-4.31-.08-8.614.37-12.815 1.34-4.24.986-7.977 3.486-10.513 7.032-2.364 3.602-4.48 9.059-1.929 12.473"/>
    </g>
</svg>
