<svg xmlns="http://www.w3.org/2000/svg" width="194" height="231" viewBox="0 0 194 231">
    <g fill="none" fill-rule="evenodd">
        <path fill="#D74C41" fill-rule="nonzero" d="M162.531 36.698c-7.838-.805-15.706 1.222-22.18 5.714-11.888 8.263-27.358 22.15-46.29 43.995-25.71 29.67-70.648 6.829-93.623 29.878 17.269.46 36.134 12.877 40.377 31.63 4.243 18.755 32.693 28.578 51.002 27.181 18.308-1.397 63.113 24.371 77.662-2.363 10.81-19.876 26.8-72.572 23.368-106.997-1.489-15.23-13.51-27.297-28.733-28.844l-1.583-.194z" transform="matrix(-1 0 0 1 194 0)"/>
        <path fill="#F88B83" fill-rule="nonzero" d="M91.274 175.133h.506c2.309-.119 4.624.018 6.902.409 13.657-20.983 23.636-46.306 32.553-68.59-11.33 23.836-24.7 46.648-39.96 68.181zM44.233 155.777c1.111 1.643 2.383 3.171 3.797 4.562 29.833-13.04 61.612-54.241 74.177-82.016-21.489 34.06-56.203 62.006-77.974 77.454z" opacity=".2" transform="matrix(-1 0 0 1 194 0)"/>
        <path fill="#3A3847" fill-rule="nonzero" d="M141.645 83.079s-10.083 44.545-13.174 60.096c-3.389 17.03 9.659 64.228 9.659 64.228l10.477-3.069s-8.411-39.38-3.396-55.898c5.44-17.915 17.751-64.644 17.751-64.644l-21.317-.713z" transform="matrix(-1 0 0 1 194 0)"/>
        <path fill="#F2AA47" fill-rule="nonzero" d="M129.69 173.64c.66 5.424 7.095 34.714 7.89 37.151.795 2.437-2.727 9.578-5.795 13.018-2.178 2.43 2.645 3.715 5.944 1.308 5.483-4.042 9.488-9.43 12.847-11.703 2.065-1.39 1.33-5.12-1.115-7.883-1.226-1.375-5.156-34.18-5.58-36.476-.423-2.296-10.135 2.586-12.423 7.237-1.01-3.655-2.43-8.084-1.769-2.652z" transform="matrix(-1 0 0 1 194 0)"/>
        <path fill="#FFF" fill-rule="nonzero" d="M131.933 180.409c-.136-.002-.26-.075-.327-.194-.897-1.596-1.59-3.298-2.065-5.067-.018-.097.005-.196.063-.276.057-.08.144-.133.241-.148.203-.031.393.104.431.305.374 1.405.9 2.766 1.568 4.057 1.672-3.945 8.433-7.193 11.39-7.155 1.19 0 1.487.594 1.531.943.023.133-.027.268-.13.354-.104.086-.246.11-.372.063s-.218-.158-.24-.29c-.053-.275-.536-.327-.818-.327h-.06c-2.972 0-10.045 3.715-10.87 7.43-.03.15-.153.263-.305.282l-.037.023z" transform="matrix(-1 0 0 1 194 0)"/>
        <path fill="#000" fill-rule="nonzero" d="M155.695 101.053c-9.399 11.145-9.169 30.464-7.586 39.648 3.715-13.018 8.47-30.747 11.591-42.45-1.025-.007-2.34.818-4.005 2.802z" opacity=".2" transform="matrix(-1 0 0 1 194 0)"/>
        <path fill="#353E63" fill-rule="nonzero" d="M147.797 49.538l-1.323 1.954c-.446.691-.914 1.375-1.36 2.08-.906 1.398-1.775 2.824-2.63 4.25-.854 1.428-1.686 2.884-2.46 4.355l-1.15 2.23-.55 1.114-.253.512c0 .052-.06.097-.09.156-.315.992-.374 2.048-.17 3.07.217 1.49.57 2.957 1.055 4.383 1.088 3.149 2.374 6.226 3.849 9.214l-4.154 3.061c-2.642-2.737-4.92-5.804-6.776-9.124-1-1.784-1.805-3.67-2.4-5.625-.325-1.111-.542-2.25-.647-3.403-.14-1.35-.052-2.714.26-4.035.09-.364.208-.743.327-1.1l.253-.743.475-1.33c.335-.877.669-1.76 1.048-2.615.743-1.739 1.523-3.433 2.378-5.09.854-1.657 1.783-3.292 2.764-4.89.498-.787 1.003-1.582 1.538-2.355.275-.393.535-.743.825-1.174l.914-1.21 8.277 6.315z" transform="matrix(-1 0 0 1 194 0)"/>
        <path fill="#353E63" fill-rule="nonzero" d="M141.176 41.038c-2.615 2.615-4.54 6.397-6.092 9.228l8.73 7.43c3.567-4.004 9.392-11.888 9.37-15.603-.052-5.491-6.51-6.531-12.008-1.055z" transform="matrix(-1 0 0 1 194 0)"/>
        <path fill="#3A3847" fill-rule="nonzero" d="M153.303 83.168s-2.467 42.04-2.23 57.83c.276 17.29 6.688 73.07 6.688 73.07l10.781-1.724s-1.396-52.153 0-69.22c1.613-18.517 5.328-59.302 5.328-59.302l-20.567-.654z" transform="matrix(-1 0 0 1 194 0)"/>
        <path fill="#F2AA47" fill-rule="nonzero" d="M153.065 177.89c.617 5.439 3.56 36.32 3.983 38.875.423 2.556-3.024 9.192-5.075 11.733-2.051 2.541 3.923 2.415 7.816 1.24 3.894-1.173 6.65-8.314 8.88-9.57 2.229-1.255 2.318-5.327 1.107-6.687-1.211-1.36-.817-35.405-.892-37.76-.074-2.356-8.782.898-11.703 5.2-2.72-3.522-4.74-8.463-4.116-3.031z" transform="matrix(-1 0 0 1 194 0)"/>
        <path fill="#FFF" fill-rule="nonzero" d="M156.854 184.726c-.111.001-.218-.048-.29-.134-1.41-1.726-2.655-3.582-3.714-5.543-.093-.185-.02-.41.163-.505.183-.092.405-.019.498.163.96 1.77 2.077 3.451 3.336 5.023 2.653-3.715 8.173-5.944 10.774-5.684 1.077.119 1.486.631 1.612 1.033.058.128.039.277-.05.386-.088.11-.23.16-.367.13-.138-.03-.246-.135-.281-.271-.134-.372-.617-.498-.996-.543-2.46-.282-8.01 2.073-10.35 5.774-.066.098-.172.161-.29.17h-.045z" transform="matrix(-1 0 0 1 194 0)"/>
        <path fill="#353E63" fill-rule="nonzero" d="M142.32 85.323l5.692 1.107c1.426.278 2.66 1.162 3.381 2.422l1.56 2.75 3.99-3.36c.859-.725 1.932-1.148 3.055-1.203l14.206-.698c.342-2.616.075-11.19 1.055-22.069.674-8.085 2.1-16.09 4.258-23.91.135-.45.072-.937-.171-1.339-.244-.402-.646-.682-1.107-.772l-2.103-.356c-1.91-.32-4.31-.662-6.687-.84-4.507-.385-9.03-.529-13.553-.43-2.088.11-4.139.363-5.773.601-1.33.2-1.895.156-2.482.297-.517.157-.979.459-1.33.87-2.036 2.593-9.734 14.957-3.99 46.93z" transform="matrix(-1 0 0 1 194 0)"/>
        <path fill="#FFF" fill-rule="nonzero" d="M171.973 56.553c.85-6.472-10.081-12.767-14.111-13.297-4.03-.529-15.97 3.791-16.82 10.263-.85 6.472 9.712 12.644 13.742 13.174 4.03.529 16.339-3.668 17.189-10.14z" transform="matrix(-1 0 0 1 194 0)"/>
        <g transform="matrix(-1 0 0 1 194 0) rotate(-85 107.146 -49.802)">
            <path fill="#F28430" d="M2.059 7.284c-.118-.167-.075-.4.094-.518L6.69 3.59c.17-.119.405-.074.519.088.117.168.075.4-.094.518L2.578 7.373c-.17.118-.405.074-.52-.089z"/>
            <path fill="#A8397A" d="M3.003 8.056c.04-.2.232-.332.44-.291l5.783 1.124c.204.04.336.24.299.435-.04.2-.232.332-.44.291L3.302 8.491c-.204-.04-.337-.24-.299-.435z"/>
            <path fill="#2E4881" d="M2.155 8.235c.142-.147.375-.153.527-.005l4.238 4.092c.15.144.151.385.014.528-.142.147-.376.152-.528.004L2.168 8.762c-.15-.144-.151-.385-.013-.527z"/>
            <path fill="#6F3895" d="M4.76 9.166c.092-.182.314-.255.494-.163l4.83 2.461c.18.092.249.32.159.496-.093.183-.315.255-.495.164l-4.83-2.461c-.18-.092-.249-.32-.159-.497z"/>
            <path fill="#F7B13E" d="M1.933 7.18c-.16-.125-.186-.362-.066-.516l1.993-2.55c.124-.16.36-.183.517-.06.16.125.186.362.066.516L2.45 7.12c-.125.16-.361.183-.518.06z"/>
            <rect width="3.969" height="1" x="2.976" y="7.663" fill="#EB4853" rx=".397"/>
            <path fill="#318BBA" d="M2.02 8.321c.16-.126.397-.091.519.064l1.752 2.242c.125.161.092.398-.064.52-.161.126-.398.091-.52-.064L1.955 8.841c-.126-.161-.092-.398.064-.52z"/>
            <path fill="#F7B13E" d="M5.459 2.718c-.162-.126-.187-.362-.06-.526l.87-1.113c.128-.164.368-.192.524-.07.161.126.187.362.06.526l-.87 1.113c-.129.164-.368.192-.524.07z"/>
            <path fill="#EF6330" d="M6.444 5.577c-.077-.19.01-.404.205-.483l2.767-1.117c.19-.077.408.02.482.204.077.19-.01.403-.205.482L6.926 5.781c-.19.077-.408-.02-.482-.204z"/>
            <path fill="#ED4634" d="M4.38 7.05c-.05-.2.065-.399.27-.45l2.895-.722c.199-.05.401.077.45.27.049.198-.066.398-.27.449l-2.896.722c-.2.05-.402-.077-.45-.27z"/>
            <rect width="3.726" height="1" x="7.318" y="6.813" fill="#EC4854" rx=".397"/>
            <rect width="1.818" height="1" x="11.022" y="7.739" fill="#A93979" rx=".397"/>
            <path fill="#2077C0" d="M7.654 13.007c.131-.157.368-.174.514-.052l1.436 1.205c.152.128.166.364.038.516-.131.156-.368.174-.514.051l-1.436-1.205c-.152-.128-.166-.363-.038-.515z"/>
            <path fill="#348DB5" d="M4.71 12.262c.166-.12.4-.08.512.074l1.101 1.517c.118.16.074.393-.087.51-.165.12-.4.079-.512-.075l-1.101-1.516c-.117-.162-.073-.393.087-.51z"/>
            <path fill="#ED4637" d="M11.266 6.108c-.036-.202.09-.392.305-.43l1.625-.286c.204-.036.399.104.433.299.036.201-.09.392-.305.43l-1.625.286c-.204.036-.399-.104-.433-.3z"/>
            <path stroke="#979797" stroke-linecap="square" stroke-width=".667" d="M0.315 0.132L0.315 15.624" opacity=".7" transform="rotate(180 .315 7.871)"/>
        </g>
        <path fill="#FFC3BD" fill-rule="nonzero" d="M140.433 81.325l4.154-.944-2.088 5.707s-3.418 1.003-4.064-1.226l1.998-3.537z" transform="matrix(-1 0 0 1 194 0)"/>
        <path fill="#FFC3BD" fill-rule="nonzero" d="M147.537 82.499L144.594 87.908 142.469 86.088 144.557 80.381z" transform="matrix(-1 0 0 1 194 0)"/>
        <path fill="#353E63" fill-rule="nonzero" d="M178.202 38.237c-5.528-.989-8.047 2.63-6.13 9.317 1.445 4.688 3.461 9.18 6.004 13.375l9.377-2.757c-1.628-6.494-5.558-19.274-9.251-19.935z" transform="matrix(-1 0 0 1 194 0)"/>
        <path fill="#FFC3BD" fill-rule="nonzero" d="M167.354 21.407l-4.63 3.113-6.352 4.273c.187.795.323 1.602.408 2.414.424 3.195 1.14 6.004-4.002 6.643 0 0-4.268 1.306 3.594 2.644 10.157 1.716 12.004-2.644 12.004-2.644-3.894-3.782-2.211-11.398-1.022-16.443z" transform="matrix(-1 0 0 1 194 0)"/>
        <path fill="#000" fill-rule="nonzero" d="M156.334 28.815c.2.787.348 1.586.446 2.392 2.408-.222 5.573-2.229 5.855-4.458.094-.74.094-1.489 0-2.229l-6.3 4.295z" opacity=".2" transform="matrix(-1 0 0 1 194 0)"/>
        <path fill="#263238" fill-rule="nonzero" d="M155.346 8.367c-2.771 1.114-4.696 8.693-1.33 10.476 3.366 1.784 6.598-12.594 1.33-10.476z" transform="matrix(-1 0 0 1 194 0)"/>
        <path fill="#FFC3BD" fill-rule="nonzero" d="M167.287 17.127c-1.45 5.305-2.029 8.47-5.32 10.781-2.133 1.577-4.97 1.823-7.343.637-2.373-1.185-3.88-3.602-3.9-6.254-.148-4.993 2.23-12.832 7.958-14.118 2.493-.648 5.14.1 6.925 1.957 1.784 1.857 2.427 4.532 1.68 6.997z" transform="matrix(-1 0 0 1 194 0)"/>
        <path fill="#000" fill-rule="nonzero" d="M155.71 15.477s-2.229-1.76-4.22-1.01c0 0-3.329 5.67 3.41 3.893 7.081 3.552 7.824-2.578 7.824-2.578-4.272-1.76-7.014-.305-7.014-.305z" transform="matrix(-1 0 0 1 194 0)"/>
        <path fill="#263238" fill-rule="nonzero" d="M174.487 11.889c2.533 1.263 0 6.865-2.348 8.552-3.188 2.281-4.674 3.031-6.376 1.486-1.545-.862-4.109-6.212-1.322-9.4-2.363-1.701-10.343 1.695-12.669-5.045-1.04-3.016-.2-9.288 7.765-5.714.446 3.218 5.023 4.11 8.537 3.99 5.283-.2 8.865 2.415 6.413 6.13z" transform="matrix(-1 0 0 1 194 0)"/>
        <path fill="#263238" fill-rule="nonzero" d="M155.16 9.845c-1.932.543-4.101-.847-3.774 1.486.14.58.014 1.192-.346 1.668-.36.475-.916.763-1.512.784 0 0 2.772-.06 2.534-1.872-.238-1.813 2.028-.602 3.953-.38 1.924.224.238-1.998-.855-1.686z" transform="matrix(-1 0 0 1 194 0)"/>
        <path fill="#FFC3BD" fill-rule="nonzero" d="M168.223 22.76c-.918 1.01-2.157 1.674-3.507 1.879-1.702.223-1.999-1.352-1.063-2.831.847-1.33 2.75-3.046 4.236-2.586 1.486.461 1.523 2.267.334 3.537z" transform="matrix(-1 0 0 1 194 0)"/>
        <path fill="#FFF" fill-rule="nonzero" d="M158.831 17.023c-.09.438-.394.743-.684.743-.29 0-.445-.438-.356-.87.089-.43.4-.742.683-.742.283 0 .446.43.357.869zM153.808 16.347c-.097.43-.401.743-.684.743-.282 0-.445-.439-.356-.877.089-.438.394-.743.683-.743.29 0 .439.446.357.877z" transform="matrix(-1 0 0 1 194 0)"/>
        <path fill="#ED847E" fill-rule="nonzero" d="M155.294 16.993c-.805 1.253-1.772 2.395-2.875 3.396.526.536 1.265.809 2.013.743l.862-4.139z" transform="matrix(-1 0 0 1 194 0)"/>
        <path fill="#263238" fill-rule="nonzero" d="M156.074 22.58c1.045.055 2.067-.318 2.831-1.032.032-.033.044-.08.031-.125-.013-.044-.048-.078-.093-.09-.045-.01-.092.003-.123.037-.842.768-1.99 1.108-3.114.921-.033-.006-.068.001-.096.02-.028.02-.047.05-.052.084-.01.035-.003.071.017.101.02.03.051.05.087.055.178 0 .349.022.512.03zM160.934 14.474c.042-.016.08-.041.111-.074.05-.049.078-.116.078-.186 0-.07-.028-.137-.078-.186-.616-.56-1.473-.775-2.28-.572-.132.046-.204.187-.164.32.04.133.177.212.312.178.635-.15 1.303.025 1.783.468.066.056.155.075.238.052zM154.551 13.806c-.039-.077-.115-.128-.2-.134-.673-.052-1.283-.415-1.65-.981-.03-.062-.085-.11-.15-.13-.067-.022-.139-.015-.2.019-.127.068-.177.227-.11.356.441.72 1.201 1.183 2.043 1.249.069.01.14-.009.195-.052.055-.044.089-.109.094-.179.008-.05 0-.102-.022-.148z" transform="matrix(-1 0 0 1 194 0)"/>
        <path fill="#FFC3BD" fill-rule="nonzero" d="M173.647 81.66l-5.498-.818 2.89 6.271s5.008-.156 4.748-2.727l-2.14-2.727z" transform="matrix(-1 0 0 1 194 0)"/>
        <path fill="#353E63" fill-rule="nonzero" d="M180.743 41.833c.973 1.776 1.761 3.44 2.556 5.201.795 1.761 1.486 3.5 2.177 5.298.691 1.798 1.308 3.618 1.85 5.49.569 1.892 1.037 3.812 1.405 5.752l.14.743c.053.282.112.676.157 1.003.045.343.073.687.082 1.033.022.339.022.679 0 1.018-.044 1.29-.257 2.57-.632 3.804-.68 2.178-1.722 4.225-3.084 6.056-1.23 1.659-2.624 3.19-4.16 4.57-.744.676-1.487 1.3-2.304 1.91-.817.609-1.583 1.136-2.519 1.708l-3.24-4.005c.476-.602 1.048-1.315 1.546-1.999.498-.683 1.018-1.382 1.486-2.073.924-1.341 1.74-2.755 2.437-4.227.643-1.263 1.09-2.616 1.323-4.013.081-.544.081-1.098 0-1.642-.005-.12-.023-.24-.052-.357-.02-.113-.047-.225-.082-.334l-.282-.951c-1.054-3.281-2.276-6.505-3.663-9.66-.699-1.61-1.417-3.214-2.155-4.814l-2.23-4.726 9.244-4.785z" transform="matrix(-1 0 0 1 194 0)"/>
        <path fill="#FFC3BD" fill-rule="nonzero" d="M164.092 84.134L166.737 89.194 171.039 87.113 168.149 80.842z" transform="matrix(-1 0 0 1 194 0)"/>
    </g>
</svg>
