<svg xmlns="http://www.w3.org/2000/svg" width="521" height="399" viewBox="0 0 521 399">
    <g fill="none">
        <path fill="#263238" d="M520.099 396.74c0 .4-116.378.742-259.992.742C116.493 397.482.1 397.14.1 396.74c0-.4 116.378-.743 260.008-.743s259.992.314 259.992.743z"/>
        <g>
            <path fill="#2A6927" d="M69.452 1.378S63.7-2.357 56.829 11.364c-6.87 13.721-9.436 21.67-9.436 21.67s-1.828 2.886-3.815.999c-1.987-1.888-4.674-7.07-8.069-6.072-3.395.999-4.574 4.903-3.865 10.595.71 5.693 1.808 18.225 1.898 19.354.09 1.128-.53 2.766-2.087 1.707-1.558-1.058-10.536-10.885-14.98-6.341-4.443 4.544.17 20.072.64 21.78.469 1.707.14 2.446-.67 2.876-.808.43-3.525-3.166-6.19-5.862-2.667-2.696-6.232-5.343-8.559-2.507C-.631 72.4-1.3 84.083 9.984 102.967l5.802 8.408 10.236-.659c21.82-2.726 30.628-10.435 31.437-13.98.808-3.545-3.496-4.754-7.26-5.203-3.765-.45-8.259-.37-8.419-1.268-.16-.9.22-1.618 1.848-2.297 1.627-.68 16.697-6.631 17.565-12.902.87-6.272-12.422-7.3-14.21-7.88-1.787-.579-.869-2.086.07-2.696.939-.609 11.494-7.47 16.417-10.415 4.923-2.946 7.31-6.211 5.992-9.577-1.318-3.365-7.15-2.137-9.836-2.556-2.687-.42-1.528-3.635-1.528-3.635s4.653-6.91 11.264-20.781c6.61-13.871 0-16.138 0-16.138" transform="translate(397.89 269.626)"/>
            <path fill="#263238" d="M63.29 13.681s0 .11-.13.3-.22.489-.389.858l-1.538 3.296c-1.338 2.856-3.305 6.99-5.752 12.073-4.893 10.166-11.773 24.156-19.433 39.585-7.66 15.429-14.57 29.42-19.513 39.555l-5.852 11.983-1.597 3.266-.43.839c-.09.19-.15.29-.15.29l.12-.3.39-.859 1.538-3.295c1.338-2.856 3.305-6.99 5.752-12.064 4.903-10.176 11.783-24.166 19.433-39.605 7.65-15.438 14.57-29.399 19.523-39.545l5.851-11.983c.69-1.408 1.219-2.507 1.598-3.266l.42-.838.16-.29z" transform="translate(397.89 269.626)"/>
            <path fill="#263238" d="M39.054 35.48c.109.221.196.452.26.69.16.45.36 1.108.599 1.927.48 1.628 1.078 3.895 1.698 6.401l1.557 6.441c.18.766.34 1.415.48 1.948.073.237.12.481.14.729-.116-.22-.206-.45-.27-.69-.16-.449-.36-1.108-.59-1.927-.459-1.628-.998-3.904-1.647-6.41-.65-2.507-1.178-4.704-1.598-6.432-.2-.769-.36-1.418-.49-1.947-.085-.234-.132-.48-.139-.73zM44.726 53.785c0-.09 4.594-1.538 10.316-3.235 5.722-1.698 10.375-2.996 10.406-2.906.03.09-4.594 1.538-10.316 3.235-5.722 1.698-10.376 3.046-10.406 2.906zM31.914 76.953c.25-.044.505-.06.759-.05h1.997c1.728 0 4.114 0 6.75-.16 2.637-.16 4.994-.31 6.741-.459l2.048-.17c.249-.026.5-.026.749 0-.238.088-.487.142-.74.16-.479.08-1.168.18-1.997.28-1.717.21-4.104.44-6.75.559-2.647.12-5.043.11-6.77.07-.87 0-1.569-.06-2.058-.1-.248-.008-.493-.052-.729-.13zM23.126 61.535c.164.165.302.353.41.559.25.38.589.928.998 1.608.84 1.368 1.997 3.265 3.206 5.362 1.208 2.097 2.337 3.995 3.115 5.423.39.699.7 1.268.91 1.657.13.196.227.412.289.64-.158-.174-.295-.365-.41-.57-.24-.37-.579-.919-.998-1.608-.84-1.358-1.997-3.255-3.206-5.362-1.208-2.107-2.337-3.995-3.115-5.423-.39-.689-.71-1.258-.92-1.657-.114-.2-.207-.41-.279-.63zM9.206 80.548c.208.216.383.461.519.73l1.298 2.046c1.079 1.748 2.546 4.164 4.154 6.85 1.608 2.687 3.056 5.124 4.075 6.901.489.839.888 1.548 1.208 2.107.156.254.29.522.4.8-.198-.225-.373-.47-.52-.73l-1.298-2.057c-1.079-1.738-2.547-4.154-4.154-6.84-1.608-2.687-3.046-5.123-4.075-6.9l-1.198-2.108c-.159-.254-.296-.521-.41-.799zM20.71 99.442c.329-.063.663-.09.998-.08l2.597-.12c2.197-.09 5.222-.23 8.568-.48 3.345-.249 6.35-.538 8.538-.768l2.586-.27c.33-.05.665-.07.999-.06-.302.098-.613.161-.929.19-.609.11-1.488.24-2.576.38-2.177.29-5.203.629-8.548.878-3.346.25-6.382.35-8.579.38h-2.596c-.354.017-.708 0-1.058-.05z" transform="translate(397.89 269.626)"/>
        </g>
        <g transform="translate(87.28)">
            <path fill="#263238" d="M56.531 98.363c-.14 0-.26-10.984-.26-24.615 0-13.631.12-24.606.26-24.606s.26 10.984.26 24.606c0 13.62-.12 24.615-.26 24.615zM196.737 265.242H309.291V388.73H196.737z"/>
            <path fill="#455A64" d="M180.3 289.937H303.339V320.46500000000003H180.3z"/>
            <path fill="#263238" d="M185.762 296.229H209.988V299.954H185.762zM185.762 302.64H209.988V306.365H185.762zM185.762 309.27H209.988V312.995H185.762zM219.575 298.475c.004.568-.335 1.081-.858 1.3-.524.22-1.127.1-1.529-.301-.4-.401-.52-1.005-.3-1.528.218-.524.732-.863 1.299-.859.764.006 1.383.624 1.388 1.388zM225.687 298.475c.004.568-.336 1.081-.859 1.3-.523.22-1.127.1-1.528-.301s-.52-1.005-.301-1.528c.219-.524.732-.863 1.3-.859.764.006 1.382.624 1.388 1.388zM231.838 298.475c0 .767-.621 1.389-1.388 1.389-.767 0-1.388-.622-1.388-1.389 0-.766.621-1.388 1.388-1.388.764.006 1.383.624 1.388 1.388zM237.97 298.475c0 .767-.622 1.389-1.389 1.389-.766 0-1.388-.622-1.388-1.389 0-.766.622-1.388 1.388-1.388.765.006 1.383.624 1.388 1.388zM285.493 298.475c0 .767-.621 1.389-1.388 1.389-.766 0-1.388-.622-1.388-1.389 0-.766.622-1.388 1.388-1.388.765.006 1.383.624 1.388 1.388zM291.745 298.475c0 .767-.622 1.389-1.388 1.389-.767 0-1.388-.622-1.388-1.389 0-.766.621-1.388 1.388-1.388.764.006 1.382.624 1.388 1.388zM244.101 298.475c0 .767-.621 1.389-1.388 1.389-.767 0-1.388-.622-1.388-1.389 0-.766.621-1.388 1.388-1.388.764.006 1.383.624 1.388 1.388zM274.22 298.475c0 .767-.622 1.389-1.389 1.389s-1.388-.622-1.388-1.389c0-.766.621-1.388 1.388-1.388.764.006 1.383.624 1.388 1.388z"/>
            <path fill="#F5F5F5" d="M250.232 298.475c0 .767-.621 1.389-1.388 1.389-.766 0-1.388-.622-1.388-1.389 0-.766.622-1.388 1.388-1.388.765.006 1.383.624 1.388 1.388zM256.364 298.475c0 .767-.622 1.389-1.388 1.389-.767 0-1.388-.622-1.388-1.389 0-.766.621-1.388 1.388-1.388.764.006 1.382.624 1.388 1.388zM268.807 298.475c0 .562-.339 1.068-.857 1.283-.519.215-1.116.096-1.513-.301-.397-.397-.516-.994-.3-1.513.214-.518.72-.857 1.282-.857.764.006 1.382.624 1.388 1.388zM296.838 298.475c.004.568-.335 1.081-.859 1.3-.523.22-1.127.1-1.528-.301s-.52-1.005-.301-1.528c.219-.524.732-.863 1.3-.859.764.006 1.382.624 1.388 1.388z"/>
            <path fill="#6F3895" d="M262.505 298.475c.004.567-.334 1.08-.856 1.3-.522.219-1.125.102-1.527-.297-.402-.4-.523-1.002-.307-1.525.216-.524.726-.866 1.292-.866.769 0 1.393.62 1.398 1.388zM280.061 298.475c0 .767-.621 1.389-1.388 1.389-.767 0-1.388-.622-1.388-1.389 0-.766.621-1.388 1.388-1.388.764.006 1.383.624 1.388 1.388z"/>
            <path fill="#263238" d="M294.052 305.176c-.004-.566.334-1.079.856-1.299.522-.22 1.125-.102 1.527.297.402.4.523 1.001.307 1.525-.216.523-.726.865-1.292.865-.769 0-1.393-.62-1.398-1.388zM287.92 305.176c-.004-.567.335-1.08.859-1.3.523-.218 1.127-.1 1.528.302.4.4.52 1.004.3 1.528-.218.523-.732.862-1.299.858-.766 0-1.388-.621-1.388-1.388zM281.789 305.176c0-.561.338-1.067.857-1.282.518-.215 1.115-.096 1.512.3.397.398.516.995.301 1.513-.215.519-.72.857-1.282.857-.767 0-1.388-.621-1.388-1.388zM275.617 305.176c0-.561.338-1.067.857-1.282.519-.215 1.116-.096 1.513.3.397.398.516.995.3 1.513-.214.519-.72.857-1.282.857-.368 0-.72-.146-.981-.406-.26-.26-.407-.614-.407-.982zM228.133 305.176c0-.561.338-1.067.857-1.282.519-.215 1.116-.096 1.513.3.397.398.515.995.3 1.513-.214.519-.72.857-1.282.857-.766 0-1.388-.621-1.388-1.388zM221.882 305.176c0-.561.338-1.067.857-1.282.518-.215 1.115-.096 1.512.3.397.398.516.995.301 1.513-.215.519-.72.857-1.282.857-.767 0-1.388-.621-1.388-1.388zM269.526 305.176c0-.561.338-1.067.857-1.282.518-.215 1.115-.096 1.512.3.397.398.516.995.301 1.513-.215.519-.72.857-1.282.857-.767 0-1.388-.621-1.388-1.388zM239.407 305.176c0-.561.339-1.067.857-1.282.52-.215 1.116-.096 1.513.3.397.398.516.995.301 1.513-.215.519-.721.857-1.282.857-.369 0-.722-.146-.982-.406s-.407-.614-.407-.982z"/>
            <path fill="#F5F5F5" d="M263.394 305.176c0-.561.338-1.067.857-1.282.519-.215 1.116-.096 1.513.3.397.398.516.995.3 1.513-.214.519-.72.857-1.282.857-.766 0-1.388-.621-1.388-1.388zM257.263 305.176c.005-.766.631-1.383 1.398-1.378.766.006 1.383.632 1.378 1.398-.006.767-.632 1.384-1.398 1.378-.368-.002-.72-.151-.979-.413-.258-.263-.402-.617-.4-.985zM244.82 305.176c0-.561.338-1.067.857-1.282.519-.215 1.116-.096 1.513.3.397.398.515.995.3 1.513-.214.519-.72.857-1.282.857-.767 0-1.388-.621-1.388-1.388zM216.789 305.176c-.004-.566.334-1.079.856-1.299.522-.22 1.125-.102 1.527.297.402.4.523 1.001.308 1.525-.216.523-.727.865-1.293.865-.768 0-1.393-.62-1.398-1.388z"/>
            <path fill="#6F3895" d="M251.131 305.176c0-.561.338-1.067.857-1.282.519-.215 1.116-.096 1.513.3.397.398.516.995.3 1.513-.214.519-.72.857-1.282.857-.766 0-1.388-.621-1.388-1.388zM233.566 305.176c-.004-.567.335-1.08.858-1.3.523-.218 1.127-.1 1.528.302.401.4.52 1.004.301 1.528-.219.523-.732.862-1.3.858-.766 0-1.387-.621-1.387-1.388z"/>
            <circle cx="218.187" cy="311.138" r="1.388" fill="#263238"/>
            <circle cx="224.318" cy="311.138" r="1.388" fill="#263238"/>
            <circle cx="230.45" cy="311.138" r="1.388" fill="#263238"/>
            <circle cx="236.581" cy="311.138" r="1.388" fill="#263238"/>
            <circle cx="284.105" cy="311.138" r="1.388" fill="#263238"/>
            <circle cx="290.357" cy="311.138" r="1.388" fill="#263238"/>
            <circle cx="242.713" cy="311.138" r="1.388" fill="#263238"/>
            <path fill="#263238" d="M274.22 311.138c0 .766-.622 1.388-1.389 1.388s-1.388-.622-1.388-1.388c0-.767.621-1.388 1.388-1.388.767 0 1.388.621 1.388 1.388z"/>
            <circle cx="248.844" cy="311.138" r="1.388" fill="#F5F5F5"/>
            <path fill="#F5F5F5" d="M256.364 311.138c0 .766-.622 1.388-1.388 1.388-.767 0-1.388-.622-1.388-1.388 0-.767.621-1.388 1.388-1.388.766 0 1.388.621 1.388 1.388z"/>
            <circle cx="267.419" cy="311.138" r="1.388" fill="#F5F5F5"/>
            <path fill="#F5F5F5" d="M296.838 311.138c.004.567-.335 1.08-.859 1.3-.523.218-1.127.1-1.528-.302-.401-.4-.52-1.004-.301-1.528.219-.523.732-.862 1.3-.858.766 0 1.388.621 1.388 1.388z"/>
            <circle cx="261.107" cy="311.138" r="1.388" fill="#6F3895"/>
            <circle cx="278.673" cy="311.138" r="1.388" fill="#6F3895"/>
            <path fill="#455A64" d="M180.3 327.615H303.339V358.14300000000003H180.3z"/>
            <path fill="#263238" d="M219.265 335.844c0 .766-.621 1.388-1.388 1.388-.766 0-1.388-.622-1.388-1.388 0-.767.622-1.389 1.388-1.389.767 0 1.388.622 1.388 1.389zM225.397 335.844c0 .766-.622 1.388-1.388 1.388-.767 0-1.388-.622-1.388-1.388 0-.767.621-1.389 1.388-1.389.766 0 1.388.622 1.388 1.389zM231.528 335.844c0 .766-.621 1.388-1.388 1.388-.766 0-1.388-.622-1.388-1.388 0-.767.622-1.389 1.388-1.389.767 0 1.388.622 1.388 1.389zM237.67 335.844c.004.566-.334 1.079-.856 1.298-.522.22-1.125.103-1.527-.296-.402-.4-.524-1.001-.308-1.525.216-.524.726-.866 1.293-.866.768 0 1.392.62 1.398 1.389zM285.184 335.844c0 .766-.622 1.388-1.388 1.388-.767 0-1.388-.622-1.388-1.388 0-.767.621-1.389 1.388-1.389.766 0 1.388.622 1.388 1.389zM291.445 335.844c.004.566-.334 1.079-.856 1.298-.522.22-1.125.103-1.527-.296-.402-.4-.523-1.001-.307-1.525.215-.524.726-.866 1.292-.866.768 0 1.393.62 1.398 1.389zM243.801 335.844c.004.566-.334 1.079-.856 1.298-.522.22-1.125.103-1.527-.296-.402-.4-.523-1.001-.307-1.525.216-.524.726-.866 1.292-.866.769 0 1.393.62 1.398 1.389zM273.92 335.844c.004.566-.334 1.079-.857 1.298-.522.22-1.125.103-1.526-.296-.402-.4-.524-1.001-.308-1.525.216-.524.726-.866 1.292-.866.769 0 1.393.62 1.399 1.389z"/>
            <path fill="#F5F5F5" d="M249.933 335.844c.004.567-.335 1.08-.859 1.3-.523.218-1.127.1-1.528-.302-.4-.401-.52-1.005-.3-1.528.218-.523.732-.863 1.299-.859.368 0 .721.147.981.407s.407.613.407.982zM256.064 335.844c0 .766-.621 1.388-1.388 1.388-.766 0-1.388-.622-1.388-1.388 0-.767.622-1.389 1.388-1.389.767 0 1.388.622 1.388 1.389zM268.507 335.844c0 .766-.621 1.388-1.388 1.388-.767 0-1.388-.622-1.388-1.388 0-.767.621-1.389 1.388-1.389.767 0 1.388.622 1.388 1.389zM296.528 335.844c0 .766-.621 1.388-1.388 1.388-.767 0-1.388-.622-1.388-1.388 0-.767.621-1.389 1.388-1.389.767 0 1.388.622 1.388 1.389z"/>
            <path fill="#6F3895" d="M262.196 335.844c0 .766-.622 1.388-1.388 1.388-.767 0-1.388-.622-1.388-1.388 0-.767.621-1.389 1.388-1.389.766 0 1.388.622 1.388 1.389zM279.751 335.844c0 .766-.621 1.388-1.388 1.388-.766 0-1.388-.622-1.388-1.388 0-.767.622-1.389 1.388-1.389.767 0 1.388.622 1.388 1.389z"/>
            <path fill="#263238" d="M293.752 342.524c0-.766.621-1.388 1.388-1.388.767 0 1.388.622 1.388 1.388 0 .767-.621 1.388-1.388 1.388-.767 0-1.388-.621-1.388-1.388zM287.6 342.524c0-.766.622-1.388 1.389-1.388.766 0 1.388.622 1.388 1.388 0 .767-.622 1.388-1.388 1.388-.767 0-1.388-.621-1.388-1.388zM281.489 342.524c0-.561.338-1.067.857-1.282.519-.215 1.116-.096 1.513.3.397.398.515.995.3 1.513-.214.52-.72.857-1.282.857-.766 0-1.388-.621-1.388-1.388zM275.348 342.524c-.004-.566.334-1.079.856-1.298.522-.22 1.125-.103 1.527.296.402.4.523 1.001.307 1.525-.216.524-.726.865-1.292.865-.769 0-1.393-.62-1.398-1.388zM227.834 342.524c0-.561.338-1.067.856-1.282.52-.215 1.116-.096 1.513.3.397.398.516.995.301 1.513-.215.52-.72.857-1.282.857-.767 0-1.388-.621-1.388-1.388zM221.572 342.524c-.004-.566.334-1.079.856-1.298.522-.22 1.125-.103 1.527.296.402.4.524 1.001.308 1.525-.216.524-.726.865-1.293.865-.768 0-1.392-.62-1.398-1.388zM269.216 342.524c-.004-.566.334-1.079.856-1.298.522-.22 1.125-.103 1.527.296.402.4.524 1.001.308 1.525-.216.524-.726.865-1.293.865-.768 0-1.392-.62-1.398-1.388zM239.098 342.524c-.004-.566.334-1.079.856-1.298.522-.22 1.125-.103 1.527.296.402.4.523 1.001.308 1.525-.216.524-.727.865-1.293.865-.768 0-1.393-.62-1.398-1.388z"/>
            <path fill="#F5F5F5" d="M263.085 342.524c-.004-.567.335-1.08.858-1.3.523-.218 1.127-.1 1.528.302.401.4.52 1.005.301 1.528-.219.523-.732.862-1.3.858-.766 0-1.387-.621-1.387-1.388zM256.953 342.524c0-.766.622-1.388 1.388-1.388.767 0 1.388.622 1.388 1.388 0 .767-.621 1.388-1.388 1.388-.766 0-1.388-.621-1.388-1.388zM244.51 342.524c0-.766.622-1.388 1.388-1.388.767 0 1.389.622 1.389 1.388 0 .767-.622 1.388-1.389 1.388-.766 0-1.388-.621-1.388-1.388zM216.49 342.524c0-.766.62-1.388 1.387-1.388s1.388.622 1.388 1.388c0 .767-.621 1.388-1.388 1.388-.766 0-1.388-.621-1.388-1.388z"/>
            <path fill="#6F3895" d="M250.822 342.524c0-.766.621-1.388 1.388-1.388.766 0 1.388.622 1.388 1.388 0 .767-.622 1.388-1.388 1.388-.767 0-1.388-.621-1.388-1.388zM233.266 342.524c0-.766.621-1.388 1.388-1.388.767 0 1.388.622 1.388 1.388 0 .767-.621 1.388-1.388 1.388-.767 0-1.388-.621-1.388-1.388z"/>
            <circle cx="217.877" cy="348.506" r="1.388" fill="#263238"/>
            <circle cx="224.009" cy="348.506" r="1.388" fill="#263238"/>
            <circle cx="230.14" cy="348.506" r="1.388" fill="#263238"/>
            <circle cx="236.272" cy="348.506" r="1.388" fill="#263238"/>
            <circle cx="283.796" cy="348.506" r="1.388" fill="#263238"/>
            <circle cx="290.047" cy="348.506" r="1.388" fill="#263238"/>
            <circle cx="242.403" cy="348.506" r="1.388" fill="#263238"/>
            <circle cx="272.521" cy="348.506" r="1.388" fill="#263238"/>
            <circle cx="248.545" cy="348.506" r="1.388" fill="#F5F5F5"/>
            <circle cx="254.676" cy="348.506" r="1.388" fill="#F5F5F5"/>
            <circle cx="267.119" cy="348.506" r="1.388" fill="#F5F5F5"/>
            <path fill="#F5F5F5" d="M296.528 348.516c0 .767-.621 1.388-1.388 1.388-.767 0-1.388-.621-1.388-1.388 0-.767.621-1.388 1.388-1.388.767 0 1.388.621 1.388 1.388z"/>
            <circle cx="260.808" cy="348.506" r="1.388" fill="#6F3895"/>
            <circle cx="278.363" cy="348.506" r="1.388" fill="#6F3895"/>
            <path fill="#263238" d="M185.762 333.896H209.988V337.62100000000004H185.762zM185.762 340.307H209.988V344.03200000000004H185.762zM185.762 346.938H209.988V350.663H185.762z"/>
            <path fill="#455A64" d="M180.3 365.283H303.339V395.81100000000004H180.3z"/>
            <path fill="#263238" d="M185.762 371.564H209.988V375.28900000000004H185.762zM185.762 377.985H209.988V381.71000000000004H185.762zM185.762 384.616H209.988V388.341H185.762zM218.826 373.481c0 .772-.626 1.398-1.398 1.398-.772 0-1.398-.626-1.398-1.398 0-.772.626-1.398 1.398-1.398.772 0 1.398.626 1.398 1.398zM224.958 373.481c0 .772-.626 1.398-1.398 1.398-.773 0-1.399-.626-1.399-1.398 0-.772.626-1.398 1.399-1.398.772 0 1.398.626 1.398 1.398zM231.089 373.481c0 .567-.342 1.077-.865 1.293-.524.216-1.126.094-1.525-.308-.4-.402-.516-1.005-.297-1.527.22-.522.733-.86 1.299-.856.768.006 1.388.63 1.388 1.398zM237.22 373.481c-.005.766-.629 1.382-1.394 1.378-.765-.003-1.383-.626-1.382-1.391.002-.765.623-1.385 1.388-1.385.37 0 .725.148.986.41.26.263.405.618.403.988zM284.745 373.481c0 .567-.342 1.077-.866 1.293-.524.216-1.126.094-1.525-.308s-.516-1.005-.296-1.527c.22-.522.732-.86 1.298-.856.769.006 1.389.63 1.389 1.398zM290.996 373.481c-.006.766-.63 1.382-1.395 1.378-.765-.003-1.383-.626-1.381-1.391.002-.765.622-1.385 1.388-1.385.37 0 .724.148.985.41.26.263.405.618.403.988zM243.352 373.481c-.005.766-.63 1.382-1.395 1.378-.765-.003-1.383-.626-1.381-1.391.002-.765.623-1.385 1.388-1.385.37 0 .724.148.985.41.26.263.406.618.403.988zM273.47 373.481c-.005.766-.63 1.382-1.395 1.378-.765-.003-1.383-.626-1.38-1.391 0-.765.622-1.385 1.387-1.385.37 0 .725.148.985.41.26.263.406.618.403.988z"/>
            <path fill="#F5F5F5" d="M249.483 373.481c-.005.766-.629 1.382-1.394 1.378-.765-.003-1.383-.626-1.382-1.391.002-.765.623-1.385 1.388-1.385.37 0 .725.148.985.41.261.263.406.618.403.988zM255.645 373.481c-.006.766-.63 1.382-1.395 1.378-.765-.003-1.383-.626-1.381-1.391.002-.765.623-1.385 1.388-1.385.37 0 .724.148.985.41.26.263.406.618.403.988zM268.058 373.481c-.006.766-.63 1.382-1.395 1.378-.765-.003-1.383-.626-1.381-1.391.001-.765.622-1.385 1.388-1.385.37 0 .724.148.985.41.26.263.405.618.403.988zM296.089 373.481c0 .772-.626 1.398-1.398 1.398-.772 0-1.398-.626-1.398-1.398 0-.772.626-1.398 1.398-1.398.772 0 1.398.626 1.398 1.398z"/>
            <path fill="#6F3895" d="M261.746 373.481c-.005.766-.629 1.382-1.394 1.378-.766-.003-1.383-.626-1.382-1.391.002-.765.623-1.385 1.388-1.385.37 0 .725.148.985.41.261.263.406.618.403.988zM279.312 373.481c0 .567-.342 1.077-.865 1.293-.524.216-1.126.094-1.525-.308-.4-.402-.516-1.005-.297-1.527.22-.522.733-.86 1.299-.856.768.006 1.388.63 1.388 1.398z"/>
            <path fill="#263238" d="M293.303 380.212c0-.566.341-1.077.865-1.293.524-.215 1.126-.094 1.525.308s.516 1.005.296 1.527c-.22.522-.732.86-1.298.856-.769-.006-1.388-.63-1.388-1.398zM287.171 380.212c.006-.765.63-1.382 1.395-1.378.765.004 1.383.626 1.381 1.391-.002.766-.622 1.385-1.388 1.385-.37 0-.724-.148-.985-.41-.26-.263-.406-.618-.403-.988zM281.04 380.212c.005-.765.63-1.382 1.394-1.378.766.004 1.384.626 1.382 1.391-.002.766-.623 1.385-1.388 1.385-.37 0-.725-.148-.985-.41-.26-.263-.406-.618-.403-.988zM274.908 380.212c.006-.765.63-1.382 1.395-1.378.765.004 1.383.626 1.381 1.391-.002.766-.622 1.385-1.388 1.385-.37 0-.724-.148-.985-.41-.26-.263-.405-.618-.403-.988zM227.384 380.212c.006-.765.63-1.382 1.395-1.378.765.004 1.383.626 1.381 1.391-.002.766-.622 1.385-1.388 1.385-.37 0-.724-.148-.985-.41-.26-.263-.405-.618-.403-.988zM221.133 380.212c.005-.765.63-1.382 1.395-1.378.765.004 1.383.626 1.381 1.391-.002.766-.623 1.385-1.388 1.385-.37 0-.725-.148-.985-.41-.26-.263-.406-.618-.403-.988zM268.777 380.212c.005-.765.63-1.382 1.394-1.378.766.004 1.384.626 1.382 1.391-.002.766-.623 1.385-1.388 1.385-.37 0-.725-.148-.985-.41-.26-.263-.406-.618-.403-.988zM238.669 380.212c.005-.765.629-1.382 1.394-1.378.765.004 1.383.626 1.382 1.391-.002.766-.623 1.385-1.388 1.385-.37 0-.725-.148-.985-.41-.261-.263-.406-.618-.403-.988z"/>
            <path fill="#F5F5F5" d="M262.635 380.212c.006-.765.63-1.382 1.395-1.378.765.004 1.383.626 1.381 1.391-.001.766-.622 1.385-1.388 1.385-.37 0-.724-.148-.985-.41-.26-.263-.405-.618-.403-.988zM256.514 380.212c.005-.765.63-1.382 1.394-1.378.766.004 1.384.626 1.382 1.391-.002.766-.623 1.385-1.388 1.385-.37 0-.725-.148-.985-.41-.26-.263-.406-.618-.403-.988zM244.071 380.212c.006-.765.63-1.382 1.395-1.378.765.004 1.383.626 1.381 1.391-.002.766-.623 1.385-1.388 1.385-.37 0-.724-.148-.985-.41-.26-.263-.406-.618-.403-.988zM216.04 380.212c0-.566.342-1.077.865-1.293.524-.215 1.126-.094 1.525.308.4.402.516 1.005.297 1.527-.22.522-.733.86-1.299.856-.768-.006-1.388-.63-1.388-1.398z"/>
            <path fill="#6F3895" d="M250.372 380.212c0-.772.626-1.398 1.398-1.398.772 0 1.398.626 1.398 1.398 0 .772-.626 1.398-1.398 1.398-.772 0-1.398-.626-1.398-1.398zM232.817 380.212c.005-.765.629-1.382 1.394-1.378.766.004 1.384.626 1.382 1.391-.002.766-.623 1.385-1.388 1.385-.37 0-.725-.148-.985-.41-.261-.263-.406-.618-.403-.988z"/>
            <path fill="#263238" d="M218.826 386.174c.004.566-.334 1.079-.856 1.298-.522.22-1.125.103-1.527-.296-.402-.4-.523-1.001-.308-1.525.216-.524.727-.865 1.293-.865.768 0 1.393.62 1.398 1.388zM224.958 386.174c.004.566-.334 1.079-.857 1.298-.522.22-1.125.103-1.526-.296-.402-.4-.524-1.001-.308-1.525.216-.524.726-.865 1.293-.865.768 0 1.392.62 1.398 1.388zM231.089 386.174c.004.567-.335 1.08-.858 1.3-.524.218-1.127.1-1.529-.302-.4-.4-.52-1.005-.3-1.528.218-.523.732-.862 1.299-.858.767 0 1.388.621 1.388 1.388zM237.22 386.174c0 .766-.62 1.388-1.388 1.388-.766 0-1.388-.622-1.388-1.388 0-.767.622-1.388 1.388-1.388.767 0 1.389.621 1.389 1.388zM284.745 386.174c.004.567-.336 1.08-.859 1.3-.523.218-1.127.1-1.528-.302-.401-.4-.52-1.005-.301-1.528.219-.523.732-.862 1.3-.858.766 0 1.388.621 1.388 1.388zM290.996 386.174c0 .766-.622 1.388-1.388 1.388-.767 0-1.388-.622-1.388-1.388 0-.767.621-1.388 1.388-1.388.766 0 1.388.621 1.388 1.388zM243.352 386.174c0 .766-.621 1.388-1.388 1.388-.767 0-1.388-.622-1.388-1.388 0-.767.621-1.388 1.388-1.388.767 0 1.388.621 1.388 1.388zM273.47 386.174c0 .766-.621 1.388-1.388 1.388-.767 0-1.388-.622-1.388-1.388 0-.767.621-1.388 1.388-1.388.767 0 1.388.621 1.388 1.388z"/>
            <path fill="#F5F5F5" d="M249.483 386.174c0 .766-.621 1.388-1.388 1.388-.766 0-1.388-.622-1.388-1.388 0-.767.622-1.388 1.388-1.388.767 0 1.388.621 1.388 1.388zM255.645 386.174c0 .766-.622 1.388-1.388 1.388-.767 0-1.388-.622-1.388-1.388 0-.767.621-1.388 1.388-1.388.766 0 1.388.621 1.388 1.388zM268.058 386.174c0 .766-.622 1.388-1.388 1.388-.767 0-1.388-.622-1.388-1.388 0-.767.621-1.388 1.388-1.388.766 0 1.388.621 1.388 1.388zM296.089 386.174c.004.566-.334 1.079-.856 1.298-.522.22-1.125.103-1.527-.296-.402-.4-.524-1.001-.308-1.525.216-.524.726-.865 1.293-.865.768 0 1.392.62 1.398 1.388z"/>
            <path fill="#6F3895" d="M261.746 386.174c0 .561-.338 1.067-.856 1.282-.52.215-1.116.096-1.513-.3-.397-.398-.516-.995-.301-1.514.215-.518.721-.856 1.282-.856.767 0 1.388.621 1.388 1.388zM279.312 386.174c.004.567-.335 1.08-.858 1.3-.524.218-1.127.1-1.529-.302-.4-.4-.52-1.005-.3-1.528.218-.523.732-.862 1.299-.858.368 0 .721.146.982.406.26.26.406.614.406.982z"/>
            <path fill="#263238" d="M321.833 320.415L303.339 320.465 303.339 289.937 321.833 289.887zM321.833 283.297L303.339 283.346 303.339 252.829 321.833 252.779zM321.833 357.853L303.339 357.903 303.339 327.375 321.833 327.325zM321.833 395.76L303.339 395.81 303.339 365.283 321.833 365.233z"/>
            <path fill="#455A64" d="M181.198 252.539H304.237V283.067H181.198z"/>
            <path fill="#263238" d="M186.661 258.831H210.887V262.55600000000004H186.661zM186.661 265.242H210.887V268.96700000000004H186.661zM186.661 271.872H210.887V275.59700000000004H186.661zM220.464 261.077c0 .767-.622 1.388-1.388 1.388-.767 0-1.388-.621-1.388-1.388 0-.766.621-1.388 1.388-1.388.764.006 1.382.624 1.388 1.388zM226.595 261.077c0 .767-.621 1.388-1.388 1.388-.766 0-1.388-.621-1.388-1.388 0-.766.622-1.388 1.388-1.388.765.006 1.383.624 1.388 1.388zM232.727 261.077c0 .767-.622 1.388-1.388 1.388-.767 0-1.388-.621-1.388-1.388 0-.766.621-1.388 1.388-1.388.764.006 1.382.624 1.388 1.388zM238.858 261.077c0 .562-.338 1.068-.857 1.283-.518.215-1.115.096-1.512-.301s-.516-.994-.301-1.513c.215-.518.72-.857 1.282-.857.765.006 1.383.624 1.388 1.388zM286.382 261.077c0 .767-.621 1.388-1.388 1.388-.766 0-1.388-.621-1.388-1.388 0-.766.622-1.388 1.388-1.388.765.006 1.383.624 1.388 1.388zM292.594 261.077c0 .767-.622 1.388-1.388 1.388-.767 0-1.389-.621-1.389-1.388 0-.766.622-1.388 1.389-1.388.764.006 1.382.624 1.388 1.388zM244.99 261.077c0 .767-.622 1.388-1.388 1.388-.767 0-1.388-.621-1.388-1.388 0-.766.621-1.388 1.388-1.388.764.006 1.382.624 1.388 1.388zM275.108 261.077c0 .767-.622 1.388-1.388 1.388-.767 0-1.388-.621-1.388-1.388 0-.766.621-1.388 1.388-1.388.764.006 1.382.624 1.388 1.388z"/>
            <path fill="#F5F5F5" d="M251.121 261.077c0 .767-.621 1.388-1.388 1.388-.766 0-1.388-.621-1.388-1.388 0-.766.622-1.388 1.388-1.388.764.006 1.383.624 1.388 1.388zM257.263 261.077c.004.567-.334 1.08-.856 1.3-.522.219-1.125.102-1.527-.298-.402-.399-.524-1-.308-1.524.216-.524.726-.866 1.293-.866.768 0 1.392.62 1.398 1.388zM269.705 261.077c.004.567-.334 1.08-.856 1.3-.522.219-1.125.102-1.527-.298-.402-.399-.523-1-.307-1.524.216-.524.726-.866 1.292-.866.769 0 1.393.62 1.398 1.388zM297.726 261.077c0 .767-.621 1.388-1.388 1.388-.766 0-1.388-.621-1.388-1.388 0-.766.622-1.388 1.388-1.388.765.006 1.383.624 1.388 1.388z"/>
            <path fill="#6F3895" d="M263.394 261.077c.004.568-.335 1.081-.858 1.3-.524.219-1.127.1-1.528-.301-.402-.401-.52-1.005-.302-1.528.22-.524.733-.863 1.3-.859.764.006 1.383.624 1.388 1.388zM280.95 261.077c0 .767-.622 1.388-1.388 1.388-.767 0-1.388-.621-1.388-1.388 0-.766.621-1.388 1.388-1.388.764.006 1.382.624 1.388 1.388z"/>
            <path fill="#263238" d="M294.95 267.778c0-.767.622-1.388 1.388-1.388.767 0 1.388.621 1.388 1.388 0 .767-.621 1.388-1.388 1.388-.766 0-1.388-.621-1.388-1.388zM288.809 267.778c-.004-.566.334-1.08.856-1.299.522-.22 1.125-.102 1.527.297.402.399.523 1.001.308 1.525-.216.523-.727.865-1.293.865-.768 0-1.393-.62-1.398-1.388zM282.677 267.778c-.004-.566.334-1.08.856-1.299.523-.22 1.126-.102 1.527.297.402.399.524 1.001.308 1.525-.216.523-.726.865-1.293.865-.768 0-1.392-.62-1.398-1.388zM276.546 267.778c-.004-.567.335-1.08.858-1.3.524-.219 1.127-.1 1.529.302.4.4.52 1.004.3 1.528-.218.523-.732.862-1.299.858-.767 0-1.388-.621-1.388-1.388zM229.022 267.778c-.004-.567.335-1.08.858-1.3.524-.219 1.127-.1 1.529.302.4.4.52 1.004.3 1.528-.218.523-.732.862-1.299.858-.767 0-1.388-.621-1.388-1.388zM222.77 267.778c0-.767.622-1.388 1.389-1.388.766 0 1.388.621 1.388 1.388 0 .767-.622 1.388-1.388 1.388-.767 0-1.388-.621-1.388-1.388zM270.414 267.778c0-.767.622-1.388 1.388-1.388.767 0 1.389.621 1.389 1.388 0 .767-.622 1.388-1.389 1.388-.766 0-1.388-.621-1.388-1.388zM240.296 267.778c0-.767.622-1.388 1.388-1.388.767 0 1.388.621 1.388 1.388 0 .767-.621 1.388-1.388 1.388-.766 0-1.388-.621-1.388-1.388z"/>
            <path fill="#F5F5F5" d="M264.283 267.778c0-.767.621-1.388 1.388-1.388.767 0 1.388.621 1.388 1.388 0 .767-.621 1.388-1.388 1.388-.767 0-1.388-.621-1.388-1.388zM258.151 267.778c0-.767.622-1.388 1.389-1.388.766 0 1.388.621 1.388 1.388 0 .767-.622 1.388-1.388 1.388-.767 0-1.389-.621-1.389-1.388zM245.709 267.778c0-.767.621-1.388 1.388-1.388.766 0 1.388.621 1.388 1.388 0 .767-.622 1.388-1.388 1.388-.767 0-1.388-.621-1.388-1.388zM217.698 267.778c0-.767.621-1.388 1.388-1.388.766 0 1.388.621 1.388 1.388 0 .767-.622 1.388-1.388 1.388-.767 0-1.388-.621-1.388-1.388z"/>
            <path fill="#6F3895" d="M252.02 267.778c0-.767.621-1.388 1.388-1.388.767 0 1.388.621 1.388 1.388 0 .767-.621 1.388-1.388 1.388-.767 0-1.388-.621-1.388-1.388zM234.454 267.778c-.004-.566.334-1.08.856-1.299.523-.22 1.126-.102 1.527.297.402.399.524 1.001.308 1.525-.216.523-.726.865-1.293.865-.768 0-1.392-.62-1.398-1.388z"/>
            <path fill="#263238" d="M220.464 273.74c0 .766-.622 1.388-1.388 1.388-.767 0-1.388-.622-1.388-1.388 0-.767.621-1.388 1.388-1.388.766 0 1.388.621 1.388 1.388zM226.595 273.74c0 .766-.621 1.388-1.388 1.388-.766 0-1.388-.622-1.388-1.388 0-.767.622-1.388 1.388-1.388.767 0 1.388.621 1.388 1.388zM232.727 273.74c0 .766-.622 1.388-1.388 1.388-.767 0-1.388-.622-1.388-1.388 0-.767.621-1.388 1.388-1.388.766 0 1.388.621 1.388 1.388zM238.858 273.74c0 .561-.338 1.067-.857 1.282-.518.215-1.115.096-1.512-.3-.397-.398-.516-.995-.301-1.513.215-.52.72-.857 1.282-.857.767 0 1.388.621 1.388 1.388zM286.382 273.74c0 .766-.621 1.388-1.388 1.388-.766 0-1.388-.622-1.388-1.388 0-.767.622-1.388 1.388-1.388.767 0 1.388.621 1.388 1.388zM292.594 273.74c0 .766-.622 1.388-1.388 1.388-.767 0-1.389-.622-1.389-1.388 0-.767.622-1.388 1.389-1.388.766 0 1.388.621 1.388 1.388zM244.99 273.74c0 .766-.622 1.388-1.388 1.388-.767 0-1.388-.622-1.388-1.388 0-.767.621-1.388 1.388-1.388.766 0 1.388.621 1.388 1.388zM275.108 273.74c0 .766-.622 1.388-1.388 1.388-.767 0-1.388-.622-1.388-1.388 0-.767.621-1.388 1.388-1.388.766 0 1.388.621 1.388 1.388z"/>
            <path fill="#F5F5F5" d="M251.121 273.74c0 .766-.621 1.388-1.388 1.388-.766 0-1.388-.622-1.388-1.388 0-.767.622-1.388 1.388-1.388.767 0 1.388.621 1.388 1.388zM257.263 273.74c.004.566-.334 1.079-.856 1.299-.522.22-1.125.102-1.527-.297-.402-.4-.524-1.001-.308-1.525.216-.524.726-.865 1.293-.865.768 0 1.392.62 1.398 1.388zM269.705 273.74c.004.566-.334 1.079-.856 1.299-.522.22-1.125.102-1.527-.297-.402-.4-.523-1.001-.307-1.525.216-.524.726-.865 1.292-.865.769 0 1.393.62 1.398 1.388zM297.726 273.74c0 .766-.621 1.388-1.388 1.388-.766 0-1.388-.622-1.388-1.388 0-.767.622-1.388 1.388-1.388.767 0 1.388.621 1.388 1.388z"/>
            <path fill="#6F3895" d="M263.394 273.74c.004.567-.335 1.08-.858 1.3-.524.218-1.127.1-1.528-.302-.402-.4-.52-1.005-.302-1.528.22-.523.733-.862 1.3-.858.767 0 1.388.621 1.388 1.388zM280.95 273.74c0 .766-.622 1.388-1.388 1.388-.767 0-1.388-.622-1.388-1.388 0-.767.621-1.388 1.388-1.388.766 0 1.388.621 1.388 1.388z"/>
            <path fill="#263238" d="M101.679 33.693h15.588l42.65-.09 140.725-.07c3.458-.102 6.908.377 10.206 1.418 3.238 1.073 6.25 2.731 8.888 4.894 5.194 4.244 8.775 10.14 10.146 16.706.506 3.19.696 6.42.569 9.647v109.758c.08 1.876-.287 3.744-1.068 5.452-1.446 3.1-4.218 5.377-7.54 6.191-1.444.3-2.921.41-4.394.33h-3.994l-11.594-.05h-3.995 19.583c1.454.07 2.91-.048 4.334-.35 3.239-.805 5.936-3.039 7.33-6.071.755-1.672 1.097-3.5.999-5.333v-5.911-12.843c0-17.975 0-39.455-.06-63.272V66.238c.135-3.19-.056-6.385-.57-9.537-1.348-6.455-4.874-12.25-9.986-16.417-2.595-2.115-5.552-3.743-8.728-4.803-3.22-1.064-6.595-1.58-9.986-1.528l-140.724-.08-42.651-.08-11.594-.05h-2.996l-1.138-.05z"/>
            <path fill="#EBEBEB" d="M0.959 99.721H97.435V395.261H0.959z"/>
            <path fill="#E0E0E0" d="M173.549 395.261L97.445 395.261 97.305 99.721 173.549 99.721z"/>
            <path fill="#263238" d="M6.301 147.016H88.137V170.054H6.301z"/>
            <path fill="#6F3895" d="M8.588 149.912H13.171999999999999V167.548H8.588z"/>
            <path fill="#FFF" d="M18.574 153.627c0 .805-.653 1.458-1.458 1.458-.805 0-1.458-.653-1.458-1.458 0-.806.653-1.458 1.458-1.458.803.005 1.453.655 1.458 1.458zM18.574 159.858c0 .805-.653 1.458-1.458 1.458-.805 0-1.458-.653-1.458-1.458 0-.805.653-1.458 1.458-1.458.803.005 1.453.655 1.458 1.458z"/>
            <path fill="#455A64" d="M24.396 152.169H28.9V165.71H24.396zM30.897 152.169H35.400999999999996V165.71H30.897zM37.398 152.169H41.902V165.71H37.398zM43.909 152.169H48.413V165.71H43.909zM50.41 152.169H54.913999999999994V165.71H50.41zM56.921 152.169H61.425V165.71H56.921zM63.422 152.169H67.926V165.71H63.422zM69.923 152.169H74.427V165.71H69.923zM76.434 152.169H80.938V165.71H76.434zM82.935 152.169H87.43900000000001V165.71H82.935z"/>
            <path fill="#263238" d="M6.301 180.12H88.137V203.15800000000002H6.301z"/>
            <path fill="#ED4634" d="M8.588 183.016H13.171999999999999V200.652H8.588z"/>
            <path fill="#FFF" d="M18.574 186.74c0 .806-.653 1.459-1.458 1.459-.805 0-1.458-.653-1.458-1.458 0-.806.653-1.458 1.458-1.458.387 0 .758.153 1.031.427.274.273.427.644.427 1.03zM18.574 192.952c0 .805-.653 1.458-1.458 1.458-.805 0-1.458-.653-1.458-1.458 0-.805.653-1.458 1.458-1.458.387 0 .758.154 1.031.427.274.273.427.644.427 1.031z"/>
            <path fill="#455A64" d="M24.396 185.263H28.9V198.804H24.396zM30.897 185.263H35.400999999999996V198.804H30.897zM37.398 185.263H41.902V198.804H37.398zM43.909 185.263H48.413V198.804H43.909zM50.41 185.263H54.913999999999994V198.804H50.41zM56.921 185.263H61.425V198.804H56.921zM63.422 185.263H67.926V198.804H63.422zM69.923 185.263H74.427V198.804H69.923zM76.434 185.263H80.938V198.804H76.434zM82.935 185.263H87.43900000000001V198.804H82.935z"/>
            <path fill="#263238" d="M6.301 213.483H88.137V236.52100000000002H6.301z"/>
            <path fill="#F7B13E" d="M8.588 216.379H13.171999999999999V234.015H8.588z"/>
            <path fill="#FFF" d="M18.574 220.084c.004.59-.348 1.126-.893 1.354-.544.23-1.173.107-1.592-.31-.42-.415-.546-1.043-.32-1.59.224-.545.757-.902 1.347-.902.802 0 1.453.647 1.458 1.448zM18.574 226.316c.004.59-.348 1.125-.893 1.354-.544.229-1.173.106-1.592-.31-.42-.416-.546-1.044-.32-1.59.224-.546.757-.902 1.347-.902.802 0 1.453.646 1.458 1.448z"/>
            <path fill="#455A64" d="M24.396 218.636H28.9V232.177H24.396zM30.897 218.636H35.400999999999996V232.177H30.897zM37.398 218.636H41.902V232.177H37.398zM43.909 218.636H48.413V232.177H43.909zM50.41 218.636H54.913999999999994V232.177H50.41zM56.921 218.636H61.425V232.177H56.921zM63.422 218.636H67.926V232.177H63.422zM69.923 218.636H74.427V232.177H69.923zM76.434 218.636H80.938V232.177H76.434zM82.935 218.636H87.43900000000001V232.177H82.935z"/>
            <path fill="#263238" d="M6.301 249.523H88.137V272.561H6.301z"/>
            <path fill="#2077C0" d="M8.588 252.419H13.171999999999999V270.055H8.588z"/>
            <path fill="#FFF" d="M18.574 256.134c0 .805-.653 1.458-1.458 1.458-.805 0-1.458-.653-1.458-1.458 0-.805.653-1.458 1.458-1.458.803.006 1.453.655 1.458 1.458zM18.574 262.366c0 .805-.653 1.458-1.458 1.458-.805 0-1.458-.653-1.458-1.458 0-.806.653-1.458 1.458-1.458.387 0 .758.153 1.031.427.274.273.427.644.427 1.03z"/>
            <path fill="#455A64" d="M24.396 254.676H28.9V268.217H24.396zM30.897 254.676H35.400999999999996V268.217H30.897zM37.398 254.676H41.902V268.217H37.398zM43.909 254.676H48.413V268.217H43.909zM50.41 254.676H54.913999999999994V268.217H50.41zM56.921 254.676H61.425V268.217H56.921zM63.422 254.676H67.926V268.217H63.422zM69.923 254.676H74.427V268.217H69.923zM76.434 254.676H80.938V268.217H76.434zM82.935 254.676H87.43900000000001V268.217H82.935z"/>
            <path fill="#263238" d="M6.301 285.923H88.137V308.961H6.301z"/>
            <path fill="#6F3895" d="M8.588 288.819H13.171999999999999V306.45500000000004H8.588z"/>
            <path fill="#FFF" d="M18.574 292.534c0 .59-.355 1.121-.9 1.347-.545.225-1.172.1-1.589-.316-.417-.417-.541-1.044-.316-1.59.226-.544.758-.9 1.347-.9.805 0 1.458.653 1.458 1.459zM18.574 298.765c0 .805-.653 1.458-1.458 1.458-.805 0-1.458-.653-1.458-1.458 0-.805.653-1.458 1.458-1.458.387 0 .758.154 1.031.427.274.274.427.644.427 1.031z"/>
            <path fill="#455A64" d="M24.396 291.076H28.9V304.617H24.396zM30.897 291.076H35.400999999999996V304.617H30.897zM37.398 291.076H41.902V304.617H37.398zM43.909 291.076H48.413V304.617H43.909zM50.41 291.076H54.913999999999994V304.617H50.41zM56.921 291.076H61.425V304.617H56.921zM63.422 291.076H67.926V304.617H63.422zM69.923 291.076H74.427V304.617H69.923zM76.434 291.076H80.938V304.617H76.434zM82.935 291.076H87.43900000000001V304.617H82.935z"/>
            <path fill="#263238" d="M6.301 358.362H88.137V381.40000000000003H6.301z"/>
            <path fill="#F7B13E" d="M8.588 361.258H13.171999999999999V378.894H8.588z"/>
            <path fill="#FFF" d="M18.574 364.973c0 .805-.653 1.458-1.458 1.458-.805 0-1.458-.653-1.458-1.458 0-.805.653-1.458 1.458-1.458.803.006 1.453.655 1.458 1.458zM18.574 371.204c0 .806-.653 1.458-1.458 1.458-.805 0-1.458-.652-1.458-1.458 0-.805.653-1.458 1.458-1.458.803.006 1.453.655 1.458 1.458z"/>
            <path fill="#455A64" d="M24.396 363.515H28.9V377.056H24.396zM30.897 363.515H35.400999999999996V377.056H30.897zM37.398 363.515H41.902V377.056H37.398zM43.909 363.515H48.413V377.056H43.909zM50.41 363.515H54.913999999999994V377.056H50.41zM56.921 363.515H61.425V377.056H56.921zM63.422 363.515H67.926V377.056H63.422zM69.923 363.515H74.427V377.056H69.923zM76.434 363.515H80.938V377.056H76.434zM82.935 363.515H87.43900000000001V377.056H82.935z"/>
            <path fill="#263238" d="M6.301 322.173H88.137V345.211H6.301z"/>
            <path fill="#ED4634" d="M8.588 325.069H13.171999999999999V342.70500000000004H8.588z"/>
            <path fill="#FFF" d="M18.574 328.783c0 .59-.355 1.122-.9 1.347-.545.226-1.172.101-1.589-.316-.417-.417-.541-1.044-.316-1.589.226-.544.758-.9 1.347-.9.803.006 1.453.655 1.458 1.458zM18.574 335.015c0 .805-.653 1.458-1.458 1.458-.805 0-1.458-.653-1.458-1.458 0-.806.653-1.458 1.458-1.458.803.005 1.453.655 1.458 1.458z"/>
            <path fill="#455A64" d="M24.396 327.325H28.9V340.866H24.396zM30.897 327.325H35.400999999999996V340.866H30.897zM37.398 327.325H41.902V340.866H37.398zM43.909 327.325H48.413V340.866H43.909zM50.41 327.325H54.913999999999994V340.866H50.41zM56.921 327.325H61.425V340.866H56.921zM63.422 327.325H67.926V340.866H63.422zM69.923 327.325H74.427V340.866H69.923zM76.434 327.325H80.938V340.866H76.434zM82.935 327.325H87.43900000000001V340.866H82.935z"/>
            <path fill="#263238" d="M56.92 147.016c-.055-.233-.085-.47-.089-.71 0-.469-.06-1.158-.08-1.996-.02-.84 0-1.998-.1-3.236-.035-1.417-.223-2.827-.559-4.204-.445-1.666-1.178-3.241-2.167-4.654-1.119-1.608-2.675-2.862-4.484-3.615-2.044-.745-4.188-1.179-6.36-1.288l-7.051-.609c-9.657-.839-18.414-1.378-24.766-1.488-3.175-.07-5.742 0-7.52 0H1.749c-.24.022-.48.022-.72 0 .236-.054.478-.08.72-.08l1.997-.12c1.777-.07 4.354-.15 7.53-.13 6.37 0 15.148.5 24.815 1.339l7.05.619c2.224.12 4.416.577 6.501 1.358 1.883.798 3.498 2.118 4.654 3.805 1 1.448 1.74 3.06 2.187 4.763.318 1.406.482 2.843.489 4.284v5.243c-.001.24-.018.48-.05.719z"/>
            <path fill="#263238" d="M32.085 147.016c-.017-.223-.017-.447 0-.67v-1.927c0-.798 0-1.857-.09-2.995-.057-1.322-.398-2.616-.998-3.795-.884-1.33-2.183-2.331-3.695-2.846-1.714-.67-3.578-.86-5.392-.55-.977.181-1.918.518-2.787 1-.896.444-1.645 1.137-2.157 1.996-.509.895-.509 1.992 0 2.886.53.929 1.418 1.597 2.457 1.848 1.037.232 2.122-.08 2.876-.829.749-.725 1.207-1.698 1.288-2.736.062-1.005-.244-1.999-.859-2.796-.558-.804-1.301-1.461-2.167-1.918-.854-.386-1.77-.62-2.706-.689-.919-.14-1.817-.26-2.686-.36-1.748-.199-3.375-.309-4.863-.369-2.996-.11-5.403-.07-7.07-.07H1.308c-.222.02-.446.02-.669 0 .219-.053.444-.076.67-.07l1.917-.1c1.677-.06 4.094-.17 7.09-.1 1.498 0 3.135.13 4.893.31.879.09 1.787.2 2.716.33l1.418.22c.501.1.985.272 1.438.509.936.487 1.743 1.189 2.357 2.047 1.46 1.884 1.248 4.57-.49 6.201-.87.879-2.126 1.255-3.335.999-1.183-.28-2.196-1.04-2.796-2.097-.595-1.05-.595-2.335 0-3.385.552-.965 1.375-1.746 2.367-2.247.923-.487 1.917-.824 2.946-.999 1.898-.31 3.846-.095 5.632.62 1.59.564 2.946 1.643 3.855 3.065.62 1.243.96 2.606.998 3.994.06 1.199 0 2.227 0 3.056 0 .83-.06 1.438-.08 1.928-.032.184-.083.364-.15.539zM63.602 147.016c-.083-.247-.14-.501-.17-.76-.09-.498-.23-1.237-.43-2.186-.552-2.674-1.358-5.288-2.406-7.81-1.483-3.763-3.944-7.063-7.13-9.556-1.916-1.39-4.166-2.249-6.521-2.487-2.55-.284-5.114-.424-7.68-.419-10.575-.2-20.162-.15-27.092-.42-3.475-.12-6.271-.289-8.209-.419l-2.226-.19c-.262-.01-.523-.043-.78-.1.263-.025.527-.025.79 0l2.226.08c1.938.08 4.744.19 8.21.26 6.93.17 16.506.07 27.091.27 2.586-.006 5.17.138 7.74.43 2.438.257 4.763 1.156 6.74 2.606 1.746 1.337 3.267 2.945 4.504 4.763 1.061 1.584 1.955 3.274 2.666 5.043 1.033 2.55 1.796 5.2 2.277 7.909.17.999.28 1.698.33 2.207.039.258.062.518.07.779zM7.43 103.396H87.019V114.95H7.43z"/>
            <path fill="#455A64" d="M24.935 109.168H68.265V114.94000000000001H24.935z"/>
            <path fill="#263238" d="M119.484 343.014c0 .06-.869.14-2.397.589-2.143.652-4.166 1.647-5.991 2.946-1.263.887-2.398 1.942-3.376 3.135-.535.66-.997 1.377-1.378 2.137-.374.825-.665 1.685-.868 2.567-.91 3.655-.64 7.829-.46 12.183s-.1 8.688-1.817 12.173c-.78 1.65-1.888 3.125-3.256 4.334-1.194 1.045-2.54 1.9-3.994 2.536-1.19.526-2.441.899-3.725 1.109-.971.151-1.956.195-2.936.13-.617-.04-1.228-.138-1.827-.29-.213-.042-.42-.105-.62-.19 0-.06.87.21 2.457.28.963.024 1.926-.046 2.876-.21 1.253-.236 2.47-.628 3.625-1.168 1.403-.643 2.702-1.49 3.855-2.517 1.302-1.188 2.355-2.624 3.095-4.224 1.648-3.385 1.918-7.62 1.738-11.983-.18-4.364-.45-8.578.51-12.313.224-.912.532-1.8.918-2.656.406-.788.898-1.528 1.468-2.207 1.007-1.218 2.184-2.284 3.495-3.166 1.877-1.298 3.965-2.26 6.171-2.846.597-.159 1.204-.272 1.818-.34.205-.026.413-.029.62-.01h-.001z"/>
            <path fill="#263238" d="M82.805 382.798H89.33600000000001V390.747H82.805z"/>
            <path fill="#455A64" d="M119.484 322.941H156.123V363.085H119.484z"/>
            <circle cx="137.788" cy="343.135" r="12.063" fill="#263238" transform="rotate(-77.54 137.788 343.135)"/>
            <path fill="#455A64" d="M143.8 343.173c0 3.31-2.682 5.992-5.991 5.992-3.31 0-5.992-2.683-5.992-5.992s2.682-5.991 5.992-5.991c3.309 0 5.991 2.682 5.991 5.991z"/>
            <circle cx="124.447" cy="329.173" r="1.118" fill="#263238"/>
            <circle cx="150.521" cy="329.173" r="1.118" fill="#263238"/>
            <path fill="#263238" d="M151.88 358.812c0 .617-.502 1.118-1.12 1.118-.617 0-1.118-.5-1.118-1.118 0-.618.5-1.119 1.119-1.119.615.006 1.113.503 1.118 1.119z"/>
            <circle cx="124.447" cy="359.271" r="1.118" fill="#263238"/>
            <path fill="#263238" d="M156.123 322.941H159.07899999999998V363.085H156.123z"/>
            <path fill="#353E63" d="M111.535 55.213c3.615-8.438 1.418-17.246-4.524-24.256-6.17-7.082-15.743-10.185-24.895-8.069C79.54 9.032 67.012-.712 52.948.202 38.884 1.116 27.723 12.4 26.963 26.473c-6.227 1.025-11.653 4.816-14.758 10.31-3.105 5.494-3.554 12.098-1.22 17.961l100.55.47z"/>
            <path fill="#263238" d="M319.666 270.754h1.358l3.995-.05c2.11.06 4.22-.186 6.26-.729 6.05-1.648 10.914-6.143 13.033-12.043.313-.868.57-1.755.769-2.657.187-.935.304-1.883.35-2.836.11-1.927 0-3.994 0-5.991v-26.853-7.05c.024-1.14-.023-2.281-.14-3.415-.13-1.108-.388-2.198-.77-3.246-1.457-4.038-4.523-7.292-8.468-8.987-3.765-1.718-7.809-1.129-11.454-1.289l-10.216-.1-14.78-.19-3.994-.08h-1.408c.12-.015.24-.015.36 0h35.73c2.06.02 4.096.444 5.992 1.25 5.208 2.226 8.847 7.043 9.567 12.662.118 1.154.161 2.315.13 3.475v33.903c0 2.067 0 4.064-.06 6.041-.057.973-.18 1.94-.37 2.896-.205.92-.471 1.824-.799 2.706-2.183 6.013-7.182 10.568-13.371 12.184-2.067.526-4.2.748-6.331.659l-3.995-.05h-.999l-.389-.21z"/>
            <path fill="#FFF" d="M53.336 54.924L53.336 40.773 46.246 40.773 56.921 25.704 67.596 40.664 60.636 40.664 60.636 54.924z"/>
        </g>
        <g>
            <path fill="#E0E0E0" d="M119.384 146.536L126.914 156.373 141.274 150.032 132.087 135.292z" transform="translate(264.035 91.872)"/>
            <path fill="#455A64" d="M123.848 147.695L124.078 152.568 128.831 154.795 128.581 149.802z" transform="translate(264.035 91.872)"/>
            <path fill="#455A64" d="M128.352 144.969L128.581 149.842 133.335 152.069 133.085 147.076zM132.935 142.242L133.165 147.116 137.908 149.343 137.669 144.35z" transform="translate(264.035 91.872)"/>
            <path fill="#2E4881" d="M141.803 149.792l-1.638-2.507-14.07 8.898 3.325 5.562.919-.459c4.084-2.087 20.641-10.885 22.828-13.222 2.467-2.576-11.364 1.728-11.364 1.728z" transform="translate(264.035 91.872)"/>
            <path fill="#FFF" d="M134.593 158.65c-.884-1.13-2.153-1.894-3.565-2.147-1.455-.285-2.96.113-4.084 1.078l2.406 3.995 5.243-2.926z" opacity=".5" transform="translate(264.035 91.872)"/>
            <path fill="#FFF" d="M148.703 147.925s4.994-1.259 4.874-.24c-.12 1.018-16.517 10.535-24.117 14.09l-.17-.34 19.224-10.934s-.62-2.057.19-2.576z" opacity=".5" transform="translate(264.035 91.872)"/>
            <path fill="#263238" d="M129.06 161.576l.26-.12.74-.37 2.676-1.408c2.247-1.198 5.332-2.896 8.698-4.843 3.365-1.947 6.38-3.795 8.548-5.143l2.546-1.628.68-.449.229-.17c-.088.035-.171.078-.25.13l-.709.42c-.699.429-1.558.998-2.576 1.567-2.177 1.328-5.203 3.146-8.568 5.093-3.366 1.947-6.441 3.675-8.668 4.903l-2.647 1.458-.719.4c-.084.046-.165.099-.24.16z" transform="translate(264.035 91.872)"/>
            <path fill="#263238" d="M148.634 150.73c-.133-.499-.21-1.011-.23-1.527.04-.517.144-1.027.31-1.518-.65.902-.682 2.11-.08 3.046zM143.151 151.04c.06 0 .12-.36.13-.809.041-.274.02-.553-.06-.819-.06 0-.12.36-.14.81-.02.449.01.818.07.818zM141.633 151.1s.19-.26.31-.629c.12-.37.17-.679.12-.689-.05-.01-.19.26-.31.63-.12.369-.17.678-.12.688zM140.105 150.171c0 .05.39-.1.81-.34.419-.239.728-.458.708-.508-.02-.05-.39.1-.809.34-.267.122-.507.295-.709.508zM139.307 149.363c.35.035.702-.05.998-.24.51-.24.839-.58.799-.62-.303.126-.597.272-.879.44-.318.113-.625.253-.918.42z" transform="translate(264.035 91.872)"/>
            <path fill="#263238" d="M142.912 149.512c.334-.13.645-.316.918-.549.31-.233.597-.494.859-.779.16-.172.304-.36.43-.559.066-.13.087-.277.06-.42-.052-.16-.193-.273-.36-.29-.923.084-1.667.791-1.798 1.709-.056.26-.056.528 0 .788.024.097.065.188.12.27-.05-.33-.05-.668 0-.999.058-.374.229-.723.49-.998.29-.33.7-.53 1.138-.56.21 0 .26.23.15.42-.113.185-.243.36-.39.52-.246.288-.517.555-.809.798-.469.41-.828.62-.808.65z" transform="translate(264.035 91.872)"/>
            <path fill="#263238" d="M143.181 149.412c-.011-.256-.106-.501-.27-.699-.169-.223-.388-.404-.639-.529-.326-.181-.722-.181-1.048 0-.08.077-.125.184-.125.295 0 .11.045.217.125.294.104.134.237.244.39.32.24.133.494.237.758.31.24.085.499.105.75.06 0 0-.28-.06-.71-.2-.244-.085-.478-.195-.699-.33-.24-.12-.54-.42-.33-.599.267-.123.573-.123.84 0 .233.103.441.256.609.45.134.199.25.41.35.628zM127.074 157.471s.389-.28 1.078-.579c1.838-.815 3.981-.496 5.502.819.58.49.84.889.87.869.03-.02 0-.12-.17-.29-.173-.252-.374-.483-.6-.689-.751-.689-1.689-1.14-2.696-1.298-1.022-.146-2.064.014-2.996.46-.274.135-.534.295-.779.479-.13.14-.22.22-.21.23zM135.592 156.193c1.538-.541 2.966-1.357 4.214-2.407 0 0-.939.56-2.097 1.219-1.159.659-2.147 1.138-2.117 1.188z" transform="translate(264.035 91.872)"/>
            <path fill="#263238" d="M132.816 157.78c0 .06.19.16.409.32.22.16.38.32.43.29.05-.03-.06-.27-.31-.46s-.53-.15-.53-.15zM130.948 157.122s.16.15.4.21c.24.06.439.08.449 0 .01-.08-.16-.15-.4-.21-.24-.06-.439-.05-.449 0zM129.08 157.401s.22-.07.48-.12c.26-.05.47 0 .49-.08.02-.08-.22-.18-.53-.12-.31.06-.48.28-.44.32zM127.822 157.78c0 .06.13.08.28.06.15-.02.26-.09.25-.139-.01-.05-.14-.08-.28-.06-.14.02-.25.05-.25.14zM24.126 139.247L80.28 86.32c3.473-3.554 8.232-5.56 13.201-5.562 6.624 0 12.74 3.548 16.028 9.297l28.73 49.371-18.225 10.516-27.671-35.181-27.732 25.045-40.484-.56z" transform="translate(264.035 91.872)"/>
            <path fill="#263238" d="M7.59 141.903c-.24.709-1.898 18.804 22.378 18.804h64.91c3.946-.008 7.726-1.584 10.51-4.38 2.782-2.796 4.34-6.584 4.33-10.53-.022-8.188-6.661-14.818-14.85-14.829H34.442c-2.162 0-4.299.47-6.261 1.378l-20.592 9.557z" transform="translate(264.035 91.872)"/>
            <path fill="#455A64" d="M100.58 130.968c0 .14-13.391.26-29.958.26s-29.958-.12-29.958-.26 13.39-.26 29.958-.26c16.567 0 29.958.11 29.958.26zM90.574 102.348c.15 0 .16 2.806.67 6.211.509 3.405 1.297 6.092 1.148 6.142-.88-1.917-1.444-3.964-1.668-6.062-.385-2.076-.436-4.2-.15-6.291z" transform="translate(264.035 91.872)"/>
            <path fill="#455A64" d="M93.33 101.948c.256 2.12.256 4.262 0 6.382-.101 2.134-.457 4.25-1.058 6.3-.15 0 .25-2.845.54-6.34.289-3.496.369-6.342.518-6.342z" transform="translate(264.035 91.872)"/>
            <path fill="#263238" d="M43.02 22.299c.086.764-.3 1.504-.976 1.87-.676.367-1.506.287-2.1-.202-1.108-.86-.938-2.587-.429-3.895.51-1.308 1.248-2.656.929-3.994-.395-1-.955-1.924-1.658-2.737-1.062-1.58-1.31-3.57-.669-5.362.675-1.787 2.295-3.045 4.194-3.256 1.908-.15 3.995.84 5.622-.21 1.159-.758 1.518-2.296 2.487-3.275C51.938-.29 54.464-.09 56.492.61c2.027.7 3.994 1.778 6.171 1.668 1.797-.1 3.435-.999 5.173-1.438 3.897-.932 7.955.71 10.109 4.089 2.153 3.379 1.927 7.751-.562 10.89-.88 1.089-2.837 4.354-6.751 3.545" transform="translate(264.035 91.872)"/>
            <path fill="#FFBE9D" d="M45.247 7.52l-.52 2.816-8.148 42.061c-.948 4.883 2.497 9.587 7.73 10.556 5.292.998 10.415-2.207 11.454-7.12 1.088-5.163 2.326-10.576 2.326-10.576s6.88.28 10.066-8.119c1.578-4.174 2.836-11.294 3.665-17.156.364-2.526-.32-5.09-1.891-7.1-1.573-2.01-3.898-3.29-6.437-3.545L45.247 7.52z" transform="translate(264.035 91.872)"/>
            <path fill="#263238" d="M67.906 24.156c-.121.605-.701 1.003-1.308.9-.29-.038-.553-.19-.73-.423-.176-.233-.252-.527-.21-.816.143-.558.678-.922 1.25-.849.29.023.56.162.747.385.188.223.278.513.25.803zM69.523 23.348c-.17.11-.878-.69-2.077-.93-1.198-.239-2.207.17-2.306 0-.1-.169.15-.319.589-.518.594-.246 1.249-.305 1.877-.17.623.127 1.19.448 1.618.919.31.32.38.649.3.699zM56.432 21.83c-.121.604-.701 1.002-1.309.898-.29-.037-.552-.189-.729-.422-.176-.233-.252-.527-.21-.816.117-.608.698-1.012 1.309-.909.29.04.553.194.73.429.176.234.251.53.209.82z" transform="translate(264.035 91.872)"/>
            <path fill="#263238" d="M57.7 21.12c-.17.12-.879-.678-2.077-.928-1.199-.25-2.207.17-2.307 0-.1-.17.15-.31.59-.51.591-.252 1.247-.315 1.877-.18.623.128 1.19.45 1.617.92.31.36.38.649.3.699zM60.206 30.957c.666-.063 1.337-.043 1.998.06.31 0 .619 0 .709-.17.11-.323.11-.675 0-.998-.127-.8-.267-1.638-.42-2.517-.434-2.149-.688-4.33-.759-6.52.597 2.11 1.027 4.263 1.288 6.44.13.879.26 1.718.38 2.527.113.407.081.841-.09 1.228-.135.203-.356.332-.6.35-.178.021-.36.021-.538 0-.67-.05-1.332-.184-1.968-.4z" transform="translate(264.035 91.872)"/>
            <path fill="#EB996E" d="M58.09 45.257c-4.101-.787-7.903-2.695-10.985-5.512 0 0 1.587 6.55 10.445 7.54l.54-2.028z" transform="translate(264.035 91.872)"/>
            <path fill="#263238" d="M56.512 31.007c.19 0-.07 1.328.848 2.486.92 1.159 2.337 1.299 2.307 1.478-.03.18-.36.19-.949.09-.766-.149-1.455-.562-1.947-1.168-.466-.584-.69-1.323-.629-2.067.07-.55.28-.869.37-.82zM58.988 16.497c-.19.3-1.348-.11-2.796-.23-1.448-.12-2.656 0-2.776-.3-.06-.159.2-.429.729-.648 1.401-.53 2.97-.38 4.244.41.47.309.679.618.6.768zM69.803 19.783c-.27.23-.999-.22-1.997-.44-.999-.22-1.868-.2-1.997-.52-.06-.159.13-.409.549-.588.555-.211 1.162-.246 1.737-.1.582.128 1.11.436 1.508.879.3.36.3.659.2.769z" transform="translate(264.035 91.872)"/>
            <path fill="#263238" d="M72.899 16.188s-4.913 1.408-10.296-2.567c-3.535-2.616-7.879-4.344-8.987-3.745-1.109.6-1.998 4.564-6.072 5.053 0 0-1.069 7.65-4.054 6.85-2.986-.798.619-15.857.619-15.857L52.517 7.2l8.398-.11 7.45 2.407 5.612 2.646-1.078 4.045zM44.338 3.725c0-.13.75-.25 1.518.23.77.479.999 1.208.9 1.248-.1.04-.49-.47-1.14-.849-.648-.38-1.278-.5-1.278-.63zM47.374 1.688c.14 0-.09.918-.15 1.997-.06 1.078.23 1.897.11 1.997-.12.1-.639-.789-.569-1.997-.043-.717.173-1.426.61-1.997z" transform="translate(264.035 91.872)"/>
            <path fill="#FFBE9D" d="M44.298 18.704c-.11-.09-4.663-2.756-5.762 2.297-1.098 5.053 4.195 5.113 4.235 4.993.04-.12 1.527-7.29 1.527-7.29z" transform="translate(264.035 91.872)"/>
            <path fill="#EB996E" d="M41.642 23.717s-.1 0-.26.08c-.228.048-.466.001-.659-.13-.574-.566-.796-1.4-.579-2.177.078-.434.256-.844.52-1.198.158-.308.464-.512.808-.54.222-.006.418.144.47.36v.26c0 .01.13-.06.14-.27-.004-.13-.05-.257-.13-.36-.115-.138-.28-.224-.46-.24-.442-.01-.858.209-1.098.58-.305.396-.514.858-.61 1.348-.251.907.068 1.877.81 2.457.26.128.567.128.828 0 .19-.05.24-.15.22-.17z" transform="translate(264.035 91.872)"/>
            <path fill="#455A64" d="M61.045 21.66c-.05 0 0-.48-.27-1.288-.332-1.141-1.035-2.139-1.997-2.836-2.123-1.582-5.1-1.293-6.88.667-1.78 1.961-1.78 4.953 0 6.913 1.78 1.961 4.757 2.25 6.88.668.962-.697 1.665-1.695 1.998-2.836.23-.809.22-1.288.27-1.288.05 0 0 .12 0 .34.007.335-.027.67-.1.998-.27 1.22-.954 2.307-1.938 3.076-1.496 1.168-3.486 1.489-5.273.849-1.052-.364-1.968-1.04-2.626-1.938-1.465-1.975-1.465-4.675 0-6.65.89-1.21 2.232-2.008 3.72-2.213 1.487-.205 2.995.2 4.179 1.124.985.767 1.67 1.856 1.937 3.076.075.327.108.663.1.998.03.22.02.34 0 .34zM73.897 23.967s0-.48-.26-1.288c-.336-1.14-1.038-2.136-1.997-2.837-2.126-1.592-5.114-1.307-6.901.658-1.787 1.966-1.787 4.968 0 6.933 1.787 1.966 4.775 2.25 6.901.658.96-.7 1.661-1.697 1.998-2.836.22-.809.21-1.288.26-1.288.05 0 0 .12 0 .35.008.336-.03.671-.11.998-.263 1.222-.95 2.311-1.938 3.076-2.293 1.775-5.565 1.499-7.527-.637-1.963-2.136-1.963-5.419 0-7.555 1.962-2.135 5.234-2.412 7.527-.636.986.767 1.671 1.855 1.938 3.076.08.326.118.662.11.998.06.23.05.33 0 .33z" transform="translate(264.035 91.872)"/>
            <path fill="#455A64" d="M50.93 18.684c-1.059.255-2.15.346-3.236.27-1.085.089-2.177.004-3.236-.25 1.059-.255 2.15-.346 3.236-.27 1.085-.088 2.177-.004 3.235.25zM63.192 22.968c-.13.06-.45-.43-.998-.6-.55-.169-1.119.07-1.199 0-.08-.069 0-.209.29-.349.324-.166.7-.202 1.048-.1.353.106.653.342.84.66.09.18.08.39.02.39z" transform="translate(264.035 91.872)"/>
            <path fill="#E0E0E0" d="M51.309 130.539L51.309 127.203 98.743 128.182 126.065 84.543 128.571 86.35 100.59 130.968z" transform="translate(264.035 91.872)"/>
            <path fill="#FFBE9D" d="M84.133 115.999l2.387 3.535v7.29c-.667.168-1.366-.115-1.728-.7-.5-1.421-.887-2.88-1.158-4.363l-1.159 2.996c-.471 1.193-1.746 1.86-2.995 1.568l-8.788-2.207 3.555-10.276 9.886 2.157z" transform="translate(264.035 91.872)"/>
            <path fill="#61A5B0" d="M35.56 45.597s-13.131 3.285-17.066 9.187c-3.934 5.902-8.428 15.718-13.261 34.732-4.214 16.597-7.47 43.1-2.906 49.321 3.145 4.274 5.153 5.363 5.153 5.363l10.136-3.625c9.758-3.495 18.726-8.892 26.383-15.878l15.538-14.18-8.228-6.491s6.261-33.824 4.603-45.637c-1.458-10.326-20.351-12.792-20.351-12.792z" transform="translate(264.035 91.872)"/>
            <path fill="#61A5B0" d="M38.946 55.793c-5.053 1.248-9.916 3.305-16.817 3.874-1.62.173-3.255-.177-4.663-.998-4.364-2.697-2.846-7.68-.47-11.035 2.527-3.555 6.501-6.611 10.845-6.172-.682-2.292.357-4.746 2.477-5.851 2.116-1.007 4.562-1.062 6.72-.15 2.123.92 4.103 2.137 5.882 3.615l7.42 5.602c1.76 1.135 3.245 2.65 4.344 4.434.999 1.847 4.514 9.107 2.936 10.475 0 0-1.997.59-2.996 0l-.18-.13c-4.324-3.546-10.043-4.898-15.498-3.664zM31.486 61.914l-8.678 40.564c-1.513 7.087 2.428 14.206 9.237 16.686l37.718 7.24 4.704-14.06-30.608-9.487 8.988-39.195-21.36-1.748z" transform="translate(264.035 91.872)"/>
            <path fill="#263238" d="M22.489 110.227c.032.076.052.157.06.24l.14.699c0 .16.07.33.1.519.03.19.15.39.219.599l.26.71.42.758c.747 1.281 1.77 2.38 2.995 3.216 1.683 1.132 3.558 1.95 5.532 2.416l37.318 6.83-.25.14c1.549-4.453 3.196-9.157 4.904-14.06l.16.31-30.618-9.527-.23-.08.06-.24c.53-2.087 1.099-4.324 1.678-6.58 1.778-7.1 3.445-14.051 4.893-20.802.71-3.375 1.388-6.7 1.848-9.986.14-.819.14-1.628.21-2.436 0-.8-.09-1.598-.27-2.377-.355-1.531-1.07-2.956-2.087-4.154-1.991-2.333-4.923-3.649-7.99-3.585-2.887.174-5.573 1.537-7.419 3.764-1.753 2.058-3.056 4.46-3.824 7.05-.731 2.395-1.311 4.833-1.738 7.3-1.858 9.407-3.355 16.977-4.404 22.31-.53 2.606-.939 4.653-1.218 6.051l-.27 1.548c-.08.35-.13.53-.13.53s0-.18.08-.54c.08-.36.16-.909.28-1.588.26-1.408.639-3.455 1.118-6.071.999-5.293 2.457-12.922 4.244-22.34.42-2.485.991-4.943 1.708-7.36.784-2.644 2.107-5.1 3.885-7.21 1.924-2.324 4.727-3.745 7.739-3.924 3.211-.083 6.289 1.285 8.378 3.725 1.065 1.258 1.818 2.75 2.197 4.354.188.815.282 1.65.28 2.487-.07.828-.07 1.677-.2 2.496-.47 3.306-1.138 6.64-1.847 9.986-1.448 6.75-3.106 13.711-4.894 20.821-.569 2.257-1.138 4.494-1.677 6.581l-.17-.31 30.597 9.567.24.07-.08.24c-1.727 4.893-3.375 9.607-4.943 14.05l-.06.18h-.19c-15.438-2.886-28.29-5.243-37.298-6.99-1.995-.492-3.885-1.337-5.582-2.497-1.262-.842-2.314-1.963-3.076-3.275-.15-.27-.28-.53-.41-.769-.129-.24-.169-.5-.239-.719-.07-.22-.15-.43-.21-.62l-.09-.528c0-.3-.08-.53-.11-.71-.02-.088-.027-.179-.02-.27z" transform="translate(264.035 91.872)"/>
            <path fill="#263238" d="M38.596 108.14c-.06 0-.11-.48.08-1.219.275-.955.8-1.82 1.518-2.506.715-.696 1.606-1.186 2.577-1.418.739-.16 1.218-.09 1.218 0s-.45.14-1.119.38c-.861.317-1.65.806-2.316 1.437-.66.64-1.18 1.408-1.528 2.257-.27.63-.35 1.079-.43 1.069z" transform="translate(264.035 91.872)"/>
            <path fill="#000" d="M30.607 61.405c-4.393 14.123-7.436 28.631-9.087 43.33-.565 3.367-.632 6.799-.2 10.185.59 3.366 2.247 6.681 5.103 8.539 2.784 1.617 6.078 2.12 9.217 1.408 3.136-.6 8.19-1.289 11.075-2.647l-16.876-3.485s-10.885-.679-6.212-21.51c4.674-20.831 6.98-35.82 6.98-35.82zM16.217 57.92c-.07 1.667.09 3.724 1.598 4.413 1.508.69 3.246-.579 4.504-1.737 5.122-4.728 10.9-8.69 17.156-11.764-8.544.578-16.68 3.867-23.228 9.387" opacity=".2" transform="translate(264.035 91.872)"/>
            <path fill="#263238" d="M49.272 52.857c-1.471-.971-3.03-1.804-4.654-2.487-1.775-.68-3.638-1.104-5.532-1.258-2.324-.185-4.661.069-6.89.749-2.223.718-4.368 1.658-6.402 2.806-1.907.998-3.595 1.997-5.053 2.786-1.458.789-2.666 1.318-3.525 1.668-.436.196-.891.346-1.358.449.41-.244.837-.457 1.278-.64.829-.399 1.997-.998 3.425-1.807l4.994-2.876c2.05-1.19 4.223-2.158 6.48-2.886 2.29-.7 4.696-.944 7.08-.719 1.937.175 3.837.643 5.633 1.389 1.21.497 2.357 1.137 3.415 1.907.292.204.572.424.839.659.19.16.28.25.27.26z" transform="translate(264.035 91.872)"/>
            <path fill="#263238" d="M54.554 54.924c-.07.06-1.258-1.129-3.375-2.826-5.504-4.447-11.91-7.64-18.774-9.357-2.626-.66-4.294-.9-4.284-.999.398-.025.797.002 1.188.08 1.07.128 2.134.312 3.186.55 6.988 1.534 13.489 4.773 18.924 9.426.998.899 1.837 1.658 2.356 2.217.292.274.554.578.78.909z" transform="translate(264.035 91.872)"/>
            <path fill="#E0E0E0" d="M57.07 87.788c-.105-.269-.172-.551-.199-.839-.1-.559-.24-1.368-.33-2.396-.135-1.243-.078-2.5.17-3.725.163-.836.807-1.495 1.638-1.678.494-.098 1 .106 1.288.52.326.442.292 1.053-.08 1.457H59.437c-.544.065-1.085-.149-1.438-.569-.344-.395-.557-.887-.609-1.408-.12-.999-.13-1.997-.19-2.996-.25-4.793-.449-9.127-.569-12.263 0-1.498-.08-2.746-.11-3.725-.038-.455-.038-.912 0-1.368.108.446.168.9.18 1.358.07 1 .16 2.227.27 3.715.21 3.136.47 7.46.719 12.253.06.999.07 1.997.17 2.916.043.422.21.822.479 1.149.24.3.616.459.999.419l-.12.06c.197-.245.197-.594 0-.839-.182-.264-.505-.394-.82-.33-.66.151-1.171.675-1.307 1.339-.258 1.18-.349 2.39-.27 3.595.1 2.147.32 3.345.25 3.355z" transform="translate(264.035 91.872)"/>
            <path fill="#263238" d="M40.674 120.832c-.376.414-.783.798-1.219 1.149-.799.719-1.997 1.717-3.515 2.916-3.941 3.114-8.092 5.953-12.423 8.498-4.343 2.544-8.866 4.77-13.53 6.66-1.788.73-3.246 1.279-4.275 1.618-.519.205-1.053.369-1.598.49.487-.274.999-.502 1.528-.68.999-.399 2.437-.998 4.204-1.767 4.592-1.988 9.058-4.255 13.372-6.79 4.31-2.544 8.474-5.328 12.472-8.339 1.528-1.158 2.767-2.117 3.605-2.786.434-.358.895-.682 1.379-.969z" transform="translate(264.035 91.872)"/>
            <path fill="#263238" d="M10.256 143.51c-.11.09-.71-.509-1.328-1.337-.62-.83-.999-1.568-.92-1.648.08-.08.71.51 1.339 1.338.63.829 1.029 1.558.909 1.648zM16.287 140.964c-.08.11-.908-.35-1.677-1.208-.77-.859-1.159-1.708-.999-1.778.16-.07.68.63 1.418 1.428.74.8 1.348 1.398 1.258 1.558zM23.857 138.468c-.1.09-.939-.68-1.868-1.728-.928-1.048-1.587-1.997-1.477-2.067.11-.07.948.679 1.867 1.728.919 1.048 1.588 1.967 1.478 2.067zM31.956 134.154c-.11.09-.999-.81-1.998-1.998-.672-.67-1.214-1.458-1.597-2.326.11-.09.998.799 1.997 1.997.669.673 1.21 1.46 1.598 2.327zM39.535 128.502c-.1.11-.999-.6-2.137-1.578-1.138-.979-1.877-1.848-1.777-1.998.1-.15 1.048.6 2.127 1.578 1.078.979 1.887 1.898 1.787 1.998z" transform="translate(264.035 91.872)"/>
        </g>
        <g fill="#455A64" transform="translate(358.903 117.836)">
            <circle cx="14.788" cy="21.504" r="2.317" transform="rotate(-76.7 14.788 21.504)"/>
            <path d="M10.156 18.534c1.195-1.286 2.865-2.027 4.62-2.052 1.757-.024 3.446.67 4.677 1.922.505.51 1.327.515 1.837.01.51-.504.515-1.327.01-1.837-1.718-1.74-4.067-2.71-6.512-2.69-2.445.018-4.778 1.025-6.47 2.79-1.148 1.218.68 3.076 1.838 1.857zM2.287 7.74c3.402-3.124 7.826-4.9 12.443-4.994 4.693-.053 9.231 1.682 12.692 4.853 1.228 1.149 3.086-.679 1.857-1.827C25.33 2.109 20.127.094 14.74.14 9.438.245 4.356 2.283.45 5.872c-1.268 1.098.57 2.946 1.838 1.847v.02z"/>
            <path d="M5.393 13.72c2.377-2.648 5.753-4.183 9.313-4.234 3.559-.051 6.977 1.386 9.43 3.965 1.169 1.209 2.996-.629 1.848-1.837-2.94-3.07-7.02-4.785-11.27-4.735-4.251.049-8.291 1.857-11.159 4.995-1.138 1.228.69 3.085 1.838 1.847z"/>
        </g>
    </g>
</svg>
