<svg xmlns="http://www.w3.org/2000/svg" width="518" height="306" viewBox="0 0 518 306">
    <g fill="none" fill-rule="evenodd">
        <g fill-rule="nonzero">
            <path fill="#F5F5F5" d="M11.994 0.015H58.232V62.664H11.994z" transform="translate(88.021)"/>
            <path fill="#E0E0E0" d="M0.276 7.904H46.514V70.553H0.276z" transform="translate(88.021)"/>
            <path fill="#EBEBEB" d="M264.455 93.576h-4.639l-13.065.046-45.09.068h-.123v-.114c-1.003-3.402-.305-7.075 1.88-9.882 2.185-2.808 5.594-4.413 9.173-4.32l-.168.213c-.283-.985-.402-2.009-.353-3.031.119-3.486 2.081-6.653 5.167-8.337 2.997-1.549 6.573-1.529 9.552.053l-.23.084c1.645-3.785 4.82-6.714 8.75-8.071 3.609-1.356 7.624-1.169 11.09.515 3.094 1.613 5.528 4.237 6.888 7.427 1.245 2.803 1.543 5.928.85 8.912l-.13-.144c1.777-.182 3.57.078 5.22.758 1.467.586 2.789 1.481 3.873 2.622.493.514.903 1.099 1.217 1.735.28.588.498 1.203.65 1.834.264 1.104.412 2.231.444 3.365.058 1.557-.079 3.114-.405 4.638-.085.397-.192.79-.322 1.175-.092.257-.145.379-.145.379M384.684 63.801c-5.931.976-10.107 6.305-9.588 12.236.52 5.93 5.558 10.469 11.57 10.42 6.013-.048 10.977-4.668 11.398-10.606l3.153-.516 1.692-3.516 2.464 2.834 3.957-.651 1.692-3.524 2.464 2.834 3.406-.56 1.018-2.145 1.531 1.727 1.975-.325 2.181-2.857-3.735-4.055-23.544 3.865c-2.477-3.88-7.06-5.913-11.634-5.16zm-6.421 12.618c-.294-1.78.922-3.46 2.72-3.757 1.797-.297 3.498.902 3.803 2.681.305 1.779-.901 3.466-2.696 3.774-.87.151-1.765-.05-2.484-.556-.72-.507-1.203-1.279-1.343-2.142zM372.997 150.982l1.416 25.841c.056.917.817 1.635 1.745 1.645l46.965.341c.466.004.915-.176 1.246-.5.332-.325.52-.766.522-1.228l.153-20.113c.004-.464-.18-.912-.51-1.242-.33-.33-.78-.516-1.25-.516h-28.88c-.467-.002-.916-.187-1.247-.515l-4.982-4.926c-.328-.324-.77-.508-1.233-.515l-12.177-.084c-.48-.002-.941.19-1.275.532-.334.342-.512.804-.493 1.28z" transform="translate(88.021)"/>
            <path fill="#F5F5F5" d="M373.653 151.985L424.965 151.981 424.963 182.34 373.651 182.343z" transform="translate(88.021) rotate(.42 399.308 167.162)"/>
            <path fill="#EBEBEB" d="M369.69 154.49l3.682 31.685c.065.563.545.989 1.117.993l50.004.364c.592.006 1.088-.44 1.14-1.024l2.748-31.639c.028-.311-.077-.62-.29-.852-.211-.231-.511-.365-.827-.368l-56.441-.41c-.325-.001-.634.134-.851.374-.217.239-.32.558-.282.877z" transform="translate(88.021)"/>
        </g>
        <path fill="#263238" fill-rule="nonzero" d="M503.513 303.896c0 .107-110.042.199-245.756.199-135.713 0-245.778-.115-245.778-.2 0-.084 110.019-.198 245.778-.198 135.76 0 245.756.068 245.756.199z"/>
        <g fill-rule="nonzero" transform="translate(0 133.377)">
            <path fill="#FAFAFA" d="M0.199 0.371H86.736V57.754000000000005H0.199z"/>
            <path fill="#263238" d="M63.23 35.178h-2.296v-13.74c-.116-3.22-2.787-5.773-6.043-5.773-3.256 0-5.927 2.552-6.043 5.774v13.74h-2.296v-13.74c0-4.566 3.739-8.268 8.35-8.268 4.612 0 8.351 3.702 8.351 8.268l-.023 13.74z"/>
            <rect width="22.832" height="14.505" x="43.467" y="29.063" fill="#263238" rx="2.595"/>
            <path fill="#455A64" d="M54.88 36.315c-.775 0-1.473-.462-1.77-1.171-.295-.71-.13-1.525.42-2.066.548-.541 1.372-.701 2.087-.406.715.296 1.18.99 1.176 1.756-.004 1.043-.86 1.887-1.914 1.887"/>
            <path fill="#455A64" d="M54.359 35.178H55.4V39.065999999999995H54.359z"/>
            <path fill="#A44365" d="M42.9 35.012c3.383-1.487 5.547-4.824 5.504-8.488 0-5.047-3.827-9.162-8.626-9.185-4.799-.023-8.68 4.054-8.703 9.094-.082 3.692 2.098 7.067 5.519 8.54-13.333 1.986-12.729 16.34-12.729 16.34l31.527.143s.72-14.467-12.491-16.444z"/>
            <path fill="#263238" d="M86.736 57.754v-1.046-3.031-11.542c0-9.973-.046-24.296-.085-41.764l.161.16L.322.567.52.371v57.383l-.321-.16 62.327.084 17.818.053h6.392H80.42l-17.773.053L.2 57.868H0v-.182V.106h.207l86.529.038h.16v.16c0 17.505-.069 31.828-.084 41.861 0 4.972 0 8.86-.046 11.512v3.031c0 .72-.03 1.046-.03 1.046z"/>
            <path fill="#263238" d="M86.713 7.268c0 .106-19.357.197-43.23.197C19.61 7.465.237 7.374.237 7.268c0-.107 19.357-.197 43.246-.197 23.888 0 43.23.083 43.23.197zM5.901 3.827c0 .49-.4.887-.895.887s-.896-.397-.896-.887.401-.887.896-.887c.494 0 .895.397.895.887zM8.825 3.827c0 .49-.4.887-.895.887s-.896-.397-.896-.887.401-.887.896-.887c.494 0 .895.397.895.887zM11.979 3.827c0 .49-.401.887-.896.887s-.895-.397-.895-.887.4-.887.895-.887.896.397.896.887z"/>
            <path fill="#263238" d="M86.736 57.754v-1.046-3.031-11.542c0-9.973-.046-24.296-.085-41.764l.161.16L.322.567.52.371v57.383l-.321-.16 62.327.084 17.818.053h6.392H80.42l-17.773.053L.2 57.868H0v-.182V.106h.207l86.529.038h.16v.16c0 17.505-.069 31.828-.084 41.861 0 4.972 0 8.86-.046 11.512v3.031c0 .72-.03 1.046-.03 1.046z"/>
            <path fill="#263238" d="M42.909 59.648c-.108 0-.2-.424-.2-.947 0-.523.092-.947.2-.947.107 0 .199.424.199.947 0 .523-.092.947-.2.947zM42.909 67.947c-.266-1.372-.266-2.781 0-4.153.265 1.372.265 2.78 0 4.153zM42.909 76.237c-.195-.674-.262-1.378-.2-2.076-.063-.696.005-1.398.2-2.07.194.672.262 1.374.199 2.07.062.698-.005 1.402-.2 2.076zM42.909 84.528c-.195-.674-.262-1.378-.2-2.077-.063-.695.005-1.397.2-2.068.194.671.262 1.373.199 2.068.062.699-.005 1.403-.2 2.077zM42.909 92.818c-.195-.674-.262-1.378-.2-2.076-.063-.696.005-1.397.2-2.069.194.672.262 1.373.199 2.069.062.698-.005 1.402-.2 2.076zM44.822 98.858c-.618.192-1.269.26-1.913.197l-.2-.197v-.712c0-.227 0-.432.046-.606 0-.341.085-.553.138-.553.054 0 .107.212.138.553 0 .174 0 .379.046.606v.712l-.2-.197c.656-.07 1.318-.003 1.945.197zM52.346 98.858c-.608.192-1.248.26-1.883.197-.635.062-1.275-.005-1.883-.197.607-.196 1.248-.263 1.883-.197.635-.066 1.276 0 1.883.197zM59.862 98.858c-.605.192-1.243.26-1.875.197-.635.062-1.275-.005-1.883-.197.607-.196 1.248-.263 1.883-.197.632-.066 1.271.001 1.875.197zM67.356 98.858c-.608.192-1.249.26-1.883.197-.632.062-1.27-.005-1.876-.197.604-.196 1.244-.263 1.876-.197.634-.066 1.276 0 1.883.197zM74.91 98.858c-.607.192-1.248.26-1.883.197-.634.062-1.275-.005-1.883-.197.607-.196 1.249-.263 1.883-.197.635-.066 1.276 0 1.883.197zM82.426 98.858c-.605.192-1.243.26-1.875.197-.635.062-1.275-.005-1.883-.197.607-.196 1.248-.263 1.883-.197.632-.066 1.271.001 1.875.197zM89.95 98.858c-.607.192-1.248.26-1.883.197-.632.062-1.27-.005-1.875-.197.604-.196 1.243-.263 1.875-.197.635-.066 1.277 0 1.883.197zM97.474 98.858c-1.241.263-2.524.263-3.766 0 1.242-.262 2.525-.262 3.766 0zM104.99 98.858c-1.238.263-2.519.263-3.758 0 1.239-.262 2.52-.262 3.758 0zM112.514 98.858c-1.238.263-2.52.263-3.758 0 1.239-.262 2.52-.262 3.758 0zM120.038 98.858c-1.241.263-2.524.263-3.766 0 1.242-.262 2.525-.262 3.766 0zM125.71 98.858c0 .106-.429.197-.957.197s-.957-.09-.957-.197c0-.106.429-.197.957-.197s.957.084.957.197z"/>
        </g>
        <g fill-rule="nonzero" transform="translate(79.602 16.672)">
            <path fill="#FFF" d="M0.765 0.856H47.003V63.505H0.765z"/>
            <path fill="#263238" d="M47.034 63.49v-.31-.887-3.425c0-3.031 0-7.359-.069-12.883 0-11.027-.076-26.66-.13-45.167l.207.213-46.277.068.238-.228v62.65l-.192-.19 33.579.076 9.345.046h3.322-3.245l-9.3.06-33.678.122H.651v-.19C.65 45.864.597 24.197.559.795V.569H47.21v.205c0 18.56-.053 34.239-.069 45.303 0 5.486 0 9.852-.046 12.822v4.244c0 .205-.06.349-.06.349z"/>
            <path fill="#263238" d="M29.032 13.444c0 .121-5.029.227-11.236.235-6.208.007-11.236-.099-11.236-.22s5.036-.235 11.236-.235c6.2 0 11.236.091 11.236.22zM41.194 18.877c0 .13-7.754.235-17.313.243-9.56.008-17.314-.091-17.314-.22s7.746-.235 17.314-.242c9.567-.008 17.313.09 17.313.22zM41.194 24.554c0 .128-7.746.234-17.306.242-9.56.008-17.313-.09-17.32-.212-.008-.121 7.753-.235 17.313-.243 9.56-.007 17.313.091 17.313.213zM41.202 30.237c0 .121-7.754.235-17.314.243-9.56.007-17.313-.091-17.313-.22s7.753-.235 17.313-.243c9.56-.007 17.314.091 17.314.22zM41.202 35.913c0 .13-7.746.235-17.306.243-9.56.007-17.314-.091-17.314-.212 0-.122 7.746-.235 17.314-.243 9.567-.007 17.306.091 17.306.212zM41.21 41.597c0 .121-7.754.235-17.314.235s-17.314-.083-17.314-.212c0-.13 7.754-.235 17.314-.243 9.56-.007 17.313.091 17.313.22zM41.21 47.273c0 .129-7.747.235-17.306.243-9.56.007-17.314-.091-17.314-.22s7.746-.227 17.314-.235c9.567-.008 17.305.09 17.305.212zM25.205 52.964c0 .13-4.172.235-9.308.235-5.135 0-9.307-.09-9.307-.22 0-.128 4.164-.234 9.307-.234 5.144 0 9.308.09 9.308.22z"/>
            <ellipse cx="42.985" cy="58.747" fill="#353E63" rx="9.392" ry="9.299"/>
            <path fill="#E0E0E0" d="M48.374 55.155c.405.378-1.44 2.978-4.118 5.812-.429.462-.858.894-1.263 1.296l-.65.637-.644-.539c-2.342-1.94-3.827-3.607-3.582-3.97.245-.364 2.296.697 4.76 2.462l-1.293.106c.375-.431.766-.879 1.217-1.333 2.68-2.842 5.175-4.843 5.573-4.471z"/>
            <path fill="#263238" d="M20.39 66.916c-.194-.612-.262-1.256-.199-1.895-.062-.638.005-1.282.2-1.894.193.612.261 1.256.198 1.894.064.639-.004 1.283-.199 1.895zM20.39 74.494c-.194-.612-.262-1.256-.199-1.894-.062-.639.005-1.283.2-1.895.193.612.261 1.256.198 1.895.064.638-.004 1.282-.199 1.894zM20.39 82.073c-.265-1.25-.265-2.54 0-3.79.266 1.25.266 2.54 0 3.79zM20.39 89.65c-.265-1.249-.265-2.539 0-3.788.266 1.249.266 2.54 0 3.789zM20.39 97.229c-.265-1.25-.265-2.54 0-3.79.266 1.25.266 2.54 0 3.79zM20.39 104.807c-.265-1.25-.265-2.54 0-3.789.266 1.25.266 2.54 0 3.79zM20.39 112.386c-.265-1.25-.265-2.54 0-3.79.266 1.25.266 2.54 0 3.79zM20.39 119.964c-.265-1.25-.265-2.54 0-3.79.266 1.25.266 2.54 0 3.79zM24.08 123.89c-.618.191-1.27.258-1.914.196-.595.018-1.19-.026-1.776-.128h-.084v-.046c0-.09.054-.136.077-.136s.046.045.069.136l-.07-.068c.587-.103 1.182-.146 1.776-.129.646-.07 1.3-.011 1.922.174zM31.734 123.89c-1.262.262-2.566.262-3.827 0 1.261-.263 2.565-.263 3.827 0zM39.388 123.89c-1.262.262-2.565.262-3.827 0 1.262-.263 2.565-.263 3.827 0zM47.042 123.89c-1.262.262-2.565.262-3.827 0 1.262-.263 2.565-.263 3.827 0zM54.696 123.89c-1.262.262-2.565.262-3.827 0 1.262-.263 2.565-.263 3.827 0z"/>
        </g>
        <g fill-rule="nonzero" transform="translate(217.375 22.735)">
            <path fill="#263238" d="M44.393 49.259c-.198-.611-.266-1.257-.199-1.895-.067-.638.001-1.283.2-1.894.193.611.261 1.256.198 1.894.063.638-.005 1.283-.199 1.895zM44.393 56.837c-.198-.611-.266-1.256-.199-1.895-.067-.638.001-1.283.2-1.894.193.612.261 1.256.198 1.894.063.639-.005 1.283-.199 1.895zM44.393 64.415c-.198-.61-.266-1.256-.199-1.894-.067-.639.001-1.284.2-1.895.193.612.261 1.256.198 1.895.063.638-.005 1.282-.199 1.894zM44.393 71.993c-.198-.61-.266-1.256-.199-1.894-.067-.638.001-1.284.2-1.895.265 1.25.265 2.54 0 3.79zM44.393 79.572c-.265-1.25-.265-2.54 0-3.79.266 1.25.266 2.54 0 3.79zM44.393 87.15c-.265-1.25-.265-2.54 0-3.79.266 1.25.266 2.54 0 3.79zM44.393 94.728c-.265-1.25-.265-2.54 0-3.789.266 1.25.266 2.54 0 3.79zM44.393 102.306c-.265-1.249-.265-2.54 0-3.789.266 1.25.266 2.54 0 3.79z"/>
            <path fill="#353E63" d="M96.387 54.14h-7.08l-19.778.067-68.266.106h-.191l-.046-.174C-.468 48.997.6 43.46 3.906 39.225c3.305-4.233 8.45-6.653 13.851-6.517l-.252.318c-.421-1.478-.6-3.013-.528-4.547.214-5.229 3.214-10.276 7.822-12.61 4.534-2.35 9.95-2.32 14.459.076l-.353.12c2.501-5.72 7.306-10.144 13.25-12.2 5.633-2.023 11.886-1.758 16.793.758 4.684 2.455 8.362 6.447 10.401 11.291 1.884 4.24 2.333 8.97 1.279 13.482l-.192-.212c2.69-.283 5.408.105 7.907 1.129 2.223.888 4.224 2.246 5.863 3.979.744.774 1.366 1.656 1.845 2.614.419.895.747 1.83.98 2.789.404 1.667.63 3.371.673 5.085.086 2.358-.12 4.717-.613 7.025-.129.6-.293 1.192-.49 1.773-.137.394-.214.584-.214.584"/>
            <path fill="#E0E0E0" d="M87.723 28.184h-2.947V10.61c0-4.223-3.458-7.647-7.723-7.647S69.33 6.387 69.33 10.61v17.574h-2.947V10.61c0-5.835 4.777-10.565 10.67-10.565s10.67 4.73 10.67 10.565v17.574z"/>
            <rect width="29.177" height="18.536" x="62.465" y="20.37" fill="#E0E0E0" rx="2.595"/>
            <path fill="#455A64" d="M77.053 29.639c-1.348 0-2.441-1.083-2.441-2.418 0-1.335 1.093-2.417 2.441-2.417 1.349 0 2.442 1.082 2.442 2.417.002.642-.255 1.258-.713 1.712-.458.454-1.08.708-1.729.706"/>
            <path fill="#455A64" d="M76.387 28.184H77.719V33.148H76.387z"/>
        </g>
        <g>
            <path fill="#263238" fill-rule="nonzero" d="M71.994 29.176c6.095-5.62 6.8-14.935 1.62-21.392C68.434 1.327 59.11-.099 52.202 4.51c-6.908 4.607-9.075 13.7-4.977 20.878l-3.245 3.031.766 5.305-5.037-1.394-4.064 3.751.765 5.305-5.028-1.326-3.498 3.228.474 3.251-3.061-.856-2.036 1.88-.307 4.948 7.448 1.849L54.566 32.04c5.862 2.604 12.73 1.475 17.428-2.865zm-2.342-19.43c1.273 1.343 1.601 3.314.831 4.991-.769 1.677-2.484 2.729-4.344 2.664-1.859-.066-3.495-1.235-4.142-2.962-.648-1.727-.179-3.67 1.187-4.92 1.853-1.697 4.741-1.596 6.468.227z" transform="translate(401.837 15.914)"/>
            <path d="M71.994 29.176c6.095-5.62 6.8-14.935 1.62-21.392C68.434 1.327 59.11-.099 52.202 4.51c-6.908 4.607-9.075 13.7-4.977 20.878l-3.245 3.031.766 5.305-5.037-1.394-4.064 3.751.765 5.305-5.028-1.326-3.498 3.228.474 3.251-3.061-.856-2.036 1.88-.307 4.948 7.448 1.849L54.566 32.04c5.862 2.604 12.73 1.475 17.428-2.865zm-2.342-19.43c1.273 1.343 1.601 3.314.831 4.991-.769 1.677-2.484 2.729-4.344 2.664-1.859-.066-3.495-1.235-4.142-2.962-.648-1.727-.179-3.67 1.187-4.92 1.853-1.697 4.741-1.596 6.468.227z" transform="translate(401.837 15.914)"/>
            <path fill="#263238" fill-rule="nonzero" d="M69.652 9.746s-.299-.28-.903-.652c-.867-.516-1.881-.735-2.886-.622-2.261.242-3.966 2.147-3.935 4.398.03 2.252 1.785 4.111 4.052 4.293 2.267.182 4.301-1.373 4.697-3.59.182-.983.031-1.998-.428-2.888-.337-.629-.628-.917-.597-.94.03-.022.092.054.222.198.197.199.367.423.505.667.542.913.745 1.985.574 3.03-.201 1.246-.903 2.358-1.945 3.084-1.043.725-2.337 1.002-3.589.767-2.352-.399-4.037-2.466-3.934-4.827.103-2.36 1.962-4.276 4.34-4.472 1.056-.097 2.113.17 2.992.758.233.16.449.342.643.546.123.159.192.234.192.25z" transform="translate(401.837 15.914)"/>
            <path fill="#263238" fill-rule="nonzero" d="M71.994 29.176l-.23.22-.704.621c-.945.757-1.972 1.407-3.062 1.94-4.236 2.016-9.153 2.088-13.448.198h.13l-24.156 22.34-.069.06h-.091l-7.455-1.848h-.146v-.152c.092-1.515.2-3.228.299-4.94v-.077l.053-.053 2.036-1.88.077-.075h.107l3.061.856-.244.213c-.146-1.016-.314-2.137-.475-3.259v-.098l.077-.069 3.49-3.228.084-.076h.107l5.036 1.402-.252.212c-.245-1.69-.505-3.508-.765-5.304v-.107l.076-.068 1.08-.992 2.984-2.759.085-.076h.107l5.036 1.402-.253.212c-.26-1.796-.512-3.576-.765-5.304v-.099l.077-.076 3.253-3.03v.234c-1.253-2.205-1.963-4.672-2.075-7.2-.108-2.433.345-4.858 1.324-7.093C49.56 4.153 57.41.37 64.99 2.257c7.579 1.887 12.69 8.897 12.11 16.613-.174 2.12-.784 4.183-1.79 6.062-.108.19-.208.38-.3.561l-.329.5c-.214.319-.398.637-.604.895-.429.515-.766.977-1.087 1.296l-.766.757-.26.235.23-.265.712-.758c.314-.326.635-.758 1.056-1.31.199-.266.375-.577.59-.895l.313-.508c.1-.182.191-.364.291-.56.984-1.884 1.567-3.948 1.714-6.063.536-7.582-4.505-14.45-11.954-16.286-7.45-1.835-15.154 1.89-18.271 8.836-.47 1.077-.815 2.203-1.026 3.358-.23 1.175-.315 2.373-.253 3.569.112 2.466.807 4.873 2.029 7.025l.076.129-.114.106-3.246 3.031.061-.167c.26 1.759.516 3.527.766 5.305v.296l-.291-.084-4.983-1.349.184-.045-2.985 2.759-1.072.992.062-.166c.26 1.826.528 3.645.765 5.304v.296l-.29-.076-5.037-1.402.183-.045-3.49 3.22.061-.166.467 3.25.046.296-.29-.083-3.062-.849.183-.045c-.704.651-1.4 1.296-2.036 1.872l.062-.122c-.107 1.713-.215 3.403-.306 4.941l-.146-.19 7.447 1.865h-.168L54.443 31.92l.061-.053h.07c4.24 1.91 9.11 1.895 13.34-.038 1.097-.521 2.139-1.151 3.108-1.88.306-.257.543-.454.72-.59.08-.066.165-.126.252-.183z" transform="translate(401.837 15.914)"/>
            <path fill="#E0E0E0" fill-rule="nonzero" d="M71.458 27.38c6.088-5.63 6.78-14.948 1.587-21.397-5.193-6.45-14.522-7.86-21.422-3.238s-9.048 13.72-4.933 20.892l-3.246 3.03.766 5.306-5.037-1.402-4.064 3.789.765 5.305-5.036-1.402-3.498 3.228.475 3.251-3.062-.849-2.036 1.88-.298 4.94 7.432 1.857 24.164-22.318c5.868 2.607 12.743 1.475 17.443-2.872zM69.101 7.95c1.272 1.342 1.6 3.312.833 4.989-.768 1.676-2.481 2.729-4.34 2.666-1.858-.063-3.495-1.23-4.145-2.954-.65-1.725-.186-3.668 1.176-4.921 1.852-1.704 4.746-1.606 6.476.22z" transform="translate(401.837 15.914)"/>
            <path d="M71.458 27.38c6.088-5.63 6.78-14.948 1.587-21.397-5.193-6.45-14.522-7.86-21.422-3.238s-9.048 13.72-4.933 20.892l-3.246 3.03.766 5.306-5.037-1.402-4.064 3.789.765 5.305-5.036-1.402-3.498 3.228.475 3.251-3.062-.849-2.036 1.88-.298 4.94 7.432 1.857 24.164-22.318c5.868 2.607 12.743 1.475 17.443-2.872zM69.101 7.95c1.272 1.342 1.6 3.312.833 4.989-.768 1.676-2.481 2.729-4.34 2.666-1.858-.063-3.495-1.23-4.145-2.954-.65-1.725-.186-3.668 1.176-4.921 1.852-1.704 4.746-1.606 6.476.22z" transform="translate(401.837 15.914)"/>
            <path fill="#263238" fill-rule="nonzero" d="M69.1 7.95s-.298-.273-.91-.645c-.863-.524-1.88-.746-2.886-.629-2.26.243-3.963 2.146-3.934 4.397.03 2.25 1.782 4.11 4.048 4.294 2.265.184 4.3-1.367 4.7-3.583.184-.985.033-2.003-.428-2.895-.337-.621-.628-.91-.59-.94.039-.03.085.061.215.198.197.202.367.428.505.674.549.911.752 1.986.574 3.031-.25 1.576-1.3 2.914-2.778 3.547-.866.376-1.827.482-2.756.303-2.042-.383-3.594-2.04-3.827-4.085-.145-1.253.226-2.51 1.03-3.49.804-.978 1.973-1.594 3.241-1.708 1.056-.097 2.114.17 2.993.758.233.161.449.347.643.553.107.129.168.212.16.22z" transform="translate(401.837 15.914)"/>
            <path fill="#263238" fill-rule="nonzero" d="M71.458 27.38s-.076.084-.23.22l-.704.621c-.946.757-1.973 1.41-3.061 1.948-4.24 2.006-9.153 2.076-13.448.19h.13l-24.156 22.34-.07.068h-.091l-7.448-1.841h-.153v-.227c.092-1.516.2-3.229.299-4.941v-.076l.053-.053 2.036-1.88.077-.068h.107l3.062.849-.245.212c-.146-1.015-.314-2.13-.475-3.251v-.106l.077-.068 3.49-3.229.084-.068h.107l5.075 1.455-.245.22c-.253-1.698-.513-3.509-.765-5.305v-.098l.076-.076 1.08-.993 2.984-2.758.085-.076h.107l5.036 1.402-.245.212c-.268-1.796-.52-3.577-.765-5.305V26.6l.076-.069 3.253-3.03-.038.234c-1.251-2.203-1.962-4.667-2.074-7.192-.06-1.226.027-2.454.26-3.66C46.622 4.836 54.351-.498 62.607.592c8.256 1.09 14.304 8.243 13.933 16.482-.174 2.12-.783 4.183-1.79 6.062l-.3.561-.328.5c-.215.319-.398.637-.605.902-.429.508-.765.97-1.087 1.296l-.765.758-.26.235.23-.258.711-.758c.314-.333.635-.757 1.056-1.31.2-.266.375-.584.59-.903l.321-.5.283-.56c2.304-4.453 2.346-9.721.115-14.21C71.977 3.443 66.304.057 60.162.207c-6.14.15-11.639 3.807-14.1 9.38-.476 1.075-.823 2.201-1.033 3.357-.23 1.177-.315 2.379-.253 3.577.113 2.464.808 4.867 2.028 7.017l.077.136-.115.099c-1.064.993-2.15 1.993-3.245 3.031l.061-.166c.26 1.758.515 3.526.765 5.304l.046.296-.298-.076-5.036-1.402.183-.045-2.985 2.758-1.071 1 .06-.174c.261 1.827.529 3.645.766 5.305l.046.303-.298-.083-5.037-1.402.184-.046-3.49 3.229.061-.175.467 3.259.046.288-.291-.076-3.062-.856.184-.046-2.036 1.88.061-.13c-.107 1.714-.214 3.404-.306 4.942l-.145-.19 7.447 1.865-.168.045 24.202-22.28.061-.053h.077c4.239 1.915 9.11 1.904 13.34-.03 1.1-.519 2.14-1.148 3.108-1.88l.72-.59.275-.198z" transform="translate(401.837 15.914)"/>
            <path fill="#263238" fill-rule="nonzero" d="M69.989 26.153c.786-.83 1.505-1.719 2.15-2.66 2.895-4.537 2.895-10.317 0-14.854-1.345-2.065-3.22-3.739-5.434-4.85-1.185-.608-2.458-1.033-3.774-1.258-.677-.125-1.362-.203-2.05-.235-.701-.012-1.402.02-2.098.099-6.008.696-10.86 5.178-11.979 11.064-.13.683-.212 1.374-.244 2.069-.016.68.015 1.362.091 2.038.14 1.307.48 2.585 1.01 3.79.972 2.26 2.533 4.225 4.524 5.69 3.21 2.346 7.28 3.22 11.183 2.403 1.322-.263 2.597-.723 3.78-1.364.997-.569 1.947-1.215 2.84-1.932-.045.06-.099.114-.16.159l-.498.44c-.263.249-.55.472-.857.666-.397.286-.817.54-1.255.758-1.191.68-2.482 1.172-3.827 1.455-3.966.868-8.118.013-11.405-2.35-2.05-1.489-3.66-3.496-4.661-5.812-.553-1.244-.91-2.566-1.056-3.918-.076-.697-.11-1.398-.1-2.099.039-.712.123-1.42.253-2.122 1.134-6.058 6.132-10.67 12.315-11.367 1.42-.191 2.86-.142 4.263.144 1.352.238 2.658.68 3.873 1.31 4.311 2.166 7.2 6.368 7.654 11.133.176 1.785 0 3.587-.52 5.305-.383 1.3-.964 2.534-1.722 3.66-.268.416-.568.811-.896 1.183-.23.287-.486.553-.765.795l-.482.463c-.042.072-.094.138-.153.197z" transform="translate(401.837 15.914)"/>
            <path fill="#263238" fill-rule="nonzero" d="M69.346 14.937c-.039 0 .329-.341.765-1.046.625-1.004.894-2.185.765-3.357-.082-.81-.358-1.59-.803-2.274-.506-.77-1.208-1.395-2.036-1.81-2.408-1.217-5.355-.4-6.774 1.877-1.42 2.277-.837 5.251 1.34 6.837.647.483 1.399.81 2.196.955 1.172.205 2.38.024 3.437-.515.765-.394 1.079-.758 1.11-.698-.068.094-.148.178-.238.25-.231.224-.488.42-.765.584-1.072.618-2.327.848-3.552.652-.849-.132-1.654-.462-2.35-.963-.803-.58-1.433-1.366-1.821-2.273-.444-.997-.57-2.105-.36-3.175.455-2.348 2.4-4.13 4.8-4.396 1.473-.17 2.954.257 4.107 1.183 1.152.925 1.88 2.272 2.016 3.735.112 1.227-.21 2.454-.911 3.471-.178.279-.392.533-.636.758-.088.08-.185.149-.29.205zM27.914 51.691c-.069-.076 5.358-5.221 12.155-11.496s12.346-11.284 12.422-11.2c.077.083-5.357 5.22-12.154 11.496-6.797 6.274-12.346 11.284-12.423 11.2zM4.409 120.153c-1.262.263-2.565.263-3.827 0 1.262-.262 2.565-.262 3.827 0zM12.063 120.153c-1.262.263-2.565.263-3.827 0 1.262-.262 2.565-.262 3.827 0zM19.717 120.153c-1.262.263-2.565.263-3.827 0 1.262-.262 2.565-.262 3.827 0zM27.37 120.153c-1.261.263-2.564.263-3.826 0 1.262-.262 2.565-.262 3.827 0zM35.025 120.153c-1.262.263-2.565.263-3.827 0 1.262-.262 2.565-.262 3.827 0zM42.679 120.153c-1.262.263-2.565.263-3.827 0 1.262-.262 2.565-.262 3.827 0zM49.17 118.979c.084 0 .153.477.183 1.151v.175H48.396c-.644.062-1.295-.005-1.913-.197.618-.192 1.269-.26 1.913-.197h.766l-.184.182c.008-.614.115-1.114.192-1.114zM49.17 111.4c.265 1.25.265 2.54 0 3.79-.266-1.25-.266-2.54 0-3.79zM49.17 103.822c.265 1.25.265 2.54 0 3.79-.266-1.25-.266-2.54 0-3.79zM49.17 96.244c.265 1.25.265 2.54 0 3.789-.266-1.25-.266-2.54 0-3.79zM49.17 88.666c.265 1.249.265 2.54 0 3.789-.266-1.25-.266-2.54 0-3.79zM49.17 81.087c.265 1.25.265 2.54 0 3.79-.266-1.25-.266-2.54 0-3.79zM49.17 73.51c.198.61.266 1.255.199 1.894.067.638-.001 1.283-.2 1.894-.193-.612-.261-1.256-.198-1.894-.063-.639.005-1.283.199-1.895zM49.17 65.93c.198.612.266 1.257.199 1.895.067.639-.001 1.284-.2 1.895-.193-.612-.261-1.256-.198-1.895-.063-.638.005-1.282.199-1.894zM49.17 58.353c.198.61.266 1.256.199 1.894.067.638-.001 1.284-.2 1.895-.193-.612-.261-1.257-.198-1.895-.063-.638.005-1.283.199-1.894zM49.17 50.774c.198.611.266 1.257.199 1.895.067.638-.001 1.283-.2 1.894-.193-.611-.261-1.256-.198-1.894-.063-.638.005-1.283.199-1.895zM49.17 43.196c.198.611.266 1.256.199 1.895.067.638-.001 1.283-.2 1.894-.193-.612-.261-1.256-.198-1.894-.063-.639.005-1.283.199-1.895z" transform="translate(401.837 15.914)"/>
        </g>
        <g fill-rule="nonzero">
            <path fill="#263238" d="M4.034 49.425c-1.262.263-2.565.263-3.827 0 1.262-.262 2.565-.262 3.827 0zM11.688 49.425c-1.262.263-2.565.263-3.827 0 1.262-.262 2.565-.262 3.827 0zM19.342 49.425c-1.262.263-2.565.263-3.827 0 1.262-.262 2.565-.262 3.827 0zM26.996 49.425c-1.262.263-2.565.263-3.827 0 1.262-.262 2.565-.262 3.827 0zM34.65 49.425c-1.262.263-2.565.263-3.827 0 1.262-.262 2.565-.262 3.827 0zM42.304 49.425c-1.262.263-2.565.263-3.827 0 1.262-.262 2.565-.262 3.827 0zM49.958 49.425c-1.262.263-2.565.263-3.827 0 1.262-.262 2.565-.262 3.827 0zM57.612 49.425c-1.262.263-2.565.263-3.827 0 1.262-.262 2.565-.262 3.827 0zM65.266 49.425c-1.262.263-2.565.263-3.827 0 1.262-.262 2.565-.262 3.827 0zM72.92 49.425c-1.262.263-2.565.263-3.827 0 1.262-.262 2.565-.262 3.827 0zM79.862 48.72c.061 0 .115.273.146.705v.144h-.161c-.322 0-.765.038-1.194.038-.645.067-1.297 0-1.914-.197.618-.193 1.27-.26 1.914-.197.451 0 .872 0 1.194.046l-.153.151c.046-.417.107-.69.168-.69zM79.939 41.142c.188.613.248 1.258.176 1.895.058.64-.015 1.284-.215 1.894-.257-1.251-.244-2.542.039-3.789zM80.015 33.564c.189.613.249 1.258.176 1.895.058.639-.015 1.283-.214 1.894-.193-.614-.256-1.262-.184-1.902-.062-.637.014-1.28.222-1.887zM80.092 25.986c.184.614.244 1.258.176 1.894.058.64-.015 1.284-.214 1.895-.193-.612-.256-1.257-.184-1.895-.062-.64.013-1.285.222-1.894z" transform="translate(389.59 162.175)"/>
            <path fill="#F7B13E" d="M54.757 2.273l1.408 25.607c.053.911.809 1.627 1.73 1.637l46.544.341c.965.005 1.752-.764 1.76-1.72l.146-19.93c.004-.462-.178-.905-.505-1.232-.328-.328-.774-.512-1.24-.512H75.974c-.46-.001-.903-.18-1.232-.5l-4.937-4.888C69.482.751 69.04.568 68.58.568L56.517.478c-.477-.005-.936.184-1.269.524-.332.34-.51.799-.491 1.271z" transform="translate(389.59 162.175)"/>
            <path fill="#F5F5F5" d="M55.415 3.229L106.276 3.226 106.274 33.311 55.413 33.315z" transform="translate(389.59 162.175) rotate(.42 80.844 18.27)"/>
            <path fill="#F2AA47" d="M51.458 5.714l3.651 31.42c.069.557.543.977 1.11.985l49.56.356c.589.01 1.084-.435 1.133-1.016l2.724-31.396c.026-.309-.08-.614-.29-.842-.21-.229-.507-.36-.82-.363l-55.943-.41c-.327-.003-.639.135-.855.378-.216.243-.314.567-.27.888z" transform="translate(389.59 162.175)"/>
        </g>
        <g fill-rule="nonzero" transform="translate(120.168 118.979)">
            <rect width="278.477" height="182.333" x="12.024" y=".083" fill="#263238" rx="11.152"/>
            <path fill="#263238" d="M.375 168.934H302.09v2.463c0 7.45-6.1 13.49-13.625 13.49H14c-3.613 0-7.078-1.422-9.634-3.951-2.555-2.53-3.99-5.961-3.99-9.539v-2.463z"/>
            <path fill="#455A64" d="M19.495 7.328H282.243V161.303H19.495zM123.812 168.934L127.555 174.83 180.237 174.83 183.712 168.934z"/>
            <rect width="252.468" height="148.269" x="24.906" y="12.542" fill="#EBEBEB" rx="2.503"/>
            <path fill="#FAFAFA" d="M24.906 23.409H277.37399999999997V160.81799999999998H24.906z"/>
            <path fill="#263238" d="M45.618 18.271c0 1.105-.905 2-2.02 2-1.117 0-2.021-.895-2.021-2s.904-2 2.02-2 2.021.895 2.021 2zM33.395 18.271c0 .81-.494 1.54-1.25 1.85-.756.308-1.625.136-2.203-.438-.577-.574-.748-1.435-.433-2.183.315-.747 1.055-1.233 1.873-1.23.535 0 1.048.212 1.426.587.377.375.589.884.587 1.414zM39.265 18.271c0 1.105-.904 2-2.02 2s-2.021-.895-2.021-2 .905-2 2.02-2c1.117 0 2.021.895 2.021 2z"/>
            <path fill="#455A64" d="M288.113 168.934c0 .099-61.814.175-138.04.175-76.227 0-138.049-.076-138.049-.175 0-.098 61.792-.181 138.049-.181s138.04.083 138.04.181z"/>
            <path fill="#E0E0E0" d="M42.403 92.629H100.015V96.44800000000001H42.403zM116.824 39.649H174.436V43.468H116.824zM260.122 53.859c0 .098-32.085.182-71.649.182s-71.65-.084-71.65-.182c0-.099 32.071-.182 71.65-.182 39.579 0 71.65.083 71.65.182zM260.122 62.195c0 .098-32.085.174-71.649.174s-71.65-.076-71.65-.174c0-.099 32.071-.182 71.65-.182 39.579 0 71.65.076 71.65.182zM260.122 70.523c0 .099-32.085.182-71.649.182s-71.65-.083-71.65-.182c0-.098 32.071-.182 71.65-.182 39.579 0 71.65.084 71.65.182zM260.122 78.852c0 .098-32.085.182-71.649.182s-71.65-.084-71.65-.182c0-.099 32.071-.175 71.65-.175 39.579 0 71.65.076 71.65.175zM260.122 87.188c0 .098-32.085.182-71.649.182s-71.65-.084-71.65-.182c0-.099 32.071-.182 71.65-.182 39.579 0 71.65.083 71.65.182zM172.76 95.486c0 .099-12.523.182-27.969.182-15.445 0-27.967-.083-27.967-.182 0-.099 12.514-.174 27.967-.174 15.454 0 27.968.106 27.968.174zM259.074 111.688c0 .099-21.087.182-47.095.182-26.009 0-47.096-.083-47.096-.182 0-.098 21.08-.174 47.096-.174s47.095.076 47.095.174zM259.074 120.532c0 .099-21.087.182-47.095.182-26.009 0-47.096-.083-47.096-.182 0-.098 21.08-.174 47.096-.174s47.095.076 47.095.174zM259.074 129.384c0 .098-21.087.174-47.095.174-26.009 0-47.096-.076-47.096-.174 0-.099 21.08-.182 47.096-.182s47.095.083 47.095.182zM259.074 138.227c0 .099-21.087.175-47.095.175-26.009 0-47.096-.076-47.096-.175 0-.098 21.08-.182 47.096-.182s47.095.084 47.095.182zM100.16 110.847c0 .099-12.567.174-28.067.174-15.499 0-28.075-.075-28.075-.174 0-.098 12.568-.182 28.075-.182s28.068.084 28.068.182zM100.16 117.789c0 .098-12.567.182-28.067.182-15.499 0-28.075-.084-28.075-.182 0-.099 12.568-.174 28.075-.174s28.068.075 28.068.174zM100.16 124.738c0 .099-12.567.174-28.067.174-15.499 0-28.075-.075-28.075-.174 0-.098 12.568-.182 28.075-.182s28.068.084 28.068.182zM100.16 131.68c0 .098-12.567.182-28.067.182-15.499 0-28.075-.084-28.075-.182 0-.099 12.568-.175 28.075-.175s28.068.076 28.068.175zM100.16 138.629c0 .099-12.567.182-28.067.182-15.499 0-28.075-.083-28.075-.182 0-.098 12.568-.182 28.075-.182s28.068.084 28.068.182z"/>
            <path fill="#F5F5F5" d="M116.785 107.467H157.658V146.624H116.785z"/>
            <path fill="#EBEBEB" d="M119.954 143.274L131.259 123.124 140.513 136.007 146.131 129.164 154.489 143.274zM144.447 119.206c0 1.607-1.316 2.91-2.94 2.91-1.622 0-2.938-1.303-2.938-2.91 0-1.607 1.316-2.91 2.939-2.91s2.939 1.303 2.939 2.91z"/>
            <path fill="#EBEBEB" d="M154.49 143.38v-.159-.454V141c0-1.516 0-3.79-.04-6.646 0-5.722-.053-13.86-.091-23.644l.168.166h-34.535c-.046 0 .368-.363.192-.189v32.655l-.169-.167 24.975.083 7.042.046h2.373-2.396l-7.003.045-25.083.091h-.168v-.174-32.541c-.176.167.23-.243.191-.197H154.65v.159c0 9.852-.061 18.006-.084 23.75 0 2.835 0 5.07-.046 6.608v2.176c0 .113-.023.166-.03.159z"/>
            <path fill="#F5F5F5" d="M43.49 33.132H98.928V86.24H43.49z"/>
            <path fill="#E0E0E0" d="M47.792 81.694L63.131 54.366 75.675 71.834 83.291 62.558 94.635 81.694zM81.018 49.054c0 2.185-1.789 3.956-3.995 3.956-2.207 0-3.996-1.771-3.996-3.956s1.789-3.956 3.996-3.956c2.206 0 3.995 1.771 3.995 3.956z"/>
            <path fill="#E0E0E0" d="M94.635 81.845c-.006-.073-.006-.146 0-.22v-.621-2.387c0-2.107 0-5.153-.054-9.018 0-7.76-.069-18.802-.123-32.064l.23.22-46.835.038c-.069.053.49-.493.253-.258V81.846l-.23-.228 33.87.113 9.551.061H94.72h-3.33l-9.498.053-34.015.121h-.23v-.12-20.94-11.443-11.928c-.23.235.322-.326.276-.265h47.065v.227c-.054 13.315-.092 24.41-.123 32.208 0 3.842 0 6.873-.053 8.965v2.94c-.046.087-.105.167-.176.235z"/>
            <path fill="#FFD400" d="M106.361 53.313L109.101 58.807 115.224 59.686 110.792 63.968 111.841 70.008 106.361 67.151 100.888 70.008 101.929 63.968 97.497 59.686 103.62 58.807zM125.656 34.216L128.389 39.71 134.512 40.589 130.08 44.871 131.129 50.903 125.656 48.054 120.176 50.903 121.225 44.871 116.793 40.589 122.916 39.71zM151.435 26.721L154.168 32.215 160.299 33.094 155.859 37.368 156.908 43.408 151.435 40.559 145.955 43.408 147.003 37.368 142.572 33.094 148.695 32.215zM178.109 34.39L180.85 39.884 186.973 40.771 182.541 45.045 183.59 51.085 178.109 48.236 172.637 51.085 173.685 45.045 169.254 40.771 175.377 39.884zM196.502 52.601L199.242 58.095 205.365 58.974 200.934 63.256 201.975 69.288 196.502 66.439 191.022 69.288 192.07 63.256 187.639 58.974 193.762 58.095zM203.169 79.018L205.909 84.513 212.032 85.392 207.6 89.666 208.649 95.706 203.169 92.856 197.696 95.706 198.737 89.666 194.305 85.392 200.436 84.513zM196.678 105.254L199.418 110.749 205.542 111.628 201.11 115.909 202.158 121.949 196.678 119.092 191.206 121.949 192.246 115.909 187.815 111.628 193.946 110.749zM177.153 123.457L179.893 128.952 186.016 129.838 181.584 134.112 182.633 140.152 177.153 137.303 171.672 140.152 172.721 134.112 168.289 129.838 174.413 128.952zM150.915 130.967L153.655 136.462 159.778 137.341 155.346 141.615 156.387 147.655 150.915 144.805 145.434 147.655 146.483 141.615 142.051 137.341 148.175 136.462zM125.855 123.473L128.595 128.967 134.719 129.846 130.287 134.12 131.328 140.16 125.855 137.31 120.375 140.16 121.424 134.12 116.992 129.846 123.115 128.967zM106.024 104.777L108.764 110.271 114.887 111.158 110.455 115.432 111.504 121.472 106.024 118.622 100.551 121.472 101.592 115.432 97.16 111.158 103.284 110.271zM99.357 79.049L102.09 84.543 108.213 85.422 103.789 89.696 104.83 95.736 99.357 92.887 93.877 95.736 94.925 89.696 90.494 85.422 96.617 84.543z"/>
            <path fill="#263238" d="M170.333 97.896h-5.358v-28.88c-.167-6.69-5.692-12.025-12.45-12.025-6.757 0-12.28 5.336-12.448 12.024v28.88h-5.358v-28.88c.2-9.595 8.114-17.269 17.807-17.269 9.693 0 17.606 7.674 17.807 17.27v28.88z"/>
            <rect width="47.991" height="30.487" x="128.527" y="85.051" fill="#61A5B0" rx="4.447"/>
            <path fill="#263238" d="M156.54 96.32c.003 1.61-.974 3.064-2.477 3.681-1.502.618-3.232.278-4.382-.86-1.15-1.14-1.494-2.852-.87-4.34.624-1.487 2.092-2.455 3.719-2.452 2.213.004 4.006 1.78 4.01 3.97z"/>
            <path fill="#263238" d="M151.435 97.896H153.624V106.065H151.435z"/>
            <path fill="#FAFAFA" d="M131.09 112.643c-.114 0-.198-5.085-.198-11.367 0-6.283.084-11.368.199-11.368s.199 5.085.199 11.368c0 6.282-.092 11.367-.2 11.367zM149.384 101.412s-.184-.06-.467-.265c-.395-.296-.743-.649-1.033-1.046-1.01-1.322-1.372-3.021-.985-4.634.386-1.613 1.48-2.97 2.982-3.702.438-.227.907-.385 1.393-.47.18-.04.365-.04.544 0-.622.205-1.226.458-1.807.758-1.376.751-2.368 2.043-2.73 3.558-.361 1.514-.059 3.11.832 4.392.387.501.811.972 1.27 1.41z"/>
        </g>
        <g fill-rule="nonzero" transform="translate(23.728 182.636)">
            <path fill="#263238" d="M80.153 7.859c-.547 1.733-.504 3.597.123 5.304.624 1.695 1.435 3.317 2.418 4.835 1.259-3.032 2.345-6.13 3.253-9.283.184-.69.322-1.516-.184-2.054-.426-.35-.982-.504-1.53-.424-1.631.105-3.177.76-4.378 1.857M12.66 92.856L.138 121.199 17.375 121.199 29.644 92.637z"/>
            <path fill="#455A64" d="M87.118 120.866c16.893-5.54 5.305-27.669 5.305-27.669l-73.831 6.881c-5.904 0-10.695 4.727-10.716 10.572 0 5.845 4.774 10.589 10.677 10.61l68.604-.364"/>
            <path fill="#455A64" d="M103.911 121.252c16.464-5.502 5.61-28.04 5.61-28.04l-71.947 6.715c-7.034.09-10.471 3.448-10.471 10.556 0 5.836 2.197 10.762 10.44 10.61l66.399.167"/>
            <path fill="#263238" d="M87.692 96.933c-.068-.008-.138-.008-.206 0h-.597l-2.297.091-8.473.417-27.93 1.516c-1.362.068-2.709.182-4.033.204-1.324.023-2.648.076-3.934.152s-2.556.167-3.827.303c-1.23.093-2.443.348-3.605.758-1.097.425-2.097 1.064-2.94 1.88-.81.82-1.428 1.805-1.813 2.887-.372 1.006-.628 2.051-.766 3.114-.13.978-.193 1.963-.191 2.948-.032 1.702.291 3.392.95 4.964.497 1.168 1.262 2.206 2.234 3.031.597.509 1.289.898 2.036 1.145.513.159.52.106 0-.076-.722-.274-1.388-.675-1.967-1.182-.933-.825-1.666-1.849-2.143-2.994-.62-1.55-.916-3.207-.873-4.873.006-.97.077-1.94.215-2.902.143-1.035.4-2.051.765-3.031.38-1.033.977-1.973 1.753-2.759.818-.8 1.792-1.426 2.862-1.841 1.135-.388 2.316-.622 3.514-.698 1.232-.128 2.495-.22 3.773-.295 1.278-.076 2.595-.121 3.919-.144 1.324-.023 2.679-.129 4.041-.197l27.937-1.63 8.466-.537 2.296-.167.597-.053.237-.03zM103.95 103.913c-.177.131-.377.229-.59.288-.56.204-1.149.321-1.745.349-2.017.154-4-.586-5.412-2.02-1.413-1.434-2.11-3.414-1.905-5.407.047-.59.181-1.17.398-1.72.065-.21.169-.405.306-.576-.214.756-.358 1.53-.429 2.311-.125 1.897.569 3.757 1.908 5.118 1.34 1.361 3.2 2.096 5.119 2.02.793-.049 1.58-.17 2.35-.363z"/>
            <path fill="#FFBE9D" d="M67.325 59.103L60.498 82.239 35.216 84.93 35.216 89.37 72.361 89.878 77.421 59.747z"/>
            <path fill="#D74C41" d="M100.268 34.928c4.485 0 16.632 2.274 17.704 10.382.956 7.321 2.403 15.627 2.403 15.627l-15.99.424 5.45 1.432 2.297 34.17L70.8 95.54l2.189-17.566 1.806-17.56-9.04-.757s3.062-15.285 8.49-20.007c3.402-2.722 7.55-4.377 11.909-4.751 4.703-.264 9.418-.264 14.122 0"/>
            <path fill="#263238" d="M76.295 49.062c.092 0-.535 6.183-1.416 13.792-.88 7.609-1.66 13.762-1.752 13.755-.092-.008.535-6.184 1.408-13.793.873-7.608 1.66-13.762 1.76-13.754zM101.53 34.981c.025.095.04.191.047.288v.826c.025 1.028-.125 2.053-.444 3.032-.427 1.492-1.236 2.85-2.35 3.94-.685.648-1.498 1.148-2.388 1.47-.974.315-1.992.474-3.016.47-1.024.027-2.05-.042-3.061-.204-.946-.145-1.845-.505-2.626-1.054-1.25-.961-2.13-2.317-2.495-3.842-.272-.987-.388-2.01-.344-3.031 0-.364.046-.637.069-.826.023-.19.038-.288.053-.288s0 .401 0 1.114c.01 1.008.16 2.01.444 2.978.376 1.46 1.24 2.753 2.45 3.668.747.513 1.603.85 2.502.985.994.164 2.001.233 3.008.205.988.005 1.97-.146 2.909-.447.855-.297 1.638-.77 2.296-1.387 1.079-1.05 1.87-2.353 2.296-3.79.335-.953.519-1.953.544-2.962.015-.383.051-.765.107-1.145z"/>
            <path fill="#000" d="M103.75 49.062c-1.53 7.252-3.528 14.701-5.066 21.977-.214 1.564-.767 3.063-1.623 4.395-.628.761-1.363 1.43-2.182 1.985-2.953 2.339-6.24 4.234-9.75 5.624 5.126-.427 10.206-1.302 15.177-2.615.872-.136 1.676-.545 2.296-1.167.421-.642.657-1.387.682-2.152 1.102-9.291.765-18.673.482-28.04" opacity=".2"/>
            <path fill="#263238" d="M120.65 61.058c-.397.064-.799.094-1.201.09l-3.276.122c-2.77.084-6.598.182-10.823.265h-1.531v-.151c-.153-3.888-.076-7.343 0-9.852 0-1.243.092-2.235.13-2.925.007-.358.04-.715.1-1.069.028.356.028.713 0 1.069v2.933c0 2.478-.038 5.941.122 9.798l-.176-.159h1.355c4.225-.083 8.052-.136 10.823-.159h3.284c.398-.018.797-.005 1.194.038z"/>
            <path fill="#E0E0E0" d="M3.551 62.725l14.122 27.456h44.524l-1.799-3.592-12.905-.379-10.509-23.144c-.655-1.44-2.1-2.368-3.697-2.372H4.807c-.491 0-.947.252-1.204.667-.256.415-.276.932-.052 1.364z"/>
            <ellipse cx="24.141" cy="75.032" fill="#263238" rx="1.707" ry="1.69"/>
            <path fill="#FFBE9D" d="M101.745 14.217l-1.592 22.363c-.26 3.653-3.328 6.484-7.026 6.487-1.949 0-3.81-.8-5.142-2.208-1.332-1.409-2.014-3.3-1.885-5.226.138-2.13.268-3.873.268-3.873s-5.457-.84-5.534-6.252c-.038-2.553.306-7.578.69-12.345.423-5.55 5.092-9.843 10.715-9.851 2.737.155 5.294 1.403 7.086 3.458 1.792 2.056 2.665 4.743 2.42 7.447z"/>
            <path fill="#EB996E" d="M86.338 32.026c2.523.043 5.003-.656 7.125-2.009 0 0-1.683 3.896-7.14 3.41l.015-1.401z"/>
            <path fill="#263238" d="M83.23 16.672c0 .419.343.758.765.758.418.026.78-.284.812-.697 0-.419-.343-.758-.766-.758-.417-.026-.778.284-.811.697zM82.748 15.619c.092.098.689-.334 1.53-.334.843 0 1.463.417 1.531.319.07-.099-.053-.228-.321-.425-.366-.246-.798-.378-1.24-.379-.438 0-.864.139-1.217.394-.245.19-.33.38-.283.425zM91.144 16.907c0 .419.343.758.766.758.414.022.77-.288.803-.697 0-.419-.342-.758-.765-.758-.415-.022-.771.287-.804.697zM91.007 15.77c.099.099.688-.333 1.53-.333.842 0 1.455.424 1.531.318.077-.106-.053-.227-.321-.417-.363-.253-.797-.385-1.24-.379-.437-.003-.864.132-1.217.387-.207.197-.33.379-.283.424zM87.953 21.977c-.443-.137-.9-.219-1.363-.243-.214 0-.413-.06-.451-.212-.02-.22.03-.44.145-.629l.635-1.614c.588-1.372 1.064-2.789 1.424-4.236-.702 1.322-1.293 2.698-1.768 4.115l-.605 1.622c-.136.255-.177.55-.115.833.062.153.192.268.352.31.12.035.243.053.368.054.457.058.92.058 1.378 0zM90.432 22.515c-.137 0-.137.894-.918 1.516-.78.621-1.753.538-1.76.667-.008.128.214.174.627.189.532.004 1.049-.176 1.462-.508.398-.322.656-.783.72-1.288.03-.356-.07-.584-.13-.576zM90.792 12.512c.077.227.919.113 1.906.235.987.12 1.783.386 1.914.182.13-.205-.085-.311-.406-.531-.426-.273-.911-.442-1.416-.493-.505-.058-1.016.002-1.493.175-.36.144-.543.326-.505.432zM83.054 13.209c.145.19.765 0 1.424 0 .658 0 1.285.121 1.423-.076.138-.197 0-.28-.29-.462-.343-.222-.748-.33-1.156-.31-.41.007-.809.14-1.14.378-.246.182-.322.379-.261.47z"/>
            <path fill="#FFBE9D" d="M99.908 18.62c.092-.046 3.75-1.107 3.636 2.6-.115 3.705-3.827 2.818-3.827 2.712 0-.106.191-5.312.191-5.312z"/>
            <path fill="#EB996E" d="M100.88 22.568s.061.046.169.099c.156.064.333.064.49 0 .492-.3.784-.838.765-1.41.022-.316-.03-.632-.153-.925-.064-.237-.241-.43-.475-.515-.153-.037-.312.031-.39.167-.054.106 0 .174-.046.182-.046.007-.084-.06-.046-.212.02-.092.075-.174.153-.228.106-.075.239-.105.368-.083.308.07.557.294.658.59.147.327.212.683.191 1.04.02.676-.377 1.296-1.003 1.568-.183.037-.374-.001-.528-.106-.153-.084-.168-.167-.153-.167z"/>
            <path fill="#263238" d="M12.514 90.257H66.942V92.887H12.514z"/>
            <path fill="#263238" d="M50.18 91.568L66.736 121.229 81.554 121.229 66.942 92.887z"/>
            <path fill="#455A64" d="M66.942 92.887c0 .106-12.2.257-27.24.333-15.04.076-27.249.046-27.249-.06 0-.107 12.193-.258 27.24-.334 15.049-.076 27.25-.045 27.25.06z"/>
            <path fill="#263238" d="M80.015 10.738c1.006.365 2.12.285 3.062-.22-.168.184-.249.43-.221.677.028.247.161.47.366.612.432.266.942.378 1.447.318 2.717-.106 5.3-1.199 7.256-3.069.092.955.748 1.764 1.669 2.061.914.27 1.887.27 2.8 0-.336 1.367-.395 2.786-.175 4.176.255 1.418 1.334 2.551 2.748 2.887.174.717.234 1.456.176 2.19.046.758.482 1.577 1.224 1.6.743.022 1.148-.652 1.233-1.297.084-.644-.299-1.955.168-3.03.467-1.077.306-.925.811-2.055.506-1.129.766-2.697 1.18-3.872.45-1.166.482-2.45.091-3.638-.432-1.192-1.568-1.993-2.847-2.008.469-1.2.105-2.564-.9-3.379-1.007-.815-2.428-.898-3.524-.205 0 0-4.264-2.865-8.97-1.281-4.708 1.584-5.405 5.812-6.43 5.941-1.026.13-4.133-1.515-3.605-.485.528 1.03 1.423 2.07 1.867 2.115.444.045-3.551-1.63-2.173-.13.762.875 1.697 1.587 2.747 2.092z"/>
            <path fill="#FAFAFA" d="M117.535 46.81c-.437-.52-.933-.99-1.477-1.401-1.54-1.052-3.381-1.584-5.25-1.516-2.366 0-5.083 1.008-7.739 2.622-2.656 1.614-5.358 3.79-8.779 5.252-3.201 1.42-6.835 1.554-10.134.371-1.415-.525-2.736-1.272-3.911-2.212-1.118-.85-2.09-1.706-3.062-2.395-1.45-1.176-3.223-1.892-5.09-2.054-.683-.017-1.365.072-2.02.265 0 0 .038 0 .122-.06.12-.059.246-.107.375-.144.496-.15 1.012-.225 1.531-.22 1.913.111 3.744.805 5.243 1.985 1.967 1.342 3.957 3.471 6.927 4.487 3.208 1.134 6.735.995 9.843-.387 3.314-1.417 6.024-3.622 8.749-5.198 2.724-1.577 5.488-2.638 7.93-2.592 1.925-.041 3.81.553 5.357 1.69.41.31.778.672 1.095 1.076.107.137.204.281.29.432zM103.911 66.734s-.367-.242-1.048-.629c-.955-.544-1.987-.942-3.062-1.182-1.61-.353-3.28-.325-4.876.083-1.798.447-3.643 1.38-5.694 2.13-1.948.744-4.045 1.03-6.123.833-1.684-.148-3.327-.592-4.853-1.31-1.025-.48-1.98-1.095-2.84-1.827-.306-.25-.513-.485-.666-.629-.08-.07-.15-.152-.206-.243 0 0 .344.273.972.758.881.676 1.843 1.244 2.862 1.69 1.505.67 3.116 1.078 4.761 1.205 2.014.162 4.038-.126 5.924-.841 1.874-.812 3.793-1.515 5.749-2.107 1.648-.407 3.372-.407 5.02 0 1.106.263 2.16.71 3.116 1.319.268.163.524.345.765.546.13.113.207.159.2.204zM109.943 79.473c-.485-.187-.98-.344-1.485-.47-1.393-.225-2.82-.097-4.149.372-.927.3-1.826.68-2.686 1.136-.926.485-1.899 1.061-2.955 1.622-1.097.618-2.26 1.113-3.467 1.478-1.322.379-2.716.436-4.064.167-2.771-.6-4.968-2.19-6.989-3.38-1.722-1.191-3.7-1.97-5.778-2.274-1.403-.144-2.815.156-4.034.857-.428.287-.828.615-1.194.977.065-.118.144-.228.237-.326.255-.29.548-.546.873-.758 1.231-.775 2.686-1.13 4.14-1.007 2.129.263 4.164 1.022 5.94 2.212 2.051 1.198 4.225 2.744 6.889 3.305 1.283.264 2.613.215 3.873-.144 1.18-.353 2.32-.83 3.398-1.425 1.056-.553 2.028-1.114 2.985-1.6.881-.448 1.8-.819 2.748-1.106 1.375-.463 2.85-.55 4.271-.25.38.088.748.223 1.095.402.126.054.245.125.352.212zM111.894 93.97c-.12.071-.253.122-.39.152-.385.117-.784.186-1.186.205-1.484-.002-2.95-.307-4.31-.895-.931-.364-1.885-.67-2.855-.917-1.118-.236-2.267-.302-3.406-.197-2.418.205-4.967 1.107-7.654 1.887-1.33.395-2.692.669-4.072.819-1.291.127-2.593.11-3.88-.053-2.167-.293-4.288-.853-6.315-1.668-1.73-.674-3.061-1.333-4.003-1.796l-1.11-.568c-.124-.062-.242-.135-.352-.22.136.03.268.079.39.144l1.087.493c.942.417 2.297 1.038 4.042 1.675 2.015.763 4.114 1.29 6.253 1.568 1.272.136 2.555.136 3.827 0 1.357-.155 2.697-.432 4.003-.826 2.702-.757 5.282-1.674 7.77-1.864 1.173-.095 2.355-.013 3.505.243.983.26 1.947.587 2.885.977 1.323.597 2.75.934 4.202.993.527-.005 1.052-.055 1.57-.152zM119.74 57.223s-.13.213-.467.493c-.474.395-1.006.717-1.577.955-.855.355-1.775.53-2.702.515-1.131-.033-2.24-.318-3.245-.833-1.072-.508-2.036-1.061-2.977-1.395-.828-.296-1.715-.392-2.588-.28-.585.075-1.14.302-1.607.66-.321.264-.451.469-.482.446.071-.217.2-.41.375-.56.463-.431 1.043-.718 1.669-.827.922-.153 1.869-.078 2.755.22 1.048.398 2.07.858 3.062 1.38.947.495 1.991.782 3.061.84.884.032 1.765-.107 2.595-.409.752-.323 1.465-.727 2.128-1.205zM75.293 56.837s-.054.129-.253.265c-.29.176-.625.263-.964.25-.496-.017-.98-.155-1.409-.401-.482-.266-.949-.637-1.446-.955-.839-.555-1.865-.76-2.855-.569-.766.137-1.194.417-1.225.357.305-.33.711-.551 1.156-.63 1.07-.289 2.216-.104 3.138.508.528.341.972.713 1.416.97.375.238.799.388 1.24.44.414.026.829-.055 1.202-.235z"/>
            <path fill="#FFBE9D" d="M54.497 81.322l11.136-1.326 7.846 5.093 30.011-7.116.88-16.59 13.464-.333-.314 19.461c-.064 3.007-1.337 5.865-3.537 7.94-2.2 2.073-5.145 3.193-8.181 3.11l-43.95-1.205-1.867-3.706-9.43-.258 3.942-5.07z"/>
            <path fill="#EB996E" d="M103.108 77.973c-.183.068-.37.124-.56.166l-1.637.417c-1.454.364-3.498.872-6.024 1.516l-19.9 4.774-1.853.44h-.076l-.061-.046-7.838-5.1h.107l-11.144 1.273.076-.038-2.916 3.714-.765.97c-.09.115-.187.223-.291.326.07-.127.149-.25.237-.364l.765-1.008c.69-.894 1.654-2.168 2.863-3.79v-.037h.046l11.129-1.38h.107l7.853 5.086h-.138l1.853-.44 19.9-4.676 6.047-1.379 1.676-.341c.179-.042.36-.07.544-.083z"/>
            <path fill="#EB996E" d="M60.582 84.482c-1.435.171-2.88.23-4.325.175h-.765l.107-.038c-.872.789-1.809 1.503-2.801 2.137.783-.875 1.646-1.677 2.579-2.395l.046-.045h.857c1.436-.06 2.875-.005 4.302.166zM108.634 81.292c-.567-.894-1.309-1.667-2.182-2.274-.929-.515-1.95-.847-3.008-.977.313-.107.647-.133.972-.076.79.077 1.55.336 2.22.758.672.417 1.238.982 1.653 1.652.199.268.318.586.345.917z"/>
        </g>
    </g>
</svg>
