<svg xmlns="http://www.w3.org/2000/svg" width="376" height="330" viewBox="0 0 376 330">
    <g fill="none">
        <g transform="translate(20.813 23.778)">
            <ellipse cx="18.94" cy="18.364" fill="#E0E0E0" rx="18.284" ry="18.103"/>
            <path fill="#E0E0E0" d="M27.346 18.927c-.796.102-1.6.147-2.402.135-1.505.04-3.602.063-5.98.071h-.2v-.206-1.173c0-2.623 0-5.001.064-6.721-.018-.927.03-1.854.144-2.774.125.919.176 1.847.152 2.774 0 1.72.056 4.098.056 6.721v1.173l-.208-.206c2.402 0 4.475 0 5.98.063.8-.017 1.601.03 2.394.143zM18.996 3.242c.12 0 .208.681.208 1.521 0 .84-.088 1.514-.208 1.514s-.208-.681-.208-1.514c0-.832.096-1.521.208-1.521zM27.33 5.683c.08.08-.329.618-.92 1.205-.593.586-1.138.99-1.218.911-.08-.08.329-.618.92-1.205.593-.586 1.106-.99 1.218-.911zM32.197 10.946c.056.11-.504.483-1.209.911-.704.428-1.305.745-1.377.65-.072-.095.432-.57 1.16-.999.73-.428 1.378-.657 1.426-.562zM35.055 18.769c-.68.2-1.392.27-2.098.206-.703.064-1.412-.005-2.089-.206.676-.206 1.386-.276 2.09-.206.705-.07 1.418 0 2.097.206zM6.012 18.491c-.638.202-1.311.272-1.977.206-.667.065-1.34-.005-1.978-.206.628-.196 1.29-.266 1.946-.206.677-.07 1.36 0 2.009.206zM8.07 24.309c.071.087-.57.721-1.442 1.41-.872.69-1.6 1.19-1.697 1.094-.096-.095.577-.72 1.441-1.41.484-.476 1.062-.849 1.697-1.094zM13.137 28.81c-.214.645-.533 1.25-.945 1.792-.29.614-.679 1.176-1.153 1.664.112-.68.387-1.324.8-1.878.585-.959 1.21-1.64 1.298-1.577zM18.996 34.62c-.203-.672-.274-1.377-.208-2.076-.065-.697.005-1.399.208-2.069.21.669.284 1.372.216 2.069.069.7-.005 1.405-.216 2.076zM28.018 31.854c-.68-.21-1.294-.59-1.785-1.101-.88-.793-1.433-1.53-1.345-1.586.088-.055.76.555 1.601 1.292.84.737 1.601 1.3 1.53 1.395zM32.26 27.337c-.08.079-.728-.428-1.448-1.142-.72-.713-1.24-1.355-1.153-1.434.088-.08.729.428 1.45 1.14.72.714 1.232 1.356 1.152 1.436zM7.877 12.92c-.08.079-.656-.365-1.289-.984-.632-.618-1.072-1.196-.984-1.276.088-.079.656.357 1.288.983.633.626 1.065 1.19.985 1.276zM13.104 7.458c-.08.087-.648-.34-1.264-.95-.617-.611-1.057-1.174-.977-1.253.08-.08.648.349 1.273.959.624.61 1.049 1.165.968 1.244z"/>
            <path fill="#2A6927" d="M57.013 295.938c10.983-6.34 14.41-19.497 15.034-31.521.096-2.005.488-4.098-.329-5.937-.816-1.838-2.953-3.21-4.803-2.52-1.6.579-2.401 2.259-3.314 3.622-1.297 1.82-3.087 3.24-5.163 4.098-1.345.555-2.97.832-4.187 0-1.665-1.094-1.673-3.496-1.489-5.485.326-3.699.657-7.397.993-11.096.285-1.98.244-3.993-.12-5.96-.377-1.986-1.71-3.664-3.57-4.495-1.874-.69-4.323.214-4.892 2.133-.145.817-.233 1.643-.264 2.472-.045.846-.597 1.582-1.4 1.87-.801.167-1.602-.459-2.13-1.093-1.913-2.18-3.106-4.882-4.21-7.57-.974-2.73-2.27-5.337-3.86-7.767-1.705-2.377-4.162-4.295-7.028-4.684-2.866-.388-6.084 1.11-7.045 3.852-.96 2.743.457 5.73 2.074 8.148 2.391 3.59 5.298 6.815 8.63 9.575.651.435 1.15 1.062 1.424 1.79.32 1.364-1.056 2.585-2.401 2.91-1.537.372-3.154.087-4.731.142-1.577.056-3.338.603-4.059 2.021-.993 1.966.552 4.24 2.13 5.778 3.156 3.072 6.823 5.584 10.838 7.427 1.488.542 2.864 1.347 4.06 2.378 1.104 1.125-1.05 4.62-1.882 5.96-.833 1.34 0 0-1.53-.412-1.528-.412-2.84-1.355-4.274-2.029-2.674-1.252-6.26-1.355-8.221.864-1.241 1.568-1.665 3.623-1.145 5.548.525 1.88 1.423 3.636 2.642 5.168 3.946 5.565 9.314 9.993 15.554 12.832 6.228 2.718 12.12 3.796 18.684 2.013"/>
            <path fill="#FAFAFA" d="M56.429 304.84c-.098-5.597-.742-11.171-1.922-16.645-1.467-6.705-3.322-13.32-5.555-19.815l-1.721-5.12c-.569-1.673-1.137-3.337-1.794-4.93-1.263-3.056-2.695-6.04-4.29-8.94-1.505-2.775-3.034-5.359-4.483-7.76-1.45-2.402-2.85-4.613-4.211-6.579-2.13-3.11-4.507-6.046-7.109-8.782-.92-.967-1.657-1.696-2.161-2.18l-.584-.546c-.064-.064-.13-.125-.2-.182 0 0 .056.079.176.206l.552.578c.488.5 1.209 1.245 2.113 2.227 2.551 2.767 4.89 5.718 6.997 8.83 1.345 1.966 2.722 4.185 4.163 6.586 1.44 2.402 2.954 4.994 4.45 7.768 1.579 2.891 2.998 5.865 4.251 8.909.649 1.585 1.209 3.233 1.777 4.922l1.73 5.104c2.234 6.473 4.105 13.065 5.603 19.743 1.193 5.46 1.863 11.02 2.001 16.605"/>
            <path fill="#FAFAFA" d="M45.325 258.306c.119-.253.207-.52.265-.793.152-.539.344-1.331.568-2.314.448-1.958.977-4.684 1.545-7.688.568-3.004 1.137-5.723 1.6-7.672.241-.975.441-1.76.585-2.299.089-.279.15-.565.184-.856-.133.253-.24.518-.32.793-.192.53-.432 1.307-.696 2.274-.545 1.934-1.153 4.653-1.721 7.665-.569 3.012-1.057 5.659-1.441 7.712-.176.927-.328 1.704-.449 2.33-.068.278-.109.562-.12.848zM19.869 251.426c.335.098.678.167 1.025.206.656.111 1.6.27 2.785.5 2.346.444 5.604 1.173 9.078 2.132 3.474.959 6.66 1.965 8.918 2.758 1.129.388 2.033.73 2.666.959.317.137.647.246.984.325-.297-.18-.61-.334-.936-.46-.609-.27-1.505-.65-2.626-1.07-2.233-.856-5.38-1.91-8.902-2.877-3.01-.83-6.061-1.507-9.142-2.029-1.176-.198-2.137-.317-2.81-.388-.343-.057-.692-.076-1.04-.056zM54.227 287.664s.08-.095.208-.294l.513-.895c.448-.793 1.064-1.91 1.809-3.33 1.497-2.829 3.426-6.8 5.5-11.214 2.073-4.415 4.002-8.402 5.403-11.263l1.697-3.377.464-.927c.058-.105.104-.217.136-.333-.08.093-.15.194-.208.301-.136.238-.312.531-.512.888-.448.793-1.065 1.918-1.81 3.329-1.496 2.83-3.426 6.808-5.499 11.223-2.073 4.415-4.002 8.402-5.403 11.255l-1.697 3.384-.465.92c-.054.107-.1.218-.136.333z"/>
            <path fill="#FAFAFA" d="M20.813 273.912c.106.068.219.124.337.167l.968.412 3.579 1.482c3.026 1.244 7.204 3.02 11.767 4.985 4.563 1.966 8.766 3.71 11.816 4.89 1.529.595 2.77 1.07 3.626 1.372l1 .349c.111.052.23.085.353.095-.103-.068-.213-.124-.328-.167l-.969-.412-3.578-1.474c-3.026-1.252-7.205-3.028-11.776-4.994-4.57-1.965-8.79-3.7-11.847-4.89-1.521-.594-2.762-1.062-3.627-1.371l-.992-.349c-.105-.045-.215-.077-.329-.095z"/>
            <path fill="#471E1C" d="M287.61 270.092H292.509V304.522H287.61zM270.079 270.092H274.978V304.522H270.079zM226.075 270.092H230.974V304.522H226.075zM211.001 270.092H215.9V304.522H211.001z"/>
            <path fill="#61A5B0" d="M226.963 210.917s-13.377-3.82-17.38 1.704c-4.002 5.524-4.434 58.747-4.434 58.747s25.913.468 26.417 0c.504-.468-4.603-60.451-4.603-60.451z"/>
            <path fill="#61A5B0" d="M302.884 264.845L301.7 163.82c-.801-12.198-9.775-13.958-11.08-14.695-5.491-3.083-57.853-5.048-62.168 6.904-4.315 11.952 0 106.001 0 106.001l74.432 2.814z"/>
            <path fill="#61A5B0" d="M302.852 262.031s-13.192-19.26-28.69-19.894c-15.498-.634-48.912 0-48.912 0s-14.81.563-15.842 18.721v10.716h93.444v-9.543z"/>
            <path fill="#61A5B0" d="M302.46 210.996s-22.198-5.683-26.209 1.8c-4.01 7.481-4.723 59.008-4.723 59.008s32.02 1.165 32.125-.175c.104-1.339-1.193-60.633-1.193-60.633z"/>
            <path fill="#6BB4C0" d="M303.653 210.758s-14.666-3.733-18.668 1.784c-4.003 5.516-5.06 59.515-5.06 59.515s23.392.682 23.872.214c.48-.467-.144-61.513-.144-61.513z"/>
            <path fill="#E0E0E0" d="M292.23 209.474v-.253c0-.167-.04-.444-.065-.793-.056-.69-.128-1.656-.216-2.893-.176-2.544-.416-6.174-.72-10.644s-.64-9.813-1.041-15.765c-.184-2.972-.384-6.087-.584-9.32-.2-3.235-.224-6.62-1.21-9.885-.471-1.612-1.29-3.105-2.4-4.375-1.083-1.226-2.336-2.294-3.723-3.17-2.636-1.667-5.571-2.816-8.646-3.384-1.433-.25-2.884-.387-4.338-.413l-4.147-.166c-2.666-.08-5.156-.127-7.429-.15-4.547 0-8.221.063-10.759.205-1.273.072-2.257.135-2.922.207l-.76.063h-.257l.257-.056.752-.103c.665-.087 1.65-.182 2.914-.277 2.538-.198 6.228-.333 10.775-.34 2.273 0 4.803 0 7.445.102l4.147.143c1.473.02 2.942.155 4.394.404 3.134.56 6.125 1.723 8.806 3.424 1.42.897 2.704 1.992 3.81 3.25 1.14 1.315 1.979 2.859 2.458 4.525 1 3.353.977 6.761 1.217 9.98.24 3.217.376 6.34.56 9.32.345 5.945.657 11.295.92 15.797.265 4.501.441 8.108.585 10.652.056 1.236.104 2.203.136 2.893v.753c.03.087.043.178.04.27z"/>
            <path fill="#E0E0E0" d="M292.942 165.802c-.569.236-1.171.38-1.785.428-.589.179-1.202.264-1.818.254 1.078-.653 2.358-.895 3.603-.682zM294.943 168.204c-.882.06-1.768.02-2.642-.119-.887-.007-1.771-.116-2.633-.325.874-.2 1.78-.23 2.665-.087.897.004 1.784.184 2.61.531zM293.686 186.26c0 .11-.704.166-1.545.118-.84-.047-1.529-.182-1.52-.293.007-.111.696-.167 1.544-.119.849.048 1.521.174 1.521.293zM270.735 179.34c-.497.203-.912.566-1.176 1.03-.266.489-.304 1.067-.104 1.586.317.589.94.952 1.615.942.675-.01 1.287-.392 1.587-.99.183-.526.125-1.105-.16-1.585-.278-.454-.7-.803-1.201-.99 0 0 .168-.049.464.047.41.147.76.426.993.792.371.551.469 1.24.264 1.87-.345.758-1.1 1.249-1.94 1.26-.838.013-1.608-.457-1.975-1.204-.223-.622-.147-1.311.209-1.87.225-.363.566-.642.968-.793.138-.08.298-.114.456-.095zM272.705 178.872c-.425.213-.893.33-1.37.341-1.146.102-2.301-.044-3.385-.428-1.085-.387-2.073-1.001-2.898-1.799-.364-.306-.651-.692-.84-1.126.055 0 .4.373 1.04.912.842.691 1.801 1.228 2.834 1.585 1.028.36 2.111.54 3.202.531.471-.038.945-.044 1.417-.016z"/>
            <path fill="#E0E0E0" d="M267.733 192.117c-.225-.486-.379-1.001-.456-1.53-.32-1.264-.356-2.582-.104-3.86.288-1.313 1.13-2.442 2.314-3.1.476-.295 1.05-.397 1.6-.284-.505.12-.995.3-1.456.539-1.043.68-1.78 1.734-2.058 2.94-.225 1.23-.225 2.488 0 3.717.116.518.17 1.047.16 1.578zM277.028 187.726c-.399.004-.79-.103-1.13-.31-1.745-.853-2.918-2.543-3.097-4.462-.068-.385-.033-.782.104-1.15.093.365.155.736.184 1.11.337 1.765 1.41 3.307 2.954 4.249.341.164.67.352.985.563zM246.023 179.34c-.494.205-.906.567-1.168 1.03-.268.488-.31 1.066-.112 1.586.321.584.943.943 1.615.933.672-.01 1.283-.388 1.587-.981.179-.527.12-1.104-.16-1.585-.28-.455-.706-.804-1.21-.99.157-.038.32-.021.465.047.413.142.764.423.993.792.374.55.474 1.239.272 1.87-.324.774-1.092 1.273-1.937 1.26-.848.046-1.636-.434-1.978-1.204-.227-.622-.15-1.312.209-1.87.223-.362.56-.64.96-.793.296-.135.464-.11.464-.095zM248 178.872c-.425.212-.892.328-1.368.341-2.323.207-4.621-.608-6.284-2.227-.364-.306-.651-.692-.84-1.126.055 0 .391.373 1.04.912.842.691 1.801 1.228 2.834 1.585 1.028.36 2.111.54 3.202.531.471-.038.945-.044 1.417-.016z"/>
            <path fill="#E0E0E0" d="M243.03 192.117c-.232-.484-.388-1-.465-1.53-.317-1.264-.352-2.581-.104-3.86.29-1.314 1.135-2.443 2.322-3.1.475-.297 1.05-.4 1.6-.284-.494.123-.972.304-1.424.539-1.046.677-1.784 1.732-2.058 2.94-.22 1.23-.22 2.488 0 3.717.102.52.145 1.049.128 1.578zM252.316 187.726c-.396.003-.785-.104-1.121-.31-.857-.418-1.591-1.049-2.13-1.83-.547-.78-.884-1.686-.976-2.632-.074-.386-.035-.784.112-1.15.093.365.155.736.184 1.11.168.872.514 1.7 1.017 2.434.513.727 1.169 1.345 1.929 1.815.592.357 1.009.5.985.563zM227.46 209.245c.03.43.03.861 0 1.291 0 .904-.04 2.093-.073 3.527-.064 2.973-.16 7.078-.216 11.612-.056 4.534-.064 8.647-.072 11.627v3.52c.02.43.002.863-.056 1.291-.073-.426-.107-.859-.104-1.292-.04-.792-.08-2.029-.112-3.519-.072-2.972-.104-7.085-.048-11.627.056-4.542.2-8.655.344-11.627.072-1.483.136-2.687.2-3.52.005-.43.05-.86.136-1.283zM273.505 242.28c-.074.01-.15.01-.224 0H260.97l-13.609-.064-8.005-.047c-2.786 0-5.668 0-8.597.222-2.856.197-5.677.743-8.398 1.625-2.525.824-4.885 2.079-6.972 3.709-.962.766-1.837 1.632-2.61 2.584-.375.455-.72.934-1.033 1.434-.32.476-.6.975-.864 1.467-.984 1.836-1.693 3.803-2.106 5.841-.58 2.965-.73 5.997-.448 9.004.08 1.062.176 1.886.248 2.449l.072.634v.222c-.031-.067-.05-.14-.056-.214l-.12-.634c-.096-.555-.216-1.38-.328-2.45-.338-3.021-.227-6.076.328-9.066.397-2.072 1.099-4.074 2.081-5.945.266-.515.56-1.015.881-1.498.315-.51.662-1 1.04-1.466.785-.98 1.677-1.87 2.658-2.655 2.116-1.674 4.515-2.962 7.085-3.805 2.749-.893 5.6-1.444 8.485-1.64 2.962-.246 5.852-.246 8.638-.222l8.005.07 13.61.152 9.165.142 2.49.056h.648c.088.017.171.05.248.095z"/>
        </g>
        <path fill="#263238" d="M319.88 328.31c0 .112-65.787.208-146.928.208-81.14 0-146.935-.096-146.935-.209 0-.112 65.77-.208 146.935-.208s146.927.096 146.927.208zM116.075 178.12c0 .118-5.22.205-11.663.205-6.445 0-11.664-.087-11.664-.206s5.22-.206 11.664-.206 11.663.095 11.663.206zM115.627 181.092c0 .118-5.123.206-11.447.206-6.325 0-11.456-.088-11.456-.206 0-.12 5.123-.206 11.456-.206 6.332 0 11.447.095 11.447.206zM115.627 184.064c0 .119-5.123.206-11.447.206-6.325 0-11.456-.087-11.456-.206 0-.12 5.123-.206 11.456-.206 6.332 0 11.447.095 11.447.206zM115.627 187.052c0 .119-5.123.206-11.447.206-6.325 0-11.456-.087-11.456-.206s5.123-.206 11.456-.206c6.332 0 11.447.08 11.447.206zM115.627 190.008c0 .12-5.123.206-11.447.206-6.325 0-11.456-.087-11.456-.206s5.123-.206 11.456-.206c6.332 0 11.447.095 11.447.206zM103.891 192.98c-1.86.21-3.733.28-5.603.207-1.87.072-3.744.003-5.604-.206 1.86-.205 3.733-.274 5.604-.207 1.87-.067 3.743.001 5.603.207z"/>
        <path fill="#E8505B" d="M110.424 174.87c0 .11-4.003.206-8.886.206-4.883 0-8.886-.095-8.886-.206 0-.111 4.003-.206 8.886-.206 4.883 0 8.886.095 8.886.206z"/>
        <path fill="#263238" d="M122.231 200.4v-.635-1.8-6.792c0-5.841-.056-14.171-.096-24.174l.176.175H85.44c-.056 0 .393-.389.2-.206V200.375l-.184-.174 26.65.087 7.533.048h2.697-2.617l-7.493.047-26.77.088h-.184v-.183-15.804-17.485c-.184.183.256-.253.216-.206h37.056v.175c0 10.05-.072 18.412-.096 24.285 0 2.893 0 5.175-.048 6.753v1.767c0 .42-.168.626-.168.626z"/>
        <path fill="#F2AA47" d="M99.416 76.668l17.724-.12c-.09-5.346-2.112-10.484-5.7-14.48-4.57-5.196-11.447-7.81-18.356-6.975-.866.09-1.727.227-2.577.412h-.048l4.803 21.147 4.154.016z"/>
        <path fill="#455A64" d="M104.868 98.464c6.82-3.141 11.42-9.653 12.064-17.073 0-.222.048-.443.064-.665.016-.222 0-.286 0-.428 0-.42 0-.84.04-1.276v-.111l-17.732.11h-4.162l-4.667 21.155c1.51.323 3.05.48 4.595.467 3.388-.002 6.734-.746 9.798-2.18z"/>
        <path fill="#263238" d="M93.036 77.8l-4.803-21.145C78.221 58.89 71.121 67.712 71.155 77.874c.035 10.162 7.195 18.936 17.222 21.105l4.66-21.154"/>
        <path fill="#F28430" d="M40.178 171.137H44.973V206.986H40.178z"/>
        <path fill="#455A64" d="M32.789 186.228H37.584V206.994H32.789z"/>
        <path fill="#ED4634" d="M25.4 182.986H30.195V206.986H25.4z"/>
        <path fill="#455A64" d="M18.004 197.316H22.799V206.994H18.004z"/>
        <path fill="#2077C0" d="M54.964 163.306H59.759V206.98600000000002H54.964z"/>
        <path fill="#455A64" d="M47.575 167.3H52.370000000000005V206.993H47.575z"/>
        <path fill="#A8397A" d="M69.749 158.986H74.544V206.993H69.749z"/>
        <path fill="#455A64" d="M62.352 149.507H67.14699999999999V206.994H62.352z"/>
        <path fill="#263238" d="M22.679 211.488c-.687.206-1.408.276-2.122.206-.714.07-1.434 0-2.121-.206.688-.201 1.407-.271 2.121-.207.714-.066 1.434.004 2.122.207zM29.963 211.488c-.686.206-1.407.276-2.121.206-.714.07-1.435 0-2.121-.206.687-.201 1.407-.271 2.121-.207.714-.066 1.434.004 2.121.207zM37.256 211.488c-.687.205-1.407.275-2.121.206-.714.07-1.435 0-2.122-.206.688-.203 1.408-.273 2.122-.207.714-.064 1.434.006 2.121.207zM44.54 211.488c-.686.205-1.407.275-2.12.206-.714.07-1.435 0-2.122-.206.687-.203 1.408-.273 2.121-.207.714-.064 1.434.006 2.122.207zM51.826 211.488c-.687.205-1.408.275-2.122.206-.714.07-1.435 0-2.121-.206.687-.201 1.407-.271 2.121-.207.714-.064 1.434.006 2.122.207zM59.11 211.488c-.686.206-1.407.276-2.121.206-.714.07-1.435 0-2.121-.206.687-.201 1.407-.271 2.12-.207.715-.066 1.435.004 2.122.207zM66.395 211.488c-.686.206-1.407.276-2.121.206-.714.07-1.435 0-2.122-.206.688-.201 1.408-.271 2.122-.207.714-.066 1.434.004 2.121.207zM73.688 211.488c-.687.205-1.408.275-2.122.206-.714.07-1.434 0-2.121-.206.687-.203 1.407-.273 2.121-.207.714-.064 1.434.006 2.122.207zM76.233 215.712c0 .119-5.203.214-11.631.214s-11.632-.095-11.632-.214 5.204-.206 11.632-.206 11.631.08 11.631.206zM62.352 218.137c-1.346.214-2.712.286-4.074.214-1.365.072-2.733 0-4.083-.214 1.35-.203 2.718-.272 4.083-.206 1.362-.066 2.727.003 4.074.206zM62.913 147.422c.23-.029.462.015.664.127.58.259 1.038.726 1.281 1.308.182.402.254.845.208 1.284-.057.512-.288.99-.656 1.355-.852.86-2.163 1.087-3.258.563-1.045-.605-1.61-1.78-1.425-2.964.072-.504.292-.975.632-1.356.73-.786 1.827-1.13 2.882-.903.432.11.632.253.616.27-.016.015-.232-.056-.64-.112-.578-.073-1.164.02-1.69.27-.78.336-1.33 1.05-1.448 1.886-.133 1.017.354 2.015 1.24 2.544.94.436 2.052.25 2.795-.467.604-.59.781-1.487.448-2.26-.198-.537-.58-.988-1.08-1.275-.337-.198-.577-.23-.57-.27zM66.7 82.105h-1.081l-3.203.047.105-.095c.064 5.62.104 16.811.104 29.675 0 9.352 0 17.817-.056 24 0 3.035-.056 5.508-.073 7.268v1.981c.005.228-.01.456-.048.682-.017-.227-.017-.455 0-.682 0-.491 0-1.15-.04-1.981 0-1.76 0-4.233-.064-7.268 0-6.183 0-14.648-.064-24 0-12.864.048-24.055.112-29.675v-.103h.048l3.203.048h.8c.16.079.256.087.256.103zM31.709 120.102c0 .11-5.228.206-11.672.206-6.444 0-11.664-.095-11.664-.206 0-.111 5.22-.206 11.664-.206s11.672.087 11.672.206zM31.284 123.074c0 .11-5.131.206-11.455.206s-11.456-.095-11.456-.206c0-.111 5.132-.206 11.456-.206s11.455.087 11.455.206zM31.284 126.022c0 .111-5.131.206-11.455.206s-11.456-.095-11.456-.206c0-.11 5.132-.206 11.456-.206s11.455.12 11.455.206zM31.284 129.018c0 .111-5.131.206-11.455.206s-11.456-.095-11.456-.206c0-.11 5.132-.206 11.456-.206s11.455.095 11.455.206zM31.284 131.99c0 .111-5.131.207-11.455.207s-11.456-.096-11.456-.207c0-.11 5.132-.206 11.456-.206s11.455.096 11.455.206zM19.549 134.963c-1.86.204-3.734.273-5.604.206-1.87.067-3.743-.001-5.604-.206 1.86-.205 3.734-.274 5.604-.206 1.87-.068 3.743.001 5.604.206z"/>
        <path fill="#6F3895" d="M26.073 116.852c0 .11-4.003.206-8.886.206-4.883 0-8.886-.095-8.886-.206 0-.111 4.003-.206 8.886-.206 4.883 0 8.886.087 8.886.206z"/>
        <path fill="#263238" d="M37.136 141.993v-.626-1.8c0-1.585 0-3.883-.048-6.792 0-5.841-.056-14.171-.088-24.174l.176.174H.296l.168-.19v33.384l-.184-.174 26.65.087 7.532.048h2.698-2.626l-7.484.047-26.77.087H.072v-.182-15.804V108.585l.208-.206H37.336v.206c0 10.05-.064 18.412-.088 24.285 0 2.893 0 5.176-.048 6.753v1.768c0 .42-.064.602-.064.602zM26.089 155.958c-.206-2.207-.276-4.425-.208-6.641-.068-2.217.002-4.435.208-6.642.206 2.207.276 4.425.208 6.642.068 2.216-.002 4.434-.208 6.641z"/>
        <path fill="#263238" d="M27.618 152.97c-.41 1.055-.68 2.158-.8 3.282v.087l-.04.594-.345-.491c-.726-.917-1.183-2.014-1.32-3.17.111-.04.592 1.395 1.664 2.908l-.376.103v-.087c-.004-1.186.428-2.333 1.217-3.226zM255.365 62.25c-.112 0-.208-.539-.208-1.189s.096-1.196.208-1.196c.113 0 .209.538.209 1.196 0 .658-.072 1.19-.209 1.19zM255.365 67.006c-.112 0-.208-.531-.208-1.19 0-.657.096-1.188.208-1.188.113 0 .209.531.209 1.189s-.072 1.189-.209 1.189zM255.365 71.77c-.112 0-.208-.532-.208-1.19 0-.657.096-1.188.208-1.188.113 0 .209.53.209 1.188 0 .658-.072 1.19-.209 1.19zM255.365 76.517c-.112 0-.208-.531-.208-1.189s.096-1.189.208-1.189c.113 0 .209.531.209 1.189s-.072 1.189-.209 1.189zM255.365 81.265c-.112 0-.208-.531-.208-1.181s.096-1.19.208-1.19c.113 0 .209.532.209 1.19 0 .657-.072 1.18-.209 1.18zM255.365 86.02c-.112 0-.208-.539-.208-1.189s.096-1.189.208-1.189c.113 0 .209.531.209 1.19 0 .657-.072 1.188-.209 1.188zM255.365 90.768c-.112 0-.208-.531-.208-1.19 0-.657.096-1.188.208-1.188.113 0 .209.539.209 1.189s-.072 1.189-.209 1.189zM255.365 95.523c-.112 0-.208-.53-.208-1.189 0-.657.096-1.188.208-1.188.113 0 .209.53.209 1.188 0 .658-.072 1.19-.209 1.19z"/>
        <rect width="128.515" height="54.087" x="157.054" fill="#455A64" rx="3.17"/>
        <path fill="#FAFAFA" d="M194.83 20.092c-2.047-4.494-6.364-7.562-11.32-8.045l-.447-.047h-1.217l-.056 11.627v2.727l14.105 3.226c.23-.986.348-1.993.352-3.004.018-2.239-.466-4.453-1.417-6.484z"/>
        <path fill="#E0E0E0" d="M179.628 27.804v-2.568l.064-11.627c-3.575.021-7.025 1.31-9.726 3.63-3.511 2.954-5.311 7.442-4.803 11.976.048.5.128 1.007.224 1.522h-.104c1.881 6.69 8.005 11.746 14.001 11.366 6.933-.444 12.808-4.693 14.305-11.097l-13.96-3.202z"/>
        <path fill="#263238" d="M230.285 18.055c0 .12-5.667.206-12.648.206-6.98 0-12.648-.087-12.648-.206s5.66-.206 12.648-.206c6.989 0 12.648.095 12.648.206zM230.285 22.874c0 .111-5.667.206-12.648.206-6.98 0-12.648-.095-12.648-.206 0-.11 5.66-.214 12.648-.214 6.989 0 12.648.095 12.648.214zM230.285 27.685c0 .111-5.667.206-12.648.206-6.98 0-12.648-.095-12.648-.206 0-.11 5.66-.206 12.648-.206 6.989 0 12.648.087 12.648.206zM230.285 32.496c0 .111-5.667.206-12.648.206-6.98 0-12.648-.095-12.648-.206 0-.11 5.66-.206 12.648-.206 6.989 0 12.648.087 12.648.206zM219.806 37.696c-.716.124-1.443.174-2.169.15-1.337 0-3.202.056-5.235.056-2.034 0-3.907 0-5.244-.056-.726.024-1.453-.026-2.17-.15.718-.114 1.444-.162 2.17-.143 1.337-.04 3.202-.063 5.244-.063 2.041 0 3.898 0 5.235.063.726-.019 1.452.03 2.17.143z"/>
        <path fill="#E0E0E0" d="M248.305 13.64s.168-.142.536-.293c.537-.202 1.107-.304 1.681-.3.193-.003.386.01.577.039l.304.047h.04c-.104-.166.152.23.12.19V13.545c-.096.42-.184.856-.288 1.308-.208.935-.44 1.95-.68 3.02v.158h-1.225l-3.683-.04h-.192v-.158c.01-.737.188-1.464.52-2.124.26-.51.62-.965 1.057-1.34.277-.246.59-.449.929-.602.232-.11.368-.142.376-.126-.4.278-.784.577-1.153.895-.885.875-1.373 2.068-1.353 3.305l-.184-.19h4.731l-.2.159.72-3.004c.113-.452.225-.888.329-1.3V13.284c0-.04.224.357.112.19h-.016l-.28-.055c-.178-.03-.357-.049-.537-.056-.757-.023-1.513.07-2.241.278z"/>
        <path fill="#FAFAFA" d="M250.843 18.555h-4.675c0 1.164.423 2.29 1.192 3.17.97 1.146 2.453 1.74 3.955 1.585l.496-.071c2.21-.61 3.883-2.584 3.755-4.526-.045-2.182-1.544-4.07-3.675-4.629l-1.048 4.47zM248.305 30.705c-1.486.655-2.501 2.05-2.658 3.654v.515h4.731l1.065-4.557c-.326-.073-.659-.11-.993-.111-.744.002-1.478.172-2.145.499z"/>
        <path fill="#E0E0E0" d="M250.843 35.62s.072-.476.224-1.269l.688-3.29v-.134h.152c1.644.385 2.97 1.584 3.507 3.17.356.907.423 1.9.192 2.846-.308.996-.928 1.87-1.77 2.496-.582.452-1.249.785-1.96.983l-.209.064-.048-.214.24.158c-.811.156-1.65.115-2.441-.119-.735-.233-1.402-.638-1.946-1.18-.935-.943-1.456-2.214-1.449-3.536v-.15h.153l3.426.087c.418.004.835.036 1.249.095-.417.051-.837.075-1.257.071l-3.426.048.152-.15c.032 1.219.536 2.38 1.409 3.241 1.064 1.036 2.584 1.47 4.042 1.157l.2-.04.04.199-.256-.15c.666-.195 1.29-.51 1.841-.928.761-.577 1.321-1.375 1.601-2.283.21-.866.152-1.775-.168-2.607-.479-1.476-1.687-2.607-3.202-2.996l.176-.111c-.352 1.418-.648 2.56-.856 3.328-.062.414-.163.82-.304 1.213z"/>
        <path fill="#263238" d="M276.355 33.138c-2.663.21-5.335.278-8.005.206-2.67.072-5.342.003-8.005-.206 2.663-.204 5.335-.272 8.005-.206 2.67-.067 5.342.002 8.005.206zM268.35 35.255c-2.661.274-5.344.274-8.005 0 2.66-.275 5.344-.275 8.005 0zM276.355 16.09c-2.663.208-5.335.277-8.005.206-2.67.071-5.342.002-8.005-.206 2.663-.204 5.335-.273 8.005-.206 2.67-.067 5.342.002 8.005.206zM268.35 18.23c-1.323.207-2.665.276-4.003.206-1.338.07-2.68.002-4.002-.206 2.66-.275 5.344-.275 8.005 0zM238.202 46.676c-.12 0-.208-9.511-.208-21.313s.088-21.313.208-21.313.208 9.511.208 21.313-.096 21.313-.208 21.313z"/>
        <path fill="#F7B13E" d="M231.406 99.661H236.369V143.999H231.406z"/>
        <path fill="#E8505B" d="M240.98 114.72H245.94299999999998V143.998H240.98z"/>
        <path fill="#2077C0" d="M250.554 105.169H255.517V144.22H250.554z"/>
        <path fill="#ED4634" d="M260.137 101.373H265.1V143.999H260.137z"/>
        <path fill="#263238" d="M319.827 138.656c-.208-.639-.279-1.314-.209-1.981-.07-.668.001-1.343.209-1.982.202.64.273 1.314.208 1.982.065.667-.006 1.341-.208 1.981z"/>
        <path fill="#353E63" d="M374.206 143.76H366.8l-20.685.072-71.399.11h-.2l-.048-.182c-1.563-5.377-.444-11.17 3.013-15.597 3.456-4.428 8.837-6.96 14.487-6.817l-.265.333c-.44-1.546-.626-3.151-.552-4.756.224-5.469 3.362-10.747 8.181-13.188 4.743-2.457 10.406-2.427 15.122.079l-.368.127c2.615-5.984 7.64-10.611 13.857-12.761 5.892-2.116 12.432-1.839 17.563.792 4.9 2.569 8.746 6.744 10.88 11.81 1.97 4.434 2.438 9.38 1.336 14.1l-.2-.222c2.813-.296 5.656.11 8.27 1.181 2.325.929 4.418 2.35 6.131 4.161.779.81 1.43 1.732 1.93 2.735.438.936.781 1.913 1.024 2.917.424 1.743.66 3.526.705 5.318.09 2.466-.126 4.933-.64 7.347-.136.628-.307 1.247-.513 1.855-.144.412-.224.61-.224.61"/>
        <path fill="#263238" d="M329.053 109.71c-.1.013-.203.013-.304 0l-.865-.134c-.468-.085-.941-.146-1.416-.182l-.905-.095-1.033-.048c-1.777-.072-3.556.023-5.315.285-2.326.34-4.602.955-6.78 1.831-2.648 1.044-5.116 2.488-7.317 4.28-2.476 2.117-4.668 4.538-6.525 7.205-2.08 2.726-4.202 5.73-7.148 8.148-1.482 1.25-3.158 2.253-4.963 2.972-1.881.735-3.92.983-5.924.721-2-.29-3.911-1.007-5.604-2.1-1.626-1.046-3.113-2.29-4.427-3.702-2.625-2.742-4.53-5.857-6.532-8.647-1.792-2.71-3.993-5.135-6.524-7.189-1.175-.88-2.461-1.605-3.827-2.155-1.268-.496-2.59-.847-3.938-1.047-4.114-.608-8.316.147-11.952 2.148-.968.564-1.881 1.214-2.73 1.942l-.656.587c-.073.069-.15.132-.232.19.063-.08.132-.154.208-.222l.616-.618c.836-.755 1.742-1.429 2.706-2.013 1.553-.892 3.227-1.56 4.971-1.982 2.318-.56 4.721-.684 7.085-.365 1.369.2 2.71.548 4.002 1.039 1.395.558 2.711 1.294 3.915 2.187 2.574 2.059 4.81 4.5 6.628 7.237 2.026 2.798 3.93 5.889 6.516 8.591 1.296 1.385 2.759 2.607 4.355 3.638 1.636 1.059 3.486 1.751 5.42 2.03 1.933.251 3.9.014 5.716-.69 1.764-.701 3.402-1.681 4.85-2.901 2.899-2.378 5.012-5.342 7.11-8.069 1.04-1.37 2.08-2.702 3.201-3.963.553-.61 1.097-1.204 1.69-1.743.288-.275.576-.54.864-.793.296-.261.608-.5.905-.745 2.235-1.804 4.741-3.25 7.428-4.288 2.206-.867 4.51-1.469 6.86-1.791 1.774-.25 3.568-.322 5.356-.214l1.041.063.905.111c.568.064 1.04.143 1.416.222l.865.183.288.087zM225.946 147.09c-.112 0-.208-12.682-.208-28.24 0-15.56.096-28.24.208-28.24.112 0 .209 12.68.209 28.24 0 15.558-.097 28.24-.209 28.24zM334.145 147.09c0 .11-23.528.205-52.539.205-29.01 0-52.546-.095-52.546-.206 0-.11 23.52-.206 52.546-.206 29.027 0 52.539.087 52.539.206zM238.483 150.593c-2.448.274-4.918.274-7.365 0 2.447-.275 4.917-.275 7.365 0zM250.69 150.751c-2.928.275-5.877.275-8.805 0 2.928-.275 5.877-.275 8.805 0zM261.105 150.751c-2.928.275-5.877.275-8.806 0 2.93-.275 5.878-.275 8.806 0zM271.52 150.751c-2.929.275-5.877.275-8.806 0 2.929-.275 5.877-.275 8.806 0zM281.935 150.751c-2.929.275-5.877.275-8.806 0 2.929-.275 5.877-.275 8.806 0zM292.35 150.751c-2.93.275-5.878.275-8.806 0 2.928-.275 5.877-.275 8.805 0zM302.764 150.751c-2.928.275-5.877.275-8.806 0 2.93-.275 5.878-.275 8.806 0zM313.179 150.751c-2.929.275-5.877.275-8.806 0 2.929-.275 5.877-.275 8.806 0zM323.586 150.751c-2.929.275-5.877.275-8.806 0 2.929-.275 5.877-.275 8.806 0zM334 150.751c-2.928.275-5.877.275-8.805 0 2.928-.275 5.877-.275 8.805 0z"/>
        <path fill="#263238" d="M265.308 120.72c0-.056.424 0 .592.578.098.327.026.68-.192.944-.313.305-.782.39-1.184.216-.402-.175-.656-.574-.641-1.009.046-.346.266-.644.584-.793.537-.245.873 0 .8.064-.071.063-.327-.056-.688.19-.194.128-.323.333-.352.563 0 .269.17.51.424.602.24.13.535.094.737-.087.154-.174.225-.405.192-.634-.016-.428-.304-.579-.272-.634zM313.243 110.02s.096-.064.28 0c.261.057.493.202.657.412.265.326.333.768.176 1.157-.214.478-.69.788-1.217.793-.53-.029-.985-.384-1.137-.888-.132-.396-.04-.83.24-1.141.489-.492.953-.412.945-.373-.008.04-.392.127-.72.555-.157.234-.193.528-.097.793.108.349.432.59.8.594.361 0 .69-.2.857-.515.122-.27.098-.583-.064-.832-.312-.468-.736-.492-.72-.555z"/>
        <circle cx="314.019" cy="88.723" r="1" fill="#263238"/>
        <path fill="#263238" d="M314.02 94.477c-.113 0-.209-.579-.209-1.292 0-.713.096-1.292.208-1.292.113 0 .209.579.209 1.292 0 .713-.088 1.292-.209 1.292zM314.02 99.637c-.113 0-.209-.579-.209-1.292 0-.713.096-1.292.208-1.292.113 0 .209.579.209 1.292 0 .713-.088 1.292-.209 1.292zM314.02 104.797c-.113 0-.209-.579-.209-1.292 0-.714.096-1.292.208-1.292.113 0 .209.578.209 1.292 0 .713-.088 1.292-.209 1.292zM314.02 108.585c-.113 0-.209-.27-.209-.594 0-.325.096-.595.208-.595.113 0 .209.27.209.595 0 .325-.088.594-.209.594zM349.306 81.138c0 .11-8.133.206-18.163.206-10.03 0-18.18-.095-18.18-.206 0-.111 8.141-.206 18.18-.206 10.038 0 18.163.087 18.163.206zM336.898 77.064c0 .11-5.235.206-11.695.206s-11.688-.095-11.688-.206c0-.111 5.236-.206 11.688-.206 6.452 0 11.695.087 11.695.206zM98.688 52.898c.112 0 .208.261.208.594 0 .333-.096.595-.208.595-.112 0-.208-.27-.208-.595 0-.325.096-.594.208-.594zM98.688 48.3c.112 0 .208.516.208 1.15 0 .634-.096 1.15-.208 1.15-.112 0-.208-.516-.208-1.15 0-.634.096-1.15.208-1.15zM98.688 43.711c.112 0 .208.516.208 1.15 0 .634-.096 1.149-.208 1.149-.112 0-.224-.515-.224-1.15 0-.633.112-1.149.224-1.149zM98.688 39.13c.112 0 .208.508.208 1.142 0 .634-.096 1.149-.208 1.149-.112 0-.208-.515-.208-1.15 0-.633.096-1.14.208-1.14z"/>
        <ellipse cx="98.688" cy="35.69" fill="#263238" rx="1" ry="1.149"/>
        <path fill="#263238" d="M98.688 29.952c.112 0 .208.515.208 1.15 0 .633-.096 1.149-.208 1.149-.112 0-.224-.547-.224-1.15 0-.602.112-1.149.224-1.149zM98.688 26.465c.112 0 .208.27.208.594 0 .325-.096.595-.208.595-.112 0-.208-.262-.208-.595 0-.333.096-.594.208-.594zM99.889 25.363c0 .11-.272.206-.6.206-.329 0-.601-.095-.601-.206 0-.111.264-.206.6-.206.337 0 .6.08.6.206zM104.82 25.363c0 .11-.552.206-1.233.206-.68 0-1.233-.095-1.233-.206 0-.111.553-.206 1.233-.206s1.233.08 1.233.206zM109.751 25.363c0 .11-.552.206-1.233.206-.68 0-1.248-.103-1.248-.206s.552-.206 1.232-.206c.68 0 1.25.08 1.25.206zM114.682 25.363c0 .11-.552.206-1.232.206-.68 0-1.233-.095-1.233-.206 0-.111.552-.206 1.233-.206.68 0 1.232.08 1.232.206zM119.606 25.363c0 .11-.553.206-1.233.206s-1.225-.095-1.225-.206c0-.111.544-.206 1.225-.206.68 0 1.233.08 1.233.206zM124.529 25.363c0 .11-.553.206-1.233.206s-1.225-.095-1.225-.206c0-.111.544-.206 1.225-.206.68 0 1.233.08 1.233.206zM129.452 25.363c0 .11-.544.206-1.225.206-.68 0-1.233-.095-1.233-.206 0-.111.553-.206 1.233-.206s1.225.08 1.225.206zM134.383 25.363c0 .11-.552.206-1.233.206-.68 0-1.233-.095-1.233-.206 0-.111.553-.206 1.233-.206s1.233.08 1.233.206zM139.29 25.363c0 .11-.552.206-1.233.206-.68 0-1.232-.095-1.232-.206 0-.111.552-.206 1.232-.206.68 0 1.233.08 1.233.206zM144.237 25.363c0 .11-.552.206-1.232.206-.68 0-1.233-.095-1.233-.206 0-.111.552-.206 1.233-.206.68 0 1.232.08 1.232.206zM149.16 25.363c0 .11-.552.206-1.232.206-.68 0-1.233-.095-1.233-.206 0-.111.552-.206 1.233-.206.68 0 1.233.08 1.233.206zM152.851 25.363c0 .11-.264.206-.6.206-.337 0-.6-.095-.6-.206 0-.111.271-.206.6-.206.328 0 .6.08.6.206z"/>
        <g>
            <path fill="#263238" d="M34.31.004H3.506C1.791.004.4 1.38.4 3.079v17.897c0 1.698 1.39 3.075 3.106 3.075h4.931v7.332l6.637-7.332h19.212c1.716 0 3.106-1.377 3.106-3.075V3.079c0-1.689-1.376-3.062-3.082-3.075z" transform="translate(177.715 69.68)"/>
            <path fill="#FAFAFA" d="M15.21 12.424c0 .705-.577 1.276-1.289 1.276s-1.289-.571-1.289-1.276c0-.705.577-1.276 1.289-1.276.342 0 .67.134.911.374.242.239.378.563.378.902zM20.27 12.424c0 .517-.316.982-.798 1.18-.483.197-1.038.086-1.406-.28-.368-.367-.476-.917-.274-1.394.202-.477.674-.785 1.196-.782.341 0 .668.134.909.374.24.24.374.564.372.902zM25.168 12.424c0 .705-.577 1.276-1.289 1.276-.711 0-1.288-.571-1.288-1.276 0-.705.577-1.276 1.288-1.276.712 0 1.29.571 1.29 1.276z" transform="translate(177.715 69.68)"/>
        </g>
        <g>
            <path fill="#263238" d="M42.235 20.607c-1.513-.372-1.264-4.494-1.425-5.754-.167-.762-.114-1.556.153-2.29.53-.871 1.45-1.437 2.473-1.522 1-.15 2.025-.048 3.026-.19 2.017-.294 3.819-1.53 5.844-1.704 1.68-.141 3.336.456 4.53 1.632.602.783 1.304 1.484 2.09 2.085.807.34 1.65.587 2.514.737 2.138.657 3.699 2.48 4.002 4.676.063 1.278-.031 2.558-.28 3.813-.24 1.267-.048 2.577.545 3.725.696 1.125 2.017 1.791 2.665 2.956.597 1.055.535 2.355-.159 3.35-.694.995-1.899 1.513-3.107 1.334-.376-.055-.8-.166-1.097.08-.213.249-.336.561-.352.887-.24 1.314-1.511 2.185-2.838 1.946-1.326-.238-2.206-1.496-1.965-2.81" transform="translate(101.666 71.333)"/>
            <path fill="#FFBE9D" d="M59.767 47.025L46.518 45.97c-.088-1.537 0-7.466 0-7.466s-5.515-.848-5.603-6.34c-.089-5.493.88-17.992.88-17.992 6.382-2.713 13.746-1.804 19.26 2.377l.801.626-2.09 29.85z" transform="translate(101.666 71.333)"/>
            <path fill="#263238" d="M43.116 23.088c.16-.141.255-.34.265-.55.01-.212-.065-.42-.209-.575-.297-.323-.801-.348-1.129-.056-.159.142-.254.34-.265.551-.01.212.065.419.21.575.296.323.8.348 1.128.055z" transform="translate(101.666 71.333)"/>
            <path fill="#263238" d="M41.78 22.343c.087.095.623-.317 1.384-.317.76 0 1.313.38 1.4.285.089-.095-.047-.214-.287-.388-.323-.234-.714-.356-1.113-.349-.403-.003-.795.128-1.113.373-.232.182-.312.357-.272.396zM50.433 22.613c-.278.166-.426.482-.376.8.05.317.288.573.604.648.315.075.645-.046.835-.306.19-.26.204-.607.033-.88-.23-.371-.72-.488-1.096-.262z" transform="translate(101.666 71.333)"/>
            <path fill="#263238" d="M50.024 22.985c.088.095.633-.317 1.393-.325.76-.008 1.313.389 1.393.293.08-.095-.048-.214-.288-.396-.321-.235-.713-.358-1.113-.349-.398.006-.785.136-1.104.373-.24.214-.32.404-.28.404zM46.982 29.215c-.388-.161-.803-.25-1.224-.262-.2 0-.36-.063-.369-.166-.009-.197.039-.392.137-.563.2-.5.392-1.006.6-1.53.57-1.292 1.007-2.638 1.305-4.018-.701 1.228-1.273 2.524-1.705 3.868-.2.531-.385 1.038-.569 1.538-.124.245-.163.523-.112.792.06.152.187.269.344.317.112.018.225.018.337 0 .414.078.84.086 1.256.024z" transform="translate(101.666 71.333)"/>
            <path fill="#FAFAFA" d="M49.448 30.047c.8-.467-2.177 1.142-3.722 1.07.54.8 1.563 1.127 2.473.793 1.657-.563 1.249-1.863 1.249-1.863z" transform="translate(101.666 71.333)"/>
            <path fill="#EB996E" d="M46.534 38.433c2.551.052 5.06-.652 7.205-2.021 0 0-1.697 3.963-7.205 3.44v-1.42z" transform="translate(101.666 71.333)"/>
            <path fill="#FFBE9D" d="M61.08 22.843c.104-.064 3.906-1.284 4.394 3.336.489 4.621-4.386 3.583-4.41 3.456-.024-.127.016-6.792.016-6.792z" transform="translate(101.666 71.333)"/>
            <path fill="#EB996E" d="M62.328 27.86s.088.047.225.095c.203.066.425.05.616-.048.574-.449.856-1.172.736-1.886-.029-.396-.146-.78-.344-1.126-.12-.284-.375-.492-.68-.554-.199-.034-.392.08-.457.269-.048.135 0 .222 0 .238 0 .016-.112-.072-.096-.262.017-.118.074-.227.16-.309.116-.111.272-.171.433-.166.398.035.75.272.928.626.243.38.386.812.417 1.26.136.838-.25 1.675-.977 2.124-.245.1-.522.082-.752-.047-.193-.103-.225-.199-.209-.214z" transform="translate(101.666 71.333)"/>
            <path fill="#263238" d="M41.875 13.934c1.057 1.934 3.378 2.917 5.604 3.004 2.22-.038 4.422-.42 6.524-1.134 1.16-.325 2.578-.562 3.426.278.45.54.705 1.211.729 1.91.193 1.533.215 3.083.064 4.62-.112.609-.112 1.232 0 1.84.125.62.62 1.1 1.249 1.212.976.087 1.6-1.006 1.897-1.918.502-1.243.865-2.538 1.08-3.86.209-1.337-.042-2.705-.712-3.884-.903-1.23-2.141-2.178-3.57-2.734-2.731-1.391-5.737-2.173-8.806-2.29-3.107-.093-6.122 1.048-8.373 3.17" transform="translate(101.666 71.333)"/>
            <path fill="#707070" d="M40.266 253.883l-.04-7.284 13.785-.166.176 10.66-.856.064c-3.803.253-19.349 1.03-21.903.3-2.841-.823 8.838-3.574 8.838-3.574z" transform="translate(101.666 71.333)"/>
            <path fill="#1D201F" d="M49.184 257.046c.192-1.155.808-2.2 1.729-2.933.9-.729 2.042-1.096 3.202-1.03l.048 3.812-4.98.15z" transform="translate(101.666 71.333)"/>
            <path fill="#1D201F" d="M34.558 255.429s-4.09 1.228-3.57 1.886c.52.658 16.267.468 23.215-.222v-.3l-18.364.38s-.472-1.72-1.28-1.744z" transform="translate(101.666 71.333)"/>
            <path fill="#263238" d="M54.38 256.8h-.24l-.681.048-2.506.134c-2.113.103-5.035.206-8.27.254-3.233.048-6.155 0-8.277 0l-2.505-.071h-.92c.079-.012.16-.012.24 0H42.683c3.234 0 6.148-.127 8.269-.198l2.506-.088h.68c.076-.037.157-.063.24-.079z" transform="translate(101.666 71.333)"/>
            <path fill="#263238" d="M35.807 257.387c-.113-.411-.274-.808-.48-1.181-.252-.345-.545-.66-.873-.936.432.148.792.45 1.009.848.27.366.392.818.344 1.269zM39.85 255.294c-.04 0-.24-.206-.44-.523-.2-.317-.345-.579-.305-.602.04-.024.24.206.44.515.2.309.345.586.305.61zM40.955 254.692c0 .04-.249-.103-.489-.317-.24-.214-.408-.404-.376-.436.032-.032.248.103.488.317.24.214.409.404.377.436zM41.627 253.4c-.23.08-.476.113-.72.095-.242.034-.489.012-.721-.063.226-.09.47-.125.713-.103.245-.033.494-.008.728.07zM41.875 252.48c-.232.167-.514.253-.8.246-.272.048-.551.012-.8-.103.263-.045.531-.066.8-.063.264-.048.532-.075.8-.08z" transform="translate(101.666 71.333)"/>
            <path fill="#263238" d="M39.37 254.105c-.294.053-.595.053-.89 0-.32-.035-.636-.101-.944-.198-.189-.046-.372-.116-.544-.206-.105-.064-.184-.162-.224-.277-.03-.131.02-.268.128-.35.438-.231.96-.25 1.413-.047.453.201.785.6.9 1.078.04.143.04.23 0 .23-.09-.268-.229-.517-.408-.737-.212-.237-.49-.405-.8-.483-.348-.11-.725-.08-1.05.087-.143.103-.087.27.073.356.159.09.328.16.504.206.298.1.603.174.913.222.584.095.929.095.929.12z" transform="translate(101.666 71.333)"/>
            <path fill="#263238" d="M39.137 254.153c-.111-.183-.151-.4-.112-.61.028-.229.108-.448.232-.642.149-.269.428-.44.737-.452.186.036.31.21.28.396-.02.142-.073.277-.152.396-.114.196-.25.377-.408.54-.134.16-.308.282-.505.356 0 0 .177-.159.417-.436.137-.166.26-.344.368-.531.12-.19.192-.523 0-.563-.192-.04-.448.206-.584.38-.121.172-.203.366-.24.571-.028.197-.04.396-.033.595zM54.051 253.043s-.4 0-1.025.048c-1.657.2-3.048 1.33-3.57 2.9-.2.587-.216.983-.248.976-.014-.092-.014-.186 0-.278.025-.25.074-.496.144-.737.483-1.65 1.945-2.833 3.674-2.972.266-.032.535-.032.8 0 .078.012.153.034.225.063zM52.546 247.384c.155 1.866.203 3.74.144 5.612-.106-.932-.156-1.869-.152-2.806-.053-.935-.05-1.872.008-2.806zM47.43 255.738c-.657.158-1.332.232-2.009.222-.675.038-1.353-.007-2.017-.135 0-.047.905 0 2.017 0 1.113 0 2.01-.135 2.01-.087z" transform="translate(101.666 71.333)"/>
            <path fill="#263238" d="M50.136 255.698s-.072.19-.16.397c-.088.206-.136.388-.184.388-.048 0-.072-.222 0-.452s.312-.364.344-.333zM51.137 254.422s-.056.175-.192.317c-.136.143-.28.238-.312.206-.032-.031.048-.174.192-.317.144-.142.28-.206.312-.206zM52.586 253.836c0 .047-.192.047-.392.127-.2.079-.344.182-.384.15-.04-.032.08-.222.328-.309s.464-.008.448.032zM53.635 253.558s-.056.111-.168.159c-.112.047-.224.047-.24 0-.017-.048.064-.111.176-.159.112-.047.232-.047.232 0z" transform="translate(101.666 71.333)"/>
            <path fill="#707070" d="M110.728 250.119l-2.25-6.944-13.152 4.114 3.202 10.185.8-.198c3.699-.928 18.716-4.97 20.918-6.444 2.45-1.688-9.518-.713-9.518-.713z" transform="translate(101.666 71.333)"/>
            <path fill="#1D201F" d="M103.267 255.865c-.542-1.038-1.451-1.842-2.554-2.26-1.086-.42-2.292-.42-3.378 0l1.153 3.639 4.779-1.38z" transform="translate(101.666 71.333)"/>
            <path fill="#1D201F" d="M116.636 249.833s4.274-.095 4.002.698c-.272.792-15.33 5.476-22.174 6.911l-.072-.293 17.611-5.279s-.128-1.767.633-2.037z" transform="translate(101.666 71.333)"/>
            <path fill="#263238" d="M98.216 257.204c.079-.005.157-.021.232-.047l.664-.159 2.402-.642c2.041-.555 4.859-1.355 7.94-2.306 3.083-.951 5.86-1.87 7.862-2.568l2.362-.84.632-.238c.078-.022.154-.054.224-.095l-.232.063-.648.214-2.402.793c-2.01.666-4.803 1.585-7.87 2.52-3.065.935-5.89 1.776-7.924 2.378l-2.402.69-.656.19-.184.047z" transform="translate(101.666 71.333)"/>
            <path fill="#263238" d="M116.075 252.045c-.014-.425.016-.85.088-1.269.135-.404.315-.792.537-1.157-.366.273-.615.672-.697 1.118-.137.43-.112.895.072 1.308zM111.56 251.331c.048 0 .16-.27.256-.634.097-.364.145-.658.097-.666-.049-.008-.16.27-.257.626-.08.216-.113.445-.096.674zM110.32 251.101c.04 0 .208-.182.368-.451.16-.27.264-.516.224-.531-.04-.016-.208.174-.368.443-.16.27-.265.516-.225.54zM109.255 250.079c.246.007.492-.036.72-.127.377-.11.68-.238.665-.285-.244-.008-.487.035-.713.127-.243.042-.473.14-.672.285zM108.75 249.278c.261.081.54.081.801 0 .297-.03.577-.152.8-.348-.271.042-.539.106-.8.19-.27.03-.539.084-.8.158z" transform="translate(101.666 71.333)"/>
            <path fill="#263238" d="M111.648 250.055c.296-.043.583-.134.849-.27.28-.134.549-.293.8-.475.165-.106.315-.23.449-.372.086-.086.133-.204.128-.325-.01-.136-.102-.252-.232-.294-.489-.085-.989.059-1.355.39-.367.33-.558.81-.519 1.299 0 .15 0 .237.048.23.004-.285.058-.567.16-.833.122-.28.322-.52.577-.69.296-.21.665-.296 1.025-.237.168.055.168.23.048.364-.128.127-.267.24-.417.341-.253.187-.52.354-.8.5-.448.245-.769.34-.76.372z" transform="translate(101.666 71.333)"/>
            <path fill="#263238" d="M111.88 250.023c.05-.207.018-.425-.088-.61-.094-.211-.24-.396-.424-.539-.214-.199-.515-.276-.8-.206-.17.09-.233.299-.144.468.061.127.151.238.264.325.167.154.356.285.56.388.177.114.382.177.592.182 0 0-.216-.095-.536-.285-.183-.115-.355-.248-.512-.396-.168-.143-.352-.436-.152-.54.24-.043.488.024.672.183.169.128.308.29.408.476.071.18.125.365.16.554zM97.36 253.558c.322-.107.65-.197.984-.27 1.638-.32 3.317.325 4.307 1.657.376.492.512.864.544.848-.015-.09-.045-.18-.088-.261-.096-.231-.217-.452-.36-.658-.977-1.42-2.74-2.096-4.427-1.696-.249.052-.49.132-.72.238-.087.036-.168.084-.24.142zM97.015 247.709c.185.918.428 1.823.728 2.71.247.906.544 1.798.889 2.672-.186-.92-.429-1.829-.729-2.719-.247-.903-.544-1.792-.888-2.663zM104.492 254.081c.673-.053 1.337-.188 1.977-.404.658-.168 1.29-.42 1.881-.753 0-.04-.864.278-1.929.595-1.065.317-1.937.515-1.93.562z" transform="translate(101.666 71.333)"/>
            <path fill="#263238" d="M101.914 254.874c0 .04.128.159.272.325.144.166.256.333.296.31.04-.025 0-.223-.168-.413-.168-.19-.384-.262-.4-.222zM100.561 253.978c0 .04.104.151.288.246s.337.135.36.095c.025-.04-.103-.15-.288-.245-.184-.096-.336-.135-.36-.096zM99 253.86h.408c.217 0 .385.07.409 0 .024-.072-.136-.19-.4-.19-.265 0-.449.158-.417.19zM97.927 253.907c0 .048.089.095.217.103.128.008.224 0 .224-.071 0-.072-.096-.087-.216-.095-.12-.008-.225.023-.225.063zM30.884 109.148L37.32 250.745 58.79 251.189 55.228 132.648 94.133 252.607 111.68 247.852 72.527 109.148" transform="translate(101.666 71.333)"/>
            <path fill="#455A64" d="M93.212 251.799L94.213 253.709 112.809 248.335 111.68 245.244zM109.535 244.539c.112 0 .28.198.368.515.088.317.088.594 0 .626-.088.032-.28-.198-.368-.507-.088-.31-.112-.603 0-.634zM108.142 239.942c.112 0 .352.46.544 1.093.193.634.265 1.173.153 1.205-.113.032-.353-.452-.545-1.086-.192-.634-.224-1.18-.152-1.212zM106.75 235.345c.111 0 .351.46.544 1.093.192.634.264 1.173.152 1.205-.112.032-.353-.452-.545-1.086-.192-.634-.264-1.157-.152-1.212zM105.356 230.748c.112 0 .36.451.553 1.093.192.642.256 1.173.144 1.205-.112.032-.353-.452-.545-1.094-.192-.642-.264-1.173-.152-1.204zM103.963 226.15c.112 0 .36.452.553 1.086.192.634.256 1.181.144 1.213-.112.032-.352-.46-.545-1.094-.192-.634-.264-1.173-.152-1.204zM102.57 221.553c.113 0 .36.452.553 1.086.192.634.256 1.181.144 1.213-.112.032-.352-.46-.544-1.094-.193-.634-.257-1.173-.153-1.205zM101.178 216.956c.112 0 .36.452.552 1.086.192.634.256 1.181.144 1.213-.112.032-.352-.46-.544-1.094-.192-.634-.265-1.173-.152-1.205zM99.785 212.36c.112-.04.36.451.552 1.085.192.634.256 1.181.144 1.213-.112.032-.352-.46-.544-1.094-.192-.634-.264-1.15-.152-1.205zM98.392 207.762c.112-.04.36.452.552 1.086.192.634.256 1.173.144 1.213-.112.04-.352-.46-.544-1.094-.192-.634-.256-1.173-.152-1.205zM96.999 203.157c.112 0 .36.46.552 1.094.192.634.256 1.173.144 1.205-.112.032-.352-.452-.544-1.086-.192-.634-.288-1.173-.152-1.213zM95.606 198.56c.112 0 .36.46.552 1.094.192.634.256 1.173.144 1.205-.112.032-.352-.452-.544-1.086-.192-.634-.256-1.18-.152-1.213zM94.213 193.963c.112 0 .36.46.552 1.094.193.634.257 1.173.145 1.205-.113.032-.353-.452-.545-1.086-.192-.634-.256-1.181-.152-1.213zM92.86 189.366c.112 0 .36.46.553 1.094.192.634.256 1.173.144 1.205-.112.031-.353-.452-.545-1.086-.192-.634-.296-1.15-.152-1.213zM91.427 184.77c.112 0 .36.459.553 1.093.192.634.256 1.173.144 1.205-.112.031-.353-.452-.545-1.086-.192-.634-.256-1.181-.152-1.213zM90.042 180.172c.104 0 .353.452.545 1.094.192.642.256 1.173.152 1.205-.104.031-.36-.452-.553-1.094-.192-.642-.256-1.173-.144-1.205zM88.65 175.575c.104 0 .352.452.544 1.086.192.634.256 1.181.152 1.213-.104.031-.36-.452-.552-1.094-.193-.642-.257-1.173-.145-1.205zM87.257 170.978c.104 0 .352.452.544 1.086.192.634.256 1.18.152 1.213-.104.031-.36-.46-.552-1.094-.192-.634-.257-1.173-.144-1.205zM85.864 166.381c.104 0 .352.452.544 1.086.192.634.256 1.18.152 1.213-.104.031-.36-.46-.552-1.094-.192-.634-.256-1.142-.144-1.205zM84.47 161.784c.105 0 .353.452.545 1.086.192.634.256 1.18.152 1.213-.104.031-.36-.46-.552-1.094-.192-.634-.256-1.173-.144-1.205zM83.078 157.187c.112-.04.352.452.544 1.086.192.634.256 1.173.152 1.213-.104.04-.36-.46-.552-1.094-.192-.634-.256-1.173-.144-1.205zM81.653 152.582c.112 0 .352.46.544 1.094.192.634.264 1.173.152 1.212-.112.04-.36-.46-.552-1.093-.192-.634-.224-1.173-.144-1.213zM80.292 147.985c.112 0 .352.46.544 1.094.193.634.265 1.173.152 1.205-.112.031-.36-.452-.552-1.086-.192-.634-.256-1.173-.144-1.213zM78.9 143.388c.111 0 .351.46.543 1.094.193.634.265 1.173.153 1.204-.112.032-.36-.451-.553-1.085-.192-.634-.256-1.142-.144-1.213zM77.506 138.79c.112 0 .352.46.545 1.095.192.634.264 1.173.152 1.204-.112.032-.36-.451-.553-1.085-.192-.634-.256-1.181-.144-1.213zM76.113 134.194c.112 0 .353.46.545 1.094.192.634.264 1.173.152 1.204-.112.032-.352-.451-.553-1.085-.2-.635-.256-1.181-.144-1.213zM74.72 129.597c.112 0 .353.452.545 1.094.192.642.264 1.173.152 1.204-.112.032-.352-.451-.544-1.085-.193-.635-.265-1.181-.153-1.213zM73.328 125c.112 0 .352.452.544 1.086.192.634.264 1.18.152 1.212-.112.032-.352-.451-.544-1.093-.193-.642-.265-1.173-.152-1.205zM71.935 120.403c.112 0 .352.452.544 1.086.192.634.264 1.18.152 1.212-.112.032-.352-.46-.544-1.093-.192-.635-.264-1.134-.152-1.205zM70.542 115.806c.112 0 .36.452.552 1.086.192.634.256 1.18.144 1.212-.112.032-.352-.46-.544-1.094-.192-.634-.248-1.173-.152-1.204zM69.501 112.366c.112 0 .28.198.376.507.096.31.08.603 0 .634-.08.032-.272-.198-.368-.515-.096-.317-.12-.594-.008-.626zM55.092 250.031c.112 0 .216.254.232.587.016.333-.056.594-.176.602-.12.008-.216-.253-.24-.586-.024-.333.064-.595.184-.603zM54.892 245.315c.112 0 .224.524.256 1.173.032.65-.048 1.181-.168 1.19-.12.007-.225-.524-.249-1.174-.024-.65.048-1.18.16-1.189zM54.747 240.6c.113 0 .217.523.24 1.173.025.65-.055 1.18-.175 1.18s-.225-.515-.24-1.173c-.017-.657.055-1.18.175-1.18zM54.62 235.876c.12 0 .224.523.24 1.18.016.658-.064 1.182-.177 1.182-.112 0-.224-.524-.24-1.173-.016-.65.064-1.181.176-1.19zM54.507 231.16c.12 0 .224.523.24 1.173.016.65-.064 1.18-.184 1.18s-.216-.522-.232-1.172c-.016-.65.104-1.181.176-1.181zM54.387 226.436c.112 0 .224.523.24 1.173.016.65-.064 1.18-.176 1.189-.112.008-.224-.523-.24-1.181-.016-.658.056-1.181.176-1.181zM54.227 221.712c.112 0 .224.523.248 1.173.024.65-.048 1.181-.16 1.189-.112.008-.232-.523-.256-1.173-.024-.65.056-1.181.168-1.189zM54.027 216.996c.112 0 .232.515.256 1.173.024.658-.04 1.181-.152 1.181-.112 0-.232-.515-.264-1.165s.048-1.189.16-1.189zM53.843 212.28c.112 0 .224.515.256 1.165s-.048 1.19-.168 1.19c-.12 0-.224-.516-.256-1.174-.032-.658.048-1.18.168-1.18zM53.675 207.556c.112 0 .224.523.248 1.173.024.65-.048 1.181-.168 1.19-.12.007-.224-.524-.248-1.174-.024-.65.056-1.18.168-1.189zM53.53 202.832c.113 0 .225.524.24 1.173.017.65-.055 1.19-.167 1.19-.112 0-.224-.524-.248-1.174-.024-.65.056-1.18.176-1.189zM53.403 198.148c.12 0 .224.523.24 1.173.016.65-.064 1.181-.176 1.19-.112.007-.224-.524-.24-1.182-.017-.658.064-1.18.176-1.18zM53.299 193.393c.12 0 .224.53.24 1.18.016.65-.072 1.182-.184 1.182s-.225-.524-.24-1.173c-.017-.65.071-1.19.184-1.19zM53.218 188.677c.12 0 .217.523.233 1.173.016.65-.08 1.18-.192 1.189-.113.008-.217-.531-.225-1.181-.008-.65.072-1.181.184-1.181zM53.162 183.953c.12 0 .217.53.225 1.18.008.65-.08 1.182-.2 1.182-.12 0-.209-.523-.217-1.181-.008-.658.08-1.181.192-1.181zM53.13 179.237c.113 0 .209.523.217 1.173.008.65-.088 1.18-.2 1.18-.113 0-.217-.522-.217-1.172 0-.65.088-1.181.2-1.181zM53.122 174.513c.112 0 .209.531.209 1.181s-.097 1.181-.209 1.181c-.112 0-.208-.531-.208-1.18 0-.65.088-1.182.208-1.182zM53.13 169.79c.12 0 .209.53.209 1.18 0 .65-.096 1.181-.217 1.181-.12 0-.208-.53-.2-1.18.008-.65.096-1.182.208-1.182zM53.17 165.073c.113 0 .209.531.2 1.181-.007.65-.103 1.181-.224 1.173-.12-.008-.2-.523-.192-1.18.008-.659.104-1.182.216-1.174zM53.234 160.35c.113 0 .2.53.193 1.18-.008.65-.112 1.181-.225 1.181-.112 0-.208-.53-.192-1.189.016-.657.104-1.173.224-1.173zM53.315 155.634c.12 0 .2.53.192 1.18-.008.65-.12 1.181-.232 1.174-.113-.008-.2-.532-.185-1.181.016-.65.112-1.181.225-1.173zM53.427 150.91c.112 0 .192.53.176 1.18-.016.65-.12 1.182-.232 1.182-.112 0-.2-.54-.185-1.19.016-.65.12-1.18.24-1.172zM53.635 146.186c.112 0 .184.539.16 1.189-.024.65-.144 1.173-.256 1.173-.112 0-.184-.54-.16-1.19.024-.65.096-1.18.256-1.172zM53.867 141.47c.12 0 .176.539.136 1.189-.04.65-.176 1.173-.288 1.165-.112-.008-.176-.54-.128-1.189.048-.65.168-1.173.28-1.165zM54.307 136.77c.112 0 .152.547.088 1.189s-.216 1.165-.328 1.157c-.112-.008-.152-.547-.088-1.197s.216-1.165.328-1.15zM54.771 133.259c.113 0 .169.293.12.618-.047.325-.176.57-.296.555-.12-.016-.168-.294-.12-.619.048-.325.176-.57.296-.554z" transform="translate(101.666 71.333)"/>
            <path fill="#455A64" d="M36.76 251.434L59.463 251.799 59.286 248.05 36.76 248.169zM51.65 110.963c.075.285.12.577.136.872.056.555.128 1.363.216 2.378.16 1.997.352 4.755.544 7.823.088 1.53.176 2.98.256 4.311-.013 1.163.127 2.322.416 3.448.234.737.756 1.35 1.45 1.704.258.105.526.185.8.238-.076.018-.156.018-.232 0-.225 0-.447-.04-.657-.119-.777-.328-1.381-.963-1.665-1.752-.339-1.146-.514-2.333-.52-3.527-.088-1.331-.184-2.782-.288-4.311-.192-3.052-.336-5.826-.425-7.831-.048-1.007-.072-1.815-.088-2.378-.018-.287.001-.574.056-.856zM53.85 112.826c0 .047-.175.19-.2.523-.012.177.048.352.169.483.16.124.374.154.562.079.189-.076.322-.244.35-.443-.01-.177-.091-.342-.224-.46-.248-.23-.504-.182-.52-.238-.016-.055.272-.246.688 0 .25.146.41.404.433.69-.005.355-.231.67-.569.792-.342.152-.743.072-1-.198-.185-.22-.25-.516-.176-.792.128-.428.488-.492.488-.436zM74.056 116.178c-.531.364-1.144.595-1.785.674-1.54.303-3.136.129-4.571-.5-1.431-.644-2.63-1.706-3.434-3.043-.362-.526-.595-1.129-.68-1.76.071 0 .287.666.936 1.586 1.68 2.52 4.683 3.85 7.7 3.408 1.138-.135 1.81-.428 1.834-.365zM38.353 110.963c.105.508.077 1.035-.08 1.53-.587 2.534-2.75 4.41-5.364 4.652-.517.09-1.05.046-1.545-.127 0-.07.593 0 1.505-.166 1.184-.196 2.291-.709 3.202-1.482.894-.799 1.554-1.82 1.914-2.957.28-.887.296-1.45.368-1.45z" transform="translate(101.666 71.333)"/>
            <path fill="#FFBE9D" d="M99.152 95.8c4.404-5.018 4.377-12.49-.064-17.476L77.65 54.284l-5.723 15.853c.384.253 16.666 17.54 16.666 17.54l-13.969 17.262c-2.153 2.662-2.778 6.231-1.657 9.456l3.739 9.06 10.23-4.566-.8-1.181H78.45l-.456-1.823 21.157-20.084z" transform="translate(101.666 71.333)"/>
            <path fill="#455A64" d="M10.767 13.236s3.354 3.916 6.82-.737c2.73-3.654 3.315-8.18 1.13-10.097l.712-.468s3.65 2.378 2 7.45c-1.648 5.073-5.202 7.752-7.724 7.356-2.522-.397-3.202-3.02-3.202-3.02l.248-.73" transform="translate(101.666 71.333)"/>
            <path fill="#FFBE9D" d="M32.741 51.217s-21.486 8.774-20.997 8.227l-.537-26.155H2.794s-5.98 34.414.44 38.464c8.758 5.549 29.98-5.992 29.98-5.992l-.473-14.544z" transform="translate(101.666 71.333)"/>
            <path fill="#FFBE9D" d="M9.494 22.716L9.454 22.993 7.845 34.367 2.794 33.321 3.442 26.774" transform="translate(101.666 71.333)"/>
            <path fill="#FFBE9D" d="M11.071 21.59L7.573 33.907l3.114.61s.44-.903 1.457-3.574c.707-1.932.641-4.059-.184-5.945 0 0 2.818-6.34 1.729-6.594-1.089-.254-2.618 3.186-2.618 3.186z" transform="translate(101.666 71.333)"/>
            <path fill="#263238" d="M13.793 16.51c-.184.53-7.669 18.863-7.669 18.863l-1.873-1.038 7.525-19.482 2.017 1.657z" transform="translate(101.666 71.333)"/>
            <path fill="#FFBE9D" d="M3.026 32.354s-.913-5.39.088-7.062c.36-.603 5.516-7.633 5.892-7.411.376.222 2.602 6.452 1.4 6.69-.726.068-1.408-.36-1.656-1.039 0 0 1.545 3.836.456 3.9-1.089.063-2.01-2.315-2.01-2.315s2.29 4.526.857 4.756c-1.433.23-3.402-3.488-3.402-3.488l-1.625 5.969z" transform="translate(101.666 71.333)"/>
            <path fill="#EB996E" d="M7.765 20.385c.501.78.887 1.625 1.145 2.513.106.325.235.643.384.951.123.23.309.419.536.547.4.222.72.198.729.262.008.063-.328.198-.857 0-.306-.123-.564-.34-.736-.619-.188-.32-.339-.66-.448-1.014-.383-.838-.636-1.728-.753-2.64zM6.172 22.13c.12 0 .865 2.068 2.113 4.509.144.31.297.579.513.658.093.048.205.047.297-.004.092-.052.152-.145.159-.25.056-.26.07-.528.04-.792-.008-.242-.029-.483-.064-.722-.12-.871-.304-1.402-.248-1.426.287.41.471.883.536 1.379.056.246.096.494.12.745.052.299.052.604 0 .903-.045.198-.166.371-.336.484-.204.102-.444.102-.648 0-.345-.18-.608-.484-.737-.848-.82-1.447-1.409-3.011-1.745-4.637z" transform="translate(101.666 71.333)"/>
            <path fill="#EB996E" d="M4.803 24.745c.342.416.632.87.865 1.355l.8 1.514.48.903c.147.315.324.615.529.896.159.229.467.301.712.167.213-.183.314-.463.264-.738-.136-.538-.308-1.068-.512-1.585-.215-.49-.363-1.008-.44-1.537.298.446.537.928.712 1.434l.32.745c.138.29.238.597.297.912.081.412-.073.835-.4 1.101-.194.148-.444.2-.681.143-.226-.05-.428-.173-.576-.349-.237-.304-.433-.637-.585-.99l-.456-.912c-.272-.547-.52-1.062-.76-1.585-.25-.466-.442-.962-.569-1.474z" transform="translate(101.666 71.333)"/>
            <path fill="#263238" d="M14.201 17.318c-.623.004-1.24-.123-1.809-.372-1.65-.81-2.769-2.397-2.97-4.209-.552-4.286 1.34-8.522 4.915-11.001 1.456-1.137 3.427-1.382 5.12-.637 1.695.745 2.833 2.357 2.958 4.188.31 2.104-.004 4.252-.905 6.182-1.561 3.59-4.571 5.85-7.309 5.85zm3.434-15.06c-.872.033-1.718.308-2.441.793-3.033 2.132-4.643 5.737-4.195 9.393.121 1.285.889 2.424 2.041 3.027 2.242.983 5.468-1.157 7.037-4.668.779-1.642 1.057-3.474.8-5.27-.116-1.286-.881-2.425-2.033-3.028-.39-.162-.81-.238-1.233-.222l.024-.024z" transform="translate(101.666 71.333)"/>
            <path fill="#D74C41" d="M89.01 64.446L75.489 50.972c-2.595-2.692-5.792-4.742-9.334-5.984-1.88-.673-3.854-1.048-5.852-1.11-4.601 1.434-9.536 1.434-14.137 0-3.87.418-7.64 1.49-11.143 3.17l-20.19 8.109 6.469 17.674 10.823-3.606.64 16.645-2.137 24.871 41.907.428-.544-22.55V72.3l6.044 5.826 10.975-13.68z" transform="translate(101.666 71.333)"/>
            <path fill="#263238" d="M77.65 54.483c-.174.316-.372.618-.592.903-.622.835-1.345 1.591-2.153 2.251-1.286 1.051-2.757 1.858-4.34 2.378-2.102.691-4.348.836-6.523.42-2.652-.49-5.094-1.76-7.005-3.646-.512-.535-.934-1.147-1.249-1.815-.355-.7-.484-1.491-.368-2.267.154-.826.711-1.524 1.489-1.862.79-.31 1.668-.31 2.457 0 .812.287 1.495.849 1.93 1.585.395.769.574 1.628.52 2.489-.157 1.744-.84 3.401-1.961 4.755-2.315 2.873-5.75 4.64-9.454 4.867-1.862.123-3.726-.178-5.452-.88-1.71-.661-3.158-1.85-4.13-3.392-.93-1.544-1.014-3.447-.225-5.065.85-1.563 2.646-2.375 4.395-1.99.826.21 1.531.742 1.953 1.475.402.698.591 1.496.545 2.298-.14 1.543-1.038 2.919-2.402 3.678-1.209.715-2.594 1.086-4.002 1.07-1.283-.02-2.558-.185-3.803-.491-2.164-.4-4.238-1.182-6.124-2.307-1.418-.893-2.52-2.2-3.154-3.74-.408-.97-.541-2.03-.384-3.068.048-.36.15-.71.304-1.038 0 0-.128.356-.224 1.054-.114 1.018.044 2.048.456 2.988.64 1.495 1.734 2.755 3.13 3.606 1.87 1.093 3.922 1.845 6.06 2.22 1.225.29 2.48.441 3.739.451 1.352.018 2.683-.339 3.842-1.03 1.253-.71 2.073-1.984 2.194-3.408.046-.731-.127-1.459-.497-2.093-.375-.645-1-1.111-1.729-1.292-1.573-.333-3.18.4-3.946 1.8-.722 1.498-.635 3.255.232 4.676.923 1.466 2.302 2.595 3.93 3.218 1.668.675 3.47.965 5.268.848 3.575-.217 6.892-1.918 9.134-4.685 1.076-1.282 1.735-2.857 1.889-4.517.058-.789-.102-1.578-.465-2.283-.386-.661-.995-1.166-1.72-1.427-.7-.273-1.478-.273-2.178 0-.667.283-1.145.879-1.273 1.586-.1.7.014 1.416.328 2.052.299.636.696 1.222 1.177 1.736 1.857 1.844 4.23 3.092 6.813 3.583 2.129.433 4.335.313 6.404-.35 1.564-.49 3.024-1.26 4.306-2.274.811-.64 1.547-1.369 2.194-2.172.432-.586.664-.903.664-.895zM70.782 89.69c-.249.165-.518.298-.8.396-.842.295-1.737.411-2.626.34-1.42-.11-2.793-.555-4.003-1.299-1.566-.984-2.998-2.164-4.259-3.511-.805-.75-1.391-1.7-1.697-2.75-.128-.585-.095-1.193.096-1.76.184-.61.6-1.124 1.161-1.435.6-.292 1.297-.324 1.921-.087.62.234 1.17.618 1.601 1.118.865 1.062 1.304 2.402 1.233 3.765-.041 1.436-.54 2.823-1.425 3.963-.939 1.15-2.192 2.008-3.61 2.472-1.454.487-3.004.628-4.523.413-1.555-.236-3.052-.752-4.419-1.522-1.368-.751-2.624-1.687-3.73-2.782-1.142-1.063-1.832-2.517-1.93-4.066-.03-.765.165-1.522.56-2.18.408-.641 1.015-1.134 1.73-1.403 1.397-.503 2.957-.26 4.13.642 1.047.905 1.658 2.207 1.682 3.583.038 1.282-.363 2.539-1.137 3.567-1.43 1.784-3.524 2.927-5.812 3.17-4.115.444-7.517-.468-9.414-1.783-.743-.493-1.357-1.153-1.793-1.926-.11-.198-.2-.405-.272-.619-.034-.07-.058-.145-.072-.222 0 0 .112.294.424.793.448.74 1.065 1.368 1.801 1.83 1.873 1.245 5.26 2.11 9.286 1.634 2.211-.25 4.23-1.366 5.604-3.1.724-.966 1.094-2.149 1.048-3.352-.033-1.277-.615-2.48-1.6-3.305-1.067-.81-2.478-1.023-3.74-.563-.633.232-1.171.668-1.528 1.237-.35.595-.522 1.277-.496 1.965.1 1.445.75 2.798 1.817 3.789 1.078 1.066 2.301 1.978 3.634 2.71 1.324.742 2.772 1.241 4.275 1.475 1.454.207 2.938.074 4.33-.389 1.347-.44 2.538-1.25 3.435-2.338.83-1.058 1.303-2.347 1.353-3.685.075-1.271-.327-2.525-1.129-3.52-.388-.455-.887-.807-1.449-1.022-.519-.203-1.1-.18-1.6.063-.943.605-1.385 1.74-1.098 2.814.288 1 .841 1.906 1.601 2.624 1.237 1.338 2.638 2.518 4.171 3.51 1.162.74 2.484 1.2 3.859 1.34.868.088 1.745-.001 2.577-.261.545-.198.825-.357.833-.333z" transform="translate(101.666 71.333)"/>
        </g>
    </g>
</svg>
