<svg xmlns="http://www.w3.org/2000/svg" width="518" height="315" viewBox="0 0 518 315">
    <g fill="none" fill-rule="evenodd">
        <g>
            <g>
                <g fill-rule="nonzero" transform="translate(-150 -5132) translate(150 5132) translate(14.832 39.811)">
                    <path fill="#F5F5F5" d="M222.475 263.848c9.992-6.979 12.256-19.937 11.866-31.584-.07-1.943.148-3.989-.78-5.698-.93-1.71-3.084-2.873-4.825-2.053-1.436.679-2.069 2.342-2.88 3.747-1.075 1.856-2.657 3.367-4.56 4.356-1.233.64-2.763 1.038-3.988.359-1.679-.921-1.874-3.24-1.858-5.176 0-3.601.02-7.202.062-10.804.116-1.934-.081-3.874-.585-5.745-.52-1.883-1.923-3.394-3.763-4.051-1.842-.515-4.114.538-4.504 2.435-.073.8-.091 1.603-.055 2.405.028.82-.444 1.576-1.194 1.912-.78.226-1.561-.32-2.123-.882-1.907-2.057-3.466-4.412-4.614-6.97-1.146-2.558-2.59-4.97-4.3-7.19-1.812-2.131-4.318-3.818-7.089-3.974-2.77-.156-5.714 1.562-6.416 4.27-.703 2.709.89 5.465 2.615 7.697 2.565 3.284 5.594 6.176 8.992 8.587.657.369 1.18.934 1.5 1.616.42 1.296-.781 2.576-2.077 2.997-1.437.477-3.006.328-4.512.508-1.507.18-3.123.843-3.708 2.264-.78 1.974.858 4.05 2.49 5.41 3.253 2.716 6.95 4.852 10.929 6.314 1.465.404 2.844 1.073 4.067 1.975 1.147 1 1.842 2.74 1.147 4.099-.695 1.358-2.474 1.795-3.965 1.522-1.491-.273-2.818-1.085-4.24-1.624-2.653-1-6.088-.82-7.805 1.483-1.054 1.602-1.294 3.605-.648 5.41.645 1.773 1.64 3.397 2.927 4.777 4.211 5.056 9.687 8.905 15.87 11.155 6.167 2.14 11.881 2.717 18.001.476"/>
                    <path fill="#E0E0E0" d="M222.616 272.513c-.542-5.4-1.6-10.735-3.162-15.932-1.928-6.348-4.224-12.577-6.877-18.657-.695-1.616-1.374-3.216-2.053-4.793-.679-1.577-1.35-3.123-2.1-4.621-1.45-2.847-3.055-5.612-4.808-8.283-1.655-2.56-3.318-4.933-4.895-7.135-1.577-2.2-3.122-4.23-4.543-6.018-2.283-2.831-4.786-5.478-7.486-7.916-.952-.858-1.717-1.506-2.24-1.935l-.594-.484-.21-.157s.054.07.187.188l.57.507c.507.453 1.257 1.109 2.193 1.99 2.66 2.466 5.13 5.13 7.385 7.97 1.436 1.788 2.935 3.818 4.496 6.027 1.562 2.21 3.216 4.582 4.864 7.143 1.74 2.665 3.333 5.425 4.77 8.266.78 1.476 1.412 3.021 2.091 4.598l2.045 4.817c2.643 6.07 4.944 12.283 6.893 18.61 1.571 5.174 2.65 10.485 3.224 15.862"/>
                    <path fill="#E0E0E0" d="M208.323 228.494c.088-.254.15-.515.187-.78.102-.54.227-1.312.36-2.28.272-1.92.561-4.59.866-7.54.304-2.952.632-5.606.929-7.526.148-.952.28-1.733.374-2.264.067-.273.103-.553.11-.835-.11.25-.194.513-.25.78-.133.531-.297 1.296-.476 2.257-.367 1.912-.734 4.574-1.039 7.525-.304 2.95-.562 5.542-.78 7.548-.094.914-.18 1.679-.242 2.288-.045.273-.058.55-.04.827zM183.445 223.85c.325.072.657.11.991.116.632.063 1.561.14 2.693.274 2.28.242 5.41.694 8.845 1.342 3.434.648 6.518 1.374 8.735 1.96 1.108.288 2.006.546 2.622.718.315.107.64.186.968.234-.298-.15-.609-.272-.928-.367-.61-.219-1.491-.507-2.592-.827-2.21-.656-5.293-1.421-8.735-2.077-2.94-.565-5.908-.98-8.891-1.241-1.14-.101-2.07-.14-2.71-.148-.332-.027-.667-.022-.998.015zM219.15 256.12s.07-.102.172-.305c.101-.202.257-.538.421-.897.367-.78.867-1.928 1.468-3.357 1.202-2.841 2.732-6.83 4.363-11.249 1.632-4.418 3.123-8.422 4.263-11.287.562-1.398 1.022-2.545 1.358-3.396l.367-.921c.078-.219.117-.328.101-.336-.07.094-.127.197-.171.305-.11.242-.25.538-.422.897-.367.781-.866 1.929-1.46 3.357-1.202 2.842-2.732 6.83-4.371 11.249-1.64 4.418-3.123 8.415-4.262 11.287-.555 1.398-1.015 2.545-1.359 3.396-.148.367-.265.671-.359.921-.05.107-.088.22-.109.336z"/>
                    <path fill="#E0E0E0" d="M186.122 245.472s.11.063.328.133l.952.328 3.544 1.147c2.982.968 7.096 2.342 11.632 3.903 4.535 1.562 8.664 2.889 11.709 3.794 1.499.453 2.724.78 3.567 1.038l.976.258c.113.04.231.061.351.063-.103-.059-.213-.104-.328-.133l-.96-.328-3.536-1.14c-2.982-.968-7.096-2.342-11.639-3.903-4.543-1.561-8.665-2.88-11.67-3.794-1.499-.452-2.725-.78-3.575-1.03l-.976-.258c-.122-.038-.248-.064-.375-.078zM311.801 85.712H377.716V139.98000000000002H311.801z"/>
                    <path fill="#F5F5F5" d="M302.176 122.244H374.235V140.12H302.176z"/>
                    <path fill="#E0E0E0" d="M325.001 127.06c0 .432-.349.781-.78.781-.431 0-.78-.35-.78-.78 0-.431.349-.78.78-.78.431 0 .78.349.78.78zM328.592 127.06c0 .432-.35.781-.78.781-.431 0-.781-.35-.781-.78 0-.431.35-.78.78-.78.432 0 .781.349.781.78zM332.183 127.06c0 .432-.35.781-.78.781-.432 0-.781-.35-.781-.78 0-.431.35-.78.78-.78.432 0 .781.349.781.78zM335.774 127.06c0 .432-.35.781-.78.781-.432 0-.781-.35-.781-.78 0-.431.35-.78.78-.78.431 0 .78.349.78.78zM363.61 127.06c0 .427-.342.774-.768.78-.425.007-.778-.329-.792-.754-.014-.426.316-.785.741-.806.214-.01.422.067.577.215.155.147.243.352.243.566zM367.272 127.06c0 .427-.343.774-.768.78-.426.007-.779-.329-.793-.754-.014-.426.316-.785.741-.806.214-.01.423.067.578.215.154.147.242.352.242.566zM339.365 127.06c0 .432-.35.781-.78.781-.432 0-.781-.35-.781-.78 0-.431.349-.78.78-.78.431 0 .78.349.78.78zM357.007 127.06c0 .432-.35.781-.78.781-.432 0-.782-.35-.782-.78 0-.431.35-.78.781-.78.431 0 .78.349.78.78zM342.956 127.06c0 .432-.35.781-.781.781-.431 0-.78-.35-.78-.78 0-.431.349-.78.78-.78.431 0 .78.349.78.78zM346.546 127.06c0 .432-.35.781-.78.781-.431 0-.78-.35-.78-.78 0-.431.349-.78.78-.78.43 0 .78.349.78.78zM353.837 127.06c0 .432-.35.781-.78.781-.431 0-.78-.35-.78-.78 0-.431.349-.78.78-.78.43 0 .78.349.78.78zM370.246 127.06c0 .432-.35.781-.78.781-.432 0-.781-.35-.781-.78 0-.431.35-.78.78-.78.431 0 .78.349.78.78zM350.145 127.06c0 .427-.342.774-.768.78-.426.007-.779-.329-.793-.754-.014-.426.316-.785.741-.806.214-.01.423.067.578.215.155.147.242.352.242.566zM360.426 127.06c0 .432-.35.781-.78.781-.432 0-.781-.35-.781-.78 0-.431.349-.78.78-.78.431 0 .78.349.78.78zM368.622 130.987c0-.43.35-.78.78-.78.432 0 .781.35.781.78 0 .431-.349.78-.78.78-.431 0-.78-.349-.78-.78zM365.031 130.987c0-.43.35-.78.781-.78.431 0 .78.35.78.78 0 .431-.349.78-.78.78-.431 0-.78-.349-.78-.78zM361.425 130.987c0-.43.35-.78.78-.78.432 0 .781.35.781.78 0 .431-.35.78-.78.78-.432 0-.781-.349-.781-.78zM357.85 130.987c0-.43.35-.78.78-.78.431 0 .781.35.781.78 0 .431-.35.78-.78.78-.432 0-.781-.349-.781-.78zM330.013 130.987c0-.43.35-.78.78-.78.432 0 .781.35.781.78 0 .431-.35.78-.78.78-.432 0-.781-.349-.781-.78zM326.352 130.987c0-.43.35-.78.78-.78.432 0 .781.35.781.78 0 .431-.35.78-.78.78-.432 0-.781-.349-.781-.78zM354.259 130.987c0-.43.35-.78.78-.78.432 0 .781.35.781.78 0 .431-.35.78-.78.78-.432 0-.781-.349-.781-.78zM336.617 130.987c0-.43.35-.78.78-.78.432 0 .781.35.781.78 0 .431-.35.78-.78.78-.432 0-.781-.349-.781-.78zM350.66 130.987c0-.426.343-.773.769-.78.425-.006.778.33.792.756.014.425-.316.784-.741.805-.214.01-.423-.067-.577-.214-.155-.148-.243-.353-.243-.567zM347.07 130.987c0-.426.342-.773.768-.78.426-.006.778.33.792.756.014.425-.316.784-.74.805-.215.01-.423-.067-.578-.214-.155-.148-.243-.353-.243-.567zM339.786 130.987c0-.43.35-.78.78-.78.432 0 .782.35.782.78 0 .431-.35.78-.781.78-.431 0-.78-.349-.78-.78zM323.37 130.987c0-.426.342-.773.768-.78.426-.006.779.33.793.756.014.425-.316.784-.741.805-.214.01-.423-.067-.578-.214-.155-.148-.242-.353-.242-.567zM343.47 130.987c0-.43.35-.78.781-.78.432 0 .781.35.781.78 0 .431-.35.78-.78.78-.432 0-.781-.349-.781-.78zM333.198 130.987c0-.43.35-.78.78-.78.432 0 .781.35.781.78 0 .431-.35.78-.78.78-.432 0-.781-.349-.781-.78zM325.001 134.477c0 .43-.349.78-.78.78-.431 0-.78-.35-.78-.78 0-.431.349-.781.78-.781.431 0 .78.35.78.78zM328.592 134.477c0 .43-.35.78-.78.78-.431 0-.781-.35-.781-.78 0-.431.35-.781.78-.781.432 0 .781.35.781.78zM332.183 134.477c0 .43-.35.78-.78.78-.432 0-.781-.35-.781-.78 0-.431.35-.781.78-.781.432 0 .781.35.781.78zM335.774 134.477c0 .43-.35.78-.78.78-.432 0-.781-.35-.781-.78 0-.431.35-.781.78-.781.431 0 .78.35.78.78z"/>
                    <circle cx="362.791" cy="134.477" r="1" fill="#E0E0E0"/>
                    <circle cx="366.452" cy="134.477" r="1" fill="#E0E0E0"/>
                    <path fill="#E0E0E0" d="M339.365 134.477c0 .43-.35.78-.78.78-.432 0-.781-.35-.781-.78 0-.431.349-.781.78-.781.431 0 .78.35.78.78z"/>
                    <circle cx="356.195" cy="134.477" r="1" fill="#E0E0E0"/>
                    <path fill="#E0E0E0" d="M342.956 134.477c0 .43-.35.78-.781.78-.431 0-.78-.35-.78-.78 0-.431.349-.781.78-.781.431 0 .78.35.78.78zM346.546 134.477c0 .43-.35.78-.78.78-.431 0-.78-.35-.78-.78 0-.431.349-.781.78-.781.43 0 .78.35.78.78z"/>
                    <circle cx="353.026" cy="134.477" r="1" fill="#E0E0E0"/>
                    <path fill="#E0E0E0" d="M370.246 134.477c0 .43-.35.78-.78.78-.432 0-.781-.35-.781-.78 0-.431.35-.781.78-.781.431 0 .78.35.78.78zM350.145 134.477c0 .426-.342.772-.768.78-.426.006-.779-.33-.793-.756-.014-.425.316-.784.741-.805.214-.01.423.067.578.214.155.148.242.353.242.567z"/>
                    <circle cx="359.614" cy="134.477" r="1" fill="#E0E0E0"/>
                    <path fill="#E0E0E0" d="M305.377 125.921H319.569V128.107H305.377zM305.377 129.676H319.569V131.862H305.377zM305.377 133.563H319.569V135.749H305.377zM385.07 139.949L374.243 139.98 374.243 122.268 385.07 122.237z"/>
                    <path fill="#F5F5F5" d="M302.176 100.887H374.235V118.763H302.176z"/>
                    <path fill="#E0E0E0" d="M325.001 105.703c0 .431-.349.78-.78.78-.431 0-.78-.349-.78-.78 0-.431.349-.78.78-.78.431 0 .78.349.78.78zM328.592 105.703c0 .431-.35.78-.78.78-.431 0-.781-.349-.781-.78 0-.431.35-.78.78-.78.432 0 .781.349.781.78zM332.183 105.703c0 .431-.35.78-.78.78-.432 0-.781-.349-.781-.78 0-.431.35-.78.78-.78.432 0 .781.349.781.78zM335.774 105.703c0 .431-.35.78-.78.78-.432 0-.781-.349-.781-.78 0-.431.35-.78.78-.78.431 0 .78.349.78.78zM363.61 105.703c0 .426-.342.773-.768.78-.425.006-.778-.33-.792-.755-.014-.426.316-.784.741-.805.214-.011.422.066.577.214.155.147.243.352.243.566zM367.272 105.703c0 .426-.343.773-.768.78-.426.006-.779-.33-.793-.755-.014-.426.316-.784.741-.805.214-.011.423.066.578.214.154.147.242.352.242.566zM339.365 105.703c0 .431-.35.78-.78.78-.432 0-.781-.349-.781-.78 0-.431.349-.78.78-.78.431 0 .78.349.78.78zM357.007 105.703c0 .431-.35.78-.78.78-.432 0-.782-.349-.782-.78 0-.431.35-.78.781-.78.431 0 .78.349.78.78zM342.956 105.703c0 .431-.35.78-.781.78-.431 0-.78-.349-.78-.78 0-.431.349-.78.78-.78.431 0 .78.349.78.78zM346.546 105.703c0 .431-.35.78-.78.78-.431 0-.78-.349-.78-.78 0-.431.349-.78.78-.78.43 0 .78.349.78.78zM353.837 105.703c0 .431-.35.78-.78.78-.431 0-.78-.349-.78-.78 0-.431.349-.78.78-.78.43 0 .78.349.78.78zM370.246 105.703c0 .431-.35.78-.78.78-.432 0-.781-.349-.781-.78 0-.431.35-.78.78-.78.431 0 .78.349.78.78zM350.145 105.703c0 .426-.342.773-.768.78-.426.006-.779-.33-.793-.755-.014-.426.316-.784.741-.805.214-.011.423.066.578.214.155.147.242.352.242.566zM360.426 105.703c0 .431-.35.78-.78.78-.432 0-.781-.349-.781-.78 0-.431.349-.78.78-.78.431 0 .78.349.78.78zM368.622 109.63c0-.431.35-.781.78-.781.432 0 .781.35.781.78 0 .432-.349.781-.78.781-.431 0-.78-.35-.78-.78zM365.031 109.63c0-.431.35-.781.781-.781.431 0 .78.35.78.78 0 .432-.349.781-.78.781-.431 0-.78-.35-.78-.78zM361.425 109.63c0-.431.35-.781.78-.781.432 0 .781.35.781.78 0 .432-.35.781-.78.781-.432 0-.781-.35-.781-.78zM357.85 109.63c0-.431.35-.781.78-.781.431 0 .781.35.781.78 0 .432-.35.781-.78.781-.432 0-.781-.35-.781-.78zM330.013 109.63c0-.431.35-.781.78-.781.432 0 .781.35.781.78 0 .432-.35.781-.78.781-.432 0-.781-.35-.781-.78zM326.352 109.63c0-.431.35-.781.78-.781.432 0 .781.35.781.78 0 .432-.35.781-.78.781-.432 0-.781-.35-.781-.78zM354.259 109.63c0-.431.35-.781.78-.781.432 0 .781.35.781.78 0 .432-.35.781-.78.781-.432 0-.781-.35-.781-.78zM336.617 109.63c0-.431.35-.781.78-.781.432 0 .781.35.781.78 0 .432-.35.781-.78.781-.432 0-.781-.35-.781-.78zM350.66 109.63c0-.426.343-.773.769-.78.425-.007.778.33.792.755.014.426-.316.784-.741.805-.214.011-.423-.067-.577-.214-.155-.148-.243-.352-.243-.566zM347.07 109.63c0-.426.342-.773.768-.78.426-.007.778.33.792.755.014.426-.316.784-.74.805-.215.011-.423-.067-.578-.214-.155-.148-.243-.352-.243-.566zM339.786 109.63c0-.431.35-.781.78-.781.432 0 .782.35.782.78 0 .432-.35.781-.781.781-.431 0-.78-.35-.78-.78zM323.37 109.63c0-.426.342-.773.768-.78.426-.007.779.33.793.755.014.426-.316.784-.741.805-.214.011-.423-.067-.578-.214-.155-.148-.242-.352-.242-.566zM343.47 109.63c0-.431.35-.781.781-.781.432 0 .781.35.781.78 0 .432-.35.781-.78.781-.432 0-.781-.35-.781-.78zM333.198 109.63c0-.431.35-.781.78-.781.432 0 .781.35.781.78 0 .432-.35.781-.78.781-.432 0-.781-.35-.781-.78zM325.001 113.119c0 .431-.349.78-.78.78-.431 0-.78-.349-.78-.78 0-.431.349-.78.78-.78.431 0 .78.349.78.78zM328.592 113.119c0 .431-.35.78-.78.78-.431 0-.781-.349-.781-.78 0-.431.35-.78.78-.78.432 0 .781.349.781.78zM332.183 113.119c0 .431-.35.78-.78.78-.432 0-.781-.349-.781-.78 0-.431.35-.78.78-.78.432 0 .781.349.781.78zM335.774 113.119c0 .431-.35.78-.78.78-.432 0-.781-.349-.781-.78 0-.431.35-.78.78-.78.431 0 .78.349.78.78zM363.61 113.119c0 .426-.342.773-.768.78-.425.006-.778-.33-.792-.755-.014-.426.316-.784.741-.806.214-.01.422.067.577.215.155.147.243.352.243.566zM367.272 113.119c0 .426-.343.773-.768.78-.426.006-.779-.33-.793-.755-.014-.426.316-.784.741-.806.214-.01.423.067.578.215.154.147.242.352.242.566zM339.365 113.119c0 .431-.35.78-.78.78-.432 0-.781-.349-.781-.78 0-.431.349-.78.78-.78.431 0 .78.349.78.78zM357.007 113.119c0 .431-.35.78-.78.78-.432 0-.782-.349-.782-.78 0-.431.35-.78.781-.78.431 0 .78.349.78.78zM342.956 113.119c0 .431-.35.78-.781.78-.431 0-.78-.349-.78-.78 0-.431.349-.78.78-.78.431 0 .78.349.78.78zM346.546 113.119c0 .431-.35.78-.78.78-.431 0-.78-.349-.78-.78 0-.431.349-.78.78-.78.43 0 .78.349.78.78zM353.837 113.119c0 .431-.35.78-.78.78-.431 0-.78-.349-.78-.78 0-.431.349-.78.78-.78.43 0 .78.349.78.78zM370.246 113.119c0 .431-.35.78-.78.78-.432 0-.781-.349-.781-.78 0-.431.35-.78.78-.78.431 0 .78.349.78.78zM350.145 113.119c0 .426-.342.773-.768.78-.426.006-.779-.33-.793-.755-.014-.426.316-.784.741-.806.214-.01.423.067.578.215.155.147.242.352.242.566zM360.426 113.119c0 .431-.35.78-.78.78-.432 0-.781-.349-.781-.78 0-.431.349-.78.78-.78.431 0 .78.349.78.78zM305.377 104.563H319.569V106.749H305.377zM305.377 108.318H319.569V110.50399999999999H305.377zM305.377 112.206H319.569V114.392H305.377zM385.07 118.591L374.243 118.622 374.243 100.91 385.07 100.887z"/>
                    <path fill="#F5F5F5" d="M302.176 80.224H374.235V98.10000000000001H302.176z"/>
                    <path fill="#E0E0E0" d="M325.001 85.087c0 .431-.349.78-.78.78-.431 0-.78-.349-.78-.78 0-.431.349-.78.78-.78.431 0 .78.349.78.78zM328.592 85.087c0 .431-.35.78-.78.78-.431 0-.781-.349-.781-.78 0-.431.35-.78.78-.78.432 0 .781.349.781.78zM332.183 85.087c0 .431-.35.78-.78.78-.432 0-.781-.349-.781-.78 0-.431.35-.78.78-.78.432 0 .781.349.781.78zM335.774 85.087c0 .431-.35.78-.78.78-.432 0-.781-.349-.781-.78 0-.431.35-.78.78-.78.431 0 .78.349.78.78zM363.61 85.087c0 .426-.342.773-.768.78-.425.006-.778-.33-.792-.755-.014-.426.316-.784.741-.806.214-.01.422.067.577.215.155.147.243.352.243.566zM367.272 85.087c0 .426-.343.773-.768.78-.426.006-.779-.33-.793-.755-.014-.426.316-.784.741-.806.214-.01.423.067.578.215.154.147.242.352.242.566zM339.365 85.087c0 .431-.35.78-.78.78-.432 0-.781-.349-.781-.78 0-.431.349-.78.78-.78.431 0 .78.349.78.78zM357.007 85.087c0 .431-.35.78-.78.78-.432 0-.782-.349-.782-.78 0-.431.35-.78.781-.78.431 0 .78.349.78.78zM342.956 85.087c0 .431-.35.78-.781.78-.431 0-.78-.349-.78-.78 0-.431.349-.78.78-.78.431 0 .78.349.78.78zM346.546 85.087c0 .431-.35.78-.78.78-.431 0-.78-.349-.78-.78 0-.431.349-.78.78-.78.43 0 .78.349.78.78zM353.837 85.087c0 .431-.35.78-.78.78-.431 0-.78-.349-.78-.78 0-.431.349-.78.78-.78.43 0 .78.349.78.78zM370.246 85.087c0 .431-.35.78-.78.78-.432 0-.781-.349-.781-.78 0-.431.35-.78.78-.78.431 0 .78.349.78.78zM350.145 85.087c0 .426-.342.773-.768.78-.426.006-.779-.33-.793-.755-.014-.426.316-.784.741-.806.214-.01.423.067.578.215.155.147.242.352.242.566zM360.426 85.087c0 .431-.35.78-.78.78-.432 0-.781-.349-.781-.78 0-.431.349-.78.78-.78.431 0 .78.349.78.78zM368.622 88.99c0-.431.35-.78.78-.78.432 0 .781.349.781.78 0 .431-.349.78-.78.78-.431 0-.78-.349-.78-.78zM365.031 88.99c0-.431.35-.78.781-.78.431 0 .78.349.78.78 0 .431-.349.78-.78.78-.431 0-.78-.349-.78-.78zM361.425 88.99c0-.431.35-.78.78-.78.432 0 .781.349.781.78 0 .431-.35.78-.78.78-.432 0-.781-.349-.781-.78zM357.85 88.99c0-.431.35-.78.78-.78.431 0 .781.349.781.78 0 .431-.35.78-.78.78-.432 0-.781-.349-.781-.78zM330.013 88.99c0-.431.35-.78.78-.78.432 0 .781.349.781.78 0 .431-.35.78-.78.78-.432 0-.781-.349-.781-.78zM326.352 88.99c0-.431.35-.78.78-.78.432 0 .781.349.781.78 0 .431-.35.78-.78.78-.432 0-.781-.349-.781-.78zM354.259 88.99c0-.431.35-.78.78-.78.432 0 .781.349.781.78 0 .431-.35.78-.78.78-.432 0-.781-.349-.781-.78zM336.617 88.99c0-.431.35-.78.78-.78.432 0 .781.349.781.78 0 .431-.35.78-.78.78-.432 0-.781-.349-.781-.78zM350.66 88.99c0-.426.343-.773.769-.78.425-.006.778.33.792.755.014.426-.316.784-.741.806-.214.01-.423-.067-.577-.215-.155-.147-.243-.352-.243-.566zM347.07 88.99c0-.426.342-.773.768-.78.426-.006.778.33.792.755.014.426-.316.784-.74.806-.215.01-.423-.067-.578-.215-.155-.147-.243-.352-.243-.566zM339.786 88.99c0-.431.35-.78.78-.78.432 0 .782.349.782.78 0 .431-.35.78-.781.78-.431 0-.78-.349-.78-.78zM323.37 88.99c0-.426.342-.773.768-.78.426-.006.779.33.793.755.014.426-.316.784-.741.806-.214.01-.423-.067-.578-.215-.155-.147-.242-.352-.242-.566zM343.47 88.99c0-.431.35-.78.781-.78.432 0 .781.349.781.78 0 .431-.35.78-.78.78-.432 0-.781-.349-.781-.78zM333.198 88.99c0-.431.35-.78.78-.78.432 0 .781.349.781.78 0 .431-.35.78-.78.78-.432 0-.781-.349-.781-.78zM325.001 92.456c0 .431-.349.78-.78.78-.431 0-.78-.349-.78-.78 0-.431.349-.78.78-.78.431 0 .78.349.78.78zM328.592 92.456c0 .431-.35.78-.78.78-.431 0-.781-.349-.781-.78 0-.431.35-.78.78-.78.432 0 .781.349.781.78zM332.183 92.456c0 .431-.35.78-.78.78-.432 0-.781-.349-.781-.78 0-.431.35-.78.78-.78.432 0 .781.349.781.78zM335.774 92.456c0 .431-.35.78-.78.78-.432 0-.781-.349-.781-.78 0-.431.35-.78.78-.78.431 0 .78.349.78.78z"/>
                    <circle cx="362.791" cy="92.456" r="1" fill="#E0E0E0"/>
                    <circle cx="366.452" cy="92.456" r="1" fill="#E0E0E0"/>
                    <path fill="#E0E0E0" d="M339.365 92.456c0 .431-.35.78-.78.78-.432 0-.781-.349-.781-.78 0-.431.349-.78.78-.78.431 0 .78.349.78.78z"/>
                    <circle cx="356.195" cy="92.456" r="1" fill="#E0E0E0"/>
                    <path fill="#E0E0E0" d="M342.956 92.456c0 .431-.35.78-.781.78-.431 0-.78-.349-.78-.78 0-.431.349-.78.78-.78.431 0 .78.349.78.78zM346.546 92.456c0 .431-.35.78-.78.78-.431 0-.78-.349-.78-.78 0-.431.349-.78.78-.78.43 0 .78.349.78.78z"/>
                    <circle cx="353.026" cy="92.456" r="1" fill="#E0E0E0"/>
                    <path fill="#E0E0E0" d="M370.246 92.456c0 .431-.35.78-.78.78-.432 0-.781-.349-.781-.78 0-.431.35-.78.78-.78.431 0 .78.349.78.78zM350.145 92.456c0 .426-.342.773-.768.78-.426.006-.779-.33-.793-.755-.014-.426.316-.784.741-.806.214-.01.423.067.578.215.155.147.242.352.242.566z"/>
                    <circle cx="359.614" cy="92.456" r="1" fill="#E0E0E0"/>
                    <path fill="#E0E0E0" d="M305.377 83.908H319.569V86.094H305.377zM305.377 87.663H319.569V89.84899999999999H305.377zM305.377 91.543H319.569V93.72900000000001H305.377zM385.07 97.936L374.243 97.959 374.243 80.255 385.07 80.224zM115.047 84.947H178.285V137.006H115.047z"/>
                    <path fill="#F5F5F5" d="M105.812 119.988H174.94299999999998V137.138H105.812z"/>
                    <path fill="#E0E0E0" d="M127.709 124.617c0 .432-.35.781-.78.781-.432 0-.782-.35-.782-.78 0-.432.35-.781.781-.781.431 0 .78.35.78.78zM131.143 124.617c0 .432-.35.781-.78.781-.431 0-.78-.35-.78-.78 0-.432.349-.781.78-.781.43 0 .78.35.78.78zM134.602 124.617c0 .432-.35.781-.781.781-.431 0-.78-.35-.78-.78 0-.432.349-.781.78-.781.431 0 .78.35.78.78zM138.044 124.617c0 .432-.35.781-.78.781-.432 0-.781-.35-.781-.78 0-.432.35-.781.78-.781.432 0 .781.35.781.78zM164.749 124.617c0 .432-.35.781-.78.781-.432 0-.781-.35-.781-.78 0-.432.35-.781.78-.781.431 0 .78.35.78.78zM168.262 124.617c0 .432-.35.781-.78.781-.432 0-.782-.35-.782-.78 0-.432.35-.781.781-.781.431 0 .78.35.78.78zM141.487 124.617c0 .432-.35.781-.781.781-.431 0-.78-.35-.78-.78 0-.432.349-.781.78-.781.431 0 .78.35.78.78zM158.41 124.617c0 .432-.35.781-.78.781-.431 0-.78-.35-.78-.78 0-.432.349-.781.78-.781.43 0 .78.35.78.78zM144.937 124.617c0 .432-.35.781-.78.781-.432 0-.781-.35-.781-.78 0-.432.35-.781.78-.781.431 0 .78.35.78.78zM148.38 124.617c0 .432-.35.781-.781.781-.431 0-.78-.35-.78-.78 0-.432.349-.781.78-.781.43 0 .78.35.78.78zM155.342 124.617c0 .432-.349.781-.78.781-.431 0-.78-.35-.78-.78 0-.432.349-.781.78-.781.431 0 .78.35.78.78zM171.119 124.617c0 .432-.35.781-.78.781-.432 0-.782-.35-.782-.78 0-.432.35-.781.781-.781.431 0 .78.35.78.78zM151.83 124.617c0 .432-.35.781-.78.781-.432 0-.782-.35-.782-.78 0-.432.35-.781.781-.781.431 0 .78.35.78.78zM161.689 124.617c0 .432-.35.781-.78.781-.432 0-.781-.35-.781-.78 0-.432.35-.781.78-.781.431 0 .78.35.78.78zM169.557 128.38c0-.431.35-.78.781-.78.431 0 .78.349.78.78 0 .431-.349.78-.78.78-.431 0-.78-.349-.78-.78zM166.107 128.38c0-.431.35-.78.78-.78.432 0 .781.349.781.78 0 .431-.35.78-.78.78-.431 0-.78-.349-.78-.78zM162.665 128.38c0-.431.35-.78.78-.78.431 0 .78.349.78.78 0 .431-.349.78-.78.78-.43 0-.78-.349-.78-.78zM159.246 128.38c0-.431.35-.78.78-.78.431 0 .78.349.78.78 0 .431-.349.78-.78.78-.43 0-.78-.349-.78-.78z"/>
                    <circle cx="133.298" cy="128.38" r="1" fill="#E0E0E0"/>
                    <path fill="#E0E0E0" d="M129.005 128.38c0-.431.349-.78.78-.78.431 0 .78.349.78.78 0 .431-.349.78-.78.78-.431 0-.78-.349-.78-.78zM155.772 128.38c0-.431.35-.78.78-.78.432 0 .781.349.781.78 0 .431-.35.78-.78.78-.432 0-.781-.349-.781-.78z"/>
                    <circle cx="139.629" cy="128.38" r="1" fill="#E0E0E0"/>
                    <path fill="#E0E0E0" d="M152.33 128.38c0-.431.349-.78.78-.78.431 0 .78.349.78.78 0 .431-.349.78-.78.78-.431 0-.78-.349-.78-.78zM148.879 128.38c0-.431.35-.78.78-.78.432 0 .781.349.781.78 0 .431-.35.78-.78.78-.432 0-.781-.349-.781-.78z"/>
                    <circle cx="142.673" cy="128.38" r="1" fill="#E0E0E0"/>
                    <circle cx="126.928" cy="128.38" r="1" fill="#E0E0E0"/>
                    <circle cx="146.217" cy="128.38" r="1" fill="#E0E0E0"/>
                    <circle cx="136.35" cy="128.38" r="1" fill="#E0E0E0"/>
                    <circle cx="126.928" cy="131.729" r="1" fill="#E0E0E0"/>
                    <path fill="#E0E0E0" d="M131.143 131.729c0 .431-.35.78-.78.78-.431 0-.78-.349-.78-.78 0-.431.349-.78.78-.78.43 0 .78.349.78.78zM134.602 131.729c0 .431-.35.78-.781.78-.431 0-.78-.349-.78-.78 0-.431.349-.78.78-.78.431 0 .78.349.78.78zM138.044 131.729c0 .431-.35.78-.78.78-.432 0-.781-.349-.781-.78 0-.431.35-.78.78-.78.432 0 .781.349.781.78zM164.749 131.729c0 .431-.35.78-.78.78-.432 0-.781-.349-.781-.78 0-.431.35-.78.78-.78.431 0 .78.349.78.78zM168.262 131.729c0 .431-.35.78-.78.78-.432 0-.782-.349-.782-.78 0-.431.35-.78.781-.78.431 0 .78.349.78.78zM141.487 131.729c0 .431-.35.78-.781.78-.431 0-.78-.349-.78-.78 0-.431.349-.78.78-.78.431 0 .78.349.78.78zM158.41 131.729c0 .431-.35.78-.78.78-.431 0-.78-.349-.78-.78 0-.431.349-.78.78-.78.43 0 .78.349.78.78zM144.937 131.729c0 .431-.35.78-.78.78-.432 0-.781-.349-.781-.78 0-.431.35-.78.78-.78.431 0 .78.349.78.78zM148.38 131.729c0 .431-.35.78-.781.78-.431 0-.78-.349-.78-.78 0-.431.349-.78.78-.78.43 0 .78.349.78.78zM155.342 131.729c0 .431-.349.78-.78.78-.431 0-.78-.349-.78-.78 0-.431.349-.78.78-.78.431 0 .78.349.78.78zM171.119 131.729c0 .431-.35.78-.78.78-.432 0-.782-.349-.782-.78 0-.431.35-.78.781-.78.431 0 .78.349.78.78zM151.83 131.729c0 .431-.35.78-.78.78-.432 0-.782-.349-.782-.78 0-.431.35-.78.781-.78.431 0 .78.349.78.78zM161.689 131.729c0 .431-.35.78-.78.78-.432 0-.781-.349-.781-.78 0-.431.35-.78.78-.78.431 0 .78.349.78.78zM108.88 123.525H122.494V125.617H108.88zM108.88 127.131H122.494V129.223H108.88zM108.88 130.855H122.494V132.947H108.88zM185.342 136.982L174.944 137.006 174.944 120.02 185.342 119.996z"/>
                    <path fill="#F5F5F5" d="M105.812 99.505H174.94299999999998V116.655H105.812z"/>
                    <path fill="#E0E0E0" d="M127.709 104.134c0 .431-.35.78-.78.78-.432 0-.782-.349-.782-.78 0-.431.35-.78.781-.78.431 0 .78.349.78.78zM131.143 104.134c0 .431-.35.78-.78.78-.431 0-.78-.349-.78-.78 0-.431.349-.78.78-.78.43 0 .78.349.78.78zM134.602 104.134c0 .431-.35.78-.781.78-.431 0-.78-.349-.78-.78 0-.431.349-.78.78-.78.431 0 .78.349.78.78zM138.044 104.134c0 .431-.35.78-.78.78-.432 0-.781-.349-.781-.78 0-.431.35-.78.78-.78.432 0 .781.349.781.78zM164.749 104.134c0 .431-.35.78-.78.78-.432 0-.781-.349-.781-.78 0-.431.35-.78.78-.78.431 0 .78.349.78.78zM168.262 104.134c0 .431-.35.78-.78.78-.432 0-.782-.349-.782-.78 0-.431.35-.78.781-.78.431 0 .78.349.78.78zM141.487 104.134c0 .431-.35.78-.781.78-.431 0-.78-.349-.78-.78 0-.431.349-.78.78-.78.431 0 .78.349.78.78zM158.41 104.134c0 .431-.35.78-.78.78-.431 0-.78-.349-.78-.78 0-.431.349-.78.78-.78.43 0 .78.349.78.78zM144.937 104.134c0 .431-.35.78-.78.78-.432 0-.781-.349-.781-.78 0-.431.35-.78.78-.78.431 0 .78.349.78.78zM148.38 104.134c0 .431-.35.78-.781.78-.431 0-.78-.349-.78-.78 0-.431.349-.78.78-.78.43 0 .78.349.78.78zM155.342 104.134c0 .431-.349.78-.78.78-.431 0-.78-.349-.78-.78 0-.431.349-.78.78-.78.431 0 .78.349.78.78zM171.119 104.134c0 .431-.35.78-.78.78-.432 0-.782-.349-.782-.78 0-.431.35-.78.781-.78.431 0 .78.349.78.78zM151.83 104.134c0 .431-.35.78-.78.78-.432 0-.782-.349-.782-.78 0-.431.35-.78.781-.78.431 0 .78.349.78.78zM161.689 104.134c0 .431-.35.78-.78.78-.432 0-.781-.349-.781-.78 0-.431.35-.78.78-.78.431 0 .78.349.78.78zM169.557 107.897c0-.431.35-.78.781-.78.431 0 .78.349.78.78 0 .43-.349.78-.78.78-.431 0-.78-.35-.78-.78zM166.107 107.897c0-.431.35-.78.78-.78.432 0 .781.349.781.78 0 .43-.35.78-.78.78-.431 0-.78-.35-.78-.78zM162.665 107.897c0-.431.35-.78.78-.78.431 0 .78.349.78.78 0 .43-.349.78-.78.78-.43 0-.78-.35-.78-.78zM159.246 107.897c0-.431.35-.78.78-.78.431 0 .78.349.78.78 0 .43-.349.78-.78.78-.43 0-.78-.35-.78-.78z"/>
                    <circle cx="133.298" cy="107.897" r="1" fill="#E0E0E0"/>
                    <path fill="#E0E0E0" d="M129.005 107.897c0-.431.349-.78.78-.78.431 0 .78.349.78.78 0 .43-.349.78-.78.78-.431 0-.78-.35-.78-.78zM155.772 107.897c0-.431.35-.78.78-.78.432 0 .781.349.781.78 0 .43-.35.78-.78.78-.432 0-.781-.35-.781-.78z"/>
                    <circle cx="139.629" cy="107.897" r="1" fill="#E0E0E0"/>
                    <path fill="#E0E0E0" d="M152.33 107.897c0-.431.349-.78.78-.78.431 0 .78.349.78.78 0 .43-.349.78-.78.78-.431 0-.78-.35-.78-.78zM148.879 107.897c0-.431.35-.78.78-.78.432 0 .781.349.781.78 0 .43-.35.78-.78.78-.432 0-.781-.35-.781-.78z"/>
                    <circle cx="142.673" cy="107.897" r="1" fill="#E0E0E0"/>
                    <circle cx="126.928" cy="107.897" r="1" fill="#E0E0E0"/>
                    <circle cx="146.217" cy="107.897" r="1" fill="#E0E0E0"/>
                    <circle cx="136.35" cy="107.897" r="1" fill="#E0E0E0"/>
                    <path fill="#E0E0E0" d="M127.709 111.238c0 .43-.35.78-.78.78-.432 0-.782-.35-.782-.78 0-.431.35-.78.781-.78.431 0 .78.349.78.78zM131.143 111.238c0 .43-.35.78-.78.78-.431 0-.78-.35-.78-.78 0-.431.349-.78.78-.78.43 0 .78.349.78.78zM134.602 111.238c0 .43-.35.78-.781.78-.431 0-.78-.35-.78-.78 0-.431.349-.78.78-.78.431 0 .78.349.78.78zM138.044 111.238c0 .43-.35.78-.78.78-.432 0-.781-.35-.781-.78 0-.431.35-.78.78-.78.432 0 .781.349.781.78zM164.749 111.238c0 .43-.35.78-.78.78-.432 0-.781-.35-.781-.78 0-.431.35-.78.78-.78.431 0 .78.349.78.78zM168.262 111.238c0 .43-.35.78-.78.78-.432 0-.782-.35-.782-.78 0-.431.35-.78.781-.78.431 0 .78.349.78.78zM141.487 111.238c0 .43-.35.78-.781.78-.431 0-.78-.35-.78-.78 0-.431.349-.78.78-.78.431 0 .78.349.78.78zM158.41 111.238c0 .43-.35.78-.78.78-.431 0-.78-.35-.78-.78 0-.431.349-.78.78-.78.43 0 .78.349.78.78zM144.937 111.238c0 .43-.35.78-.78.78-.432 0-.781-.35-.781-.78 0-.431.35-.78.78-.78.431 0 .78.349.78.78zM148.38 111.238c0 .43-.35.78-.781.78-.431 0-.78-.35-.78-.78 0-.431.349-.78.78-.78.43 0 .78.349.78.78zM155.342 111.238c0 .43-.349.78-.78.78-.431 0-.78-.35-.78-.78 0-.431.349-.78.78-.78.431 0 .78.349.78.78zM171.119 111.238c0 .43-.35.78-.78.78-.432 0-.782-.35-.782-.78 0-.431.35-.78.781-.78.431 0 .78.349.78.78zM151.83 111.238c0 .43-.35.78-.78.78-.432 0-.782-.35-.782-.78 0-.431.35-.78.781-.78.431 0 .78.349.78.78zM161.689 111.238c0 .43-.35.78-.78.78-.432 0-.781-.35-.781-.78 0-.431.35-.78.78-.78.431 0 .78.349.78.78zM108.88 103.033H122.494V105.125H108.88zM108.88 106.64H122.494V108.732H108.88zM108.88 110.363H122.494V112.455H108.88zM185.342 116.491L174.944 116.522 174.944 99.528 185.342 99.505z"/>
                    <path fill="#F5F5F5" d="M105.812 79.685H174.94299999999998V96.83500000000001H105.812z"/>
                    <circle cx="126.928" cy="84.314" r="1" fill="#E0E0E0"/>
                    <path fill="#E0E0E0" d="M131.143 84.306c0 .432-.35.781-.78.781-.431 0-.78-.35-.78-.78 0-.432.349-.781.78-.781.43 0 .78.35.78.78zM134.602 84.306c0 .432-.35.781-.781.781-.431 0-.78-.35-.78-.78 0-.432.349-.781.78-.781.431 0 .78.35.78.78zM138.044 84.306c0 .432-.35.781-.78.781-.432 0-.781-.35-.781-.78 0-.432.35-.781.78-.781.432 0 .781.35.781.78zM164.749 84.306c0 .432-.35.781-.78.781-.432 0-.781-.35-.781-.78 0-.432.35-.781.78-.781.431 0 .78.35.78.78zM168.262 84.306c0 .432-.35.781-.78.781-.432 0-.782-.35-.782-.78 0-.432.35-.781.781-.781.431 0 .78.35.78.78zM141.487 84.306c0 .432-.35.781-.781.781-.431 0-.78-.35-.78-.78 0-.432.349-.781.78-.781.431 0 .78.35.78.78zM158.41 84.306c0 .432-.35.781-.78.781-.431 0-.78-.35-.78-.78 0-.432.349-.781.78-.781.43 0 .78.35.78.78zM144.937 84.306c0 .432-.35.781-.78.781-.432 0-.781-.35-.781-.78 0-.432.35-.781.78-.781.431 0 .78.35.78.78zM148.38 84.306c0 .432-.35.781-.781.781-.431 0-.78-.35-.78-.78 0-.432.349-.781.78-.781.43 0 .78.35.78.78zM155.342 84.306c0 .432-.349.781-.78.781-.431 0-.78-.35-.78-.78 0-.432.349-.781.78-.781.431 0 .78.35.78.78zM171.119 84.306c0 .432-.35.781-.78.781-.432 0-.782-.35-.782-.78 0-.432.35-.781.781-.781.431 0 .78.35.78.78zM151.83 84.306c0 .432-.35.781-.78.781-.432 0-.782-.35-.782-.78 0-.432.35-.781.781-.781.431 0 .78.35.78.78zM161.689 84.306c0 .432-.35.781-.78.781-.432 0-.781-.35-.781-.78 0-.432.35-.781.78-.781.431 0 .78.35.78.78zM169.557 88.077c0-.431.35-.78.781-.78.431 0 .78.349.78.78 0 .431-.349.78-.78.78-.431 0-.78-.349-.78-.78zM166.107 88.077c0-.431.35-.78.78-.78.432 0 .781.349.781.78 0 .431-.35.78-.78.78-.431 0-.78-.349-.78-.78zM162.665 88.077c0-.431.35-.78.78-.78.431 0 .78.349.78.78 0 .431-.349.78-.78.78-.43 0-.78-.349-.78-.78zM159.246 88.077c0-.431.35-.78.78-.78.431 0 .78.349.78.78 0 .431-.349.78-.78.78-.43 0-.78-.349-.78-.78zM132.517 88.077c0-.431.35-.78.78-.78.432 0 .782.349.782.78 0 .431-.35.78-.781.78-.431 0-.78-.349-.78-.78zM129.005 88.077c0-.431.349-.78.78-.78.431 0 .78.349.78.78 0 .431-.349.78-.78.78-.431 0-.78-.349-.78-.78zM155.772 88.077c0-.431.35-.78.78-.78.432 0 .781.349.781.78 0 .431-.35.78-.78.78-.432 0-.781-.349-.781-.78zM138.848 88.077c0-.431.35-.78.78-.78.432 0 .781.349.781.78 0 .431-.35.78-.78.78-.431 0-.78-.349-.78-.78zM152.33 88.077c0-.431.349-.78.78-.78.431 0 .78.349.78.78 0 .431-.349.78-.78.78-.431 0-.78-.349-.78-.78zM148.879 88.077c0-.431.35-.78.78-.78.432 0 .781.349.781.78 0 .431-.35.78-.78.78-.432 0-.781-.349-.781-.78zM141.892 88.077c0-.431.35-.78.781-.78.431 0 .78.349.78.78 0 .431-.349.78-.78.78-.431 0-.78-.349-.78-.78zM126.147 88.077c0-.431.35-.78.781-.78.431 0 .78.349.78.78 0 .431-.349.78-.78.78-.431 0-.78-.349-.78-.78zM145.436 88.077c0-.431.35-.78.781-.78.431 0 .78.349.78.78 0 .431-.349.78-.78.78-.431 0-.78-.349-.78-.78zM135.57 88.077c0-.431.349-.78.78-.78.431 0 .78.349.78.78 0 .431-.349.78-.78.78-.431 0-.78-.349-.78-.78zM127.709 91.418c0 .431-.35.78-.78.78-.432 0-.782-.349-.782-.78 0-.431.35-.78.781-.78.431 0 .78.349.78.78zM131.143 91.418c0 .431-.35.78-.78.78-.431 0-.78-.349-.78-.78 0-.431.349-.78.78-.78.43 0 .78.349.78.78zM134.602 91.418c0 .431-.35.78-.781.78-.431 0-.78-.349-.78-.78 0-.431.349-.78.78-.78.431 0 .78.349.78.78zM138.044 91.418c0 .431-.35.78-.78.78-.432 0-.781-.349-.781-.78 0-.431.35-.78.78-.78.432 0 .781.349.781.78zM164.749 91.418c0 .431-.35.78-.78.78-.432 0-.781-.349-.781-.78 0-.431.35-.78.78-.78.431 0 .78.349.78.78zM168.262 91.418c0 .431-.35.78-.78.78-.432 0-.782-.349-.782-.78 0-.431.35-.78.781-.78.431 0 .78.349.78.78zM141.487 91.418c0 .431-.35.78-.781.78-.431 0-.78-.349-.78-.78 0-.431.349-.78.78-.78.431 0 .78.349.78.78zM158.41 91.418c0 .431-.35.78-.78.78-.431 0-.78-.349-.78-.78 0-.431.349-.78.78-.78.43 0 .78.349.78.78zM144.937 91.418c0 .431-.35.78-.78.78-.432 0-.781-.349-.781-.78 0-.431.35-.78.78-.78.431 0 .78.349.78.78zM148.38 91.418c0 .431-.35.78-.781.78-.431 0-.78-.349-.78-.78 0-.431.349-.78.78-.78.43 0 .78.349.78.78zM155.342 91.418c0 .431-.349.78-.78.78-.431 0-.78-.349-.78-.78 0-.431.349-.78.78-.78.431 0 .78.349.78.78zM171.119 91.418c0 .431-.35.78-.78.78-.432 0-.782-.349-.782-.78 0-.431.35-.78.781-.78.431 0 .78.349.78.78zM151.83 91.418c0 .431-.35.78-.78.78-.432 0-.782-.349-.782-.78 0-.431.35-.78.781-.78.431 0 .78.349.78.78zM161.689 91.418c0 .431-.35.78-.78.78-.432 0-.781-.349-.781-.78 0-.431.35-.78.78-.78.431 0 .78.349.78.78zM108.88 83.214H122.494V85.306H108.88zM108.88 86.82H122.494V88.91199999999999H108.88zM108.88 90.544H122.494V92.636H108.88zM185.342 96.671L174.944 96.703 174.944 79.709 185.342 79.685zM422.422 88.241H477.307V167.79399999999998H422.422z"/>
                    <path fill="#F5F5F5" d="M419.674 88.241H474.55899999999997V167.79399999999998H419.674z"/>
                    <path fill="#FFF" d="M426.489 96.851H467.73699999999997V159.175H426.489z"/>
                    <path fill="#E0E0E0" d="M467.737 159.175v-.304-.882-3.42-12.84c0-10.984-.039-26.541-.062-44.878l.132.14h-41.24l.149-.156v62.325l-.117-.117 30.022.062H467.877 456.73l-30.1.062h-.117v-.117-62.472h41.536v.132c0 18.368-.054 33.957-.07 44.972v17.064c0 .203-.242.43-.242.43z"/>
                    <path fill="#E0E0E0" d="M474.708 88.21c-.277.505-.604.98-.976 1.42-.64.851-1.561 2.014-2.576 3.263-1.015 1.25-1.998 2.342-2.709 3.123-.364.447-.77.86-1.21 1.233.311-.483.661-.94 1.046-1.366.734-.898 1.64-1.99 2.647-3.208l2.638-3.209c.343-.45.725-.871 1.14-1.256z"/>
                    <path fill="#FFF" d="M467.948 158.972c2.048 3.265 4.463 6.285 7.197 9"/>
                    <path fill="#E0E0E0" d="M475.145 167.973c-.46-.332-.882-.714-1.257-1.14-.957-.973-1.864-1.994-2.716-3.06-.854-1.066-1.651-2.176-2.389-3.325-.329-.462-.609-.956-.835-1.476.37.429.708.883 1.015 1.359.6.85 1.451 2.014 2.443 3.255.991 1.241 1.944 2.342 2.638 3.122.397.395.765.817 1.101 1.265z"/>
                    <path fill="#FFF" d="M419.667 167.731L426.856 158.863"/>
                    <path fill="#E0E0E0" d="M426.856 158.863c.063.047-1.499 2.076-3.481 4.528-1.159 1.511-2.396 2.96-3.708 4.34 1.075-1.57 2.235-3.082 3.473-4.528 1.157-1.515 2.398-2.964 3.716-4.34zM419.674 88.21c1.24 1.324 2.404 2.715 3.49 4.168 1.16 1.395 2.246 2.849 3.255 4.356-1.242-1.322-2.407-2.714-3.49-4.169-1.165-1.39-2.251-2.844-3.255-4.355zM441.079 109.505H454.88800000000003V148.723H441.079zM501.553.055L501.553 45.97 435.607 45.97 433.234.375z"/>
                    <path fill="#FFF" d="M443.452 -9.844H488.946V56.102H443.452z" transform="rotate(-90 466.2 23.13)"/>
                    <path fill="#E0E0E0" d="M499.492 46.189h-66.57V.062h66.57V46.19zm-65.946-.632h65.314V.687h-65.314v44.87z"/>
                    <path fill="#FFF" d="M440.376 6.026H492.037V40.217H440.376z"/>
                    <path fill="#E0E0E0" d="M492.038 6.026h-14.473l-37.189.078.149-.156V40.14l-.164-.156h51.66l-.132.125c0-10.398.055-18.93.07-24.87V8.353 6.549v-.632 9.235c0 5.964.047 14.52.07 24.98v.132H440.08V40.1 5.76h.148l37.282.079H491.89l.149.187z"/>
                    <path fill="#E0E0E0" d="M433.242.25c.404.2.784.446 1.131.734.672.484 1.562 1.178 2.584 1.975 1.023.796 1.866 1.56 2.483 2.107.349.284.666.606.944.96-1.257-.877-2.468-1.817-3.63-2.818-1.234-.909-2.407-1.897-3.512-2.958zM499.18.375c-1.09 1.068-2.257 2.057-3.49 2.958-1.157.984-2.383 1.884-3.668 2.693 1.081-1.067 2.24-2.053 3.466-2.95 1.164-.989 2.398-1.891 3.692-2.701z"/>
                    <path fill="#FFF" d="M499.126 45.877L491.788 39.921"/>
                    <path fill="#E0E0E0" d="M491.788 39.92c1.322.865 2.584 1.817 3.778 2.85 1.26.959 2.455 2.002 3.575 3.122-1.324-.86-2.586-1.813-3.778-2.849-1.26-.959-2.455-2.002-3.575-3.122zM433.242 45.877c1.071-1.059 2.22-2.037 3.434-2.928 1.133-.973 2.333-1.865 3.591-2.67-1.071 1.06-2.22 2.038-3.435 2.928-1.132.974-2.332 1.866-3.59 2.67z"/>
                    <path fill="#E0E0E0" d="M461.387 6.155H472.839V38.660000000000004H461.387z" transform="rotate(-90 467.112 22.408)"/>
                    <path fill="#E0E0E0" d="M2.303 44.878H61.684V143.16500000000002H2.303z"/>
                    <path fill="#EBEBEB" d="M0.328 44.878H59.709V143.16500000000002H0.328z"/>
                    <path fill="#FAFAFA" d="M2.857 46.868H57.18V141.174H2.857z"/>
                    <path fill="#EBEBEB" d="M13.2 59.124H46.602999999999994V128.919H13.2z"/>
                    <path fill="#E0E0E0" d="M13.2 104.22c-.078-6.518 5.785-12.888 12.24-13.794 3.076-.437 6.347.172 9.227-1.006 5.137-2.1 6.768-8.923 11.936-10.93l.234 50.452H13.2V104.22z"/>
                </g>
                <g fill="#263238" fill-rule="nonzero">
                    <path d="M517.884.695c0 .117-115.945.203-258.93.203C115.968.898 0 .78 0 .695 0 .609 115.914.492 258.954.492c143.04 0 258.93.093 258.93.203z" transform="translate(-150 -5132) translate(150 5132) translate(0 312.246)"/>
                </g>
                <g fill-rule="nonzero">
                    <path fill="#455A64" d="M104.548 87.366l-39.164-2.279c-.25-.554-.413-.882-.413-.882l-10.617.242-3.45-.203-.14.281-35.628.78C8.033 85.306.578 89.678.593 95.22c-.078 5.27 2.49 10.984 8.852 10.835l48.547-.288h48.546c6.362.109 8.04-3.732 8.033-8.283.726-8.446-4.59-10.054-10.023-10.117z" transform="translate(-150 -5132) translate(150 5132) translate(201.399 206.863)"/>
                    <path fill="#263238" d="M13.903 106.054h3.567l9.766-.062 32.598-.133-.14.14c-.07-1.06-.14-2.2-.219-3.348-.148-2.342-.304-4.684-.445-6.854l.125.125-30.038-3.255-8.9-1-2.403-.28-.617-.078h-.21c.07-.007.14-.007.21 0l.624.054 2.405.234 8.907.914 30.045 3.169h.149v.117c.14 2.194.296 4.504.445 6.854.078 1.147.148 2.287.218 3.349v.148h-.14l-32.599.047H14.153l-.25-.14z" transform="translate(-150 -5132) translate(150 5132) translate(201.399 206.863)"/>
                    <path fill="#263238" d="M23.871 92.113s-.515-.36-1.374-.875c-1.115-.675-2.314-1.2-3.567-1.56-1.256-.352-2.552-.539-3.856-.555-1 0-1.624.062-1.624 0 .138-.052.282-.086.43-.102.395-.059.794-.095 1.194-.109 1.318-.037 2.635.13 3.903.492 1.278.36 2.492.919 3.598 1.655.336.217.654.46.953.726.25.195.359.328.343.328zM101.519 89.81c0 .078-7.705 1.96-17.244 4.215-9.539 2.256-17.283 4.028-17.298 3.958-.016-.07 7.697-1.967 17.236-4.223 9.539-2.256 17.267-3.99 17.306-3.95z" transform="translate(-150 -5132) translate(150 5132) translate(201.399 206.863)"/>
                    <path fill="#263238" d="M94.985 89.076c-1.057.37-2.07.858-3.02 1.452-.9.674-1.725 1.444-2.46 2.295.125-.316.305-.606.531-.859.503-.64 1.1-1.201 1.772-1.662.672-.458 1.409-.814 2.186-1.054.317-.119.653-.177.991-.172z" transform="translate(-150 -5132) translate(150 5132) translate(201.399 206.863)"/>
                    <path fill="#B78876" d="M59.358 96.828L66.672 97.827 66.696 105.773 59.967 105.625z" transform="translate(-150 -5132) translate(150 5132) translate(201.399 206.863)"/>
                    <path fill="#3A3847" d="M66.672 97.827h3.287c.64-.002 1.27.165 1.826.484l1.733.999c.982.54 1.997 1.02 3.037 1.436 1.998.633 5.363 1.491 6.073 2.038 2.03 1.56 1.42 3.395.305 3.59-.976.172-16.237-.593-16.237-.593l-.024-7.954z" transform="translate(-150 -5132) translate(150 5132) translate(201.399 206.863)"/>
                    <path fill="#263238" d="M72.09 105.102c-.434-1.342-.48-2.778-.133-4.145.054.69.07 1.384.047 2.076.07.688.1 1.378.086 2.07zM73.651 105.055c-.134-.623-.176-1.262-.125-1.897-.041-.636.009-1.275.148-1.897.13.624.172 1.262.125 1.897.042.636-.008 1.275-.148 1.897zM75.493 105.383c-.181-.632-.278-1.286-.289-1.944-.095-.652-.095-1.315 0-1.967.187.632.287 1.286.297 1.944.09.653.088 1.315-.008 1.967zM70.661 102.994c-.233-.037-.459-.108-.671-.21-.596-.255-1.152-.597-1.647-1.015-.164-.137-.32-.283-.468-.437-.18-.167-.323-.37-.422-.594-.105-.258-.072-.551.086-.78.103-.126.252-.207.414-.227.147-.016.296 0 .437.047 1.175.412 2.014 1.455 2.165 2.691.151 1.236-.413 2.45-1.455 3.133-.234.164-.5.279-.78.335-.14.04-.29.04-.43 0-.143-.049-.261-.152-.328-.289-.111-.258-.076-.556.094-.78.115-.191.257-.365.421-.515.465-.452 1.01-.812 1.609-1.062.217-.094.445-.16.679-.195-.205.11-.416.21-.633.297-.567.276-1.082.648-1.522 1.1-.142.145-.267.305-.375.476-.109.164-.135.37-.07.555.113.167.325.238.515.171.236-.057.457-.163.648-.312.948-.634 1.46-1.746 1.327-2.879-.133-1.132-.89-2.095-1.959-2.492-.196-.096-.432-.062-.593.086-.122.171-.145.393-.063.586.198.368.463.697.78.968.678.555 1.433 1.008 2.241 1.342zM82.933 106.367c.161-.141.296-.31.398-.5.191-.555.11-1.168-.219-1.655-.469-.746-1.188-1.3-2.03-1.561-.936-.328-2.045-.484-3.161-.835-1.925-.567-3.764-1.394-5.464-2.46-.49-.308-.965-.641-1.421-.998-.182-.127-.35-.274-.5-.438.201.095.39.213.562.352.36.234.867.577 1.562.96 1.704.998 3.523 1.784 5.417 2.342 1.1.335 2.201.5 3.17.858.884.283 1.635.876 2.115 1.67.338.54.393 1.21.148 1.796-.083.15-.2.279-.343.375-.172.078-.227.101-.234.094zM51.154 1.358c-2.264.882-4.832 4.333-5.293 6.721-.406 2.1.148 4.255.422 6.386.273 2.13.218 4.496-1.156 6.143-.85 1.023-2.1 1.616-3.122 2.49-1.474 1.276-2.379 3.087-2.512 5.032-.133 1.945.515 3.862 1.802 5.327-1.713.481-2.868 2.08-2.787 3.856.131 1.745 1.055 3.332 2.506 4.31 1.442.953 3.075 1.579 4.785 1.834 1.774.432 3.63.381 5.378-.148 2.006-.734 3.49-2.397 5.098-3.802 1.959-1.725 4.246-3.177 5.651-5.37 1.647-2.561 1.858-5.762 1.842-8.806-.024-6.226-.81-12.426-2.341-18.462" transform="translate(-150 -5132) translate(150 5132) translate(201.399 206.863)"/>
                    <path fill="#B78876" d="M80.286 44.292l12.49 21.56c1.54 2.663 1.643 5.92.273 8.673-1.584 3.212-4.897 5.205-8.477 5.098l-19.055-.484-.515-6.924 16.767-3.263-11.365-19.516 9.882-5.144zM34.152 81.371l17.525 4.59.367-5.253-16.136-9.329 11.71-21.92-9.906-5.05-12.35 21.623c-1.408 2.654-1.567 5.795-.436 8.578 1.132 2.783 3.438 4.922 6.299 5.84l2.927.921z" transform="translate(-150 -5132) translate(150 5132) translate(201.399 206.863)"/>
                    <path fill="#61A5B0" d="M75.056 58.171l11.951-6.338c-1.482-2.982-3.205-5.838-5.152-8.54-3.907-5.214-9.614-8.79-16.01-10.031l-13.77.195c-1.682.155-3.334.541-4.91 1.148v-.055c-7.47 1.67-15.714 17.993-15.714 17.993L42.38 58.25l.25 1.71c.327 2.268 1.318 4.39 2.849 6.096l-3.123 20.873 35.362.64-4.543-14.933 1.881-14.465z" transform="translate(-150 -5132) translate(150 5132) translate(201.399 206.863)"/>
                    <path fill="#263238" d="M45.79 66.173c-.192-.11-.37-.245-.53-.398-.451-.4-.855-.85-1.202-1.343-1.142-1.664-1.669-3.673-1.491-5.683.165-1.08.426-2.143.78-3.177.313-.952.633-1.795.914-2.498.28-.703.515-1.265.695-1.655.077-.205.176-.402.296-.585-.045.214-.113.424-.203.624l-.609 1.686c-.25.71-.554 1.562-.85 2.506-.342 1.019-.603 2.063-.781 3.123-.084 1.064.022 2.134.312 3.161.231.832.592 1.622 1.07 2.342.477.677 1.013 1.312 1.6 1.897z" transform="translate(-150 -5132) translate(150 5132) translate(201.399 206.863)"/>
                    <path fill="#FAFAFA" d="M46.837 47.977c-.725-.631-1.354-1.365-1.866-2.178-.63-.728-1.155-1.54-1.561-2.412.72.63 1.346 1.361 1.858 2.17.63.732 1.158 1.546 1.569 2.42zM52.567 38.32c-.615.57-1.316 1.039-2.077 1.39-.7.464-1.469.812-2.28 1.03.616-.57 1.316-1.038 2.077-1.39.698-.467 1.468-.815 2.28-1.03zM38.758 52.067c-.143-.774-.143-1.568 0-2.342-.004-.776.126-1.547.382-2.28.133.776.133 1.568 0 2.343.005.776-.125 1.547-.382 2.28zM51.52 56.587c-.585.551-1.257 1.002-1.99 1.335-.663.453-1.4.785-2.178.983.584-.55 1.253-1.001 1.983-1.335.667-.45 1.406-.782 2.186-.983zM55.634 47.063c-.349.697-.816 1.329-1.381 1.866-.843.952-1.561 1.67-1.679 1.561.349-.696.813-1.327 1.374-1.865.851-.922 1.6-1.64 1.686-1.562zM63.901 49.905c-.58-.473-1.069-1.047-1.444-1.694-.487-.566-.866-1.217-1.116-1.92.58.468 1.07 1.04 1.444 1.686.486.569.865 1.222 1.116 1.928zM59.561 58.843c-.287-.873-.445-1.783-.468-2.701-.15-.906-.171-1.828-.063-2.74.29.872.447 1.782.469 2.7.16.906.18 1.83.062 2.74zM56.204 66.57c-.57-.588-1.038-1.269-1.381-2.013-.463-.678-.814-1.427-1.039-2.217.572.59 1.042 1.27 1.39 2.014.459.68.807 1.428 1.03 2.217zM67.188 62.114c-.338.774-.802 1.486-1.374 2.107-.462.706-1.034 1.333-1.694 1.858.345-.77.808-1.481 1.374-2.108.467-.701 1.038-1.328 1.694-1.857zM71.902 57.633c-.934-.271-1.796-.749-2.52-1.397-.81-.54-1.48-1.263-1.96-2.108.766.559 1.503 1.155 2.209 1.787.788.531 1.546 1.104 2.271 1.718zM79.513 51.255c-1.803.323-3.646.368-5.464.133.889-.217 1.803-.306 2.717-.265.917-.092 1.843-.047 2.747.132z" transform="translate(-150 -5132) translate(150 5132) translate(201.399 206.863)"/>
                    <g fill="#000" opacity=".3">
                        <path d="M18.204 1.647c1.899 3.011 1.245 6.966-1.521 9.207-2.766 2.24-6.77 2.058-9.322-.425-.35-.412-.763-.765-1.225-1.046-.483-.174-.987-.279-1.5-.312C2.785 8.778 1.215 7.547.489 5.818c-.727-1.73-.507-3.712.581-5.24l17.135 1.07z" transform="translate(-150 -5132) translate(150 5132) translate(201.399 206.863) translate(63.23 39.811)"/>
                    </g>
                    <path fill="#263238" d="M40.561 91.972L38.5 68.71 81.567 68.593 78.78 92.159z" transform="translate(-150 -5132) translate(150 5132) translate(201.399 206.863)"/>
                    <path fill="#FAFAFA" d="M62.808 81.051c.007 1.113-.659 2.12-1.685 2.55-1.026.43-2.21.199-3-.586-.789-.784-1.027-1.967-.603-2.996.425-1.029 1.428-1.7 2.54-1.7.728-.004 1.427.282 1.943.795.515.513.805 1.21.805 1.937z" transform="translate(-150 -5132) translate(150 5132) translate(201.399 206.863)"/>
                    <path fill="#B78876" d="M60.755 41.52c3.627-.075 6.54-3.015 6.58-6.642l.313-26.744c.023-1.106-.805-2.045-1.905-2.162l-11.295-2.85c-3.622-.382-6.026 4.075-6.245 7.705-.258 4.036-.406 8.97.07 11.975.96 6.057 5.605 6.822 5.605 6.822v5.215c.008 1.803.74 3.527 2.032 4.785s3.035 1.945 4.837 1.905l.008-.008z" transform="translate(-150 -5132) translate(150 5132) translate(201.399 206.863)"/>
                    <path fill="#263238" d="M50.545 14.738c0 .416.326.76.741.78.403.003.74-.302.781-.702 0-.431-.35-.78-.78-.78-.397-.005-.725.306-.742.702zM49.265 13.388c.093.101.687-.336 1.522-.336s1.444.421 1.561.32c.117-.102-.055-.226-.32-.422-.362-.251-.793-.385-1.233-.382-.435 0-.858.137-1.21.39-.281.203-.367.383-.32.43zM58.484 14.738c0 .431.35.78.78.78.403.003.74-.302.78-.702 0-.431-.349-.78-.78-.78-.402-.003-.74.302-.78.702zM57.477 13.544c.093.101.679-.336 1.514-.336s1.452.422 1.561.32c.11-.101-.046-.226-.32-.421-.359-.252-.787-.386-1.225-.383-.434 0-.858.137-1.21.39-.281.203-.367.383-.32.43zM54.44 19.734c-.442-.127-.898-.2-1.358-.219-.219 0-.422-.062-.453-.21-.02-.22.029-.442.14-.633.204-.515.414-1.054.633-1.623.584-1.376 1.056-2.796 1.413-4.247-.693 1.325-1.277 2.703-1.749 4.122l-.609 1.631c-.132.26-.17.558-.109.843.063.153.193.268.351.313.118.028.238.044.36.046.459.053.924.045 1.381-.023z" transform="translate(-150 -5132) translate(150 5132) translate(201.399 206.863)"/>
                    <path fill="#AA6550" d="M53.862 29.617c2.85.044 5.655-.704 8.103-2.163 0 0-1.967 4.16-8.024 3.591l-.079-1.428zM54.8 21.748c.319-.408.828-.618 1.342-.554.374.03.718.214.952.507.227.284.255.679.07.991-.276.308-.71.419-1.1.282-.393-.14-.754-.358-1.062-.64-.098-.065-.181-.15-.242-.25-.062-.092-.062-.213 0-.305" transform="translate(-150 -5132) translate(150 5132) translate(201.399 206.863)"/>
                    <path fill="#263238" d="M56.9 20.296c-.134 0-.134.898-.914 1.561-.78.664-1.741.539-1.749.672-.008.132.219.171.625.187.53 0 1.044-.178 1.46-.507.396-.324.65-.788.71-1.296.031-.383-.047-.617-.133-.617zM57.102 12.076c.078.234.913.125 1.89.242.975.117 1.779.383 1.904.18s-.078-.313-.398-.531c-.424-.276-.91-.445-1.413-.492-.501-.058-1.009.001-1.483.172-.36.148-.539.328-.5.43zM49.382 11.842c.148.195.718 0 1.413 0 .694 0 1.28.133 1.413-.07.132-.203 0-.281-.29-.46-.34-.223-.74-.333-1.147-.313-.408.007-.803.14-1.132.382-.242.18-.32.375-.257.46z" transform="translate(-150 -5132) translate(150 5132) translate(201.399 206.863)"/>
                    <path fill="#263238" d="M82.3 38.859c-1.124-1.92-3.63-3.2-3.614-5.425 0-1.359 1.038-2.545 1.093-3.903.125-2.717-3.365-4.145-4.301-6.698-.851-2.342.616-4.926.101-7.346-.632-2.95-3.31-4.121-5.511-6.112-.934-.874-1.696-1.914-2.248-3.068-.07-.14-.148-.28-.227-.413-1.52-2.512-4.11-4.187-7.025-4.544C57.934.46 55.103.321 52.395.952c-1.458.319-2.788 1.066-3.817 2.147-1.022 1.113-1.417 2.663-1.054 4.13.42 1.475 1.819 2.452 3.349 2.341 1.116-.148 2.185-.975 3.263-.648 1.077.328 1.56 1.562 2.623 1.749 1.061.187 1.951-.734 2.997-.827 1.046-.094 2.155.85 2.67 1.889.198.413.365.841.5 1.28.858 4.278 2.505 6.245 1.358 8.743-.61 1.335-1.647 2.513-1.804 3.973-.374 3.341 3.974 5.777 3.724 9.125-.101 1.429-1.03 2.639-1.561 3.966-.988 2.864-.028 6.039 2.38 7.876 1.21.944 2.805 1.236 4.27.781.162-.06.319-.133.469-.219.79.744 1.762 1.266 2.818 1.515 2.568.546 5.261-.906 6.823-3.013 1.506-1.967 2.123-4.778.897-6.901z" transform="translate(-150 -5132) translate(150 5132) translate(201.399 206.863)"/>
                    <path fill="#455A64" d="M71.817 47.297c.736-.14 1.45-.38 2.123-.71.776-.407 1.467-.958 2.037-1.624.76-.867 1.26-1.93 1.444-3.067.2-1.385-.051-2.798-.718-4.028-.766-1.416-2.024-2.502-3.536-3.053-.86-.305-1.641-.799-2.287-1.444-.62-.771-.866-1.777-.671-2.747.172-.964.516-1.89 1.014-2.733.492-.835.908-1.713 1.242-2.622.317-.89.292-1.867-.07-2.74-.404-.838-.951-1.599-1.617-2.249-.64-.67-1.319-1.303-1.896-2.021-.572-.71-1.038-1.499-1.382-2.342-.599-1.53-1.026-3.122-1.273-4.746-.218-1.398-.529-2.78-.929-4.138-.524-1.985-1.753-3.71-3.458-4.855-.645-.377-1.35-.64-2.084-.78h.148c.148.008.294.029.438.062.55.106 1.079.307 1.56.593.778.452 1.461 1.048 2.015 1.756.727.936 1.282 1.993 1.64 3.123.42 1.364.751 2.753.99 4.16.254 1.604.683 3.175 1.28 4.684.338.799.787 1.545 1.336 2.217.562.68 1.233 1.312 1.889 1.99.703.673 1.28 1.466 1.701 2.343.4.96.43 2.032.086 3.013-.64 1.951-2.014 3.458-2.256 5.285-.176.86.035 1.753.578 2.443.61.602 1.342 1.065 2.147 1.358.798.313 1.537.759 2.185 1.32.61.54 1.116 1.188 1.491 1.912.689 1.296.938 2.78.71 4.23-.213 1.185-.754 2.285-1.56 3.178-.6.672-1.327 1.219-2.14 1.608-.508.249-1.05.422-1.608.515-.187.04-.335.04-.437.055-.042.022-.086.04-.132.054z" transform="translate(-150 -5132) translate(150 5132) translate(201.399 206.863)"/>
                </g>
                <g fill="#263238" fill-rule="nonzero">
                    <path d="M129.387 150.206c-.11 0-.203-13.98-.203-31.225 0-17.243.094-31.224.203-31.224.11 0 .203 13.98.203 31.224s-.086 31.225-.203 31.225zM86.578 5.581c.117 0 .203 7.963.203 17.79 0 9.829-.086 17.79-.203 17.79-.117 0-.203-7.961-.203-17.79 0-9.827.094-17.79.203-17.79zM173.53 5.581c.118 0 .204 7.963.204 17.79 0 9.829-.086 17.79-.203 17.79-.117 0-.203-7.961-.203-17.79 0-9.827.094-17.79.203-17.79z" transform="translate(-150 -5132) translate(150 5132) translate(130.363 53.082)"/>
                    <path d="M256.284.304v10.804c0 7.026 0 17.22.062 30.054v.133h-.132l-125.68.07-129.73-.078H.781v-.125c0-11.624 0-20.827.054-27.134V6.823 4.965v-.633 2.491c0 1.639 0 4.059.04 7.205 0 6.307 0 15.51.054 27.134l-.125-.125 129.73-.078 125.68.07-.133.133c0-12.833.047-23.044.062-30.054V3.076 1.007c0-.507.14-.703.14-.703z" transform="translate(-150 -5132) translate(150 5132) translate(130.363 53.082)"/>
                    <path d="M131.37 70.591c-.11 0-.203-6.588-.203-14.715 0-8.126.093-14.714.203-14.714.11 0 .203 6.588.203 14.714 0 8.127-.094 14.715-.203 14.715z" transform="translate(-150 -5132) translate(150 5132) translate(130.363 53.082)"/>
                </g>
                <g fill-rule="nonzero" transform="translate(-150 -5132) translate(150 5132) translate(208.424 111.628)">
                    <path fill="#263238" d="M12.209 9.531H91.566V74.861H12.209z"/>
                    <path fill="#455A64" d="M0.617 26.947H87.367V48.468999999999994H0.617z"/>
                    <path fill="#263238" d="M4.473 31.381H21.552999999999997V34.012H4.473zM4.473 35.901H21.552999999999997V38.532000000000004H4.473zM4.473 40.576H21.552999999999997V43.207H4.473zM28.305 32.965c.01.4-.224.766-.59.926-.367.16-.794.081-1.08-.198-.286-.28-.375-.705-.224-1.075.15-.37.51-.613.91-.613.536-.004.976.425.984.96zM32.63 32.965c.003.4-.236.761-.604.915-.368.155-.793.071-1.075-.211-.283-.283-.366-.708-.212-1.076.154-.368.516-.607.915-.603.539 0 .976.436.976.975zM36.954 32.965c.003.4-.235.761-.603.915-.368.155-.793.071-1.076-.211-.282-.283-.366-.708-.211-1.076.154-.368.515-.607.915-.603.538 0 .975.436.975.975zM41.279 32.965c.003.4-.235.761-.604.915-.368.155-.793.071-1.075-.211-.282-.283-.366-.708-.212-1.076.154-.368.516-.607.915-.603.54 0 .976.436.976.975zM74.783 32.965c.003.4-.235.761-.604.915-.368.155-.793.071-1.075-.211-.282-.283-.366-.708-.212-1.076.154-.368.516-.607.915-.603.54 0 .976.436.976.975zM79.193 32.965c.01.4-.224.767-.592.926-.368.16-.795.08-1.08-.201-.286-.281-.373-.707-.22-1.077.154-.37.516-.61.917-.608.533 0 .967.428.975.96zM45.604 32.965c.003.399-.235.76-.602.915-.367.154-.792.072-1.075-.209-.283-.28-.368-.704-.216-1.072.151-.369.51-.61.909-.61.26-.001.51.1.695.284.185.183.289.432.289.692zM66.836 32.965c.003.4-.235.761-.603.915-.368.155-.793.071-1.076-.211-.282-.283-.366-.708-.211-1.076.154-.368.515-.607.915-.603.538 0 .975.436.975.975z"/>
                    <path fill="#F5F5F5" d="M49.96 32.965c.012.542-.416.992-.958 1.007-.542.014-.993-.413-1.01-.955-.015-.542.41-.994.953-1.012.262-.01.518.086.71.266.19.181.3.431.304.694zM54.253 32.965c.003.399-.235.76-.602.915-.367.154-.792.072-1.074-.209-.283-.28-.369-.704-.217-1.072.152-.369.51-.61.91-.61.26-.001.51.1.694.284.185.183.289.432.289.692zM63.027 32.965c.003.399-.235.76-.602.915-.367.154-.791.072-1.074-.209-.283-.28-.369-.704-.217-1.072.152-.369.51-.61.91-.61.54 0 .979.436.983.976zM82.784 32.965c.003.399-.234.76-.601.915-.368.154-.792.072-1.075-.209-.283-.28-.369-.704-.217-1.072.152-.369.511-.61.91-.61.26-.001.51.1.695.284.184.183.288.432.288.692z"/>
                    <path fill="#6F3895" d="M58.546 32.965c.003.399-.234.76-.602.915-.367.154-.791.072-1.074-.209-.283-.28-.369-.704-.217-1.072.152-.369.511-.61.91-.61.26-.001.51.1.695.284.184.183.288.432.288.692zM70.958 32.965c.003.399-.235.76-.602.915-.367.154-.791.072-1.074-.209-.283-.28-.369-.704-.217-1.072.152-.369.51-.61.91-.61.54 0 .979.436.983.976z"/>
                    <path fill="#263238" d="M80.825 37.688c0-.398.24-.758.609-.91.368-.151.792-.065 1.073.217.28.283.363.708.208 1.075s-.516.605-.914.602c-.26 0-.51-.104-.693-.289-.183-.185-.285-.435-.283-.695z"/>
                    <circle cx="77.476" cy="37.688" r="1" fill="#263238"/>
                    <path fill="#263238" d="M72.176 37.688c0-.398.24-.758.609-.91.368-.151.792-.065 1.073.217.28.283.362.708.208 1.075-.155.367-.516.605-.915.602-.26 0-.51-.104-.692-.289-.183-.185-.285-.435-.283-.695z"/>
                    <circle cx="68.835" cy="37.688" r="1" fill="#263238"/>
                    <circle cx="35.323" cy="37.688" r="1" fill="#263238"/>
                    <path fill="#263238" d="M29.937 37.688c0-.398.24-.758.609-.91.368-.151.792-.065 1.072.217.281.283.363.708.209 1.075-.155.367-.516.605-.915.602-.26 0-.51-.104-.692-.289-.184-.185-.285-.435-.283-.695zM63.526 37.688c0-.543.44-.983.984-.983.543 0 .984.44.984.983 0 .543-.44.984-.984.984-.261.002-.513-.101-.698-.286-.185-.185-.288-.436-.286-.698zM42.294 37.688c0-.398.24-.758.609-.91.368-.151.792-.065 1.073.217.28.283.362.708.208 1.075-.155.367-.516.605-.914.602-.26 0-.51-.104-.693-.289-.183-.185-.285-.435-.283-.695z"/>
                    <path fill="#F5F5F5" d="M59.202 37.688c0-.543.44-.983.983-.983.544 0 .984.44.984.983 0 .543-.44.984-.984.984-.261.002-.512-.101-.697-.286-.185-.185-.288-.436-.286-.698zM54.877 37.688c0-.543.44-.983.984-.983.543 0 .983.44.983.983 0 .543-.44.984-.983.984-.543 0-.984-.44-.984-.984zM46.103 37.688c0-.543.44-.983.984-.983.543 0 .983.44.983.983 0 .543-.44.984-.983.984-.543 0-.984-.44-.984-.984z"/>
                    <circle cx="27.329" cy="37.688" r="1" fill="#F5F5F5"/>
                    <path fill="#6F3895" d="M50.553 37.688c0-.543.44-.983.983-.983.543 0 .984.44.984.983 0 .543-.44.984-.984.984-.543 0-.983-.44-.983-.984z"/>
                    <circle cx="39.156" cy="37.688" r="1" fill="#6F3895"/>
                    <circle cx="27.329" cy="41.896" r="1" fill="#263238"/>
                    <path fill="#263238" d="M32.63 41.896c0 .398-.24.757-.61.91-.368.15-.791.065-1.072-.218-.28-.283-.363-.707-.208-1.074.154-.367.515-.605.914-.602.26 0 .51.104.693.289.183.184.285.434.283.695z"/>
                    <circle cx="35.979" cy="41.896" r="1" fill="#263238"/>
                    <path fill="#263238" d="M41.279 41.896c0 .398-.24.757-.61.91-.368.15-.791.065-1.072-.218-.28-.283-.363-.707-.208-1.074.155-.367.516-.605.914-.602.26 0 .51.104.693.289.183.184.285.434.283.695zM74.783 41.896c0 .398-.24.757-.609.91-.369.15-.792.065-1.073-.218-.28-.283-.363-.707-.208-1.074.155-.367.516-.605.914-.602.26 0 .51.104.693.289.183.184.285.434.283.695z"/>
                    <circle cx="78.218" cy="41.896" r="1" fill="#263238"/>
                    <circle cx="44.62" cy="41.896" r="1" fill="#263238"/>
                    <circle cx="65.861" cy="41.896" r="1" fill="#263238"/>
                    <path fill="#F5F5F5" d="M49.96 41.896c0 .543-.441.983-.984.983-.543 0-.984-.44-.984-.983 0-.544.44-.984.984-.984.261-.002.513.1.698.286.185.185.287.436.285.698zM54.253 41.896c0 .543-.44.983-.984.983-.543 0-.983-.44-.983-.983 0-.544.44-.984.983-.984.262-.002.513.1.698.286.185.185.288.436.286.698z"/>
                    <circle cx="62.043" cy="41.896" r="1" fill="#F5F5F5"/>
                    <path fill="#F5F5F5" d="M82.784 41.896c0 .543-.44.983-.983.983-.544 0-.984-.44-.984-.983 0-.544.44-.984.984-.984.261-.002.513.1.698.286.184.185.287.436.285.698z"/>
                    <circle cx="57.594" cy="41.896" r="1" fill="#6F3895"/>
                    <path fill="#6F3895" d="M70.958 41.896c0 .543-.44.983-.984.983-.543 0-.983-.44-.983-.983 0-.544.44-.984.983-.984.544 0 .984.44.984.984z"/>
                    <path fill="#455A64" d="M0.617 53.511H87.367V75.033H0.617z"/>
                    <circle cx="27.111" cy="59.311" r="1" fill="#263238"/>
                    <path fill="#263238" d="M32.419 59.327c.003.398-.235.76-.602.914-.367.155-.791.073-1.074-.208-.283-.28-.369-.704-.217-1.073.152-.368.51-.609.91-.609.26-.002.51.1.694.283.185.183.289.433.289.693z"/>
                    <circle cx="35.76" cy="59.311" r="1" fill="#263238"/>
                    <path fill="#263238" d="M41.068 59.327c.003.398-.234.76-.602.914-.367.155-.791.073-1.074-.208-.283-.28-.369-.704-.217-1.073.152-.368.511-.609.91-.609.54 0 .979.436.983.976zM74.572 59.327c.003.398-.234.76-.602.914-.367.155-.791.073-1.074-.208-.283-.28-.369-.704-.217-1.073.152-.368.511-.609.91-.609.26-.002.51.1.695.283.184.183.288.433.288.693z"/>
                    <circle cx="77.999" cy="59.311" r="1" fill="#263238"/>
                    <circle cx="44.409" cy="59.311" r="1" fill="#263238"/>
                    <circle cx="65.642" cy="59.311" r="1" fill="#263238"/>
                    <path fill="#F5F5F5" d="M49.71 59.327c.003.399-.236.76-.604.915-.368.154-.793.07-1.075-.212-.283-.282-.366-.707-.212-1.075.154-.369.516-.607.915-.604.259 0 .507.103.69.286.183.183.286.431.286.69z"/>
                    <circle cx="53.058" cy="59.311" r="1" fill="#F5F5F5"/>
                    <circle cx="61.833" cy="59.311" r="1" fill="#F5F5F5"/>
                    <path fill="#F5F5F5" d="M82.566 59.327c.003.399-.236.76-.604.915-.368.154-.793.07-1.075-.212-.283-.282-.366-.707-.212-1.075.154-.369.516-.607.915-.604.259 0 .507.103.69.286.183.183.286.431.286.69z"/>
                    <path fill="#6F3895" d="M58.359 59.327c.003.399-.236.76-.604.915-.368.154-.793.07-1.075-.212-.283-.282-.366-.707-.212-1.075.154-.369.516-.607.915-.604.259 0 .507.103.69.286.183.183.286.431.286.69zM70.74 59.327c.003.399-.236.76-.604.915-.368.154-.793.07-1.076-.212-.282-.282-.366-.707-.211-1.075.154-.369.515-.607.915-.604.258 0 .507.103.69.286.183.183.285.431.285.69z"/>
                    <path fill="#263238" d="M80.606 64.01c0-.543.44-.983.984-.983.543 0 .984.44.984.983 0 .544-.44.984-.984.984-.262.002-.513-.1-.698-.286-.185-.185-.288-.436-.286-.698zM76.282 64.01c0-.543.44-.983.983-.983.544 0 .984.44.984.983 0 .544-.44.984-.984.984-.543 0-.983-.44-.983-.984zM71.957 64.01c0-.543.44-.983.984-.983.543 0 .983.44.983.983 0 .544-.44.984-.983.984-.544 0-.984-.44-.984-.984zM67.64 64.01c0-.398.24-.757.61-.909.368-.152.791-.066 1.072.217.28.283.363.707.208 1.074-.154.368-.515.605-.914.602-.26 0-.51-.104-.693-.289-.183-.184-.285-.434-.283-.695zM34.129 64.01c0-.543.44-.983.983-.983.543 0 .984.44.984.983 0 .544-.44.984-.984.984-.261.002-.513-.1-.698-.286-.185-.185-.288-.436-.285-.698zM29.718 64.01c0-.543.44-.983.984-.983.543 0 .983.44.983.983 0 .544-.44.984-.983.984-.544 0-.984-.44-.984-.984zM63.316 64.01c0-.398.24-.757.609-.909.368-.152.792-.066 1.073.217.28.283.362.707.208 1.074-.155.368-.516.605-.915.602-.26 0-.509-.104-.692-.289-.183-.184-.285-.434-.283-.695zM42.075 64.01c0-.543.44-.983.984-.983.543 0 .983.44.983.983 0 .544-.44.984-.983.984-.543 0-.984-.44-.984-.984z"/>
                    <path fill="#F5F5F5" d="M58.991 64.01c0-.398.24-.757.61-.909.368-.152.791-.066 1.072.217.28.283.363.707.208 1.074-.155.368-.516.605-.914.602-.26 0-.51-.104-.693-.289-.183-.184-.285-.434-.283-.695zM54.643 64.01c0-.398.24-.757.61-.909.368-.152.791-.066 1.072.217.28.283.363.707.208 1.074-.155.368-.516.605-.914.602-.26 0-.51-.104-.693-.289-.183-.184-.285-.434-.283-.695zM45.892 64.01c0-.398.24-.757.61-.909.368-.152.792-.066 1.072.217.28.283.363.707.208 1.074-.154.368-.515.605-.914.602-.26 0-.51-.104-.693-.289-.183-.184-.285-.434-.283-.695zM26.135 64.01c0-.398.24-.757.609-.909.369-.152.792-.066 1.073.217.28.283.363.707.208 1.074-.155.368-.516.605-.914.602-.26 0-.51-.104-.693-.289-.183-.184-.285-.434-.283-.695z"/>
                    <path fill="#6F3895" d="M50.342 64.01c0-.398.24-.757.609-.909.368-.152.792-.066 1.073.217.28.283.363.707.208 1.074-.155.368-.516.605-.914.602-.26 0-.51-.104-.693-.289-.183-.184-.285-.434-.283-.695zM37.961 64.01c0-.398.24-.757.61-.909.368-.152.791-.066 1.072.217.28.283.363.707.208 1.074-.154.368-.515.605-.914.602-.26 0-.51-.104-.693-.289-.183-.184-.285-.434-.283-.695z"/>
                    <path fill="#263238" d="M28.102 68.241c0 .544-.44.984-.983.984-.544 0-.984-.44-.984-.984 0-.543.44-.983.984-.983.261-.002.512.1.697.286.185.185.288.436.286.697zM32.419 68.241c0 .544-.44.984-.984.984-.543 0-.983-.44-.983-.984 0-.543.44-.983.983-.983.262-.002.513.1.698.286.185.185.288.436.286.697zM36.744 68.241c0 .544-.44.984-.984.984-.543 0-.984-.44-.984-.984 0-.543.44-.983.984-.983.543 0 .984.44.984.983zM41.068 68.241c0 .544-.44.984-.983.984-.544 0-.984-.44-.984-.984 0-.543.44-.983.984-.983.543 0 .983.44.983.983zM74.572 68.241c0 .544-.44.984-.983.984-.544 0-.984-.44-.984-.984 0-.543.44-.983.984-.983.261-.002.513.1.697.286.185.185.288.436.286.697zM78.983 68.241c0 .544-.44.984-.984.984-.543 0-.983-.44-.983-.984 0-.543.44-.983.983-.983.262-.002.513.1.698.286.185.185.288.436.286.697zM45.385 68.241c0 .399-.24.758-.609.91-.369.152-.792.066-1.073-.217-.28-.283-.363-.707-.208-1.074.155-.368.516-.605.914-.602.26 0 .51.104.693.288.183.185.285.435.283.695zM66.626 68.241c0 .544-.44.984-.984.984-.543 0-.984-.44-.984-.984 0-.543.44-.983.984-.983.261-.002.513.1.698.286.185.185.288.436.286.697z"/>
                    <path fill="#F5F5F5" d="M49.71 68.241c0 .399-.24.758-.61.91-.368.152-.792.066-1.072-.217-.28-.283-.363-.707-.208-1.074.154-.368.515-.605.914-.602.26 0 .51.104.693.288.183.185.285.435.283.695zM54.034 68.241c0 .399-.24.758-.609.91-.368.152-.792.066-1.073-.217-.28-.283-.363-.707-.208-1.074.155-.368.516-.605.914-.602.26 0 .51.104.693.288.183.185.285.435.283.695zM62.808 68.241c0 .399-.24.758-.609.91-.368.152-.792.066-1.073-.217-.28-.283-.362-.707-.208-1.074.155-.368.516-.605.915-.602.26 0 .51.104.692.288.184.185.285.435.283.695zM82.566 68.241c0 .399-.24.758-.61.91-.368.152-.791.066-1.072-.217-.28-.283-.363-.707-.208-1.074.154-.368.515-.605.914-.602.26 0 .51.104.693.288.183.185.285.435.283.695z"/>
                    <path fill="#6F3895" d="M58.359 68.241c0 .399-.24.758-.61.91-.368.152-.791.066-1.072-.217-.28-.283-.363-.707-.208-1.074.154-.368.516-.605.914-.602.26 0 .51.104.693.288.183.185.285.435.283.695zM70.74 68.241c0 .399-.241.758-.61.91-.368.152-.792.066-1.072-.217-.281-.283-.363-.707-.209-1.074.155-.368.516-.605.915-.602.26 0 .51.104.692.288.184.185.285.435.283.695z"/>
                    <path fill="#263238" d="M4.473 57.937H21.552999999999997V60.568H4.473zM4.473 62.465H21.552999999999997V65.096H4.473zM4.473 67.141H21.552999999999997V69.772H4.473zM100.411 48.437L87.374 48.468 87.374 26.947 100.411 26.916zM100.411 22.263L87.374 22.302 87.374.781 100.411.742zM100.411 74.83L87.374 74.861 87.374 53.339 100.411 53.308z"/>
                    <path fill="#455A64" d="M1.249 0.578H87.999V22.099999999999998H1.249z"/>
                    <path fill="#263238" d="M5.097 5.012H22.177V7.642999999999999H5.097zM5.097 9.531H22.177V12.162H5.097zM5.097 14.207H22.177V16.838H5.097zM28.937 6.596c.004.399-.234.76-.601.914-.368.155-.792.073-1.075-.208-.283-.28-.368-.704-.217-1.073.152-.368.511-.609.91-.609.26-.002.51.1.695.283.185.184.288.433.288.693z"/>
                    <circle cx="32.278" cy="6.596" r="1" fill="#263238"/>
                    <path fill="#263238" d="M37.587 6.596c.003.399-.235.76-.602.914-.367.155-.792.073-1.075-.208-.283-.28-.368-.704-.216-1.073.151-.368.51-.609.91-.609.54 0 .978.436.983.976z"/>
                    <circle cx="40.928" cy="6.596" r="1" fill="#263238"/>
                    <path fill="#263238" d="M75.415 6.596c.003.399-.234.76-.601.914-.368.155-.792.073-1.075-.208-.283-.28-.369-.704-.217-1.073.152-.368.511-.609.91-.609.26-.002.51.1.695.283.184.184.288.433.288.693z"/>
                    <circle cx="78.842" cy="6.596" r="1" fill="#263238"/>
                    <path fill="#263238" d="M46.228 6.596c.003.402-.238.764-.61.917-.37.153-.797.065-1.077-.222-.28-.288-.358-.716-.197-1.084.162-.367.53-.6.932-.587.53.013.952.446.952.976z"/>
                    <circle cx="66.485" cy="6.596" r="1" fill="#263238"/>
                    <path fill="#F5F5F5" d="M50.553 6.596c.003.4-.236.76-.604.915-.368.154-.793.07-1.075-.212-.283-.282-.366-.707-.212-1.075s.516-.607.915-.604c.539 0 .976.437.976.976zM54.877 6.596c.003.4-.235.76-.603.915-.369.154-.793.07-1.076-.212-.282-.282-.366-.707-.211-1.075.154-.368.515-.607.914-.604.54 0 .976.437.976.976zM63.651 6.596c.004.4-.235.76-.603.915-.368.154-.793.07-1.076-.212-.282-.282-.366-.707-.211-1.075.154-.368.515-.607.915-.604.539 0 .975.437.975.976zM83.409 6.596c.003.4-.236.76-.604.915-.368.154-.793.07-1.075-.212-.283-.282-.366-.707-.212-1.075s.516-.607.915-.604c.539 0 .976.437.976.976z"/>
                    <path fill="#6F3895" d="M59.202 6.596c.003.4-.235.76-.604.915-.368.154-.793.07-1.075-.212-.282-.282-.366-.707-.212-1.075s.516-.607.915-.604c.539 0 .976.437.976.976z"/>
                    <circle cx="70.607" cy="6.596" r="1" fill="#6F3895"/>
                    <path fill="#263238" d="M81.45 11.327c-.004-.399.234-.76.601-.915.367-.154.792-.072 1.075.209.283.28.368.704.216 1.072-.151.369-.51.61-.909.61-.26.002-.51-.1-.695-.284-.185-.183-.289-.432-.289-.692zM77.125 11.327c-.003-.399.234-.76.602-.915.367-.154.791-.072 1.074.209.283.28.369.704.217 1.072-.152.369-.511.61-.91.61-.54 0-.979-.436-.983-.976zM72.8 11.327c-.003-.399.235-.76.602-.915.367-.154.792-.072 1.074.209.283.28.369.704.217 1.072-.152.369-.51.61-.91.61-.54 0-.979-.436-.983-.976zM68.483 11.327c-.003-.4.236-.761.604-.915.368-.154.793-.07 1.075.211.283.283.366.708.212 1.076-.154.368-.516.607-.915.603-.539 0-.976-.436-.976-.975zM34.972 11.327c-.004-.399.234-.76.601-.915.368-.154.792-.072 1.075.209.283.28.368.704.217 1.072-.152.369-.511.61-.91.61-.26.002-.51-.1-.695-.284-.185-.183-.288-.432-.288-.692zM30.561 11.327c-.003-.399.235-.76.602-.915.367-.154.791-.072 1.074.209.283.28.369.704.217 1.072-.152.369-.51.61-.91.61-.54 0-.979-.436-.983-.976zM64.159 11.327c-.003-.4.235-.761.603-.915.369-.154.794-.07 1.076.211.282.283.366.708.212 1.076-.155.368-.516.607-.915.603-.54 0-.976-.436-.976-.975zM42.934 11.327c-.003-.399.234-.76.602-.915.367-.154.791-.072 1.074.209.283.28.369.704.217 1.072-.152.369-.511.61-.91.61-.54 0-.979-.436-.983-.976z"/>
                    <path fill="#F5F5F5" d="M59.834 11.327c-.003-.4.235-.761.604-.915.368-.154.793-.07 1.075.211.283.283.366.708.212 1.076-.154.368-.516.607-.915.603-.539 0-.976-.436-.976-.975zM55.51 11.327c-.004-.4.235-.761.603-.915.368-.154.793-.07 1.076.211.282.283.366.708.211 1.076-.154.368-.515.607-.915.603-.539 0-.975-.436-.975-.975zM46.735 11.327c-.003-.4.236-.761.604-.915.368-.154.793-.07 1.075.211.283.283.366.708.212 1.076-.154.368-.516.607-.915.603-.539 0-.976-.436-.976-.975zM26.978 11.327c-.003-.4.235-.761.604-.915.368-.154.793-.07 1.075.211.282.283.366.708.212 1.076-.154.368-.516.607-.915.603-.54 0-.976-.436-.976-.975z"/>
                    <path fill="#6F3895" d="M51.185 11.327c-.003-.4.235-.761.604-.915.368-.154.793-.07 1.075.211.282.283.366.708.212 1.076-.155.368-.516.607-.915.603-.54 0-.976-.436-.976-.975zM38.804 11.327c-.003-.4.236-.761.604-.915.368-.154.793-.07 1.075.211.283.283.366.708.212 1.076-.154.368-.516.607-.915.603-.539 0-.976-.436-.976-.975z"/>
                    <path fill="#263238" d="M28.937 15.526c0 .544-.44.984-.983.984-.543 0-.984-.44-.984-.984 0-.543.44-.983.984-.983.261-.002.513.1.698.286.185.185.288.436.285.697zM33.262 15.526c0 .544-.44.984-.984.984-.543 0-.983-.44-.983-.984 0-.543.44-.983.983-.983.544 0 .984.44.984.983zM37.587 15.526c0 .544-.44.984-.984.984-.543 0-.984-.44-.984-.984 0-.543.44-.983.984-.983.543 0 .984.44.984.983zM41.911 15.526c0 .544-.44.984-.983.984-.544 0-.984-.44-.984-.984 0-.543.44-.983.984-.983.543 0 .983.44.983.983zM75.415 15.526c0 .544-.44.984-.983.984-.544 0-.984-.44-.984-.984 0-.543.44-.983.984-.983.261-.002.513.1.697.286.185.185.288.436.286.697zM79.826 15.526c0 .544-.44.984-.984.984-.543 0-.983-.44-.983-.984 0-.543.44-.983.983-.983.262-.002.513.1.698.286.185.185.288.436.286.697zM46.228 15.526c0 .399-.24.758-.609.91-.368.152-.792.066-1.073-.217-.28-.283-.363-.707-.208-1.074.155-.368.516-.605.914-.602.26 0 .51.104.693.288.183.185.285.435.283.695zM67.469 15.526c0 .544-.44.984-.984.984-.543 0-.984-.44-.984-.984 0-.543.44-.983.984-.983.262-.002.513.1.698.286.185.185.288.436.286.697z"/>
                    <path fill="#F5F5F5" d="M50.553 15.526c0 .399-.24.758-.61.91-.368.152-.791.066-1.072-.217-.28-.283-.363-.707-.208-1.074.154-.368.515-.605.914-.602.26 0 .51.104.693.288.183.185.285.435.283.695zM54.877 15.526c0 .399-.24.758-.609.91-.368.152-.792.066-1.073-.217-.28-.283-.362-.707-.208-1.074.155-.368.516-.605.914-.602.26 0 .51.104.693.288.183.185.285.435.283.695zM63.651 15.526c0 .399-.24.758-.609.91-.368.152-.792.066-1.072-.217-.281-.283-.363-.707-.209-1.074.155-.368.516-.605.915-.602.26 0 .51.104.692.288.184.185.285.435.283.695zM83.409 15.526c0 .399-.24.758-.61.91-.368.152-.791.066-1.072-.217-.28-.283-.363-.707-.208-1.074.154-.368.515-.605.914-.602.26 0 .51.104.693.288.183.185.285.435.283.695z"/>
                    <path fill="#6F3895" d="M59.202 15.526c0 .399-.24.758-.61.91-.368.152-.791.066-1.072-.217-.28-.283-.363-.707-.208-1.074.155-.368.516-.605.914-.602.26 0 .51.104.693.288.183.185.285.435.283.695zM71.582 15.526c0 .399-.24.758-.609.91-.368.152-.792.066-1.072-.217-.281-.283-.363-.707-.209-1.074.155-.368.516-.605.915-.602.26 0 .51.104.692.288.184.185.286.435.283.695z"/>
                </g>
                <g>
                    <path fill="#F2AA47" fill-rule="nonzero" d="M215.348 62.933h-38.5c-2.66 0-4.816-2.156-4.816-4.816v-53.3c0-2.66 2.156-4.817 4.816-4.817h24.418l18.907 19.515v38.602c-.005 2.661-2.163 4.816-4.825 4.816z" transform="translate(-150 -5132) translate(150 5132) translate(106.164)"/>
                    <path fill="#F3BF78" fill-rule="nonzero" d="M201.266 0v15.003c-.008 1.194.46 2.342 1.301 3.189.842.847 1.986 1.323 3.18 1.323h14.426L201.266 0z" transform="translate(-150 -5132) translate(150 5132) translate(106.164)"/>
                    <g stroke="#FFF" transform="translate(-150 -5132) translate(150 5132) translate(106.164) translate(180.836 11)">
                        <ellipse cx="12.5" cy="12.5" rx="4" ry="11" transform="rotate(-31 12.5 12.5)"/>
                        <ellipse cx="12.5" cy="12.5" rx="4" ry="11" transform="scale(1 -1) rotate(-31 -32.574 0)"/>
                        <circle cx="12.49" cy="12.197" r="2" fill="#FFF"/>
                        <ellipse cx="12.5" cy="12.5" rx="4" ry="11" transform="scale(1 -1) rotate(-86 -.905 0)"/>
                    </g>
                    <g fill="#000" fill-rule="nonzero" opacity=".2">
                        <path d="M.062.703S-.125 4.34 4.02 5.535c.154.044.31.08.469.109C6.378 5.98 18.774 8.189 18.774 7.9V3.903H4.348S.781 3.747.062.703z" transform="translate(-150 -5132) translate(150 5132) translate(106.164) translate(201.399 15.612)"/>
                    </g>
                    <g fill="#000" fill-rule="nonzero" opacity=".2">
                        <path d="M1.257.125H47.46c.523.017.937.445.937.968V14.16c0 1.342-.533 2.629-1.481 3.577-.949.949-2.236 1.482-3.577 1.482H5.347c-1.341 0-2.628-.533-3.577-1.482C.822 16.79.29 15.502.29 14.16V1.093c0-.535.433-.968.968-.968z" transform="translate(-150 -5132) translate(150 5132) translate(106.164) translate(171.735 43.714)"/>
                    </g>
                    <path fill="#FFF" fill-rule="nonzero" d="M185.766 57v-2.191h.645L187.774 57h1.344c-.26-.375-.82-1.204-1.68-2.488.338-.149.6-.354.785-.616.185-.261.277-.56.277-.896 0-.576-.186-1.005-.558-1.287-.373-.283-.947-.424-1.723-.424h-1.664V57h1.211zm.39-3.176h-.39v-1.543h.367c.39 0 .68.058.865.172.187.115.28.307.28.578 0 .274-.091.474-.274.602-.182.127-.465.191-.847.191zm7.07 3.176v-1h-2.079v-1.473h1.934v-.992h-1.934v-1.254h2.078v-.992h-3.289V57h3.29zm1.877 0l.414-1.36h2.082l.414 1.36h1.305l-2.024-5.734h-1.48L193.798 57h1.305zm2.207-2.375h-1.489c.271-.877.47-1.535.6-1.976l.068-.238c.03-.106.054-.192.07-.259.022.094.056.222.104.383.048.162.264.858.647 2.09zm5.139 2.453c.578 0 1.101-.098 1.57-.293V55.77c-.57.2-1.056.3-1.457.3-.956 0-1.434-.636-1.434-1.91 0-.612.125-1.089.375-1.431.25-.343.603-.514 1.06-.514.207 0 .42.038.636.113.216.076.43.164.644.266l.391-.985c-.56-.268-1.117-.402-1.672-.402-.544 0-1.019.12-1.424.357-.405.239-.715.581-.931 1.028-.217.446-.325.967-.325 1.56 0 .943.22 1.666.66 2.17.44.504 1.076.756 1.907.756zm5.088-.078v-4.703h1.55v-1.008h-4.312v1.008h1.551V57h1.211z" transform="translate(-150 -5132) translate(150 5132) translate(106.164)"/>
                    <path fill="#353E63" fill-rule="nonzero" d="M299.428 62.933h-38.507c-1.278 0-2.503-.507-3.406-1.41-.903-.904-1.41-2.129-1.41-3.406v-53.3c0-1.278.507-2.503 1.41-3.406C258.418.507 259.643 0 260.921 0h24.417l18.907 19.515v38.602c0 2.66-2.156 4.816-4.817 4.816z" transform="translate(-150 -5132) translate(150 5132) translate(106.164)"/>
                    <g fill="#FFF">
                        <path d="M22.386 8.465c.238.157.594.283 1.04.378.445.126.92.157 1.396.157.475 0 .89-.063 1.277-.189.386-.126.713-.314 1.01-.535.267-.22.505-.503.653-.85.149-.346.238-.692.238-1.132 0-.504-.149-.944-.416-1.353-.267-.378-.742-.693-1.396-.913l-1.277-.44c-.475-.158-.832-.347-1.01-.536-.178-.188-.267-.409-.267-.692 0-.377.148-.692.416-.85.297-.188.683-.283 1.217-.283.654 0 1.218.126 1.753.378.148.063.267.126.356.126.149 0 .208-.095.208-.315v-.378c0-.125-.03-.251-.089-.314-.06-.095-.148-.189-.267-.252-.09-.063-.238-.126-.386-.157-.149-.063-.327-.095-.505-.158-.179-.031-.387-.094-.594-.094C25.535 0 25.327 0 25.119 0c-.416 0-.772.063-1.129.157-.356.126-.683.284-.95.504-.268.22-.476.472-.654.787-.178.314-.237.66-.237 1.07 0 .503.148.975.445 1.384.297.44.772.755 1.456.976l1.306.44c.446.158.743.315.921.504.178.188.238.409.238.66 0 .378-.149.693-.475.913-.327.22-.743.315-1.337.315-.356 0-.713-.032-1.07-.126-.356-.063-.683-.189-1.01-.346-.088-.032-.177-.063-.237-.095-.06-.031-.119-.031-.178-.031-.149 0-.208.094-.208.315v.472c0 .094.03.188.06.283.089.126.178.189.326.283M6.021 3.794c-.327-.062-.655-.062-.953-.062-.923 0-1.668.25-2.234.752C2.268 4.986 2 5.644 2 6.46c0 .784.209 1.38.655 1.85.447.47 1.043.69 1.817.69 1.073 0 1.966-.439 2.681-1.317.09.22.179.408.268.564.09.157.209.314.328.44.09.093.179.125.268.125.06 0 .149-.032.238-.094l.566-.408c.12-.094.179-.188.179-.282 0-.063-.03-.126-.06-.22-.119-.25-.238-.47-.297-.69-.06-.219-.09-.501-.09-.846V3.136c0-1.035-.238-1.819-.744-2.352C7.302.251 6.528 0 5.426 0c-.507 0-.983.063-1.43.188-.417.126-.805.251-1.132.44-.12.062-.209.125-.238.187-.06.063-.06.188-.06.345v.47c0 .189.06.314.179.314.03 0 .089 0 .149-.031s.178-.063.327-.126c.328-.125.656-.25.983-.313.328-.094.656-.126.983-.126.715 0 1.192.157 1.49.44.297.282.417.815.417 1.536v.69c-.388-.094-.715-.157-1.073-.22zm1.043 1.694c0 .313-.03.596-.09.815-.06.22-.148.44-.297.596-.239.282-.537.502-.864.596-.328.125-.656.188-.953.188-.417 0-.745-.126-.954-.345-.208-.22-.327-.564-.327-1.004 0-.47.149-.846.447-1.097.297-.25.744-.376 1.34-.376.268 0 .566.031.864.062.298.032.566.094.834.157v.408zM11.4 8.502c.065.2.13.332.195.398.064.067.194.1.389.1h.843c.195 0 .324-.033.39-.1.064-.066.129-.199.194-.398l1.524-6.543 1.557 6.543c.032.2.097.332.194.398.065.067.228.1.39.1h.843c.162 0 .292-.033.39-.1.064-.066.161-.199.194-.398l2.4-7.838c.032-.1.065-.2.065-.232 0-.067.032-.1.032-.166 0-.166-.065-.233-.227-.233h-.908c-.195 0-.324.033-.39.1-.064.066-.13.2-.194.398L17.562 7.34 15.973.5c-.032-.2-.097-.333-.195-.4C15.714.034 15.551 0 15.39 0h-.81c-.195 0-.325.033-.39.1-.065.066-.13.199-.194.398l-1.557 6.709L10.784.498c-.065-.2-.13-.332-.195-.398-.065-.067-.194-.1-.389-.1h-.973C9.065 0 9 .066 9 .232c0 .067.032.2.097.399l2.303 7.87M26.278 13.653c-3.614 1.523-7.583 2.253-11.165 2.253-5.325 0-10.488-1.428-14.65-3.84-.356-.221-.646.16-.323.445C4.012 15.938 9.11 18 14.79 18c4.034 0 8.745-1.237 12.004-3.617.484-.38.033-.952-.516-.73" transform="translate(-150 -5132) translate(150 5132) translate(106.164) translate(264.836 19)"/>
                        <path d="M24.203 11.974c-.313.212-.244.53.07.494 1.114-.141 3.656-.458 4.074.14.452.565-.488 2.962-.906 4.055-.139.317.14.458.453.211 1.88-1.586 2.368-4.935 1.985-5.393-.383-.529-3.691-.917-5.676.493" transform="translate(-150 -5132) translate(150 5132) translate(106.164) translate(264.836 19)"/>
                    </g>
                    <g fill="#000" fill-rule="nonzero" opacity=".2">
                        <path d="M.062.125h48.141v14.129c0 2.742-2.223 4.965-4.965 4.965H4.988c-2.742 0-4.965-2.223-4.965-4.965V.124h.04z" transform="translate(-150 -5132) translate(150 5132) translate(106.164) translate(256.042 43.714)"/>
                    </g>
                    <path fill="#FFF" fill-rule="nonzero" d="M272.141 57l.414-1.36h2.082l.414 1.36h1.305l-2.024-5.734h-1.48L270.836 57h1.305zm2.207-2.375h-1.488c.27-.877.47-1.535.599-1.976l.068-.238c.03-.106.054-.192.071-.259.02.094.055.222.104.383.048.162.263.858.646 2.09zm4.94 2.375l.77-2.992c.033-.133.081-.355.144-.666.062-.311.101-.537.117-.678.01.115.05.34.12.674.068.335.117.555.146.662l.773 3h1.38l1.452-5.71H283l-.727 3.116c-.047.188-.099.433-.156.737-.057.303-.099.556-.125.76-.029-.212-.07-.464-.125-.758-.055-.295-.1-.513-.137-.657l-.832-3.199h-1.144l-.832 3.2c-.05.171-.103.413-.159.724-.056.311-.091.54-.107.69-.057-.423-.15-.921-.277-1.497l-.73-3.117h-1.192L277.913 57h1.375zm6.987.078c.661 0 1.177-.148 1.548-.445.371-.297.557-.703.557-1.219 0-.372-.099-.687-.297-.943-.198-.257-.564-.513-1.097-.768-.404-.193-.66-.326-.768-.4-.108-.074-.187-.151-.236-.23-.05-.08-.075-.173-.075-.28 0-.172.062-.311.184-.418.122-.107.298-.16.527-.16.193 0 .389.025.588.074.2.05.451.137.756.262l.39-.942c-.294-.127-.575-.226-.845-.297-.27-.07-.553-.105-.85-.105-.604 0-1.077.145-1.42.434-.342.289-.513.686-.513 1.191 0 .268.052.503.156.703.104.2.244.376.418.528.174.15.436.308.785.472.373.177.62.306.74.387.121.08.213.165.276.252.062.087.094.187.094.299 0 .2-.071.351-.213.453-.142.101-.346.152-.612.152-.221 0-.465-.035-.732-.105-.267-.07-.593-.192-.979-.364v1.125c.47.23 1.008.344 1.618.344z" transform="translate(-150 -5132) translate(150 5132) translate(106.164)"/>
                    <path fill="#2A6291" fill-rule="nonzero" d="M285.338 0v15.003c-.008 1.194.46 2.342 1.302 3.189.84.847 1.985 1.323 3.18 1.323h14.425L285.338 0z" transform="translate(-150 -5132) translate(150 5132) translate(106.164)"/>
                    <g fill="#000" fill-rule="nonzero" opacity=".2">
                        <path d="M.617.703S.422 4.34 4.567 5.535c.156.044.315.08.476.109C6.924 5.98 19.32 8.189 19.32 7.9V3.903H4.894S1.296 3.747.617.703z" transform="translate(-150 -5132) translate(150 5132) translate(106.164) translate(284.925 15.612)"/>
                    </g>
                    <path fill="#693B88" fill-rule="nonzero" d="M130.082 62.933H91.574c-2.66 0-4.816-2.156-4.816-4.816v-53.3c0-2.66 2.156-4.817 4.816-4.817h24.425l18.9 19.515v38.602c0 2.66-2.157 4.816-4.817 4.816z" transform="translate(-150 -5132) translate(150 5132) translate(106.164)"/>
                    <g fill="#FFF" fill-rule="nonzero">
                        <path d="M10.616 14.756h4.768L13 9.031l-2.384 5.725zM13 0L0 4.65l1.99 17.231L13 28l11.01-6.119L26 4.651 13 0zm8.145 21.363h-3.04l-1.64-4.088H9.548l-1.64 4.088H4.861L13 3.093l8.145 18.27z" transform="translate(-150 -5132) translate(150 5132) translate(106.164) translate(97.836 12)"/>
                    </g>
                    <g fill="#000" fill-rule="nonzero" opacity=".2">
                        <path d="M.11.125h48.14v13.754c0 2.94-2.376 5.327-5.316 5.34H5.464c-2.949 0-5.34-2.39-5.34-5.34V.125H.11z" transform="translate(-150 -5132) translate(150 5132) translate(106.164) translate(86.648 43.714)"/>
                    </g>
                    <path fill="#FFF" fill-rule="nonzero" d="M93.141 57l.414-1.36h2.082l.414 1.36h1.305l-2.024-5.734h-1.48L91.836 57h1.305zm2.207-2.375H93.86c.27-.877.47-1.535.599-1.976l.068-.238c.03-.106.054-.192.071-.259.02.094.055.222.104.383.048.162.263.858.646 2.09zM99.257 57v-2.688c0-.325-.025-.87-.075-1.632h.036l2.484 4.32h1.539v-5.71h-1.09v2.702c0 .307.02.832.059 1.574h-.028l-2.48-4.277h-1.527V57h1.082zm7.924.078c.338 0 .67-.024.994-.072.324-.048.67-.132 1.037-.252v-2.961h-2.266v1.008h1.082v1.191c-.26.052-.516.078-.769.078-.484 0-.854-.163-1.107-.49-.254-.327-.381-.8-.381-1.42 0-.594.157-1.066.472-1.418.315-.351.735-.527 1.258-.527.45 0 .884.104 1.3.312l.403-.968c-.544-.235-1.11-.352-1.695-.352-.935 0-1.666.258-2.193.773-.528.516-.791 1.235-.791 2.157 0 .948.227 1.675.681 2.181.455.507 1.113.76 1.975.76zm5.772 0c.487 0 .909-.085 1.265-.254.357-.17.63-.413.819-.73.188-.318.283-.688.283-1.11V51.29h-1.207v3.488c0 .443-.09.768-.268.975-.178.207-.465.31-.861.31-.409 0-.702-.102-.879-.308-.177-.206-.266-.529-.266-.969V51.29h-1.207v3.68c0 .653.204 1.168.61 1.545.406.376.976.564 1.71.564zm7.393-.078v-1h-2.317v-4.71h-1.21V57h3.527zm1.678 0l.414-1.36h2.082l.414 1.36h1.305l-2.024-5.734h-1.48L120.719 57h1.305zm2.207-2.375h-1.488c.27-.877.47-1.535.599-1.976l.068-.238c.03-.106.054-.192.07-.259.022.094.056.222.104.383.049.162.264.858.647 2.09zM128.268 57v-2.191h.645L130.276 57h1.344c-.26-.375-.82-1.204-1.68-2.488.339-.149.6-.354.785-.616.185-.261.278-.56.278-.896 0-.576-.186-1.005-.559-1.287-.372-.283-.947-.424-1.723-.424h-1.664V57h1.211zm.391-3.176h-.39v-1.543h.367c.39 0 .679.058.865.172.186.115.279.307.279.578 0 .274-.091.474-.273.602-.183.127-.465.191-.848.191z" transform="translate(-150 -5132) translate(150 5132) translate(106.164)"/>
                    <path fill="#6F3895" fill-rule="nonzero" d="M116 0v15.003c-.009 1.194.46 2.342 1.3 3.189.842.847 1.986 1.323 3.18 1.323h14.418L116 0z" transform="translate(-150 -5132) translate(150 5132) translate(106.164)"/>
                    <g fill="#000" fill-rule="nonzero" opacity=".2">
                        <path d="M.664.703S.476 4.34 4.614 5.535c.156.044.315.08.476.109C6.97 5.98 19.367 8.189 19.367 7.9V3.903H4.95S1.343 3.747.664.703z" transform="translate(-150 -5132) translate(150 5132) translate(106.164) translate(115.531 15.612)"/>
                    </g>
                    <path fill="#D74C41" fill-rule="nonzero" d="M44.035 62.933H5.527c-2.66 0-4.817-2.156-4.817-4.816v-53.3C.71 2.156 2.867 0 5.527 0h24.417l18.907 19.515v38.602c0 2.66-2.156 4.816-4.816 4.816z" transform="translate(-150 -5132) translate(150 5132) translate(106.164)"/>
                    <g fill="#000" fill-rule="nonzero" opacity=".2">
                        <path d="M.71.125h48.14v13.708c0 2.974-2.41 5.386-5.385 5.386H6.097c-2.975 0-5.387-2.412-5.387-5.386V.125z" transform="translate(-150 -5132) translate(150 5132) translate(106.164) translate(0 43.714)"/>
                    </g>
                    <g fill="#FFF" fill-rule="nonzero" opacity=".2">
                        <path d="M.28 0v15.003c-.007 1.194.461 2.342 1.302 3.189.842.847 1.986 1.323 3.18 1.323h14.426L.28 0z" transform="translate(-150 -5132) translate(150 5132) translate(106.164) translate(29.663)"/>
                    </g>
                    <g fill="#000" fill-rule="nonzero" opacity=".2">
                        <path d="M.484.703S.289 4.34 4.434 5.535c.157.044.316.08.476.109C6.791 5.98 19.188 8.189 19.188 7.9V3.903H4.762S1.163 3.747.484.703z" transform="translate(-150 -5132) translate(150 5132) translate(106.164) translate(29.663 15.612)"/>
                    </g>
                    <path fill="#FAFAFA" fill-rule="nonzero" d="M20.483 28.102L14.699 30.218 20.483 32.317 20.483 34.488 12.217 31.365 12.217 29.062 20.483 25.94zM26.689 21.646L29.101 21.646 23.372 37.993 20.96 37.993zM37.673 29.062L37.673 31.318 29.414 34.441 29.414 32.286 35.19 30.186 29.414 28.102 29.414 25.916zM18.516 50.943L18.516 57.414 17.017 57.414 17.017 54.76 14.051 54.76 14.051 57.414 12.56 57.414 12.56 50.943 14.051 50.943 14.051 53.496 16.994 53.496 16.994 50.943zM21.389 52.161L19.32 52.161 19.32 50.943 24.98 50.943 24.98 52.161 22.911 52.161 22.911 57.414 21.389 57.414zM31.646 57.414L31.646 53.511 29.741 56.704 29.07 56.704 27.173 53.581 27.173 57.383 25.76 57.383 25.76 50.943 27.001 50.943 29.421 54.963 31.802 50.943 33.036 50.943 33.036 57.414zM34.581 50.943L36.08 50.943 36.08 56.204 39.327 56.204 39.327 57.422 34.581 57.422z" transform="translate(-150 -5132) translate(150 5132) translate(106.164)"/>
                    <g fill="#FFF" fill-rule="nonzero" opacity=".2">
                        <path d="M.468 0v15.003c-.008 1.194.46 2.342 1.302 3.189.84.847 1.985 1.323 3.18 1.323h14.417L.468 0z" transform="translate(-150 -5132) translate(150 5132) translate(106.164) translate(115.531)"/>
                    </g>
                </g>
            </g>
        </g>
    </g>
</svg>
