<svg xmlns="http://www.w3.org/2000/svg" xmlns:xlink="http://www.w3.org/1999/xlink" width="117" height="100" viewBox="0 0 117 100">
    <defs>
        <path id="prefix__a" d="M0.22 0.009L79.238 0.009 79.238 40.463 0.22 40.463z"/>
        <path id="prefix__c" d="M0.175 0.212L115.594 0.212 115.594 0.473 0.175 0.473z"/>
        <path id="prefix__e" d="M0.252 0.233L10.84 0.233 10.84 5.482 0.252 5.482z"/>
    </defs>
    <g fill="none" fill-rule="evenodd">
        <g>
            <path fill="#E1E1E1" d="M108.448 40.202H36.26c-1.727 0-3.127-1.265-3.127-2.827V3.097c0-1.562 1.4-2.827 3.127-2.827h72.187c1.726 0 3.127 1.265 3.127 2.827v34.278c0 1.562-1.4 2.827-3.127 2.827" transform="translate(0 .252)"/>
            <g transform="translate(0 .252) translate(32.626)">
                <mask id="prefix__b" fill="#fff">
                    <use xlink:href="#prefix__a"/>
                </mask>
                <path fill="#E1E1E1" d="M3.636.53C2.07.53.797 1.683.797 3.098v34.278c0 1.415 1.274 2.566 2.839 2.566h72.186c1.565 0 2.839-1.15 2.839-2.566V3.097c0-1.415-1.274-2.566-2.84-2.566H3.637zm72.186 39.933H3.636c-1.884 0-3.416-1.385-3.416-3.088V3.097C.22 1.394 1.752.009 3.636.009h72.186c1.883 0 3.416 1.385 3.416 3.088v34.278c0 1.703-1.533 3.088-3.416 3.088z" mask="url(#prefix__b)"/>
            </g>
            <path fill="#ECECEC" d="M37.386 45.82l-.269 18.74v.02h-.022L.03 64.587H0v-.027-3.476L.002 41.2v-.026H.03l20.613.006h.02l.002.018c.064.66.336 1.279.73 1.797.392.522.894.95 1.43 1.295 1.088.69 2.326.996 3.473 1.154 1.155.159 2.245.175 3.244.2l2.74.06c3.249.073 4.894.11 5.104.116l-5.11-.096-2.735-.053c-1-.024-2.09-.039-3.248-.196-1.15-.157-2.395-.463-3.49-1.156-.54-.347-1.046-.777-1.443-1.302-.397-.523-.672-1.148-.738-1.816l.021.018-20.613.006.028-.025.002 19.883v3.476l-.03-.027 37.065.006-.022.02.313-18.738" transform="translate(0 .252)"/>
            <path fill="#E1E1E1" d="M60.862 95.435s-.004-.125-.006-.362l-.006-1.049-.015-4.009-.031-14.601.058.052-37.796.016h-.003l.076-.068-.006 20.021-.07-.063 27.19.03 7.806.018 2.08.008.538.003.185.004s-.058.003-.176.004l-.53.004-2.067.008-7.79.017-27.236.03h-.07v-.063l-.005-20.021v-.068h.078l37.796.015h.058v.053l-.03 14.633-.015 3.998-.007 1.04c-.002.233-.006.35-.006.35" transform="translate(0 .252)"/>
            <path fill="#E1E1E1" d="M59.18 76.624c.007.022-.177.027-.3.219-.058.09-.095.224-.041.345.049.12.208.2.381.193.173-.008.323-.1.359-.226.04-.124-.011-.254-.078-.34-.143-.18-.326-.169-.321-.191-.002-.006.04-.024.118-.015.078.007.19.05.286.147.091.094.176.25.129.432-.045.186-.263.323-.486.328-.222.014-.454-.103-.518-.284-.066-.177.001-.34.082-.442.085-.104.192-.157.269-.17.077-.016.12-.002.12.004M24.681 76.624c.007.022-.176.027-.3.219-.057.09-.094.224-.04.345.048.12.208.2.38.193.173-.008.324-.1.36-.226.04-.124-.011-.254-.078-.34-.143-.18-.326-.169-.322-.191 0-.006.04-.024.119-.015.078.007.19.05.286.147.091.094.176.25.128.432-.044.186-.262.323-.485.328-.222.014-.454-.103-.518-.284-.066-.177.001-.34.081-.442.086-.104.193-.157.27-.17.077-.016.12-.002.12.004M59.222 93.586c.007.021-.176.027-.3.219-.056.09-.094.224-.04.344.049.121.208.2.381.193.173-.007.323-.1.359-.226.04-.124-.01-.254-.078-.339-.143-.18-.326-.169-.322-.191 0-.007.04-.024.12-.016.077.008.19.05.285.147.091.095.176.251.129.433-.045.185-.263.322-.486.328-.222.013-.454-.103-.518-.285-.066-.176.001-.34.082-.441.085-.105.192-.157.269-.171.077-.015.12-.002.12.005M64.211 76.624c.007.022-.176.027-.3.219-.057.09-.095.224-.04.345.048.12.208.2.38.193.173-.008.324-.1.36-.226.04-.124-.011-.254-.078-.34-.143-.18-.327-.169-.322-.191 0-.006.04-.024.119-.015.078.007.19.05.286.147.09.094.175.25.128.432-.044.186-.263.323-.485.328-.222.014-.454-.103-.518-.284-.067-.177 0-.34.081-.442.086-.104.192-.157.27-.17.077-.016.12-.002.12.004M64.254 93.586c.007.021-.176.027-.3.219-.057.09-.094.224-.04.344.048.121.208.2.38.193.173-.007.324-.1.36-.226.04-.124-.011-.254-.078-.339-.144-.18-.327-.169-.322-.191 0-.007.04-.024.119-.016.078.008.19.05.286.147.091.095.176.251.128.433-.044.185-.263.322-.485.328-.222.013-.454-.103-.518-.285-.067-.176 0-.34.081-.441.086-.105.193-.157.27-.171.076-.015.12-.002.12.005M76.852 76.624c.007.022-.177.027-.3.219-.057.09-.095.224-.041.345.049.12.208.2.381.193.173-.008.323-.1.359-.226.04-.124-.011-.254-.078-.34-.143-.18-.326-.169-.321-.191-.001-.006.04-.024.118-.015.078.007.19.05.286.147.091.094.176.25.129.432-.045.186-.263.323-.486.328-.222.014-.454-.103-.518-.284-.066-.177.001-.34.082-.442.085-.104.192-.157.269-.17.077-.016.12-.002.12.004M76.895 93.586c.006.021-.177.027-.3.219-.057.09-.095.224-.041.344.049.121.208.2.381.193.173-.007.323-.1.359-.226.04-.124-.01-.254-.078-.339-.143-.18-.326-.169-.321-.191-.001-.007.04-.024.119-.016.077.008.19.05.285.147.092.095.176.251.129.433-.045.185-.263.322-.486.328-.222.013-.454-.103-.517-.285-.067-.176 0-.34.08-.441.086-.105.193-.157.27-.171.077-.015.12-.002.12.005M24.638 93.586c.007.021-.176.027-.3.219-.057.09-.095.224-.04.344.048.121.208.2.38.193.173-.007.324-.1.36-.226.04-.124-.012-.254-.078-.339-.143-.18-.326-.169-.322-.191 0-.007.04-.024.12-.016.077.008.189.05.285.147.09.095.175.251.128.433-.044.185-.263.322-.485.328-.222.013-.454-.103-.518-.285-.067-.176.001-.34.082-.441.085-.105.192-.157.268-.171.078-.015.12-.002.12.005" transform="translate(0 .252)"/>
            <path fill="#E1E1E1" d="M73.008 95.435s-.003-.035-.005-.1L73 95.046l-.009-1.111c-.004-.972-.01-2.381-.02-4.154-.007-3.545-.02-8.541-.033-14.367l.071.064-10.72.004h-.002l.075-.068-.02 20.021-.055-.05 7.826.027 2.14.013.56.005c.128.002.196.005.196.005s-.06.004-.184.005l-.55.006-2.128.012-7.86.027h-.055v-.05l-.02-20.021v-.068h.077c3.775 0 7.402.002 10.72.004h.071v.064l-.034 14.41-.02 4.139-.009 1.098c-.001.12-.002.214-.004.282-.001.062-.002.094-.004.092" transform="translate(0 .252)"/>
            <path fill="#E1E1E1" d="M72.76 85.08c0 .039-2.275.07-5.081.07-2.807 0-5.082-.031-5.082-.07 0-.037 2.275-.067 5.082-.067 2.806 0 5.082.03 5.082.068M105.883 95.435s-.004-.127-.006-.367l-.007-1.062-.016-4.038-.032-14.554.061.055-31.123.013h-.003l.075-.068-.007 20.021-.068-.062c9.189.013 16.96.024 22.44.03l6.395.017 1.7.008.44.004c.099 0 .151.003.151.003s-.047.003-.143.004l-.432.003-1.686.008-6.38.016-22.485.03h-.068v-.06l-.007-20.022v-.068h.078l31.123.013h.061v.055l-.032 14.588-.015 4.026-.007 1.052c-.002.236-.007.355-.007.355M.88 5.18v30.752h25.312V5.174S.88 5.428.88 5.18" transform="translate(0 .252)"/>
            <path fill="#ECECEC" d="M0.88 5.244L0.88 10.029 26.201 10.168 26.201 5.18z" transform="translate(0 .252)"/>
            <path fill="#FFF" d="M10.036 7.381v.936h8.108v-.81s-7.9-.126-8.108-.126" transform="translate(0 .252)"/>
            <path fill="#FAFAFA" d="M2.292 19.913L10.218 19.913 10.218 12.229 2.292 12.229zM9.11 27.962s.12-.004.35-.006l1.005-.006 3.684-.009-.023.021-.007-8.617V17.39h.03l7.287.006-.023.02.06-3.404.02-.93c.005-.212.011-.325.011-.325s.003.113.002.325l-.007.93-.04 3.405v.02h-.023l-7.287.007.03-.027v1.927l-.007 8.617v.02h-.023l-3.684-.009-1.004-.005c-.23-.002-.352-.006-.352-.006" transform="translate(0 .252)"/>
            <path fill="#ECECEC" d="M24.03 30.238s-.209.005-.6.008l-1.697.006-6.054.01h-.026v-.024l-.004-7.592.001-3.546v-.026h.03c1.803 0 3.486.002 4.998.003l-.026.023.01-5.137.008-1.435c.002-.33.008-.506.008-.506s.005.176.007.506l.007 1.435c.003 1.246.007 3.013.01 5.137l.001.023h-.025l-4.999.003.03-.026v3.546l-.004 7.592-.026-.023 6.054.01 1.697.006c.391.002.6.007.6.007" transform="translate(0 .252)"/>
            <path fill="#FAFAFA" d="M2.342 21.593L2.342 22.315 8.754 22.315 8.754 21.449zM2.292 22.85L2.292 23.572 8.704 23.572 8.704 22.706z" transform="translate(0 .252)"/>
            <path fill="#ECECEC" d="M115.637 64.56l-.022-18.37.022.02-44.229.008h-.002l.03-.027-.002 18.369-.028-.026 44.23.026-44.23.026h-.03v-.026-18.396h.032l44.229.007h.021v.02l-.021 18.369" transform="translate(0 .252)"/>
        </g>
        <g transform="translate(.289 97.619)">
            <mask id="prefix__d" fill="#fff">
                <use xlink:href="#prefix__c"/>
            </mask>
            <path fill="#1A2E35" d="M115.594.342c0 .038-25.84.068-57.707.068C26.009.41.175.38.175.342c0-.038 25.834-.068 57.712-.068 31.867 0 57.707.03 57.707.068" mask="url(#prefix__d)"/>
        </g>
        <path fill="#1A2E35" d="M17.974 97.958L20.436 97.958 20.436 70.095 17.974 70.095zM95.084 97.961L97.546 97.961 97.546 70.095 95.084 70.095z"/>
        <path fill="#375A64" d="M99.666 70.38H17.073c-.947 0-1.715-.693-1.715-1.55v-.425c0-.856.768-1.55 1.715-1.55h82.593c.947 0 1.715.694 1.715 1.55v.425c0 .857-.768 1.55-1.715 1.55"/>
        <g>
            <path fill="#353E63" d="M25.736 6.712L15.963 3.54 6.285 6.67c-1.235.528-2.319.844-2.319 1.885v5.18c0 3.598 1.043 7.164 3.188 10.312 1.805 2.648 4.6 5.376 8.904 7.11 3.956-1.162 6.909-4.26 8.714-6.908 2.145-3.148 3.188-6.713 3.188-10.312V9.278c0-1.484-.87-2.209-2.224-2.566" transform="translate(72.734 3.291)"/>
            <path fill="#000" fill-opacity=".15" d="M16.058 28.149c-3.405-1.372-5.616-3.576-7.045-5.671-1.697-2.49-2.522-5.312-2.522-8.158v-3.635c0-.823.55-1.594 1.64-2.054l7.834-2.649-.002-2.443-9.678 3.13c-1.016.402-2.319.844-2.319 1.885v5.18c0 3.598 1.043 7.164 3.188 10.312 1.805 2.648 4.6 5.376 8.904 7.11v-3.007z" transform="translate(72.734 3.291)"/>
            <path fill="#000" fill-opacity=".15" d="M16.058 31.155c.685-.207 1.315-.446 1.92-.744 1.623-.8 3.006-1.897 4.063-2.89 1.181-1.11 2.061-2.311 2.826-3.433 2.145-3.147 3.188-6.713 3.093-10.41l.006-4.277c-.006-2.13-1.215-2.288-2.23-2.689L15.963 3.54l.002 2.444 7.925 2.69c1.09.46 1.64 1.232 1.64 2.055v3.634c0 2.847-.825 5.668-2.522 8.158-1.429 2.096-3.545 4.257-6.95 5.628v3.007z" transform="translate(72.734 3.291)"/>
            <path fill="#61A5B0" d="M18.009 14.08h-3.981l.01-.693c0-.992.894-1.8 1.991-1.8 1.098 0 1.99.808 1.99 1.797l-.01.697zm-1.303 4.382h-1.24l.194-.809c-.214-.12-.357-.334-.357-.58 0-.377.338-.682.755-.682s.755.305.755.683c0 .236-.133.444-.334.567.088.313.227.821.227.821zm1.85-4.376l.01-.699c0-1.265-1.138-2.294-2.537-2.294s-2.537 1.03-2.537 2.29l-.011.713c-.685.092-1.21.624-1.21 1.268v4.125c0 .708.635 1.283 1.42 1.283h4.735c.784 0 1.42-.575 1.42-1.283v-4.125c0-.669-.567-1.218-1.29-1.278z" transform="translate(72.734 3.291)"/>
            <path fill="#FFF" d="M8.075 14.036c-.022.003-.09-.27-.147-.717-.058-.448-.102-1.071-.08-1.76.012-.344.037-.67.071-.967.032-.297.092-.575.219-.782.124-.21.297-.334.428-.39.132-.055.215-.052.216-.044.017.02-.33.081-.536.483-.102.194-.147.452-.17.746-.025.294-.045.618-.056.96-.023.68.001 1.298.029 1.744.026.447.051.724.026.727M8.219 16.292c-.048 0-.09-.212-.096-.476-.006-.263.028-.477.075-.479.047 0 .09.212.096.476.005.263-.028.478-.075.479" transform="translate(72.734 3.291)"/>
            <path fill="#353E63" d="M29.052 4.09s.276.05.775.229c.249.088.551.22.874.426.318.208.666.496.912.91.253.408.404.925.421 1.495.015.569.008 1.185.012 1.85 0 1.33.014 2.85.003 4.544-.016 1.694-.255 3.56-.79 5.52-.548 1.956-1.417 4-2.688 5.994-1.278 1.987-2.902 3.954-4.936 5.713-2.029 1.747-4.515 3.293-7.43 4.112l-.025.008-.024-.01c-1.003-.391-2.003-.829-2.983-1.333-.974-.511-1.93-1.08-2.85-1.714-1.842-1.263-3.52-2.801-4.967-4.533-1.579-1.89-2.826-3.96-3.698-6.1C.783 19.06.276 16.851.106 14.686c-.092-1.084-.067-2.155-.07-3.205V8.38l.002-1.512c.003-.249-.012-.496.029-.753.039-.255.161-.498.334-.697.35-.403.846-.643 1.32-.856.482-.208.97-.387 1.442-.578l.003-.001.003-.001L16.042.06l.016-.005.016.005 9.55 2.953 2.55.795.657.208c.148.048.221.075.221.075s-.076-.02-.225-.063l-.66-.196-2.558-.773L16.042.144h.032L3.21 4.092l.006-.001c-.475.192-.962.372-1.437.578-.469.21-.948.448-1.271.823-.16.185-.272.406-.308.642-.037.233-.023.485-.026.734L.175 8.38l.002 3.102C.18 12.534.158 13.6.25 14.677c.171 2.154.677 4.349 1.548 6.477.868 2.128 2.108 4.185 3.678 6.065 1.439 1.722 3.107 3.251 4.939 4.508.914.63 1.863 1.196 2.832 1.705.974.502 1.968.938 2.965 1.328l-.05-.003c2.888-.81 5.358-2.34 7.378-4.077 2.025-1.746 3.647-3.704 4.922-5.679 1.27-1.982 2.139-4.015 2.69-5.96.537-1.951.782-3.81.804-5.498L31.974 9c-.001-.665.01-1.283-.001-1.848-.014-.563-.159-1.072-.404-1.476-.238-.408-.578-.694-.89-.903-.317-.206-.615-.341-.862-.433-.246-.094-.439-.153-.569-.19-.13-.037-.196-.06-.196-.06" transform="translate(72.734 3.291)"/>
        </g>
        <g>
            <path fill="#D74C41" d="M24.047 26.79l.718 12.275 18.062.373-1.337-9.532 1.38-9.756c-.906-4.564-7.982-4.878-7.982-4.878l-5.554-.081s-2.613-.313-5.463 1.096c0 0-5.638 2.774-5.587 9.824" transform="translate(26.274 19.57)"/>
            <path fill="#1A2E35" d="M34.943 15.134c-.037-.012-.092.427-.487.995-.385.555-1.297 1.166-2.437 1.156-1.136.011-2.067-.58-2.44-1.143-.197-.281-.291-.543-.35-.724-.056-.182-.078-.286-.092-.284-.01.002-.01.108.028.298.039.188.118.464.31.767.19.304.516.62.957.853.437.24.997.389 1.588.387.59.001 1.15-.153 1.584-.398.436-.24.758-.555.954-.854.2-.3.288-.571.339-.757.047-.187.056-.294.046-.296" transform="translate(26.274 19.57)"/>
            <path fill="#FFBF9D" d="M39.188 19.243c-1.742 1.255-2.795 3.132-2.884 5.143-.14 3.117-.355 7.447-.483 7.663-.393.668-10.843.099-11.943.027-.184-.049-.568-.155-1.327-.37 0 0-2.442-1.91-2.886-1.337-.445.574 1.283.943 1.617 2.07.335 1.128-3.136.246-3.36.108l-.896-.23s.532 1.54.985 2.028c1.452 1.56 4.761 2.345 4.761 2.345s13.532 3.975 19 .693c1.785-1.072 2.09-11.59 1.413-15.657-.267-1.607-1.806-2.787-3.604-2.767l-.393.284z" transform="translate(26.274 19.57)"/>
            <path fill="#FF9A6C" d="M19.112 34.052c.01-.025-.368-.179-.823-.388-.456-.208-.817-.393-.833-.37-.015.02.325.242.787.453.46.212.86.328.87.305" transform="translate(26.274 19.57)"/>
            <path fill="#D74C41" d="M41.417 17.773c1.666 1.44 3.28 4.331 2.681 10.118l-8.879-.33.229-7.92c.023-.801.443-1.552 1.145-2.043 1.441-1.01 3.506-.964 4.824.175" transform="translate(26.274 19.57)"/>
            <g transform="translate(26.274 19.57) translate(19.344 73.09)">
                <mask id="prefix__f" fill="#fff">
                    <use xlink:href="#prefix__e"/>
                </mask>
                <path fill="#707070" d="M4.39 3.71L4.153.674l6.287-.44.401 4.437-.387.05c-1.728.209-8.8.951-9.986.715C-.857 5.172 4.39 3.71 4.39 3.71" mask="url(#prefix__f)"/>
            </g>
            <path fill="#1D201F" d="M27.901 77.876c.05-.48.303-.942.699-1.268.395-.325.9-.517 1.434-.516l.137 1.588-2.27.196z" transform="translate(26.274 19.57)"/>
            <path fill="#1D201F" d="M21.178 77.598s-1.83.62-1.573.882c.258.263 7.435-.245 10.58-.719l-.021-.126-8.367.656s-.252-.705-.619-.693" transform="translate(26.274 19.57)"/>
            <path fill="#1A2E35" d="M30.262 77.624c0 .003-.037.009-.107.018l-.309.04c-.31.033-.69.075-1.139.125-.962.1-2.294.22-3.767.326-1.474.105-2.81.174-3.778.212l-1.146.038-.312.005c-.071 0-.109 0-.109-.002 0-.003.037-.006.108-.011l.311-.019 1.145-.06c.967-.05 2.302-.127 3.775-.232 1.472-.105 2.804-.219 3.767-.306l1.142-.103.31-.026c.071-.005.109-.007.109-.005" transform="translate(26.274 19.57)"/>
            <path fill="#1A2E35" d="M21.806 78.38c-.023.004-.062-.242-.256-.479-.189-.24-.435-.35-.423-.368.003-.017.282.07.485.328.207.254.214.521.194.518M23.588 77.397c-.017.012-.114-.08-.217-.204-.103-.124-.173-.234-.156-.245.017-.012.114.08.217.204.103.124.173.234.156.245M24.076 77.118c-.013.015-.118-.038-.233-.118-.116-.08-.2-.158-.187-.173.013-.015.117.038.233.118.116.08.2.158.187.173M24.351 76.559c.002.019-.143.046-.325.06-.18.015-.33.012-.331-.007-.002-.019.143-.046.325-.061.18-.015.33-.011.331.008M24.429 76.173c.008.016-.146.093-.358.122-.212.03-.384-.001-.382-.02.002-.019.17-.02.37-.048.202-.028.362-.073.37-.054" transform="translate(26.274 19.57)"/>
            <path fill="#1A2E35" d="M23.332 76.916c0 .008-.153.036-.405.027-.125-.005-.275-.021-.437-.055-.08-.02-.165-.033-.254-.075-.042-.021-.09-.052-.11-.106-.021-.054.006-.118.049-.15.37-.209.774-.04.933.13.087.087.13.174.153.235.021.062.023.097.019.098-.014.006-.04-.142-.211-.299-.085-.076-.209-.148-.363-.178-.146-.028-.35-.024-.479.064-.06.047-.03.114.045.147.07.034.158.052.235.072.157.036.302.057.424.068.246.022.4.011.4.022" transform="translate(26.274 19.57)"/>
            <path fill="#1A2E35" d="M23.229 76.942c-.006.005-.074-.085-.069-.25.003-.082.027-.18.087-.275.065-.086.147-.204.32-.21.095.004.149.098.14.16-.002.065-.03.122-.055.168-.052.096-.114.174-.172.235-.117.12-.213.17-.218.164-.008-.009.075-.071.176-.195.05-.062.104-.14.15-.23.05-.082.075-.224-.028-.233-.102-.002-.197.097-.252.174-.057.083-.085.171-.094.246-.018.15.028.242.015.246M30 76.078c-.001.013-.182-.003-.464.048-.278.048-.661.18-.98.449-.32.27-.491.606-.564.854-.074.25-.07.415-.084.414-.005 0-.01-.04-.01-.115 0-.074.01-.181.042-.31.06-.26.231-.612.564-.893.333-.281.734-.41 1.023-.447.145-.02.265-.022.346-.017.082.005.127.013.126.017M29.143 73.759c.021-.002.09.52.156 1.163.065.645.1 1.169.079 1.17-.021.002-.09-.519-.156-1.163-.064-.644-.1-1.168-.079-1.17M27.062 77.378c.005.018-.4.107-.91.147-.51.042-.926.017-.925-.001 0-.02.412-.027.918-.068.506-.039.913-.097.917-.078" transform="translate(26.274 19.57)"/>
            <path fill="#1A2E35" d="M28.294 77.29c.017.012-.027.08-.06.168-.037.088-.052.166-.074.166-.02.001-.04-.088.001-.189.04-.102.119-.159.133-.146M28.713 76.734c.017.012-.019.074-.079.139-.06.064-.121.106-.137.094-.017-.013.019-.075.079-.14.06-.063.121-.105.137-.093M29.357 76.448c-.002.02-.086.025-.176.061-.09.034-.152.085-.17.074-.018-.01.028-.095.14-.137.112-.044.211-.016.206.002M29.82 76.302c.01.017-.024.05-.075.071-.05.022-.099.026-.108.009-.009-.017.025-.05.075-.071.051-.022.1-.026.108-.009" transform="translate(26.274 19.57)"/>
            <path fill="#707070" d="M4.412 76.944l.085-3.042 6.305.107-.072 4.452-.392.017c-1.741.057-8.86.182-10.015-.157-1.29-.377 4.09-1.377 4.09-1.377" transform="translate(26.274 19.57)"/>
            <path fill="#1D201F" d="M8.445 78.378c.1-.475.402-.912.83-1.202.427-.29.95-.437 1.482-.39l-.032 1.594-2.28-.002z" transform="translate(26.274 19.57)"/>
            <path fill="#1D201F" d="M1.782 77.517s-1.887.458-1.66.741c.229.284 7.427.402 10.608.203l-.008-.127-8.397-.074s-.176-.723-.543-.743" transform="translate(26.274 19.57)"/>
            <path fill="#1A2E35" d="M10.821 78.332c0 .003-.037.005-.108.009l-.312.012-1.147.026c-.968.015-2.307.02-3.784-.003-1.478-.023-2.816-.071-3.783-.117l-1.145-.062-.311-.022c-.071-.005-.108-.01-.108-.012s.037-.003.109-.001l.311.008 1.146.04c.968.034 2.305.073 3.782.097 1.477.023 2.814.026 3.783.023l1.146-.004.312.001c.072.001.11.003.11.005" transform="translate(26.274 19.57)"/>
            <path fill="#1A2E35" d="M2.325 78.349c-.024.002-.037-.245-.205-.498-.162-.256-.396-.386-.382-.403.005-.017.273.094.448.368.18.271.157.538.139.533M4.202 77.526c-.018.01-.105-.09-.194-.222-.09-.132-.148-.248-.13-.258.018-.01.106.09.195.222.09.133.147.248.129.258M4.717 77.29c-.014.015-.112-.047-.22-.137-.106-.09-.181-.174-.167-.188.015-.014.113.047.22.137.107.09.182.175.167.189M5.05 76.758c0 .019-.147.034-.329.032-.182 0-.329-.017-.329-.036 0-.02.148-.034.33-.033.182.001.33.018.329.037M5.17 76.38c.006.018-.156.08-.37.09-.214.012-.382-.033-.378-.051.004-.02.17-.006.374-.017.203-.01.367-.04.373-.022" transform="translate(26.274 19.57)"/>
            <path fill="#1A2E35" d="M3.998 77.026c0 .007-.155.022-.405-.01-.124-.015-.272-.044-.43-.093-.078-.026-.16-.047-.245-.096-.04-.024-.083-.06-.097-.115-.016-.055.017-.116.064-.145.39-.176.775.028.915.211.077.094.111.185.127.247.015.063.013.098.008.099-.014.004-.024-.145-.178-.316-.076-.083-.192-.166-.342-.209-.142-.04-.346-.054-.483.022-.066.042-.042.11.029.15.066.04.152.066.226.092.152.05.294.084.415.105.242.043.397.046.396.058" transform="translate(26.274 19.57)"/>
            <path fill="#1A2E35" d="M3.893 77.042c-.006.004-.064-.09-.042-.255.012-.08.047-.176.116-.266.073-.08.168-.19.341-.181.094.012.138.11.122.171-.009.064-.042.119-.072.163-.062.09-.132.163-.196.218-.13.11-.23.151-.235.144-.007-.009.082-.064.196-.178.057-.057.119-.13.174-.217.057-.076.098-.215-.003-.233-.101-.01-.207.079-.27.15-.065.079-.102.164-.12.237-.033.149.002.244-.011.247M10.724 76.77c-.002.013-.18-.018-.466.007-.283.024-.677.122-1.024.362-.346.241-.553.56-.651.801-.101.243-.114.407-.128.405-.005 0-.006-.041.002-.115.008-.073.03-.18.075-.306.088-.251.295-.588.656-.84.361-.25.774-.343 1.066-.355.147-.007.266.002.347.014.08.011.124.023.123.027M10.118 74.388c.022 0 .035.524.031 1.171-.003.647-.024 1.172-.045 1.172-.021 0-.035-.525-.03-1.172.003-.647.023-1.172.044-1.171M7.663 77.809c.002.018-.41.072-.922.068-.513-.004-.924-.064-.921-.083.002-.02.414.01.921.013.508.005.92-.018.922.002" transform="translate(26.274 19.57)"/>
            <path fill="#1A2E35" d="M8.898 77.828c.015.014-.035.078-.079.163-.045.084-.068.16-.09.158-.02 0-.03-.09.021-.188.051-.097.135-.147.148-.133M9.375 77.311c.014.014-.028.073-.094.131-.066.06-.132.096-.147.082-.015-.014.027-.072.094-.131.066-.059.132-.095.147-.082M10.046 77.083c-.005.02-.09.017-.182.045-.094.026-.161.072-.177.059-.017-.011.038-.092.154-.125.115-.033.211.004.205.021M10.522 76.978c.007.018-.03.047-.082.064-.053.017-.101.017-.109-.001-.007-.018.03-.046.083-.064.053-.017.101-.017.108 0M9.96 38.706l21.622-.245-4.52 9.191-13.828.05-1.335 28.159H3.45l.806-31.408c.075-2.924 2.496-5.364 5.704-5.747" transform="translate(26.274 19.57)"/>
            <path fill="#375A64" d="M12.179 73.691c0-.042-1.96-.077-4.378-.077-2.419 0-4.378.035-4.378.077 0 .043 1.96.078 4.378.078 2.417 0 4.378-.035 4.378-.078" transform="translate(26.274 19.57)"/>
            <path fill="#1A2E35" d="M30.507 48.402l.61 27.042-9.775.43s-1.554-26.49-.778-34.008c.531-5.147 22.248-2.934 22.248-2.934.315 10.245-12.305 9.47-12.305 9.47" transform="translate(26.274 19.57)"/>
            <path fill="#375A64" d="M31.118 73.31c-.001-.01-.135-.015-.378-.013l-1.024.022c-.865.026-2.058.072-3.376.132-1.317.06-2.51.123-3.373.176l-1.021.071c-.24.02-.374.037-.373.048 0 .01.135.014.377.013l1.024-.023c.865-.025 2.058-.071 3.377-.131 1.318-.06 2.51-.124 3.373-.177.402-.028.743-.052 1.02-.07.242-.021.374-.038.374-.048M30.631 46.132c-.047-.002-.122.582-.168 1.304-.045.723-.043 1.311.004 1.313.047.003.122-.58.167-1.304.046-.722.045-1.31-.003-1.313M31.01 38.514c0-.005-.065-.008-.186-.007l-.529.01c-.459.013-1.123.033-1.944.074-.82.043-1.798.108-2.876.253-1.075.157-2.265.446-3.334 1.082-.266.16-.505.351-.715.562-.21.212-.365.464-.467.724-.191.516-.281 1.032-.343 1.522-.117.982-.114 1.87-.12 2.612l-.001 1.758-.005.477c0 .11.002.167.008.168.006 0 .015-.057.026-.166.012-.109.026-.27.037-.477.025-.416.04-1.017.056-1.76.021-.74.031-1.626.155-2.596.066-.483.158-.991.345-1.489.182-.491.613-.897 1.12-1.207 1.032-.616 2.206-.908 3.262-1.07 1.069-.151 2.043-.227 2.86-.284l1.94-.123.527-.039c.12-.01.184-.019.184-.024" transform="translate(26.274 19.57)"/>
            <path fill="#FFBF9D" d="M31.938 17.43c-1.635 0-2.954-1.208-2.936-2.686.01-.922.028-1.72.028-1.72s-2.36-.198-2.533-2.31c-.173-2.11-.1-6.985-.1-6.985 2.635-1.202 5.781-1.021 8.225.472l.363.222-.112 10.378c-.015 1.456-1.325 2.629-2.935 2.629" transform="translate(26.274 19.57)"/>
            <path fill="#1A2E35" d="M28.97 9.413c0 .023-.202.039-.53.046-.04 0-.088.003-.144-.009-.056-.01-.125-.051-.153-.113-.052-.122 0-.228.025-.318l.2-.61c.294-.861.572-1.55.62-1.536.047.013-.153.723-.447 1.585l-.214.605c-.037.093-.064.177-.045.223.009.04.077.054.162.058.326.022.527.047.527.07" transform="translate(26.274 19.57)"/>
            <path fill="#FF9A6C" d="M29.024 12.994s1.484.026 2.993-.953c0 0-.616 1.56-2.961 1.5l-.032-.547z" transform="translate(26.274 19.57)"/>
            <path fill="#FFBF9D" d="M34.382 6.758c.043-.015 1.479-.184 1.343 1.348-.135 1.533-1.802.902-1.802.858.002-.044.46-2.206.46-2.206" transform="translate(26.274 19.57)"/>
            <path fill="#FF9A6C" d="M34.49 8.464c.008-.004.029.02.076.045.047.024.13.044.22.02.185-.046.359-.293.391-.568.017-.14-.004-.274-.049-.388-.042-.116-.115-.2-.204-.221-.088-.025-.156.019-.18.06-.027.042-.02.073-.028.075-.005.004-.034-.028-.015-.09.01-.03.033-.065.075-.092.044-.027.105-.038.167-.027.13.018.238.135.287.26.057.126.084.278.065.434-.038.308-.239.584-.49.63-.12.02-.217-.02-.266-.06-.049-.04-.055-.076-.048-.078" transform="translate(26.274 19.57)"/>
            <path fill="#1A2E35" d="M26.582 3.856c-.578-.129-.985-.672-.963-1.21.021-.536.431-1.03.972-1.254.54-.223 1.187-.192 1.73.026.164-.781 1.01-1.396 1.888-1.374.878.022 1.685.679 1.8 1.466.057-.408.568-.635 1.021-.66.453-.024.938.096 1.233.408.294.312.324.836-.011 1.113.506-.051 1.04.044 1.45.314.412.271.683.727.645 1.186-.038.459-.415.893-.912.986-.172.032-.215-.072-.307.063-.051.074-.07.354-.066.442.016.507.017.941-.096 1.446-.296-.135-.671.06-.815.33-.144.27-.12.585-.092.883-.144.196-.507.139-.664-.049-.157-.187-.167-.44-.17-.675l-.035-2.444c-.264.133-.605.133-.87 0s-.445-.394-.46-.668c-.38.33-.93.497-1.453.439-.524-.058-1.013-.338-1.294-.742-.28.2-.562.402-.887.533-.326.131-.703.186-1.04.08-.336-.104-.614-.394-.609-.716l.12-.092" transform="translate(26.274 19.57)"/>
            <path fill="#455A64" d="M34.943 38.832L11.862 38.832 8.056 25.506 27.315 25.506 30.363 37.964 34.943 38.062z" transform="translate(26.274 19.57)"/>
            <path fill="#1A2E35" d="M28.013 6.936c.024.029-.19.18-.508.185-.319.008-.54-.133-.517-.162.019-.036.238.035.513.026.276-.003.49-.084.512-.05" transform="translate(26.274 19.57)"/>
            <path fill="#1A2E35" d="M27.182 7.076c-.001.153.132.277.296.279.165 0 .3-.122.3-.275M31.262 6.955c.024.03-.19.18-.508.185-.319.009-.54-.132-.517-.162.019-.035.238.035.513.027.276-.004.49-.084.512-.05" transform="translate(26.274 19.57)"/>
            <path fill="#1A2E35" d="M30.431 7.096c-.001.152.132.277.296.278.165.001.3-.122.3-.275M31.47 6.268c-.02.112-.355.155-.752.16-.398.003-.734-.033-.757-.145-.024-.11.31-.259.752-.263.44-.005.778.138.758.248M28.121 6.439c-.02.112-.356.155-.753.16-.397.003-.734-.033-.757-.145-.024-.11.31-.259.752-.263.441-.005.779.138.758.248" transform="translate(26.274 19.57)"/>
            <path fill="#375A64" d="M36.556 7.551c0 .794-.713 1.438-1.591 1.438-.879 0-1.184-.644-1.184-1.438 0-.794.305-1.438 1.184-1.438.878 0 1.59.644 1.59 1.438" transform="translate(26.274 19.57)"/>
            <path fill="#375A64" d="M34.829 6.454s1.231-5.337-2.812-5.126l-.192-.335s2.447-.52 3.343 1.202c.699 1.341.244 4.2.244 4.2l-.583.06z" transform="translate(26.274 19.57)"/>
            <path fill="#1A2E35" d="M35.168 8.99c.004.01-.238.018-.532-.177-.284-.19-.612-.564-.687-1.065-.057-.494.086-.937.283-1.209.206-.28.463-.314.459-.298.012.02-.206.083-.369.35-.158.256-.278.687-.223 1.14.065.451.357.814.603 1.007.253.198.474.226.466.251M29.073 9.963c.024.03-.021.096-.114.119-.092.023-.168-.013-.164-.05.003-.038.06-.065.125-.081.064-.016.129-.019.153.012M23.509 10.237c0 .341-.306.618-.683.618-.377 0-.683-.277-.683-.618 0-.34.306-.617.683-.617.377 0 .683.277.683.617" transform="translate(26.274 19.57)"/>
            <path fill="#1A2E35" d="M23.41 10.032c-.034.023-.478-.489-.889-1.193-.408-.702-.73-1.27-.7-1.288.04-.022.426.523.832 1.223.408.699.79 1.236.757 1.258" transform="translate(26.274 19.57)"/>
            <path fill="#1A2E35" d="M23.08 6.87c.038.011-.107.333-.491.555-.382.226-.766.213-.763.178-.004-.04.337-.087.681-.292.348-.199.536-.462.574-.441M23.378 7.451c.04.008-.09.335-.482.528-.39.196-.764.12-.75.086.001-.04.335-.03.677-.206.346-.167.516-.427.555-.408M19.276 9.879c-.146.17-.419.203-.608.07-.19-.132-.225-.378-.078-.549.146-.171.418-.203.607-.07.19.131.225.377.079.549" transform="translate(26.274 19.57)"/>
            <path fill="#1A2E35" d="M19.314 9.74c-.042 0-.058-.415.038-.914.097-.496.19-.891.228-.888.044.003.017.416-.08.91-.094.492-.144.893-.186.893" transform="translate(26.274 19.57)"/>
            <path fill="#1A2E35" d="M20.893 8.386c.01.03-.337.126-.759.02-.208-.052-.381-.152-.477-.25-.1-.098-.114-.185-.097-.19.021-.01.066.052.17.12.1.067.257.142.446.189.378.097.712.069.717.111M20.589 10.327c-.146.171-.419.203-.608.07-.19-.131-.224-.377-.078-.548.146-.172.418-.204.607-.071.19.132.225.378.079.549" transform="translate(26.274 19.57)"/>
            <path fill="#1A2E35" d="M20.627 10.189c-.042 0-.058-.416.038-.914.097-.497.19-.892.228-.889.044.004.017.417-.08.91-.094.493-.144.893-.186.893" transform="translate(26.274 19.57)"/>
            <path fill="#1A2E35" d="M20.856 8.652c.015.033-.309.143-.708.056-.401-.084-.636-.315-.606-.338.028-.031.28.131.64.206.359.08.665.037.674.076M44.098 27.891c0 .005-.054.007-.155.007l-.444-.008-1.63-.055c-1.377-.052-3.278-.133-5.377-.232l-1.076-.05-.071-.004v-.064l.025-4.209.023-1.247.013-.336c.004-.077.009-.117.013-.117.005 0 .01.04.014.117l.013.336.023 1.247.025 4.21-.07-.068 1.076.05c2.099.098 3.999.194 5.374.271l1.628.098.443.033c.1.01.154.017.153.021M39.977 16.503c-.005.029-.397-.086-1.035-.029-.63.05-1.509.326-2.197.952-.686.63-1.004 1.41-1.127 1.973-.127.57-.101.935-.13.935-.01 0-.025-.09-.03-.255-.007-.165.003-.405.055-.697.1-.58.41-1.396 1.126-2.052.718-.654 1.642-.924 2.294-.952.329-.016.595.011.774.048.179.036.273.07.27.077M24.04 20.552c.021 0 .04.288.053.76.013.47.016 1.13 0 1.853l-.044 1.813-.009.703-.009-.798-.044-1.814c-.015-.694-.012-1.316.001-1.774.013-.456.032-.743.052-.743" transform="translate(26.274 19.57)"/>
            <path fill="#F5F5F5" d="M19.59 32.169c0 .652-.584 1.18-1.306 1.18-.721 0-1.306-.528-1.306-1.18 0-.652.585-1.181 1.306-1.181.722 0 1.306.529 1.306 1.18" transform="translate(26.274 19.57)"/>
        </g>
    </g>
</svg>
