<svg xmlns="http://www.w3.org/2000/svg" xmlns:xlink="http://www.w3.org/1999/xlink" width="318" height="220" viewBox="0 0 318 220">
    <defs>
        <path id="2bzdlxj1ja" d="M0.275 0.529L62.633 0.529 62.633 14.887 0.275 14.887z"/>
        <path id="cuwuz45gec" d="M0 0.565L10.356 0.565 10.356 13.339 0 13.339z"/>
    </defs>
    <g fill="none" fill-rule="evenodd">
        <g>
            <path fill="#ECECEC" d="M212.316 78.64h49.412s-4.37-7.952-17.089-6.795c-12.147 1.106-12.765-3.911-18.94-4.529-6.177-.618-11.324 4.118-13.383 11.324M.05 51.733h49.412s-4.37-7.952-17.089-6.794c-12.146 1.105-12.764-3.912-18.94-4.53C7.254 39.793 2.108 44.528.05 51.734" transform="translate(32)"/>
            <g transform="translate(32) translate(88.947)">
                <mask id="u7xbztrkyb" fill="#fff">
                    <use xlink:href="#2bzdlxj1ja"/>
                </mask>
                <path fill="#ECECEC" d="M.275 14.887h62.358S57.12 4.852 41.068 6.313C25.738 7.708 24.958 1.376 17.164.597 9.37-.183 2.874 5.793.275 14.887" mask="url(#u7xbztrkyb)"/>
            </g>
        </g>
        <g>
            <path fill="#2A9625" d="M250.527 58.286c-8.496-5.41-10.826-16.028-10.912-25.657-.014-1.607-.263-3.292.44-4.733.704-1.441 2.444-2.48 3.91-1.865 1.216.51 1.795 1.874 2.51 2.992.954 1.489 2.329 2.694 3.92 3.435 1.044.486 2.322.756 3.308.157 1.351-.824 1.433-2.743 1.354-4.34l-.437-8.923c-.079-1.595-.153-3.226.278-4.762.432-1.536 1.469-2.991 2.97-3.481 1.5-.49 3.415.305 3.803 1.853.16.645.058 1.326.13 1.986.072.662.413 1.381 1.05 1.539.646.16 1.265-.32 1.722-.808 1.579-1.682 2.607-3.807 3.564-5.917.957-2.11 1.88-4.266 3.3-6.089 1.42-1.822 3.428-3.303 5.709-3.532 2.281-.227 4.777 1.08 5.45 3.3.677 2.226-.539 4.566-1.889 6.448-2.004 2.795-4.41 5.292-7.117 7.39-.487.38-1.017.789-1.183 1.388-.302 1.079.752 2.093 1.818 2.398 1.207.345 2.492.166 3.744.26 1.25.093 2.623.584 3.144 1.74.724 1.604-.567 3.372-1.862 4.55-2.593 2.359-5.587 4.263-8.811 5.602-1.157.48-2.376.91-3.288 1.776-.91.865-1.421 2.325-.801 3.425.62 1.1 2.105 1.398 3.325 1.116 1.22-.28 2.293-.995 3.446-1.487 2.158-.923 4.998-.893 6.484.943.977 1.207 1.132 2.94.73 4.444-.404 1.506-1.296 2.826-2.252 4.05-3.34 4.275-7.698 7.79-12.712 9.772-5.013 1.983-9.709 2.662-14.845 1.03" transform="translate(18 148)"/>
            <path fill="#263238" d="M250.706 65.42c.185-3.824.827-8.359 2.044-13.269 1.208-4.913 2.978-10.19 5.019-15.643l1.526-4.034c.503-1.323 1.004-2.634 1.571-3.887 1.126-2.51 2.399-4.839 3.677-7.01 1.277-2.174 2.568-4.19 3.79-6.067 1.225-1.874 2.4-3.6 3.538-5.126 2.269-3.064 4.386-5.313 5.903-6.799.756-.746 1.363-1.305 1.778-1.677l.476-.422c.108-.094.166-.14.169-.136.003.004-.047.058-.148.158l-.457.443c-.402.388-.995.96-1.738 1.716-1.49 1.509-3.576 3.772-5.816 6.843-1.125 1.53-2.287 3.258-3.502 5.136-1.211 1.881-2.493 3.899-3.76 6.07-1.27 2.171-2.532 4.493-3.647 6.992-.563 1.246-1.057 2.547-1.561 3.873-.502 1.325-1.01 2.67-1.524 4.032-2.04 5.45-3.813 10.71-5.032 15.605-1.227 4.892-1.888 9.404-2.099 13.214" transform="translate(18 148)"/>
            <path fill="#263238" d="M260.95 28.572c-.02.004-.084-.236-.185-.674-.103-.438-.23-1.076-.376-1.866-.295-1.58-.626-3.775-.981-6.197-.357-2.423-.719-4.608-1.036-6.178-.156-.787-.289-1.422-.387-1.859-.094-.438-.138-.683-.118-.69.02-.005.1.23.229.66.132.431.297 1.06.479 1.843.37 1.566.766 3.754 1.122 6.18l.896 6.206.284 1.88c.066.444.093.691.073.695" transform="translate(18 148)"/>
            <path fill="#263238" d="M281.31 23.857c.002.02-.29.067-.815.133-.523.07-1.283.166-2.218.315-1.871.283-4.442.766-7.255 1.422-2.813.66-5.334 1.368-7.141 1.931-.907.276-1.634.518-2.139.683-.503.167-.785.25-.792.23-.007-.018.261-.139.754-.339.492-.198 1.212-.472 2.113-.774 1.797-.617 4.317-1.358 7.139-2.022 2.821-.657 5.408-1.108 7.292-1.339.942-.123 1.707-.188 2.237-.222.53-.031.823-.039.825-.018M252.987 51.763c-.01.004-.062-.08-.152-.245l-.382-.727c-.33-.633-.783-1.562-1.328-2.717-1.09-2.309-2.498-5.545-4.001-9.137-1.505-3.594-2.88-6.84-3.92-9.168l-1.242-2.755-.334-.75c-.073-.174-.107-.267-.098-.273.01-.003.061.08.151.245l.383.727c.33.633.783 1.562 1.328 2.717 1.09 2.309 2.497 5.546 4.002 9.14 1.504 3.593 2.878 6.838 3.92 9.166l1.24 2.754.335.751c.072.174.107.267.098.272" transform="translate(18 148)"/>
            <path fill="#263238" d="M279.884 41.804c.003.01-.089.052-.266.123l-.78.3-2.88 1.071c-2.433.905-5.777 2.195-9.47 3.624-3.694 1.43-7.054 2.69-9.505 3.545-1.226.428-2.22.764-2.912.983l-.8.246c-.183.053-.28.076-.284.067-.003-.01.088-.052.266-.124l.78-.299 2.88-1.072c2.432-.905 5.776-2.194 9.47-3.624 3.694-1.43 7.053-2.689 9.504-3.544 1.226-.428 2.221-.765 2.913-.982.32-.1.584-.181.799-.247.184-.054.281-.077.285-.067" transform="translate(18 148)"/>
            <g transform="translate(18 148) translate(0 45.407)">
                <mask id="8i1jov4fmd" fill="#fff">
                    <use xlink:href="#cuwuz45gec"/>
                </mask>
                <path fill="#2A9625" d="M.9.72c1.444-.387 3.021-.022 4.292.764 1.27.786 2.262 1.96 3.054 3.227 1.532 2.452 2.058 5.738 2.11 8.628-3.207-.147-5.934-2.684-7.237-4.058C1.061 7.109-1.34 1.933.9.72" mask="url(#8i1jov4fmd)"/>
            </g>
            <path fill="#2A9625" d="M15.507 60.71c-1.313-1.031-1.892-2.846-1.607-4.491.285-1.644 1.356-3.095 2.738-4.031.64-.433 1.43-.774 2.169-.553.69.208 1.17.884 1.305 1.593.136.708-.02 1.442-.26 2.123-.822 2.333-2.047 4.44-4.345 5.358" transform="translate(18 148)"/>
            <path fill="#263238" d="M18.421 69.858c-.02.01-.133-.175-.32-.517-.186-.343-.445-.844-.747-1.472-.595-1.256-1.397-3.04-1.778-5.161-.38-2.125-.102-4.126.432-5.432.261-.656.552-1.151.785-1.468.231-.317.384-.472.398-.46.056.036-.516.706-.968 2.007-.464 1.29-.697 3.227-.328 5.297.372 2.07 1.127 3.848 1.667 5.122.552 1.275.903 2.063.86 2.084" transform="translate(18 148)"/>
            <path fill="#263238" d="M3.078 49.906c.016-.014.263.243.695.722.432.477 1.046 1.179 1.795 2.053 1.498 1.75 3.529 4.202 5.704 6.962 2.174 2.763 4.081 5.311 5.43 7.178.676.933 1.214 1.694 1.577 2.226.364.532.556.832.538.845-.018.014-.245-.261-.64-.77l-1.658-2.164c-1.396-1.83-3.33-4.355-5.502-7.114-2.173-2.759-4.173-5.23-5.625-7.016L3.677 50.71c-.402-.503-.616-.789-.6-.803" transform="translate(18 148)"/>
            <path fill="#2A9625" d="M13.341 64.274c-2.747-2.2-6.595-2.946-9.965-1.932-.858.257-1.809.78-1.895 1.673-.088.893.75 1.592 1.555 1.99 3.345 1.662 7.69 1.028 10.421-1.518" transform="translate(18 148)"/>
            <path fill="#263238" d="M5.507 63.974c-.005-.022.193-.08.558-.168.182-.046.406-.095.671-.124.264-.033.564-.086.9-.091.67-.048 1.475-.016 2.357.103.879.137 1.834.373 2.793.745.954.385 1.812.867 2.547 1.368.725.516 1.334 1.043 1.79 1.537.242.233.423.478.594.683.174.202.304.39.405.549.206.313.31.49.292.504-.052.036-.51-.655-1.454-1.575-.467-.464-1.078-.96-1.795-1.451-.728-.476-1.567-.938-2.498-1.314-.936-.363-1.864-.6-2.72-.752-.859-.13-1.643-.187-2.302-.168-1.319.025-2.125.216-2.138.154" transform="translate(18 148)"/>
        </g>
        <path fill="#707070" d="M56 122.128L224.716 35.227 213.888 19.953 269 15 244.146 59.598 232.59 45.147 61.635 139z"/>
        <path fill="#6EACB6" d="M46 219L85 219 85 174 46 174z"/>
        <path fill="#61A5B0" d="M35 219L74 219 74 174 35 174z"/>
        <path fill="#AC5574" d="M106 219L145 219 145 159 106 159z"/>
        <path fill="#A44365" d="M95 219L134 219 134 159 95 159z"/>
        <path fill="#C86159" d="M169 219L208 219 208 141 169 141z"/>
        <path fill="#D74C41" d="M157 219L196 219 196 141 157 141z"/>
        <path fill="#E5B16A" d="M232 219L271 219 271 124 232 124z"/>
        <path fill="#F2AA47" d="M216 219L255 219 255 124 216 124z"/>
        <path fill="#263238" fill-rule="nonzero" d="M318 219.505c0 .14-71.188.26-158.992.26-87.804 0-159.008-.12-159.008-.26s71.18-.27 159.008-.27 158.992.12 158.992.27z"/>
        <g>
            <path fill="#707070" d="M18.452 144.139l3.63-2.965-5.547-6.79-5.356 4.282.316.443c1.427 1.958 7.39 9.857 8.795 10.8 1.567 1.054-1.838-5.77-1.838-5.77" transform="translate(38 27)"/>
            <path fill="#FFF" d="M13.244 141.084c.492-.556.765-1.3.75-2.041-.016-.741-.286-1.451-.8-1.988l-1.912 1.54 1.962 2.49z" transform="translate(38 27)"/>
            <path fill="#FFF" d="M20.015 147.554s1.064 2.496.523 2.514c-.541.018-6.87-7.738-9.36-11.402l.163-.112 7.303 9.11s1.031-.491 1.371-.11" transform="translate(38 27)"/>
            <path fill="#263238" d="M11.258 138.443c-.003.003.025.047.082.127l.254.352.953 1.279c.813 1.072 1.956 2.54 3.255 4.134 1.298 1.593 2.505 3.01 3.392 4.024l1.059 1.194.294.319c.068.072.105.109.107.106.003-.002-.028-.043-.092-.12-.083-.1-.174-.21-.278-.332-.28-.331-.625-.737-1.033-1.215-.872-1.026-2.07-2.45-3.367-4.043-1.297-1.592-2.449-3.052-3.277-4.113l-.98-1.258-.27-.339c-.062-.077-.096-.117-.1-.115" transform="translate(38 27)"/>
            <path fill="#263238" d="M18.537 147.747c.017.028.33-.192.78-.247.452-.063.81.069.82.037.017-.02-.35-.208-.833-.142-.484.06-.79.336-.767.352M17.925 144.918c.003.03.199.031.437.003.238-.027.428-.073.425-.102-.004-.029-.199-.03-.437-.003s-.428.073-.425.102M17.769 144.132c-.005.03.155.079.356.11.201.032.368.034.373.006.005-.03-.155-.078-.356-.11-.202-.032-.368-.035-.373-.006M18.13 143.265c-.022.018.086.193.244.391s.305.343.328.325c.023-.017-.086-.192-.244-.39s-.304-.344-.327-.326M18.488 142.78c-.026.008.036.244.207.488.17.245.37.386.389.364.02-.023-.14-.192-.3-.424-.164-.232-.267-.44-.296-.429" transform="translate(38 27)"/>
            <path fill="#263238" d="M18.71 144.668c-.01.008.106.192.358.435.127.12.288.254.483.382.1.06.195.13.327.176.064.02.144.035.225-.002.08-.034.126-.128.122-.207-.124-.592-.7-.82-1.044-.8-.18.004-.32.052-.41.093-.089.044-.13.08-.127.085.006.02.197-.11.537-.103.167.004.366.053.548.177.172.116.363.326.389.549.005.11-.1.15-.209.11-.105-.035-.21-.105-.305-.161-.192-.119-.355-.243-.485-.355-.26-.224-.396-.39-.41-.379" transform="translate(38 27)"/>
            <path fill="#263238" d="M18.78 144.8c0 .01.165-.017.346-.196.089-.09.175-.217.224-.378.034-.156.088-.363-.072-.544-.096-.09-.252-.046-.313.029-.07.07-.109.158-.136.232-.057.154-.086.299-.098.42-.023.246.014.395.026.394.017-.001.008-.15.049-.383.02-.116.056-.252.114-.395.045-.135.178-.31.287-.217.1.1.082.3.048.438-.04.145-.11.266-.185.354-.151.177-.299.228-.29.245M13.242 137.076c-.014.013.177.179.391.516.215.331.434.856.44 1.46.004.606-.207 1.133-.416 1.468-.208.34-.397.509-.383.523.005.004.056-.033.138-.111.083-.079.194-.202.309-.371.23-.333.463-.878.458-1.51-.005-.63-.247-1.171-.483-1.5-.118-.168-.23-.29-.314-.366-.084-.078-.136-.114-.14-.11M16.662 135.488c-.018-.023-.669.457-1.452 1.072-.785.615-1.405 1.132-1.387 1.155.018.024.668-.457 1.453-1.071.783-.615 1.404-1.133 1.386-1.156M14.608 141.402c-.024.015.264.516.71 1.072.444.557.87.949.89.929.023-.022-.366-.443-.807-.995-.441-.55-.767-1.022-.793-1.006" transform="translate(38 27)"/>
            <path fill="#263238" d="M13.524 140.07c-.03-.004-.066.112-.13.24-.064.129-.137.225-.117.248.019.021.137-.052.211-.2.076-.148.064-.287.036-.289M13.743 139.062c-.03-.004-.065.097-.08.225-.013.128-.002.235.028.238.029.003.065-.097.079-.226.014-.128.002-.234-.027-.237M13.444 138.113c-.019.022.056.113.102.24.049.128.05.244.08.249.028.009.079-.127.02-.285-.06-.159-.186-.229-.202-.204M13.163 137.492c-.028.01-.031.076-.008.15.024.074.067.127.095.118.028-.009.03-.076.007-.15-.024-.075-.066-.127-.094-.118" transform="translate(38 27)"/>
            <path fill="#707070" d="M87.61 128.685l.15-4.666-8.796-.338-.294 6.824.544.055c2.422.228 12.331.986 13.973.559 1.83-.475-5.578-2.434-5.578-2.434" transform="translate(38 27)"/>
            <path fill="#FFF" d="M81.862 130.559c-.097-.734-.479-1.43-1.05-1.907-.57-.476-1.286-.744-2.032-.713l-.096 2.442 3.178.178z" transform="translate(38 27)"/>
            <path fill="#FFF" d="M91.224 129.771s2.59.852 2.247 1.268c-.344.416-10.386.024-14.801-.534l.022-.194 11.71.555s.309-1.093.822-1.095" transform="translate(38 27)"/>
            <path fill="#263238" d="M78.554 130.3c0 .004.052.01.15.021l.434.044 1.595.13c1.349.1 3.214.216 5.275.299 2.063.081 3.93.114 5.283.121l1.601-.003c.162-.004.305-.007.435-.008.1-.004.153-.007.153-.011 0-.004-.053-.007-.153-.012l-.435-.01-1.6-.031c-1.352-.025-3.218-.07-5.28-.152-2.06-.083-3.924-.186-5.273-.268-.63-.037-1.164-.07-1.598-.097-.161-.008-.304-.015-.435-.023-.1-.004-.152-.004-.152 0" transform="translate(38 27)"/>
            <path fill="#263238" d="M90.394 131.002c.033.006.072-.373.329-.746.25-.378.586-.56.569-.587-.005-.027-.389.123-.658.527-.273.402-.267.812-.24.806M87.85 129.593c.025.016.155-.129.291-.324.136-.197.227-.368.203-.385-.024-.017-.154.128-.29.324-.137.196-.228.369-.203.385M87.153 129.19c.019.024.161-.064.318-.192.157-.13.269-.253.25-.276-.019-.022-.161.065-.318.194-.157.13-.268.252-.25.275M86.736 128.349c-.002.029.202.063.456.076.254.013.46-.001.462-.03.002-.03-.203-.063-.456-.076-.254-.013-.461 0-.462.03M86.604 127.761c-.011.025.209.135.506.168.297.035.536-.022.531-.05-.003-.03-.236-.022-.519-.055-.282-.031-.508-.092-.518-.063" transform="translate(38 27)"/>
            <path fill="#263238" d="M88.179 128.842c0 .012.215.047.565.018.175-.013.383-.046.607-.108.112-.034.228-.059.35-.128.058-.034.122-.084.147-.168.027-.084-.015-.18-.077-.228-.529-.3-1.082-.018-1.293.251-.116.138-.172.273-.2.368-.026.095-.026.15-.02.15.02.01.047-.219.276-.468.113-.122.282-.24.495-.293.202-.05.487-.055.672.072.087.07.048.173-.054.228-.095.056-.217.087-.323.122-.217.066-.418.105-.588.128-.34.047-.556.04-.557.056" transform="translate(38 27)"/>
            <path fill="#263238" d="M88.324 128.876c.009.007.097-.134.08-.388-.008-.124-.048-.273-.137-.416-.095-.128-.216-.305-.46-.304-.13.012-.201.157-.184.252.007.099.048.185.086.255.079.143.17.26.253.35.171.18.309.25.315.24.01-.013-.108-.105-.257-.289-.074-.092-.154-.208-.224-.347-.072-.12-.117-.336.026-.356.142-.008.281.138.362.253.084.124.129.257.146.371.034.23-.024.374-.006.379M78.828 127.916c.001.02.253-.014.648.048.393.059.934.24 1.395.636.461.396.721.901.837 1.278.12.38.123.632.142.63.007 0 .013-.063.008-.176-.005-.113-.026-.278-.077-.475-.1-.392-.36-.924-.84-1.337-.48-.412-1.05-.59-1.454-.63-.204-.023-.37-.019-.485-.007-.113.012-.174.026-.174.033M79.883 124.315c-.029-.001-.095.8-.147 1.792-.052.991-.07 1.796-.04 1.797.03.002.095-.8.147-1.792.051-.99.07-1.795.04-1.797M83.003 129.75c-.005.027.564.143 1.279.177.714.036 1.292-.025 1.29-.053-.002-.03-.578-.018-1.285-.053-.708-.033-1.28-.101-1.284-.07" transform="translate(38 27)"/>
            <path fill="#263238" d="M81.279 129.68c-.023.02.042.123.096.257.055.132.08.25.11.25s.052-.137-.012-.29c-.062-.154-.174-.237-.194-.217M80.66 128.852c-.021.02.032.113.12.208.087.095.176.156.197.137.022-.02-.031-.113-.118-.208-.088-.096-.176-.157-.198-.137M79.746 128.448c.005.03.122.034.25.085.127.046.217.121.241.103.024-.016-.045-.143-.204-.202-.158-.062-.295-.013-.287.014M79.09 128.25c-.011.027.038.074.11.104.072.031.139.035.15.008.013-.027-.036-.074-.108-.105-.072-.03-.14-.034-.151-.007" transform="translate(38 27)"/>
            <path fill="#B78876" d="M91.625 11.567c-.787-.223-2.116 3.989-2.359 2.92-.242-1.07 2.229-4.965 1.397-5.164-1.085-.26-2.394 4.174-2.533 4.542-.135.356-.678.18-.535-.144.206-.468 2.246-5.425 1.184-5.69-.589-.148-.757.927-.757.927s-1.565 4.778-2.062 4.636c-.504-.145.319-2.98.665-3.917.341-.926.037-1.463-.501-1.273-.368.13-1.494 2.973-1.815 3.908-.32.934-1.152 3.512-1.782 1.91-.631-1.603-1.723-2.598-2.208-2.664-.484-.064-.751.581-.364.952.313.3.679.96.933 1.466.21.418.35.868.407 1.332.218 1.787.118 2.805.118 2.805l-8.496 17.556-15.597-4.817-1.574 8.78s20.558 7.58 21.771 6.827c2.736-1.696 10.135-26.944 10.135-26.944 1.243-1.858 2.74-4.172 3.358-5.453 1.115-2.31.908-2.412.615-2.495M11.754 70.895c-.351-.254-.805-.858-1.127-1.325-.265-.385-.467-.812-.587-1.263-.234-.878-.36-1.572-.428-2.045 0-.002 5.365-15.91 6.787-18.37 1.422-2.462 20.987-9.461 20.987-9.461l-2.455-9.692s-17.91 7.148-24.73 12.51c-4.337 3.41-7.435 24.566-7.438 24.585-.874 1.83-1.796 3.862-2.173 5.034-.784 2.44-.565 2.512-.264 2.555.81.113 1.543-4.24 1.932-3.213.388 1.026-1.52 5.22-.669 5.305 1.11.109 1.794-4.462 1.88-4.845.085-.371.646-.271.55.07-.14.49-1.473 5.68-.384 5.797.604.066.621-1.022.621-1.022s.888-4.946 1.4-4.873c.52.073.097 2.995-.116 3.97-.21.964.166 1.455.673 1.193.345-.18 1.068-3.15 1.256-4.12.188-.968.655-3.635 1.501-2.134.847 1.5 2.067 2.338 2.555 2.336.489-.002.665-.678.23-.992" transform="translate(38 27)"/>
            <path fill="#263238" d="M12.62 135.39l8.835 9.82 27.894-27.965c3.423-3.432 5.46-7.992 5.722-12.815l1.192-21.875-18.116-10.988 1.452 30.638c.158 3.33-1.076 6.578-3.409 8.975l-23.57 24.21z" transform="translate(38 27)"/>
            <path fill="#263238" d="M34.506 72.41c-.168.224-.787 14.149 10.429 15.894.671.104 4.723.51 4.723.51 12.728-.097 29.9-.582 29.9-.582l-2.85 38.875 13.512.05 4.114-41.508c.904-11.496-8.865-13.478-14.242-13.582l-25.884-.26-19.702.604z" transform="translate(38 27)"/>
            <path fill="#455A64" d="M47.685 72.414c.034.003.008.514-.338 1.253-.335.73-1.054 1.674-2.175 2.263-1.123.586-2.314.64-3.11.502-.808-.134-1.247-.401-1.232-.43.02-.052.482.134 1.26.205.77.075 1.883-.015 2.93-.562 1.047-.55 1.751-1.41 2.124-2.083.381-.678.488-1.162.541-1.148M83.112 85.65c.052.071-.67.681-1.613 1.36-.943.68-1.75 1.173-1.802 1.1-.053-.07.669-.68 1.612-1.36.943-.68 1.75-1.173 1.803-1.1M83.673 87.944c.01.088-.902.26-2.036.384-1.134.123-2.062.151-2.071.063-.01-.088.901-.26 2.035-.383 1.135-.124 2.062-.152 2.072-.064" transform="translate(38 27)"/>
            <path fill="#B78876" d="M40.84 32.02c2.68.014 4.834-2.187 4.746-4.848-.084-2.554-.183-5.137-.183-5.137s3.86-.637 3.868-4.478c.007-3.841-.755-12.653-.755-12.653C44.02 3.04 38.862 3.738 35.033 6.73l-.569.445 1.694 20.537c.2 2.425 2.233 4.296 4.682 4.309" transform="translate(38 27)"/>
            <path fill="#263238" d="M47.169 11.758c-.232-.204-.253-.557-.047-.787.206-.23.56-.252.793-.047.232.204.252.557.046.787-.206.23-.56.252-.792.047" transform="translate(38 27)"/>
            <path fill="#263238" d="M48.622 11.006c-.06.068-.442-.219-.975-.216-.532-.004-.916.28-.976.213-.029-.03.031-.15.198-.28.164-.128.447-.253.779-.253.332.001.614.127.778.256.167.13.225.25.196.28M42.091 11.394c.266.159.352.501.192.765-.16.265-.504.35-.77.191-.266-.158-.352-.501-.192-.765.16-.264.505-.35.77-.19" transform="translate(38 27)"/>
            <path fill="#263238" d="M42.848 11.538c-.06.068-.443-.218-.975-.216-.533-.004-.916.28-.976.213-.03-.03.03-.15.197-.28.164-.128.447-.253.78-.252.331 0 .613.126.777.255.167.13.226.25.197.28M45.025 15.495c-.003-.042.325-.111.86-.19.139-.017.248-.05.257-.124.024-.084-.031-.23-.104-.395l-.432-1.07c-.598-1.526-1.019-2.787-.941-2.817.077-.03.625 1.182 1.223 2.707l.41 1.08c.053.16.152.344.082.574-.036.115-.145.198-.237.223-.092.029-.17.03-.237.033-.54.025-.877.02-.88-.021" transform="translate(38 27)"/>
            <path fill="#FFF" d="M43.302 16.097c.327.117 1.536.79 2.619.727 0 0-.612.993-1.73.6-1.162-.41-.89-1.327-.89-1.327" transform="translate(38 27)"/>
            <path fill="#A36957" d="M45.409 21.98s-2.442.222-5.055-1.37c0 0 1.22 2.751 5.074 2.365l-.02-.995z" transform="translate(38 27)"/>
            <path fill="#263238" d="M34.023 10.64c.234-.731.085-1.525-.114-2.267-.199-.741-.447-1.488-.408-2.255.04-.766.452-1.574 1.184-1.82.522-.174 1.106-.037 1.636-.188.542-.154.95-.583 1.362-.965C39.22 1.72 41.175.75 43.243.383c.603-.106 1.25-.158 1.807.096.558.253.973.905.766 1.478.776-.44 1.576-.888 2.46-1.011.884-.124 1.885.152 2.37.897.484.745.172 1.954-.694 2.173 1.015.133 1.668 1.315 1.424 2.303-.243.986-1.183 1.7-2.185 1.908-1.001.208-2.048-.013-3.004-.373-.958-.359-1.858-.855-2.81-1.225-.586.885-1.74 1.263-2.806 1.205-1.066-.058-2.072-.48-3.054-.895.092 1.102.176 2.257-.274 3.268-.185.415-.456.795-.579 1.232-.165.588-.045 1.216-.1 1.825-.054.608-.388 1.286-.996 1.38-.55.086-1.063-.37-1.249-.89-.186-.521-.13-1.091-.102-1.643.03-.552-.467-.978-.194-1.471" transform="translate(38 27)"/>
            <path fill="#B78876" d="M35.02 11.883c-.024-.309-.285-.552-.596-.539-.72.032-1.874.4-1.841 2.376.046 2.824 2.718 1.927 2.722 1.846.003-.063-.197-2.59-.284-3.683" transform="translate(38 27)"/>
            <path fill="#A36957" d="M34.6 14.505c-.012-.008-.048.035-.131.075-.081.038-.22.067-.37.014-.302-.105-.563-.575-.585-1.083-.012-.257.038-.502.127-.707.083-.208.215-.355.366-.384.15-.037.259.052.295.13.039.08.022.135.037.14.008.007.06-.048.035-.165-.013-.055-.047-.121-.114-.174-.07-.054-.17-.08-.276-.068-.219.019-.413.223-.51.446-.109.226-.171.501-.158.79.028.57.33 1.097.742 1.208.201.048.367-.014.452-.082.087-.071.1-.135.09-.14" transform="translate(38 27)"/>
            <path fill="#263238" d="M42.74 9.498c-.014.092-.617.05-1.321.221-.707.16-1.229.465-1.283.388-.058-.062.427-.521 1.208-.7.78-.187 1.42.01 1.397.09M44.306 20.28c-.09-.002-.15-.391-.136-.868.015-.477.1-.862.189-.859.09.003.15.391.135.868-.014.477-.098.862-.188.86M45.077 20.01c-.09 0-.162-.326-.161-.729 0-.402.073-.728.162-.728.09 0 .162.326.161.729 0 .402-.072.728-.162.728M45.926 19.794c-.09.008-.186-.277-.216-.634s.018-.653.107-.661c.09-.007.186.276.216.634s-.018.654-.107.661" transform="translate(38 27)"/>
            <path fill="#353E63" d="M66.759 33.287c-4.364-1.848-7.438-2.912-9.842-4.213-7.475-4.043-9.284-2.9-10.98-2.988-3.21 1.24-6.493 1.473-9.849.7-4.335.495-6.866 2.522-11.707 4.452l-9.68 5.16 6.984 9.66 8.96-2.972c.742 3.71.92 6.667 1.42 11.171l.949 18.176 27.143-.414-2.753-17.276-1.647-13.627 7.983 3.27 3.019-11.099" transform="translate(38 27)"/>
            <path fill="#000" d="M57.286 29.21c.004-.004.029.019.074.067.05.045.107.125.167.241.12.228.154.66-.077 1.103-.222.437-.656.912-1.323 1.173-.668.247-1.47.27-2.322.332-.425.034-.87.08-1.306.213-.432.14-.86.353-1.264.64-.808.576-1.519 1.39-2.384 2.15-.437.373-.929.732-1.509.962-.578.235-1.24.301-1.876.19-1.289-.225-2.37-1.01-3.544-1.53-1.17-.55-2.46-.63-3.672-.498-1.22.132-2.375.431-3.488.686-1.114.252-2.197.443-3.228.453-1.027.01-2-.162-2.795-.56-.794-.407-1.345-1.028-1.68-1.636-.338-.612-.445-1.229-.404-1.716.04-.494.232-.84.37-1.052.162-.2.257-.294.264-.287.054.022-.444.395-.508 1.347-.02.464.099 1.045.436 1.62.334.572.873 1.152 1.625 1.52.754.363 1.694.518 2.688.497 1-.02 2.06-.217 3.165-.475 1.104-.26 2.27-.57 3.52-.71 1.24-.141 2.613-.06 3.84.517 1.213.544 2.277 1.307 3.464 1.512.585.104 1.18.047 1.71-.164.532-.208 1-.542 1.427-.902.848-.73 1.575-1.55 2.424-2.143.426-.294.884-.517 1.348-.659.468-.134.93-.175 1.361-.202.863-.046 1.644-.058 2.276-.274.621-.224 1.05-.661 1.273-1.062.232-.406.222-.797.129-1.02-.09-.23-.2-.319-.18-.333M55.214 41.878c.007.005-.072.136-.252.366-.185.226-.485.544-.941.867-.456.321-1.074.647-1.855.829-.774.185-1.721.22-2.692-.083-.967-.29-1.903-.885-3.01-1.135-1.113-.264-2.33.119-3.47.713-1.148.58-2.343 1.351-3.78 1.65-1.417.317-2.969.255-4.437-.207-.733-.236-1.423-.575-2.046-.987-.622-.412-1.18-.878-1.744-1.302-.563-.425-1.134-.81-1.747-1.073-.611-.267-1.258-.416-1.896-.503-1.28-.172-2.526-.118-3.695-.16-1.168-.04-2.271-.178-3.22-.529-.945-.343-1.713-.92-2.164-1.585-.464-.653-.667-1.338-.697-1.896-.037-.562.097-.994.227-1.255.128-.265.238-.377.238-.377.016.01-.073.137-.178.402-.108.263-.215.682-.161 1.22.048.534.26 1.186.718 1.802.446.626 1.177 1.155 2.096 1.475.918.325 1.994.449 3.15.476 1.155.03 2.407-.035 3.726.133.657.086 1.332.237 1.979.515.648.275 1.244.675 1.815 1.104.573.428 1.129.889 1.731 1.287.603.396 1.262.719 1.968.946 1.41.445 2.906.507 4.269.207 1.375-.28 2.538-1.02 3.714-1.608.59-.29 1.189-.553 1.814-.69.62-.144 1.262-.156 1.848-.02 1.172.283 2.094.891 3.022 1.18.922.303 1.83.287 2.582.124.758-.159 1.368-.458 1.823-.756.914-.61 1.233-1.16 1.265-1.13M65.138 37.805c.012.056-.517.136-1.249.544-.742.392-1.616 1.16-2.607 2.006-.999.847-2.092 1.438-2.97 1.574-.88.149-1.41-.091-1.393-.113.009-.062.536.087 1.347-.11.811-.183 1.83-.768 2.808-1.598.98-.836 1.91-1.605 2.711-1.962.794-.373 1.355-.373 1.353-.34M56.126 52.88c.008.003-.013.095-.096.252-.08.158-.24.378-.52.577-.544.404-1.604.676-2.78.317-1.17-.314-2.397-1.093-3.952-1.182-1.543-.133-3.245.22-4.967.74-1.726.523-3.378 1.094-4.96 1.3-1.576.237-3.06.033-4.167-.45-1.118-.47-1.863-1.163-2.235-1.719-.195-.272-.311-.509-.375-.671-.064-.164-.093-.25-.083-.255.032-.015.159.335.56.852.391.516 1.13 1.155 2.22 1.582 1.083.44 2.502.613 4.038.368 1.54-.217 3.17-.787 4.909-1.316 1.736-.523 3.482-.88 5.086-.726.798.063 1.544.285 2.194.552.65.267 1.236.54 1.796.707 1.112.368 2.11.146 2.644-.203.55-.355.652-.75.688-.724M58.816 63.85c.009 0 .014.102-.01.293-.034.19-.124.472-.356.766-.448.586-1.51 1.158-2.855 1.022-.661-.074-1.352-.3-2.068-.556-.718-.25-1.475-.548-2.308-.63-1.679-.224-3.507.36-5.353 1.015-.932.328-1.849.65-2.764.877-.916.226-1.833.33-2.7.323-1.743-.014-3.278-.446-4.47-.972-1.198-.53-2.055-1.169-2.605-1.64-.278-.235-.476-.435-.604-.578-.13-.139-.195-.216-.187-.223.05-.074 1.112 1.216 3.487 2.232 1.18.49 2.684.887 4.379.884.846 0 1.73-.108 2.623-.332.894-.226 1.8-.546 2.733-.874 1.846-.655 3.733-1.256 5.498-1.007.878.097 1.652.415 2.364.674.71.268 1.375.497 2.004.581 1.254.158 2.285-.35 2.729-.876.464-.542.419-.994.463-.979" transform="translate(38 27)"/>
            <path fill="#000" d="M37.472 41.413c-.078.048-.559-.6-1.186-1.363-.625-.766-1.164-1.366-1.1-1.433.058-.063.71.445 1.35 1.23.644.783 1.011 1.522.936 1.566M53.142 37.388c.065.062-.462.717-1.175 1.465-.713.747-1.345 1.304-1.41 1.242-.065-.06.461-.716 1.175-1.464.714-.747 1.345-1.304 1.41-1.243M61.882 36.536c-.053.071-.645-.28-1.321-.785-.676-.505-1.18-.972-1.127-1.043.054-.07.645.28 1.321.786.676.504 1.18.971 1.127 1.042M22.898 34.613c.086.004.107.665-.169 1.421-.27.758-.71 1.255-.778 1.204-.077-.052.22-.6.474-1.312.26-.71.38-1.321.473-1.313M37.946 62.537c-.07.055-.602-.494-1.188-1.227-.586-.733-1.004-1.372-.934-1.427.07-.055.602.494 1.188 1.227.586.733 1.004 1.372.934 1.427M45.716 59.015c.062.064-.505.706-1.266 1.433-.762.728-1.43 1.266-1.492 1.201-.061-.063.505-.705 1.267-1.433.762-.727 1.429-1.266 1.491-1.201M55.352 61.579c-.052.072-.73-.33-1.514-.898-.784-.567-1.377-1.085-1.324-1.157.052-.072.73.33 1.515.897.784.568 1.376 1.086 1.323 1.158M40.07 48.243c.045.077-.73.604-1.732 1.178-1.002.573-1.85.975-1.894.898-.045-.076.73-.604 1.732-1.177 1-.573 1.85-.976 1.894-.899M48.564 48.96c-.013.082-.77-.046-1.471-.638-.706-.587-.959-1.308-.88-1.335.085-.043.443.555 1.089 1.09.638.542 1.291.793 1.262.883M36.9 29.9c.037.08-.531.416-1.268.75-.737.332-1.364.537-1.401.456-.037-.081.53-.417 1.268-.75.736-.333 1.363-.537 1.4-.456M45.65 31.33c-.042.08-.73-.199-1.538-.62-.808-.423-1.43-.829-1.388-.907.042-.08.73.2 1.539.621.807.422 1.429.828 1.387.907M53.038 28.867c.009.089-.64.224-1.448.302-.809.078-1.471.07-1.48-.019-.009-.088.64-.223 1.449-.301.808-.079 1.47-.07 1.479.018M38.546 70.664c-.054.072-.63-.273-1.286-.768-.656-.496-1.144-.955-1.09-1.025.054-.071.63.273 1.286.768.656.496 1.144.955 1.09 1.025M50.107 68.74c.065.056-.387.652-1.144 1.163-.754.515-1.476.718-1.505.638-.035-.086.602-.41 1.323-.903.722-.489 1.258-.961 1.326-.898M57.654 71.062c-.04.08-.698-.163-1.47-.541-.772-.379-1.366-.75-1.327-.83.04-.08.698.163 1.47.541.773.378 1.366.75 1.327.83" transform="translate(38 27)"/>
            <path fill="#455A64" d="M84.85 84.929c.001.01-.164.031-.48.061-.316.031-.782.065-1.383.1-1.202.072-2.943.146-5.094.22-4.302.142-10.247.284-16.815.319-3.286.01-6.415.012-9.267-.124-2.874-.149-5.381-1.106-7.158-2.341-1.79-1.243-2.83-2.719-3.385-3.777-.541-1.079-.68-1.734-.68-1.734.04-.016.222.628.79 1.674.584 1.029 1.632 2.455 3.405 3.65 1.76 1.187 4.223 2.103 7.046 2.232 2.834.119 5.965.107 9.247.098 6.565-.034 12.509-.14 16.811-.225l5.094-.118 1.385-.039c.317-.009.484-.007.485.004" transform="translate(38 27)"/>
        </g>
    </g>
</svg>
