<svg xmlns="http://www.w3.org/2000/svg" width="520" height="300" viewBox="0 0 520 300">
    <g fill="none">
        <g>
            <path fill="#E0E0E0" d="M67.558 0L0.318 0 0.318 87.675 67.558 89.355z" transform="translate(374.244)"/>
            <path fill="#FAFAFA" d="M63.126 3.116L4.299 3.116 4.299 82.632 63.126 84.618z" transform="translate(374.244)"/>
            <path fill="#E0E0E0" d="M52.825 17.564L13.794 16.08 13.794 71.653 52.825 71.653z" transform="translate(374.244)"/>
            <path fill="#EBEBEB" d="M13.794 71.653L52.825 43.1 13.794 16.08z" transform="translate(374.244)"/>
        </g>
        <path fill="#263238" d="M519.664 295.998h-5.263l-15.122.278-55.587.765-183.394 1.599c-71.64.417-136.493.487-183.434 0-23.47-.232-42.462-.556-55.587-1.043-6.559-.232-11.657-.51-15.114-.834-3.457-.325-5.247-.464-5.247-.765.108.093.218.155.33.185.332.117.665.187.998.209.883.14 2.195.278 3.927.394 3.449.232 8.547.44 15.106.603 13.125.347 32.116.533 55.587.648 46.941.209 111.785 0 183.426-.417l183.402-1.251 55.587-.37H519.664z"/>
        <g>
            <path fill="#263238" d="M78.18 4.207C77.427 1.769 74.933.313 72.44.855c-.86.358-1.767.586-2.693.678-.805-.14-1.579-.416-2.29-.815-3.707-1.402-7.855.408-9.348 4.079-2.361-1.315-5.281-1.083-7.405.588-2.125 1.67-3.038 4.454-2.316 7.059-2.526.513-4.426 2.607-4.692 5.171-.265 2.564 1.165 5.004 3.532 6.024-1.068 1.913-1.118 4.23-.133 6.188.984 1.957 2.875 3.299 5.048 3.582-.35 2.377.75 4.734 2.794 5.995 2.046 1.261 4.645 1.184 6.612-.196.552 2.3 2.41 4.059 4.737 4.484 2.327.426 4.686-.562 6.016-2.518 2.035 2.074 5.74 1.76 7.863-.197 2.056-2.12 2.995-5.083 2.536-8 2.59.799 5.398-.173 6.94-2.4 1.543-2.229 1.463-5.2-.197-7.341 2.185-.23 4.024-1.737 4.678-3.834.589-2.098.147-4.352-1.189-6.074-1.349-1.691-3.248-2.856-5.366-3.293-.348-1.959-1.507-3.68-3.192-4.74-1.684-1.059-3.738-1.358-5.655-.823" transform="translate(295.76 72.143)"/>
            <path fill="#455A64" d="M70.297 143.356L67.869 221.044 64.174 221.044 64.891 143.562zM83.645 142.422L101.897 224.416 105.848 224.219 90.781 142.422zM49.951 143.356L28.681 224.416 23.993 224.219 43.985 143.012z" transform="translate(295.76 72.143)"/>
            <path fill="#455A64" d="M101.681 62.965s19.855-1.14 17.87 21.84c-1.986 22.98-3.127 46.196-10.498 54.157-7.372 7.962-81.67 8.227-87.91 1.7-6.242-6.526 11.912-6.23 15.313-6.23 3.4 0 24.385 1.965 31.197-15.884 6.811-17.85 5.082-56.724 34.028-55.583z" transform="translate(295.76 72.143)"/>
            <path fill="#455A64" d="M102.959 62.974s15.176 3.106 13.76 18.99c-1.415 15.884-5.386 43.67-12.777 50.757-7.392 7.087-36.27 8.64-51.897 7.667-18.155-1.14-29.605-4.59-29.605-4.59s-3.313 2.122-2.31 3.499c1.002 1.376 9.829 6.88 52.752 5.966 42.923-.914 39.916-7.244 41.695-14.164 1.779-6.92 5.514-43.768 5.003-51.877-.512-8.11-4.58-14.822-16.621-16.248z" transform="translate(295.76 72.143)"/>
            <path fill="#707070" d="M11.55 219.491l-.05-9.042 16.925-.197.217 13.22-1.042.079c-4.669.314-23.757 1.277-26.892.363-3.5-1.012 10.841-4.423 10.841-4.423z" transform="translate(295.76 72.143)"/>
            <path fill="#000" d="M22.508 223.413c.234-1.43.986-2.725 2.114-3.637 1.104-.903 2.507-1.36 3.931-1.277l.06 4.727-6.105.187z" opacity=".4" transform="translate(295.76 72.143)"/>
            <path fill="#000" d="M4.55 221.408s-5.032 1.514-4.383 2.34c.649.825 19.963.58 28.504-.276v-.383l-22.538.481s-.6-2.133-1.582-2.162z" opacity=".4" transform="translate(295.76 72.143)"/>
            <path fill="#263238" d="M28.878 223.118c-.095.013-.19.013-.285 0l-.836.069-3.076.167c-2.605.128-6.193.256-10.164.305-3.97.049-7.558 0-10.153 0l-3.086-.089H.157c.095-.01.19-.01.285 0h14.075c3.962 0 7.559-.167 10.154-.255l3.076-.098h.836l.295-.099z" transform="translate(295.76 72.143)"/>
            <path fill="#263238" d="M6.074 223.836c-.138-.51-.336-1.001-.59-1.465-.307-.426-.664-.815-1.061-1.16 1.047.441 1.707 1.49 1.651 2.625zM11.038 221.231s-.285-.255-.54-.639c-.256-.383-.413-.727-.364-.757.049-.03.285.256.54.65.256.392.413.717.364.746zM12.404 220.494s-.305-.138-.6-.393c-.294-.256-.51-.502-.471-.54.04-.04.305.127.6.382.294.256.51.512.471.55zM13.25 218.882c-.281.112-.584.156-.885.128-.297.034-.598.007-.885-.079.28-.112.584-.156.885-.128.297-.04.6-.013.884.079zM13.535 217.752c-.29.199-.632.305-.983.304-.333.057-.676.012-.983-.127.324-.056.653-.082.983-.08.323-.064.652-.097.983-.097z" transform="translate(295.76 72.143)"/>
            <path fill="#263238" d="M10.448 219.767c-.36.06-.73.06-1.09 0-.394-.05-.782-.132-1.16-.246-.233-.064-.457-.153-.669-.266-.13-.07-.225-.191-.265-.334-.044-.163.02-.335.157-.432.85-.445 1.896-.213 2.477.55.168.213.291.457.363.718.02.097.02.197 0 .295-.1-.309-.245-.6-.432-.865-.25-.28-.574-.484-.934-.59-.43-.138-.896-.099-1.297.108-.167.128-.098.334.088.442.198.106.405.191.62.256.365.123.74.215 1.12.275.61.06 1.022.06 1.022.089z" transform="translate(295.76 72.143)"/>
            <path fill="#263238" d="M10.163 219.826c-.13-.23-.175-.498-.128-.757.03-.285.128-.558.285-.796.181-.331.519-.546.895-.57.232.044.386.268.344.5-.024.175-.085.342-.177.492-.143.24-.314.461-.511.659-.162.199-.372.354-.61.452 0 0 .217-.197.512-.55.173-.202.321-.423.442-.66.147-.225.246-.638 0-.687-.246-.05-.55.246-.708.472-.15.211-.255.452-.305.707-.033.245-.047.491-.039.738zM28.504 218.45s-.482 0-1.248.058c-2.033.252-3.74 1.647-4.394 3.588-.245.737-.265 1.219-.304 1.219-.02-.114-.02-.23 0-.344.022-.31.078-.617.167-.914.601-2.042 2.39-3.508 4.511-3.696.31-.032.623-.032.934 0 .115.014.227.043.334.088zM26.627 211.432c.203 2.31.262 4.63.177 6.949-.19-2.312-.25-4.632-.177-6.95zM20.356 221.791c-1.619.327-3.283.364-4.915.108 0-.059 1.111 0 2.467 0 1.357 0 2.438-.167 2.448-.108z" transform="translate(295.76 72.143)"/>
            <path fill="#263238" d="M23.668 221.742c.05 0-.088.236-.196.492-.108.255-.167.481-.226.471-.06-.01-.089-.265 0-.56.088-.295.393-.442.422-.403zM24.907 220.17s-.07.216-.246.393c-.177.177-.344.295-.383.255-.04-.04.068-.216.236-.393.167-.177.344-.255.393-.255zM26.686 219.432c0 .06-.236.06-.492.148-.255.088-.422.226-.462.187-.039-.04.089-.266.403-.374.315-.108.56-.01.55.04zM27.954 219.079c0 .058-.079.147-.217.196-.137.05-.265.06-.294 0-.03-.059.078-.138.216-.196.137-.06.275-.05.295 0z" transform="translate(295.76 72.143)"/>
            <path fill="#707070" d="M50.02 219.491l-.05-9.042 16.926-.197.216 13.22-1.051.079c-4.67.314-23.757 1.277-26.892.363-3.5-1.012 10.85-4.423 10.85-4.423z" transform="translate(295.76 72.143)"/>
            <path fill="#000" d="M60.94 223.413c.233-1.43.986-2.725 2.113-3.637 1.106-.9 2.508-1.356 3.932-1.277l.059 4.727-6.104.187z" opacity=".4" transform="translate(295.76 72.143)"/>
            <path fill="#000" d="M43.012 221.408s-5.023 1.514-4.384 2.34c.639.825 19.963.58 28.504-.276v-.383l-22.548.481s-.59-2.133-1.572-2.162z" opacity=".4" transform="translate(295.76 72.143)"/>
            <path fill="#263238" d="M67.348 223.118c-.098.012-.197.012-.295 0l-.835.069-3.077.167c-2.594.128-6.182.256-10.153.305-3.97.049-7.568 0-10.163 0l-3.077-.089h-1.13c.098-.01.197-.01.295 0h14.075c3.971 0 7.549-.167 10.153-.255l3.077-.098h.835l.295-.099z" transform="translate(295.76 72.143)"/>
            <path fill="#263238" d="M44.545 223.836c-.138-.51-.336-1.001-.59-1.465-.306-.43-.666-.82-1.071-1.16.531.181.974.557 1.238 1.052.332.454.482 1.014.423 1.573zM49.509 221.231c-.05 0-.295-.255-.54-.639-.247-.383-.424-.727-.374-.757.049-.03.294.256.54.65.246.392.423.717.374.746zM50.865 220.494s-.305-.138-.6-.393c-.294-.256-.5-.502-.461-.54.039-.04.304.127.6.382.294.256.5.512.461.55zM51.71 218.882c0 .059-.393.118-.874.128-.298.035-.599.008-.885-.079 0-.059.393-.118.875-.128.297-.041.6-.014.884.079zM51.995 217.752c-.288.2-.631.307-.983.304-.332.06-.676.015-.982-.127.324-.057.653-.083.982-.08.324-.064.653-.097.983-.097z" transform="translate(295.76 72.143)"/>
            <path fill="#263238" d="M48.91 219.767c-.359.06-.724.06-1.082 0-.393-.049-.781-.131-1.16-.246-.233-.06-.458-.15-.668-.266-.13-.073-.229-.192-.276-.334-.037-.162.025-.332.158-.432.85-.445 1.896-.213 2.477.55.167.213.291.457.363.718.026.096.026.198 0 .295-.117-.333-.286-.645-.5-.924-.266-.286-.607-.49-.984-.59-.426-.137-.89-.098-1.287.108-.177.128-.109.334.088.442.194.106.398.191.61.256.368.122.746.214 1.13.275.717.118 1.13.118 1.13.148z" transform="translate(295.76 72.143)"/>
            <path fill="#263238" d="M48.634 219.826c-.137-.227-.186-.497-.138-.757.034-.284.132-.556.285-.796.184-.333.526-.548.905-.57.226.053.375.27.344.5-.028.176-.092.343-.187.492-.14.24-.308.46-.501.659-.165.2-.378.356-.62.452 0 0 .217-.197.511-.55.174-.204.325-.424.453-.66.137-.225.235-.638 0-.687-.236-.05-.541.246-.708.472-.148.211-.249.453-.295.707-.037.244-.054.49-.05.738zM66.935 218.45s-.481 0-1.248.058c-.993.134-1.93.535-2.713 1.16-.768.641-1.346 1.481-1.67 2.428-.256.737-.266 1.219-.305 1.219-.04 0 0-.128 0-.344.136-1.354.804-2.599 1.857-3.46.808-.658 1.794-1.059 2.831-1.15.307-.032.617-.032.924 0 .113.01.222.04.324.088zM65.097 211.432c.19 2.31.25 4.63.177 6.949-.203-2.31-.262-4.632-.177-6.95zM58.817 221.791c-1.62.327-3.283.364-4.915.108 0-.059 1.11 0 2.477 0 1.366 0 2.438-.167 2.438-.108z" transform="translate(295.76 72.143)"/>
            <path fill="#263238" d="M62.139 221.742s-.089.236-.197.492c-.108.255-.167.481-.226.471-.059-.01-.098-.265 0-.56.099-.295.384-.442.423-.403zM63.368 220.17s-.07.216-.236.393c-.167.177-.344.295-.394.255-.049-.04.07-.216.246-.393.177-.177.344-.255.384-.255zM65.147 219.432c0 .06-.236.06-.482.148s-.423.226-.472.187c-.049-.04.098-.266.403-.374.305-.108.57-.01.55.04zM66.415 219.079c0 .058-.07.147-.217.196-.147.05-.265.06-.285 0-.02-.059.07-.138.216-.196.148-.06.266-.05.286 0z" transform="translate(295.76 72.143)"/>
            <path fill="#FFBE9D" d="M17.25 33.576C16.07 45.37 12.955 81.148 29.31 79.9c19.294-1.465 23.727-16.71 23.727-16.71l-3.754-13.76s-19.04 16.552-19.53 14.537c-2.674-10.96-1.966-25.998-1.534-31.354" transform="translate(295.76 72.143)"/>
            <path fill="#353E63" d="M102.625 75.762L99.322 59.2c-2.428-13.554-21.427-14.478-21.427-14.478l-14.91-.246s-9.938-.324-17.88 6.202c-7.942 6.527-13.289 11.54-13.289 11.54L44.3 76.666l7.382-4.914s-2.654 4.796-2.212 8.846c.413 3.931 4.541 6.939 4.541 6.939l.983 25.369 44.23.481-5.848-37.625h9.25z" transform="translate(295.76 72.143)"/>
            <path fill="#263238" d="M81.787 58.188c.126.342.212.699.256 1.061l.58 2.949c.5 2.565 1.14 5.897 1.857 9.583.718 3.686 1.327 7.156 1.71 9.623.197 1.238.335 2.24.413 2.948.071.36.094.726.07 1.091-.134-.34-.223-.697-.266-1.061-.158-.796-.344-1.77-.57-2.949-.502-2.565-1.15-5.897-1.858-9.583-.708-3.686-1.327-7.156-1.71-9.623-.197-1.238-.344-2.24-.423-2.948-.065-.36-.085-.727-.059-1.091z" transform="translate(295.76 72.143)"/>
            <path fill="#263238" d="M102.93 75.929c-2.99.267-5.993.362-8.994.285-3.003.1-6.01.025-9.004-.226 2.994-.26 6-.356 9.004-.285 3-.095 6.002-.02 8.993.226zM44.3 76.666c-2.19-2.28-4.257-4.676-6.193-7.175-2.065-2.392-4-4.892-5.8-7.49 2.192 2.276 4.259 4.668 6.193 7.166 2.067 2.393 4.003 4.897 5.8 7.5zM49.577 76.037c.216-.685.506-1.344.865-1.966.325-.658.679-1.356 1.052-2.103.537-.743.798-1.65.737-2.565-.354-1.966-.707-3.834-.914-5.15-.167-.713-.246-1.442-.236-2.173.276.676.474 1.382.59 2.103.295 1.317.698 3.106 1.071 5.15.108.535.042 1.089-.186 1.583-.19.434-.403.858-.64 1.268l-1.16 2.054c-.318.646-.714 1.25-1.179 1.8z" transform="translate(295.76 72.143)"/>
            <path fill="#000" d="M54.895 109.672L54.256 100.236 96.884 100.236 98.506 108.424zM82.2 59.682c.183 5.78.373 11.552.57 17.318.216 1.858-.048 3.74-.767 5.465-1.484 2.811-4.993 3.745-8.109 4.384l-19 3.932 35.199-1.71L82.2 59.68z" opacity=".2" transform="translate(295.76 72.143)"/>
            <path fill="#FFBE9D" d="M104.65 89.04c-.984-7.95-2.025-13.082-2.025-13.082l-17.32.256s1.564 8.748 1.082 11.087c-.413 2.045-33.822 3.391-42.53 3.529-.521-.393-1.268.265-1.966-.315-.591-.521-1.09-1.14-1.474-1.828-.52-.842-.92-1.751-1.19-2.703-.035-.387-.315-.706-.694-.792-.379-.085-.77.084-.967.419-.344.747.05 3.223 1.7 5.622 1.652 2.398-2.682 1.15-4.265.727-1.582-.423-6.566-1.504-7.077-1.1-.757.58-.285 1.513 1.317 1.896 1.602.384 6.3 1.897 6.045 2.743-.255.845-8.315-1.436-8.315-1.436s-1.642-.776-1.966.197c-.59 1.75 8.148 3.529 8.984 3.676.58.098.334 1.032-.285.885-.62-.148-7.991-2.458-8.61-.678-.472 1.366 7.175 1.523 8.443 2.87 1.267 1.346-5.79-.728-6.193.6-.157.49 2.782.717 6.999 1.306 4.334.422 8.69.58 13.043.472 9.829.531 44.378 1.248 51.76.728 8.62-.61 5.838-12.346 5.503-15.078z" transform="translate(295.76 72.143)"/>
            <path fill="#263238" d="M104.413 66.837c.085-.015.171-.015.256 0 .177 0 .432.079.767.167.947.304 1.852.727 2.693 1.258 1.33.84 2.575 1.807 3.715 2.89.669.63 1.357 1.327 2.045 2.113.736.819 1.394 1.704 1.965 2.644.157.266.288.546.394.836.068.285.147.58.216.865.137.59.304 1.19.432 1.808.246 1.239.482 2.526.64 3.932.357 2.872.472 5.768.343 8.66-.377 6.615-1.488 13.169-3.312 19.54-.817 3.342-1.858 6.626-3.116 9.828-1.2 2.98-2.808 5.778-4.777 8.316-.91 1.194-1.945 2.287-3.086 3.263-1.122.87-2.338 1.608-3.627 2.202-2.316.995-4.709 1.8-7.156 2.408-4.472 1.14-8.138 1.838-10.654 2.388l-2.9.61-.757.147h-.265l.256-.089.747-.196c.648-.177 1.621-.413 2.88-.708 2.496-.6 6.152-1.366 10.595-2.546 2.423-.617 4.79-1.436 7.077-2.447 1.252-.58 2.432-1.302 3.519-2.152 1.105-.967 2.113-2.04 3.007-3.205 1.925-2.514 3.499-5.279 4.679-8.217 1.238-3.176 2.266-6.43 3.077-9.74 1.814-6.338 2.938-12.853 3.351-19.432.124-2.867.026-5.74-.295-8.59-.147-1.347-.383-2.625-.619-3.854-.118-.61-.275-1.209-.403-1.789l-.206-.865c-.092-.26-.21-.51-.354-.747-.572-.93-1.23-1.806-1.966-2.614-.618-.741-1.274-1.45-1.966-2.123-1.112-1.097-2.326-2.084-3.627-2.949-.82-.544-1.7-.99-2.624-1.327-.6-.196-.944-.285-.944-.285z" transform="translate(295.76 72.143)"/>
            <path fill="#FFBE9D" d="M27.57 35.463s.266-1.278.718-4.914l4.05-7.942s-.905-1.661-2.95 1.848c-.436.996-1.598 1.449-2.594 1.012-.996-.437-1.45-1.599-1.013-2.595.26-1.263 1.25-2.248 2.513-2.503 1.264-.255 2.558.27 3.287 1.333 0 0 1.297.128 1.444-.884.148-1.013-2.771-3.51-5.268-2.782-1.017.317-1.955.846-2.752 1.553 0 0 .54-8.335-.138-8.413-.678-.08-1.621.432-2.133 9.583 0 0-.285-7.215-.422-8.139-.138-.923-1.386-1.543-1.543.767 0 .256-.472 7.352-.472 7.352s-.806-4.688-.895-5.062c-.226-.983-1.209-.884-1.297.423-.069.983-.393 5.229-.393 5.229L17.063 34.4h-.078M61.716 48.81c-.098-4.265-.265-8.718-.265-8.718s-6.29-.796-6.566-7.214c-.275-6.418.374-21.22.374-21.22l11.578-5.564 10.114 11.53.158 30.98c.01 2.048-.796 4.016-2.24 5.468-1.445 1.452-3.409 2.268-5.457 2.268-4.186 0-7.605-3.344-7.696-7.53z" transform="translate(295.76 72.143)"/>
            <path fill="#263238" d="M56.88 22.47c0 .443.36.803.803.805.444.002.806-.356.81-.8.003-.443-.353-.806-.797-.812-.447 0-.81.36-.816.806zM55.563 21.555c.099.108.698-.393 1.563-.423.865-.03 1.504.403 1.592.285.089-.118-.059-.255-.334-.452-.373-.262-.822-.393-1.278-.373-.454.02-.889.19-1.238.481-.265.236-.354.443-.305.482zM66.257 22.47c0 .443.36.803.803.805.444.002.806-.356.81-.8.003-.443-.353-.806-.797-.812-.447 0-.81.36-.816.806z" transform="translate(295.76 72.143)"/>
            <path fill="#263238" d="M65.117 21.722c.098.108.698-.393 1.563-.423.865-.03 1.504.403 1.592.285.089-.117-.059-.255-.334-.452-.374-.26-.822-.392-1.278-.373-.457.02-.895.19-1.248.481-.256.227-.344.433-.295.482zM61.923 29.143c-.455-.144-.929-.217-1.406-.216-.216 0-.423-.06-.462-.217-.026-.244.022-.49.138-.707l.619-1.819c.583-1.548 1.046-3.138 1.386-4.757-.694 1.501-1.276 3.052-1.74 4.64l-.59 1.828c-.153.304-.191.653-.108.983.066.16.205.281.374.324.124.018.25.018.373 0 .473.043.949.023 1.416-.059z" transform="translate(295.76 72.143)"/>
            <path fill="#EB996E" d="M61.45 40.092c2.987-.084 5.883-1.037 8.336-2.742 0 0-1.966 4.679-8.227 4.305l-.108-1.563zM62.188 31.453c.104-.547.472-1.007.983-1.229.352-.162.758-.162 1.11 0 .357.191.56.581.512.983-.108.429-.459.753-.895.826-.427.064-.863.034-1.277-.089-.12-.014-.233-.054-.335-.118-.104-.063-.159-.184-.137-.304" transform="translate(295.76 72.143)"/>
            <path fill="#263238" d="M64.321 29.104c.069 0 .177.236.147.658-.052.558-.303 1.077-.707 1.465-.408.384-.944.604-1.504.619-.413 0-.659-.118-.639-.187.02-.069.983-.059 1.789-.806.806-.747.776-1.75.914-1.75zM45.833 59.524c.105-.927.382-1.827.815-2.653.282-.888.722-1.717 1.298-2.448-.113.924-.392 1.82-.826 2.644-.277.89-.714 1.723-1.287 2.457zM60.517 61.667c-1.04-.242-2.009-.724-2.83-1.405-.921-.543-1.705-1.29-2.29-2.182.912.507 1.778 1.095 2.584 1.759.899.532 1.747 1.144 2.536 1.828zM58.68 48.978c-1.346.824-2.856 1.344-4.424 1.523 1.347-.82 2.856-1.34 4.423-1.523zM57.696 74.818c.436-1.065 1.029-2.06 1.76-2.948.59-.988 1.33-1.88 2.191-2.644-.446 1.062-1.041 2.055-1.769 2.948-.596.982-1.331 1.872-2.182 2.644zM58.542 85.355c-1.979-1.262-3.758-2.813-5.279-4.6 1.032.565 1.978 1.274 2.811 2.103.939.71 1.77 1.55 2.468 2.497zM65.953 84.362c-.37-1.046-.67-2.117-.895-3.204-.399-1.042-.727-2.109-.983-3.194.714.887 1.206 1.931 1.435 3.047.409 1.067.56 2.215.443 3.351zM79.615 84.53c-.862.536-1.81.922-2.801 1.14-.942.373-1.938.592-2.95.648.864-.534 1.811-.92 2.802-1.14.942-.373 1.938-.592 2.949-.649zM80.224 73.659c-1.85 1.398-3.901 2.508-6.084 3.292.893-.754 1.885-1.383 2.949-1.867.974-.618 2.03-1.098 3.135-1.425zM73.05 69.373c-.779-.694-1.442-1.507-1.967-2.408-.667-.813-1.204-1.725-1.592-2.703 1.476 1.49 2.692 3.219 3.597 5.111h-.039zM78.416 57.893s-.128 0-.285-.118l.177-.06c-.033 1.018-.168 2.029-.403 3.018-.168 1.11-.545 2.177-1.111 3.146.082-1.104.286-2.195.61-3.254.294-1.317.53-2.447.697-2.948l.069-.197.098.138c.118.157.167.249.148.275zM90.093 50.216c-1.182.015-2.36-.137-3.5-.452-1.171-.164-2.313-.495-3.39-.983 1.181-.02 2.36.128 3.499.443 1.172.164 2.315.498 3.39.992zM87.301 61.353c-.143-.885-.12-1.788.069-2.664.026-.895.226-1.777.59-2.595.137.882.11 1.782-.079 2.654-.027.897-.224 1.78-.58 2.605zM93.503 64.626c.06-.811.288-1.601.669-2.32.23-.779.618-1.501 1.14-2.123-.28 1.593-.897 3.107-1.809 4.443zM93.552 70.887c-2.15-1.15-4.135-2.589-5.897-4.276 1.123.506 2.168 1.168 3.106 1.966 1.036.632 1.976 1.41 2.791 2.31zM63.77 110.37c-.886-.3-1.711-.756-2.437-1.347-.823-.456-1.556-1.059-2.162-1.779.89.3 1.72.76 2.447 1.357 1.288.855 2.27 1.65 2.153 1.769zM74.995 106.409c-.54 1.076-1.232 2.068-2.054 2.948-.686.982-1.51 1.86-2.447 2.605.543-1.074 1.234-2.067 2.054-2.949.688-.98 1.512-1.856 2.447-2.604zM86.652 111.824c.166-.862.5-1.684.983-2.417.35-.812.846-1.552 1.465-2.182-.166.862-.5 1.684-.983 2.417-.349.812-.846 1.552-1.465 2.182zM83.546 112.463c-.654-.611-1.182-1.346-1.553-2.162-.522-.727-.899-1.548-1.11-2.418.648.618 1.174 1.351 1.553 2.162.512.733.889 1.552 1.11 2.418zM54.806 10.144c-1.604.913-2.402 2.785-1.95 4.576.452 1.79 2.043 3.06 3.89 3.101 1.846.043 3.493-1.152 4.027-2.92-.68 1.392-.35 3.067.806 4.098 1.185 1.013 2.84 1.268 4.275.659 1.392-.627 2.428-1.847 2.821-3.322.03 1.443.722 2.791 1.878 3.656 1.175.84 2.67 1.097 4.059.698-1.403.905-2.178 2.522-2.005 4.182.172 1.66 1.262 3.083 2.82 3.681-1.714 1.099-2.352 3.296-1.494 5.142.859 1.847 2.95 2.774 4.896 2.171 1.965-.62 3.135-2.565 3.931-4.453 2.096-5.166 2.071-10.95-.069-16.1-2.219-5.169-6.716-9.012-12.168-10.399-5.473-1.3-11.224.403-15.107 4.473" transform="translate(295.76 72.143)"/>
            <path fill="#455A64" d="M87.478 10.733c.01.072.01.145 0 .217.03.205.03.413 0 .619-.099.795-.442 1.54-.983 2.133-.852.955-2.145 1.388-3.4 1.14-1.63-.35-2.876-1.666-3.136-3.313h.462c-.219 1.335-1.008 2.509-2.163 3.214-1.245.792-2.808.896-4.147.276-1.253-.553-2.197-1.633-2.576-2.949-.217-.65-.157-1.362.168-1.966.194-.299.486-.52.825-.629.356-.112.743-.046 1.042.177.519.445.672 1.184.374 1.799-.254.512-.641.947-1.121 1.258-.828.556-1.815.825-2.811.767-1.443-.103-2.737-.928-3.44-2.192-.19-.332-.329-.69-.413-1.062-.022-.13-.022-.263 0-.393.166.47.373.923.62 1.356.594.96 1.559 1.63 2.665 1.85 1.106.222 2.255-.024 3.173-.68.422-.262.762-.636.983-1.081.207-.424.107-.935-.246-1.248-.2-.115-.438-.142-.658-.078-.221.065-.406.217-.512.422-.246.492-.282 1.063-.098 1.582.344 1.183 1.188 2.156 2.31 2.664 1.183.548 2.563.46 3.666-.236 1.034-.624 1.75-1.662 1.966-2.85l.245-1.662.217 1.671c.242 1.45 1.33 2.612 2.762 2.949 1.136.241 2.315-.132 3.106-.983.54-.538.912-1.22 1.07-1.966.05-.51-.019-.806.05-.806zM92.628 17.417c.038.278.01.56-.078.826-.197.752-.603 1.433-1.17 1.965-.839.824-1.993 1.243-3.165 1.15-1.446-.125-2.742-.942-3.48-2.191-.077-.16-.146-.324-.206-.492h.482c-.265.705-.789 1.281-1.465 1.612-.585.313-1.242.47-1.906.452-1.123-.047-2.183-.534-2.95-1.356-.506-.514-.919-1.113-1.218-1.77-.13-.226-.214-.477-.246-.737.48.813 1.05 1.568 1.7 2.251.723.701 1.678 1.111 2.684 1.15 1.244.078 2.407-.623 2.92-1.76l.196-.55.275.541c.069.118.118.265.197.383.66 1.102 1.799 1.83 3.076 1.966 1.055.09 2.1-.267 2.88-.983.543-.456.967-1.036 1.239-1.69.056-.262.135-.519.235-.767zM86.141 29.566c-.573.396-1.287.532-1.965.373-.747-.099-1.44-.445-1.966-.983-.642-.687-.994-1.595-.983-2.536l.383.217-.147.078c-.861.44-1.86.524-2.782.236-.763-.24-1.422-.732-1.867-1.396-.449-.55-.638-1.266-.521-1.965.174.627.45 1.221.815 1.759.422.542 1.003.938 1.662 1.13.804.224 1.662.14 2.408-.236l.127-.068.384-.207v.433c0 .818.304 1.606.855 2.211.452.5 1.05.845 1.71.983.627.09 1.264.08 1.887-.03zM49.97 13.996c.72.665 1.58 1.159 2.517 1.445 1.003.275 2.07.202 3.027-.206 1.164-.517 2.078-1.47 2.546-2.654.106-.273.185-.556.236-.845l.157-.767.324.708c.274.461.815.692 1.337.57.526-.126 1.002-.407 1.366-.806.676-.664 1.15-1.506 1.367-2.428.176-.86.199-1.746.068-2.614 0 0 .148.226.256.678.132.648.132 1.317 0 1.966-.175 1.032-.65 1.989-1.366 2.752-.42.485-.98.828-1.602.983-.748.173-1.52-.172-1.888-.846l.482-.059c-.055.336-.144.665-.265.983-.505 1.327-1.526 2.39-2.831 2.949-1.788.73-3.837.346-5.239-.983-.334-.54-.511-.806-.491-.826zM52.821 22.066c.059 0 .069.472-.413.983-.652.64-1.596.884-2.477.639-.835-.215-1.596-.654-2.201-1.268-.462-.442-.698-.757-.659-.806.04-.05.383.167.885.53.623.477 1.33.834 2.083 1.052.734.198 1.518.046 2.123-.412.462-.354.58-.738.659-.718z" transform="translate(295.76 72.143)"/>
            <path fill="#455A64" d="M60.763 23.364c-.05 0-.05-.344-.216-.915-.254-.787-.749-1.475-1.416-1.965-1.001-.727-2.3-.904-3.46-.472-1.422.527-2.366 1.884-2.366 3.4 0 1.518.944 2.874 2.366 3.402 1.16.431 2.459.254 3.46-.472.667-.49 1.162-1.178 1.416-1.966.167-.57.167-.914.216-.914.078.323.078.66 0 .983-.229.834-.726 1.57-1.416 2.093-1.086.86-2.539 1.097-3.843.63-1.635-.57-2.731-2.112-2.731-3.844 0-1.732 1.096-3.274 2.731-3.843 1.304-.468 2.757-.23 3.843.63.712.565 1.205 1.36 1.396 2.25.088.328.095.672.02 1.003zM71.683 23.364s0-.344-.216-.915c-.249-.79-.745-1.48-1.416-1.965-1.507-1.088-3.591-.865-4.833.518-1.243 1.382-1.243 3.479 0 4.861 1.242 1.382 3.326 1.606 4.833.518.671-.486 1.167-1.175 1.416-1.966.177-.57.177-.914.216-.914.091.321.091.662 0 .983-.23.82-.724 1.543-1.406 2.054-1.086.86-2.54 1.097-3.843.63-1.635-.57-2.732-2.112-2.732-3.844 0-1.732 1.097-3.274 2.732-3.843 1.304-.468 2.757-.23 3.843.63.712.564 1.203 1.36 1.386 2.25.102.326.108.673.02 1.003z" transform="translate(295.76 72.143)"/>
            <path fill="#455A64" d="M64.164 23.177c0 .137-.777.255-1.74.255s-1.73-.118-1.73-.255c0-.138.777-.256 1.73-.256s1.74.118 1.74.256z" transform="translate(295.76 72.143)"/>
            <path fill="#263238" d="M25.654 112.424c14.902-1.487 29.905-1.674 44.84-.56l-18.95 27.206-17.103.07-3.676 78.13H8.158l2.162-87.783c.206-8.683 6.704-15.923 15.314-17.063h.02z" transform="translate(295.76 72.143)"/>
            <path fill="#263238" d="M67.29 141.213s33.88 2.3 33.035-28.12c0 0-54.276-9.171-57.805 6.605-1.14 5.071 1.966 98.21 1.966 98.21h23.698" transform="translate(295.76 72.143)"/>
            <path fill="#455A64" d="M67.623 134.48c.2 2.597.052 5.208-.442 7.765-.188-2.596-.039-5.206.442-7.765zM66.542 110.291l-.462.207c-.314.118-.776.275-1.386.452-1.723.463-3.472.824-5.238 1.08-2.6.337-5.168.889-7.677 1.652-1.461.466-2.853 1.127-4.138 1.966-1.359.923-2.508 2.122-3.371 3.519-1.696 2.718-2.545 5.88-2.438 9.082.157 2.948.295 5.612.413 7.863.118 2.25.187 3.99.246 5.327v1.455c.026.166.026.335 0 .501-.041-.164-.068-.332-.079-.501 0-.383-.079-.865-.137-1.445-.099-1.327-.236-3.126-.413-5.317-.177-2.192-.364-4.915-.521-7.864-.12-3.292.75-6.544 2.496-9.337.903-1.45 2.102-2.693 3.52-3.647 1.322-.869 2.757-1.553 4.265-2.034 2.544-.747 5.149-1.27 7.784-1.563 2.232-.305 4.02-.62 5.24-.914 1.218-.295 1.877-.531 1.896-.482z" transform="translate(295.76 72.143)"/>
        </g>
        <g>
            <path fill="#455A64" d="M45.695 4.226L58.561 44.388 129.684 45.675 129.212 43.542 103.234 42.746 91.272 4.197z" transform="translate(244.649 124.236)"/>
            <path fill="#FFF" d="M74.573 24.297c.432 1.7-.295 3.362-1.622 3.716-1.327.353-2.733-.738-3.155-2.428-.423-1.69.295-3.371 1.621-3.715 1.327-.344 2.733.737 3.156 2.427z" transform="translate(244.649 124.236)"/>
            <path fill="#D74C41" d="M204.03 32.878c-1.148-.851-2.566-1.256-3.99-1.14V30.49h-21.771s-.679 14.36 10.31 14.87c4.915.227 7.736-1.965 9.348-4.756.807.196 1.635.298 2.467.304 1.218.046 2.42-.298 3.43-.983 1.115-.882 1.725-2.257 1.632-3.676.06-1.282-.463-2.522-1.426-3.371zm-1.494 5.337c-.924.698-2.585.59-3.666.393.55-1.521.904-3.107 1.052-4.718.953-.116 1.917.107 2.722.63.48.444.728 1.087.669 1.74.075.739-.214 1.469-.777 1.955z" transform="translate(244.649 124.236)"/>
            <path fill="#263238" d="M196.826 25.86c-.161-.143-.3-.308-.413-.491-.35-.514-.594-1.092-.718-1.7-.22-.987-.13-2.016.256-2.95.61-1.137 1.442-2.14 2.447-2.948 1.138-1.04 1.91-2.419 2.202-3.932.337-1.732-.016-3.527-.983-5.003-.512-.797-1.181-1.483-1.966-2.015-.837-.526-1.743-.933-2.693-1.209-1.031-.283-1.996-.768-2.84-1.425-.413-.377-.747-.83-.983-1.337-.256-.531-.329-1.133-.207-1.71 0-.078.05-.157.07-.236l.255.266c-.927.413-1.54 1.315-1.583 2.33-.056 1 .17 1.998.649 2.879.423.904.983 1.76 1.356 2.683.432.899.619 1.896.54 2.89-.125.953-.585 1.83-1.297 2.477-.64.605-1.377 1.097-2.182 1.455-1.44.533-2.85 1.144-4.226 1.828-1.091.622-1.956 1.575-2.467 2.722-.394.864-.595 1.803-.59 2.753.02.813.176 1.617.462 2.378l-.088-.137c-.089-.138-.118-.246-.187-.443-.207-.578-.323-1.185-.344-1.798-.028-.975.157-1.944.54-2.841.513-1.208 1.398-2.22 2.526-2.89 1.379-.699 2.793-1.326 4.237-1.877.762-.355 1.462-.83 2.074-1.406.644-.596 1.058-1.4 1.17-2.27.063-.926-.12-1.852-.531-2.683-.384-.885-.915-1.73-1.357-2.664-.522-.948-.76-2.026-.688-3.106.055-.56.237-1.102.53-1.582.31-.501.777-.885 1.328-1.092l.373-.127-.118.393v.196c-.14 1.014.276 2.025 1.091 2.644.804.625 1.722 1.086 2.703 1.357.984.286 1.92.713 2.782 1.268.817.564 1.51 1.29 2.035 2.133 1.005 1.556 1.358 3.444.982 5.258-.322 1.565-1.139 2.984-2.329 4.05-.998.786-1.827 1.766-2.438 2.88-.382.874-.491 1.844-.314 2.781.137.812.456 1.581.934 2.251zM223.334 44.565L.256 44.565.256 51.396 12.188 51.396 5.838 172.125 9.249 172.125 15.599 51.396 211.127 50.324 215.629 171.762 219.393 171.978 214.577 51.396 223.334 51.396z" transform="translate(244.649 124.236)"/>
        </g>
        <g transform="translate(27.428 5.305)">
            <path fill="#EBEBEB" d="M1.17 0.6H96.128V291.48900000000003H1.17z"/>
            <path fill="#E0E0E0" d="M95.99 1.533H171.04399999999998V291.488H95.99z"/>
            <path fill="#263238" d="M6.428 47.16H86.977V69.835H6.428z"/>
            <path fill="#6F3895" d="M8.669 50.01H13.181000000000001V67.368H8.669z"/>
            <path fill="#FFF" d="M18.498 53.656c0 .793-.642 1.436-1.435 1.436-.792 0-1.435-.643-1.435-1.436 0-.792.643-1.435 1.435-1.435.38 0 .746.152 1.015.42.269.27.42.635.42 1.015zM18.498 59.79c0 .792-.642 1.435-1.435 1.435-.792 0-1.435-.643-1.435-1.435 0-.793.643-1.435 1.435-1.435.38 0 .746.15 1.015.42.269.27.42.634.42 1.015z"/>
            <path fill="#455A64" d="M24.228 52.221H28.661V65.54899999999999H24.228zM30.627 52.221H35.06V65.54899999999999H30.627zM37.036 52.221H41.469V65.54899999999999H37.036zM43.434 52.221H47.867V65.54899999999999H43.434zM49.843 52.221H54.276V65.54899999999999H49.843zM56.242 52.221H60.675V65.54899999999999H56.242zM62.64 52.221H67.07300000000001V65.54899999999999H62.64zM69.049 52.221H73.482V65.54899999999999H69.049zM75.447 52.221H79.88V65.54899999999999H75.447zM81.856 52.221H86.28899999999999V65.54899999999999H81.856z"/>
            <path fill="#263238" d="M6.428 79.733H86.977V102.408H6.428z"/>
            <path fill="#ED4634" d="M8.669 82.583H13.181000000000001V99.941H8.669z"/>
            <path fill="#FFF" d="M18.498 86.24c0 .792-.642 1.435-1.435 1.435-.792 0-1.435-.643-1.435-1.435 0-.793.643-1.435 1.435-1.435.793 0 1.435.642 1.435 1.435zM18.498 92.393c0 .792-.642 1.435-1.435 1.435-.792 0-1.435-.643-1.435-1.435 0-.793.643-1.435 1.435-1.435.793 0 1.435.642 1.435 1.435z"/>
            <path fill="#455A64" d="M24.228 84.805H28.661V98.13300000000001H24.228zM30.627 84.805H35.06V98.13300000000001H30.627zM37.036 84.805H41.469V98.13300000000001H37.036zM43.434 84.805H47.867V98.13300000000001H43.434zM49.843 84.805H54.276V98.13300000000001H49.843zM56.242 84.805H60.675V98.13300000000001H56.242zM62.64 84.805H67.07300000000001V98.13300000000001H62.64zM69.049 84.805H73.482V98.13300000000001H69.049zM75.447 84.805H79.88V98.13300000000001H75.447zM81.856 84.805H86.28899999999999V98.13300000000001H81.856z"/>
            <path fill="#263238" d="M6.428 112.572H86.977V135.247H6.428z"/>
            <path fill="#F7B13E" d="M8.669 115.422H13.181000000000001V132.78H8.669z"/>
            <path fill="#FFF" d="M18.498 119.078c0 .793-.642 1.435-1.435 1.435-.792 0-1.435-.642-1.435-1.435 0-.792.643-1.435 1.435-1.435.793 0 1.435.643 1.435 1.435zM18.498 125.212c0 .792-.642 1.435-1.435 1.435-.792 0-1.435-.643-1.435-1.435 0-.793.643-1.435 1.435-1.435.793 0 1.435.642 1.435 1.435z"/>
            <path fill="#455A64" d="M24.228 117.643H28.661V130.971H24.228zM30.627 117.643H35.06V130.971H30.627zM37.036 117.643H41.469V130.971H37.036zM43.434 117.643H47.867V130.971H43.434zM49.843 117.643H54.276V130.971H49.843zM56.242 117.643H60.675V130.971H56.242zM62.64 117.643H67.07300000000001V130.971H62.64zM69.049 117.643H73.482V130.971H69.049zM75.447 117.643H79.88V130.971H75.447zM81.856 117.643H86.28899999999999V130.971H81.856z"/>
            <path fill="#263238" d="M6.428 145.872H86.977V168.54700000000003H6.428z"/>
            <path fill="#2077C0" d="M8.669 148.723H13.181000000000001V166.08100000000002H8.669z"/>
            <path fill="#FFF" d="M18.498 152.35c0 .792-.642 1.434-1.435 1.434-.792 0-1.435-.642-1.435-1.435 0-.792.643-1.435 1.435-1.435.793 0 1.435.643 1.435 1.435zM18.498 158.502c0 .793-.642 1.435-1.435 1.435-.792 0-1.435-.642-1.435-1.435 0-.792.643-1.435 1.435-1.435.793 0 1.435.643 1.435 1.435z"/>
            <path fill="#455A64" d="M24.228 150.934H28.661V164.262H24.228zM30.627 150.934H35.06V164.262H30.627zM37.036 150.934H41.469V164.262H37.036zM43.434 150.934H47.867V164.262H43.434zM49.843 150.934H54.276V164.262H49.843zM56.242 150.934H60.675V164.262H56.242zM62.64 150.934H67.07300000000001V164.262H62.64zM69.049 150.934H73.482V164.262H69.049zM75.447 150.934H79.88V164.262H75.447zM81.856 150.934H86.28899999999999V164.262H81.856z"/>
            <path fill="#263238" d="M6.428 183.881H86.977V206.556H6.428z"/>
            <path fill="#6F3895" d="M8.669 186.731H13.181000000000001V204.089H8.669z"/>
            <path fill="#FFF" d="M18.498 190.378c0 .792-.642 1.435-1.435 1.435-.792 0-1.435-.643-1.435-1.435 0-.793.643-1.435 1.435-1.435.38 0 .746.151 1.015.42.269.27.42.634.42 1.015zM18.498 196.511c0 .793-.642 1.435-1.435 1.435-.792 0-1.435-.642-1.435-1.435 0-.792.643-1.435 1.435-1.435.793 0 1.435.643 1.435 1.435z"/>
            <path fill="#455A64" d="M24.228 188.943H28.661V202.27100000000002H24.228zM30.627 188.943H35.06V202.27100000000002H30.627zM37.036 188.943H41.469V202.27100000000002H37.036zM43.434 188.943H47.867V202.27100000000002H43.434zM49.843 188.943H54.276V202.27100000000002H49.843zM56.242 188.943H60.675V202.27100000000002H56.242zM62.64 188.943H67.07300000000001V202.27100000000002H62.64zM69.049 188.943H73.482V202.27100000000002H69.049zM75.447 188.943H79.88V202.27100000000002H75.447zM81.856 188.943H86.28899999999999V202.27100000000002H81.856z"/>
            <path fill="#263238" d="M6.428 255.18H86.977V277.855H6.428z"/>
            <path fill="#F7B13E" d="M8.669 258.031H13.181000000000001V275.389H8.669z"/>
            <path fill="#FFF" d="M18.498 261.677c0 .793-.642 1.435-1.435 1.435-.792 0-1.435-.642-1.435-1.435 0-.792.643-1.435 1.435-1.435.793 0 1.435.643 1.435 1.435zM18.498 267.81c0 .793-.642 1.436-1.435 1.436-.792 0-1.435-.643-1.435-1.435 0-.793.643-1.435 1.435-1.435.793 0 1.435.642 1.435 1.435z"/>
            <path fill="#455A64" d="M24.228 260.242H28.661V273.57H24.228zM30.627 260.242H35.06V273.57H30.627zM37.036 260.242H41.469V273.57H37.036zM43.434 260.242H47.867V273.57H43.434zM49.843 260.242H54.276V273.57H49.843zM56.242 260.242H60.675V273.57H56.242zM62.64 260.242H67.07300000000001V273.57H62.64zM69.049 260.242H73.482V273.57H69.049zM75.447 260.242H79.88V273.57H75.447zM81.856 260.242H86.28899999999999V273.57H81.856z"/>
            <path fill="#263238" d="M6.428 219.56H86.977V242.235H6.428z"/>
            <path fill="#ED4634" d="M8.669 222.411H13.181000000000001V239.769H8.669z"/>
            <path fill="#FFF" d="M18.498 226.067c0 .792-.642 1.435-1.435 1.435-.792 0-1.435-.643-1.435-1.435 0-.793.643-1.435 1.435-1.435.793 0 1.435.642 1.435 1.435zM18.498 232.19c0 .793-.642 1.435-1.435 1.435-.792 0-1.435-.642-1.435-1.435 0-.792.643-1.435 1.435-1.435.793 0 1.435.643 1.435 1.435z"/>
            <path fill="#455A64" d="M24.228 224.622H28.661V237.95000000000002H24.228zM30.627 224.622H35.06V237.95000000000002H30.627zM37.036 224.622H41.469V237.95000000000002H37.036zM43.434 224.622H47.867V237.95000000000002H43.434zM49.843 224.622H54.276V237.95000000000002H49.843zM56.242 224.622H60.675V237.95000000000002H56.242zM62.64 224.622H67.07300000000001V237.95000000000002H62.64zM69.049 224.622H73.482V237.95000000000002H69.049zM75.447 224.622H79.88V237.95000000000002H75.447zM81.856 224.622H86.28899999999999V237.95000000000002H81.856z"/>
            <path fill="#263238" d="M56.242 47.18c-.053-.233-.08-.47-.08-.709 0-.452-.058-1.14-.078-1.965-.02-.826 0-1.966-.098-3.175-.044-1.394-.229-2.78-.55-4.138-.453-1.626-1.18-3.162-2.153-4.541-1.101-1.58-2.633-2.812-4.413-3.548-2.012-.736-4.122-1.167-6.261-1.278l-6.94-.6c-9.514-.825-18.134-1.346-24.385-1.464-3.126-.069-5.652-.05-7.402 0H1.917c-.232.025-.466.025-.698 0 .23-.047.463-.073.698-.079l1.965-.118c1.75-.069 4.276-.147 7.412-.128 6.26 0 14.9.492 24.415 1.318l6.939.619c2.189.116 4.346.567 6.399 1.336 1.857.773 3.45 2.071 4.58 3.736.983 1.426 1.711 3.013 2.153 4.688.316 1.387.48 2.804.491 4.226v5.151c.01.223 0 .447-.03.668z"/>
            <path fill="#263238" d="M31.807 47.18c-.045-.22-.061-.445-.05-.67v-1.886c0-.826 0-1.838-.098-2.95-.06-1.3-.394-2.573-.983-3.734-.873-1.31-2.155-2.296-3.646-2.801-1.687-.66-3.522-.847-5.308-.54-.955.155-1.878.468-2.732.923-.886.459-1.625 1.157-2.133 2.015-.501.884-.501 1.966 0 2.85.52.915 1.395 1.573 2.418 1.819 1.02.222 2.082-.089 2.82-.826 1.523-1.434 1.71-3.789.433-5.445-.552-.786-1.283-1.43-2.133-1.878-.841-.38-1.743-.614-2.663-.688-.918-.137-1.802-.255-2.654-.353-1.71-.187-3.313-.295-4.787-.354-2.949-.118-5.308-.069-6.959-.069H1.435c-.219.023-.44.023-.659 0 .217-.046.438-.069.659-.069l1.897-.088c1.641-.07 4.02-.167 6.979-.099 1.474 0 3.086.128 4.816.305.865.079 1.75.197 2.663.324.462.07.915.128 1.396.217.495.1.974.265 1.425.491.921.48 1.713 1.175 2.31 2.025.692.867 1.042 1.958.983 3.067-.08 1.15-.585 2.228-1.415 3.027-.857.87-2.1 1.24-3.293.983-1.163-.278-2.16-1.025-2.752-2.064-.58-1.035-.58-2.297 0-3.332.553-.943 1.365-1.707 2.34-2.202.902-.485 1.878-.817 2.889-.983 1.869-.305 3.786-.095 5.543.61 1.567.558 2.904 1.62 3.804 3.017.614 1.222.95 2.565.983 3.932.069 1.17 0 2.182 0 3.007 0 .826-.049 1.406-.069 1.887-.026.18-.068.359-.127.531zM62.817 47.18c-.075-.248-.131-.501-.167-.758-.079-.491-.216-1.218-.423-2.152-.54-2.632-1.334-5.206-2.368-7.686-1.464-3.7-3.882-6.946-7.008-9.407-1.892-1.365-4.108-2.209-6.429-2.447-2.506-.277-5.027-.411-7.548-.403-10.42-.197-19.855-.157-26.676-.423-3.41-.118-6.173-.275-8.08-.413l-2.152-.196c-.256-.009-.51-.045-.757-.108.255-.013.511-.013.767 0l2.191.088c1.907.069 4.67.177 8.08.246 6.821.177 16.247.078 26.676.275 2.542-.01 5.082.131 7.607.423 2.404.25 4.697 1.136 6.645 2.565 1.7 1.316 3.183 2.891 4.393 4.669 1.04 1.544 1.92 3.19 2.625 4.914 1.02 2.535 1.767 5.17 2.231 7.863.167.983.275 1.681.334 2.183.046.252.066.51.06.766zM7.539 4.217H85.876V15.588999999999999H7.539z"/>
            <path fill="#455A64" d="M24.759 9.908H67.40700000000001V15.588999999999999H24.759z"/>
            <path fill="#263238" d="M117.83 240.063c0 .06-.865.148-2.369.58-2.108.644-4.1 1.623-5.897 2.9-1.245.87-2.363 1.909-3.322 3.086-.53.653-.989 1.362-1.367 2.113-.36.815-.646 1.66-.855 2.526-.894 3.588-.619 7.706-.442 11.992.177 4.285-.108 8.541-1.799 11.972-.764 1.626-1.851 3.08-3.194 4.275-2.155 1.872-4.784 3.113-7.598 3.588-.953.146-1.919.185-2.88.118-.61-.035-1.217-.13-1.808-.285-.206-.039-.407-.098-.6-.177 0-.07.855.196 2.418.265.945.028 1.89-.04 2.82-.206 1.235-.234 2.436-.617 3.579-1.14 1.373-.64 2.648-1.475 3.784-2.477 1.285-1.173 2.324-2.59 3.057-4.168 1.612-3.322 1.887-7.49 1.71-11.745-.177-4.256-.442-8.444.501-12.13.211-.897.514-1.77.904-2.604.398-.778.879-1.51 1.435-2.182 1-1.194 2.161-2.243 3.45-3.116 1.849-1.275 3.904-2.219 6.075-2.791.588-.155 1.185-.27 1.789-.344.201-.033.405-.05.609-.05z"/>
            <path fill="#263238" d="M81.718 279.232H88.146V287.05600000000004H81.718z"/>
            <path fill="#455A64" d="M117.83 220.307H153.893V259.82H117.83z"/>
            <circle cx="135.858" cy="240.22" r="11.873" fill="#263238" transform="rotate(-45 135.858 240.22)"/>
            <path fill="#455A64" d="M141.793 240.22c0 3.258-2.64 5.898-5.897 5.898s-5.898-2.64-5.898-5.897 2.64-5.898 5.898-5.898c1.564 0 3.064.622 4.17 1.728 1.106 1.106 1.727 2.606 1.727 4.17z"/>
            <circle cx="122.705" cy="226.44" r="1.101" fill="#263238"/>
            <circle cx="148.379" cy="226.44" r="1.101" fill="#263238"/>
            <circle cx="148.614" cy="255.623" r="1.101" fill="#263238"/>
            <circle cx="122.705" cy="256.075" r="1.101" fill="#263238"/>
            <path fill="#263238" d="M153.893 220.307H156.802V259.82H153.893z"/>
        </g>
        <g>
            <path fill="#263238" d="M.767 71.634L46.914 71.634M46.914 71.634c0 .137-10.33.255-23.079.255-12.748 0-23.068-.118-23.068-.255 0-.138 10.33-.256 23.068-.256 12.739 0 23.079.108 23.079.256z" transform="translate(165.034 5.305)"/>
            <path fill="#263238" d="M142.697 76.538H135.611l-19.776.128-68.272.108h-.187l-.05-.177c-1.516-5.198-.46-10.808 2.842-15.099s8.455-6.748 13.868-6.613l-.256.324c-.42-1.488-.596-3.035-.52-4.58.157-5.343 3.13-10.203 7.813-12.778 4.54-2.369 9.956-2.34 14.469.08l-.354.127c2.493-5.789 7.3-10.267 13.25-12.345 5.465-2.065 11.541-1.777 16.787.796 4.676 2.471 8.35 6.486 10.4 11.362 1.88 4.282 2.328 9.056 1.277 13.613l-.187-.216c2.675-.277 5.376.111 7.864 1.13 2.235.894 4.248 2.266 5.897 4.02.751.78 1.375 1.671 1.848 2.644.426.904.755 1.85.983 2.821.4 1.683.627 3.402.678 5.131.087 2.382-.12 4.766-.62 7.097-.13.608-.295 1.208-.49 1.798l-.207.58s.049-.216.167-.61c.118-.392.265-.982.432-1.788.45-2.327.625-4.7.521-7.067-.06-1.714-.298-3.417-.707-5.082-.438-1.998-1.406-3.841-2.802-5.337-1.622-1.71-3.593-3.05-5.779-3.931-2.445-.97-5.094-1.314-7.706-1.003h-.246l.06-.246c1.01-4.484.552-9.174-1.308-13.377-2.027-4.776-5.642-8.707-10.232-11.126-5.141-2.505-11.09-2.771-16.434-.738-5.833 2.05-10.535 6.46-12.955 12.15l-.108.255-.245-.138c-4.357-2.347-9.592-2.391-13.987-.118-4.508 2.484-7.373 7.161-7.539 12.306-.072 1.492.097 2.985.501 4.423l.099.334h-.344c-5.262-.145-10.275 2.234-13.49 6.401-3.215 4.168-4.243 9.62-2.768 14.673l-.235-.177 68.134.108 19.825.069H142.216l.481.068zM129.458 134.579c-.21.016-.42.016-.63 0h-1.798l-6.753.078-23.275.089h-.245v-.246-12.62c0-12.434.059-23.678.078-31.876 0-4.05.06-7.332.079-9.662 0-1.11 0-1.966.05-2.624v-.688c-.058-.015-.096-.07-.088-.13.007-.058.057-.102.117-.102.059 0 .11.044.117.103.007.059-.03.114-.088.129v.688c0 .639 0 1.514.05 2.624 0 2.33 0 5.613.088 9.662 0 8.198 0 19.442.068 31.876v12.62l-.245-.246 23.275.089 6.752.069h1.799c.222.03.44.086.649.167z" transform="translate(165.034 5.305)"/>
            <path fill="#61A5B0" d="M120.425 8.758L98.487.894 76.755 8.65c-2.772 1.307-5.21 2.093-5.21 4.678v12.866C71.509 35.23 73.99 44.095 78.71 51.8c4.7 7.802 11.676 13.976 19.992 17.692 8.846-2.89 15.51-10.576 19.56-17.161 4.712-7.69 7.192-16.538 7.165-25.556V15.127c0-3.686-1.956-5.485-5.003-6.37z" transform="translate(165.034 5.305)"/>
            <path fill="#000" d="M98.703 61.991c-6.586-2.974-12.107-7.888-15.825-14.084-3.73-6.097-5.69-13.111-5.661-20.258v-9.033c0-2.044 1.238-3.931 3.685-5.101l17.585-6.576V.875L76.755 8.65c-2.28.982-5.21 2.093-5.21 4.678v12.866C71.51 35.23 73.99 44.095 78.711 51.8c4.7 7.802 11.676 13.976 19.992 17.692v-7.5z" opacity=".3" transform="translate(165.034 5.305)"/>
            <path fill="#000" d="M98.703 69.462c1.485-.492 2.925-1.11 4.305-1.848 3.385-1.921 6.46-4.344 9.121-7.185 2.418-2.603 4.547-5.46 6.35-8.522 4.78-7.758 7.195-16.741 6.949-25.85V15.432c0-5.288-2.723-5.682-5.013-6.674L98.477.894V6.96l17.8 6.684c2.447 1.14 3.676 3.056 3.676 5.1v9.034c.033 7.147-1.928 14.162-5.661 20.257-3.636 6.155-9.084 11.036-15.599 13.977l.01 7.45z" opacity=".4" transform="translate(165.034 5.305)"/>
            <path fill="#FFF" d="M104.305 27.07v-1.74c0-3.15-2.552-5.701-5.7-5.701-3.149 0-5.701 2.552-5.701 5.7v1.77c-1.563.233-2.72 1.574-2.723 3.155v10.232c.005 1.76 1.434 3.184 3.194 3.184h10.635c1.76 0 3.185-1.426 3.185-3.184V30.244c-.003-1.644-1.253-3.018-2.89-3.175zm-4.148 10.86h-2.781l.432-1.966c-.628-.407-.914-1.18-.702-1.898.212-.718.872-1.211 1.621-1.211.75 0 1.41.493 1.622 1.211.212.719-.074 1.491-.703 1.898l.511 1.966zm2.95-10.88h-8.935v-1.72c0-2.47 2.002-4.473 4.472-4.473 2.47 0 4.472 2.002 4.472 4.472l-.01 1.72z" opacity=".5" transform="translate(165.034 5.305)"/>
            <path fill="#FFF" d="M80.775 26.941c-.185-.576-.294-1.174-.325-1.779-.169-1.451-.231-2.913-.186-4.374 0-.855.088-1.66.157-2.398.037-.68.203-1.348.491-1.966.215-.424.56-.768.983-.983.295-.137.482-.127.492-.108-.535.24-.964.667-1.21 1.2-.231.589-.361 1.214-.383 1.847-.059.728-.098 1.534-.127 2.379-.05 1.7 0 3.234.068 4.334.068.614.08 1.232.04 1.848zM81.1 32.544c-.11 0-.207-.531-.217-1.18-.01-.648.059-1.189.167-1.189.108 0 .206.53.216 1.18.01.648-.059 1.189-.167 1.189z" transform="translate(165.034 5.305)"/>
        </g>
    </g>
</svg>
