<svg xmlns="http://www.w3.org/2000/svg" width="364" height="330" viewBox="0 0 364 330">
    <g fill="none">
        <g>
            <path fill="#E0E0E0" d="M328.22 75.377c0-.135.666-.253 1.477-.253.81 0 1.477.118 1.477.253s-.658.262-1.477.262c-.82 0-1.478-.118-1.478-.262zM322.31 75.377c0-.135.659-.253 1.477-.253.82 0 1.478.118 1.478.253s-.659.262-1.478.262c-.818 0-1.477-.118-1.477-.262zM316.4 75.377c0-.135.66-.253 1.478-.253.819 0 1.477.118 1.477.253s-.658.262-1.477.262c-.819 0-1.477-.118-1.477-.262zM310.491 75.377c0-.135.659-.253 1.478-.253s1.477.118 1.477.253-.667.262-1.477.262-1.478-.118-1.478-.262zM304.582 75.377c0-.135.659-.253 1.477-.253.82 0 1.478.118 1.478.253s-.667.262-1.478.262c-.81 0-1.477-.118-1.477-.262zM298.664 75.377c0-.135.667-.253 1.478-.253.81 0 1.477.118 1.477.253s-.658.262-1.477.262c-.82 0-1.478-.118-1.478-.262zM292.755 75.377c0-.135.667-.253 1.477-.253s1.478.118 1.478.253-.659.262-1.478.262c-.818 0-1.477-.118-1.477-.262zM286.846 75.377c0-.135.658-.253 1.477-.253.819 0 1.477.118 1.477.253s-.658.262-1.477.262c-.819 0-1.477-.118-1.477-.262zM280.937 75.377c0-.135.658-.253 1.477-.253.819 0 1.477.118 1.477.253s-.658.262-1.477.262c-.819 0-1.477-.118-1.477-.262zM275.027 75.377c0-.135.659-.253 1.478-.253.818 0 1.477.118 1.477.253s-.667.262-1.477.262-1.478-.118-1.478-.262zM269.11 75.377c0-.135.666-.253 1.477-.253.81 0 1.486.118 1.486.253s-.667.262-1.486.262c-.82 0-1.478-.118-1.478-.262zM263.2 75.377c0-.135.667-.253 1.478-.253.81 0 1.477.118 1.477.253s-.659.262-1.477.262c-.82 0-1.478-.118-1.478-.262zM258.988 73.68c.143 0 .261.659.261 1.478v.22l-.253-.254c.718 0 1.258.127 1.258.253 0 .127-.54.237-1.258.254h-.245v-.498c-.017-.794.102-1.452.237-1.452zM258.988 67.771c.143 0 .261.659.261 1.478 0 .818-.118 1.477-.261 1.477-.144 0-.254-.659-.254-1.477 0-.82.119-1.478.254-1.478zM258.988 61.862c.143 0 .261.658.261 1.477 0 .82-.118 1.478-.261 1.478-.144 0-.254-.667-.254-1.478 0-.81.119-1.477.254-1.477zM258.988 55.953c.143 0 .261.658.261 1.477 0 .819-.118 1.477-.261 1.477-.144 0-.254-.667-.254-1.477s.119-1.477.254-1.477zM258.988 50.035c.143 0 .261.667.261 1.477s-.118 1.478-.261 1.478c-.144 0-.254-.659-.254-1.478s.119-1.477.254-1.477zM258.988 44.126c.143 0 .261.666.261 1.477 0 .81-.118 1.477-.261 1.477-.144 0-.254-.658-.254-1.477 0-.819.119-1.477.254-1.477zM258.988 38.216c.143 0 .261.659.261 1.478 0 .818-.118 1.477-.261 1.477-.144 0-.254-.659-.254-1.477 0-.82.119-1.478.254-1.478zM258.988 32.307c.143 0 .261.658.261 1.477 0 .82-.118 1.478-.261 1.478-.144 0-.254-.659-.254-1.478s.119-1.477.254-1.477zM258.988 26.398c.143 0 .261.658.261 1.477 0 .819-.118 1.477-.261 1.477-.144 0-.254-.667-.254-1.477s.119-1.477.254-1.477zM258.988 20.48c.143 0 .261.667.261 1.477s-.118 1.486-.261 1.486c-.144 0-.254-.667-.254-1.486s.119-1.477.254-1.477zM258.988 14.57c.143 0 .261.668.261 1.478 0 .81-.118 1.477-.261 1.477-.144 0-.254-.658-.254-1.477 0-.819.119-1.477.254-1.477zM258.988 8.661c.143 0 .261.659.261 1.478s-.118 1.477-.261 1.477c-.144 0-.254-.658-.254-1.477 0-.82.119-1.478.254-1.478zM259.435 3.191c0 .076-.169.135-.447.186l.185-.186c.051.34.077.685.076 1.03 0 .844-.118 1.477-.261 1.477-.144 0-.254-.658-.254-1.477-.005-.348.02-.695.076-1.038V2.98h.144c.312.076.481.143.481.211zM265.344 3.191c0 .144-.658.262-1.477.262-.819 0-1.477-.118-1.477-.262 0-.143.658-.253 1.477-.253.819 0 1.477.118 1.477.253zM271.254 3.191c0 .144-.659.262-1.478.262-.818 0-1.477-.118-1.477-.262 0-.143.659-.253 1.477-.253.82 0 1.478.118 1.478.253zM277.163 3.191c0 .144-.658.262-1.477.262-.82 0-1.478-.118-1.478-.262 0-.143.667-.253 1.478-.253.81 0 1.477.118 1.477.253zM283.08 3.191c0 .144-.666.262-1.485.262-.819 0-1.477-.118-1.477-.262 0-.143.667-.253 1.477-.253s1.486.118 1.486.253zM288.99 3.191c0 .144-.667.262-1.477.262s-1.478-.118-1.478-.262c0-.143.659-.253 1.478-.253s1.477.118 1.477.253zM294.9 3.191c0 .144-.66.262-1.478.262-.819 0-1.477-.118-1.477-.262 0-.143.658-.253 1.477-.253.819 0 1.477.118 1.477.253zM300.809 3.191c0 .144-.659.262-1.478.262s-1.477-.118-1.477-.262c0-.143.658-.253 1.477-.253.82 0 1.478.118 1.478.253zM306.718 3.191c0 .144-.659.262-1.477.262-.82 0-1.478-.118-1.478-.262 0-.143.667-.253 1.478-.253.81 0 1.477.118 1.477.253zM312.627 3.191c0 .144-.658.262-1.477.262-.819 0-1.477-.118-1.477-.262 0-.143.667-.253 1.477-.253s1.477.118 1.477.253zM318.545 3.191c0 .144-.667.262-1.477.262s-1.478-.118-1.478-.262c0-.143.659-.253 1.478-.253s1.477.118 1.477.253zM324.454 3.191c0 .144-.667.262-1.477.262s-1.477-.118-1.477-.262c0-.143.658-.253 1.477-.253.819 0 1.477.118 1.477.253zM330.364 3.191c0 .144-.659.262-1.478.262s-1.477-.118-1.477-.262c0-.143.658-.253 1.477-.253.82 0 1.478.118 1.478.253zM331.174 8.29c-.135 0-.253-.659-.253-1.477 0-.82.118-1.478.253-1.478s.262.659.262 1.478c0 .818-.118 1.477-.262 1.477zM331.174 14.2c-.135 0-.253-.66-.253-1.478 0-.819.118-1.477.253-1.477s.262.666.262 1.477c0 .81-.118 1.477-.262 1.477zM331.174 20.109c-.135 0-.253-.659-.253-1.478s.118-1.477.253-1.477.262.667.262 1.477-.118 1.478-.262 1.478zM331.174 26.026c-.135 0-.253-.667-.253-1.477s.118-1.477.253-1.477.262.658.262 1.477c0 .819-.118 1.477-.262 1.477zM331.174 31.936c-.135 0-.253-.667-.253-1.478 0-.81.118-1.477.253-1.477s.262.658.262 1.477c0 .82-.118 1.478-.262 1.478zM331.174 37.845c-.135 0-.253-.659-.253-1.477 0-.82.118-1.478.253-1.478s.262.659.262 1.478c0 .818-.118 1.477-.262 1.477zM331.174 43.754c-.135 0-.253-.658-.253-1.477 0-.819.118-1.478.253-1.478s.262.659.262 1.478-.118 1.477-.262 1.477zM331.174 49.663c-.135 0-.253-.658-.253-1.477 0-.819.118-1.477.253-1.477s.262.667.262 1.477-.118 1.477-.262 1.477zM331.174 55.581c-.135 0-.253-.667-.253-1.477s.118-1.477.253-1.477.262.658.262 1.477c0 .819-.118 1.477-.262 1.477zM331.174 61.49c-.135 0-.253-.666-.253-1.477 0-.81.118-1.477.253-1.477s.262.658.262 1.477c0 .819-.118 1.477-.262 1.477zM331.174 67.4c-.135 0-.253-.659-.253-1.478 0-.818.118-1.477.253-1.477s.262.659.262 1.477c0 .82-.118 1.478-.262 1.478zM331.174 73.31c-.135 0-.253-.66-.253-1.478 0-.82.118-1.478.253-1.478s.262.659.262 1.478-.118 1.477-.262 1.477z" transform="translate(19.416)"/>
            <path fill="#E0E0E0" d="M328.506 71.975H333.84999999999997V77.31899999999999H328.506zM256.32 72.71H261.664V78.05399999999999H256.32zM328.506 0H333.84999999999997V5.344H328.506zM256.32.523H261.664V5.867H256.32z" transform="translate(19.416)"/>
            <path fill="#2A6927" d="M49.984 95.131c9.337-8.18 10.19-21.56 8.484-33.303-.278-1.967-.295-4.06-1.418-5.69-1.123-1.629-3.444-2.532-5.116-1.536-1.384.844-1.832 2.617-2.532 4.12-.886 1.994-2.317 3.697-4.128 4.913-1.182.793-2.693 1.359-4.002.844-1.806-.751-2.262-3.073-2.465-5.065l-1.14-10.975c-.092-1.96-.496-3.891-1.198-5.723-.735-1.855-2.33-3.233-4.272-3.69-1.916-.312-4.103 1.014-4.28 2.972.016.817.086 1.632.211 2.44.118.83-.275 1.649-.996 2.077-.814.188-1.667-.065-2.245-.667-2.169-1.865-4.017-4.072-5.47-6.534-1.45-2.461-3.18-4.745-5.159-6.804-2.076-1.95-4.795-3.377-7.597-3.234-2.803.144-5.614 2.212-6.02 5.065-.405 2.854 1.512 5.454 3.512 7.497 2.965 3.029 6.351 5.613 10.055 7.673.703.3 1.294.815 1.688 1.47.566 1.257-.523 2.684-1.764 3.258-1.41.65-3.006.667-4.517 1.021-1.51.355-3.081 1.2-3.503 2.71-.583 2.085 1.325 4.002 3.123 5.192 3.613 2.393 7.61 4.143 11.819 5.175 1.528.247 2.998.77 4.34 1.545 1.265.844 2.16 2.532 1.611 4.026-.548 1.495-2.321 2.069-3.866 1.967-1.523-.258-3.02-.651-4.474-1.173-2.803-.718-6.255-.144-7.724 2.372-.886 1.739-.905 3.792-.051 5.546.84 1.723 2.017 3.258 3.461 4.517 4.842 4.652 10.831 7.938 17.357 9.522 6.475 1.47 12.325 1.418 18.276-1.528" transform="translate(19.416)"/>
            <path fill="#FAFAFA" d="M51.107 103.835c-1.151-5.407-2.819-10.69-4.98-15.778-2.665-6.206-5.687-12.252-9.05-18.108l-2.609-4.626c-.844-1.52-1.688-3.022-2.642-4.44-1.789-2.721-3.725-5.342-5.8-7.851-1.958-2.38-3.908-4.626-5.766-6.678-1.857-2.051-3.604-3.942-5.276-5.588-2.621-2.61-5.444-5.01-8.442-7.176-1.055-.768-1.899-1.334-2.481-1.688-.27-.186-.49-.321-.659-.43l-.228-.136c.063.065.134.122.211.169l.642.456c.557.397 1.393.98 2.44 1.764 2.964 2.204 5.76 4.625 8.365 7.243 1.689 1.689 3.377 3.546 5.226 5.606 1.849 2.06 3.773 4.28 5.723 6.686 2.057 2.505 3.976 5.12 5.75 7.834.92 1.418 1.764 2.904 2.633 4.432l2.609 4.626c3.35 5.85 6.375 11.88 9.058 18.065 2.174 5.065 3.87 10.322 5.065 15.702" transform="translate(19.416)"/>
            <path fill="#FAFAFA" d="M31.716 60.883c.064-.277.098-.56.101-.845.043-.548.076-1.35.11-2.338.06-1.984.05-4.719 0-7.733-.05-3.013 0-5.749.101-7.724.043-.988.085-1.79.127-2.338.028-.281.028-.564 0-.845-.08.276-.132.559-.152.845-.084.548-.16 1.35-.236 2.338-.16 1.975-.228 4.719-.211 7.741.017 3.022.05 5.665.067 7.725v2.346c.005.278.036.555.093.828zM6.027 58.95c.34.034.682.034 1.022 0h2.76c2.33 0 5.555.1 9.1.37 3.546.271 6.754.668 9.067 1.014 1.157.169 2.085.32 2.735.43.33.077.667.122 1.005.136-.318-.122-.645-.215-.98-.279-.64-.144-1.57-.346-2.717-.54-2.305-.414-5.521-.844-9.075-1.132-3.041-.244-6.093-.331-9.143-.261-1.165 0-2.11.093-2.76.152-.34.005-.68.042-1.014.11zM45.763 87.643c.063-.102.111-.213.144-.329.084-.253.194-.574.329-.954.279-.844.659-2.051 1.106-3.562.895-3.014 2-7.227 3.166-11.878 1.165-4.651 2.22-8.872 3.056-11.911.405-1.47.742-2.685.996-3.588.11-.389.194-.71.261-.98.039-.112.064-.228.076-.346-.062.103-.11.214-.143.33-.085.261-.194.574-.33.954-.278.844-.658 2.05-1.105 3.562-.895 3.014-2.01 7.226-3.166 11.886-1.156 4.66-2.22 8.864-3.056 11.903-.414 1.47-.743 2.685-.996 3.588-.11.388-.194.71-.262.98-.038.111-.063.228-.076.345zM11.126 80.552c.115.044.234.078.355.101l1.005.22 3.705.76c3.132.65 7.455 1.595 12.216 2.642 4.761 1.047 9.1 1.959 12.249 2.533 1.57.287 2.845.515 3.731.65l1.022.152c.118.01.236.01.354 0 0 0-.118-.051-.346-.102l-1.004-.22-3.706-.767c-3.132-.642-7.455-1.587-12.224-2.634-4.77-1.047-9.092-1.959-12.24-2.533-1.571-.287-2.846-.515-3.732-.65l-1.022-.152c-.12-.017-.242-.017-.363 0zM168.6 329.384c-29.105.004-55.346-17.529-66.482-44.42-11.137-26.89-4.976-57.842 15.61-78.418 20.586-20.576 51.54-26.723 78.426-15.573 26.885 11.149 44.405 37.398 44.388 66.504-.065 39.7-32.242 71.86-71.941 71.907zm0-143.047c-39.267-.005-71.104 31.822-71.113 71.089-.01 39.267 31.813 71.109 71.08 71.123 39.267.014 71.112-31.805 71.131-71.072-.023-39.264-31.834-71.093-71.097-71.14z" transform="translate(19.416)"/>
            <path fill="#FAFAFA" d="M168.6 318.114c-24.542 0-46.667-14.785-56.056-37.46-9.389-22.677-4.192-48.775 13.167-66.124 17.36-17.35 43.46-22.532 66.131-13.13 22.67 9.4 37.444 31.534 37.43 56.077-.079 33.47-27.201 60.577-60.671 60.637zm0-120.499c-33.037 0-59.82 26.78-59.827 59.817-.006 33.037 26.768 59.826 59.805 59.838 33.038.013 59.832-26.756 59.85-59.793-.018-33.04-26.788-59.824-59.827-59.862z" transform="translate(19.416)"/>
            <path fill="#FAFAFA" d="M168.6 306.558c-19.872.003-37.79-11.968-45.393-30.329-7.604-18.36-3.395-39.494 10.662-53.542 14.057-14.047 35.193-18.241 53.55-10.625 18.355 7.616 30.314 25.542 30.296 45.415-.05 27.098-22.016 49.048-49.114 49.08zm0-97.394c-26.66-.005-48.277 21.602-48.287 48.262-.009 26.66 21.594 48.282 48.254 48.296 26.66.014 48.286-21.585 48.304-48.245-.009-26.662-21.608-48.28-48.27-48.313z" transform="translate(19.416)"/>
            <path fill="#FAFAFA" d="M168.6 296.157c-15.666.004-29.79-9.433-35.784-23.908-5.994-14.475-2.676-31.135 8.407-42.208 11.083-11.073 27.746-14.377 42.215-8.37 14.47 6.006 23.894 20.14 23.877 35.806-.042 21.358-17.356 38.657-38.714 38.68zm0-76.593c-20.916-.004-37.877 16.945-37.886 37.862-.01 20.916 16.937 37.881 37.853 37.895 20.916.014 37.885-16.928 37.904-37.844 0-20.922-16.948-37.89-37.87-37.913z" transform="translate(19.416)"/>
            <path fill="#EBEBEB" d="M160.716 4.153H201.51500000000001V44.952H160.716z" transform="translate(19.416)"/>
        </g>
        <g>
            <path fill="#263238" d="M124.883 127.835H216.913V228.911H124.883z" transform="translate(18.436 93.705) rotate(-4.004 170.898 178.373)"/>
            <path fill="#455A64" d="M210.516 174.265L209.173 144.541 129.195 152.046 132.251 182.927zM227.222 225.853l-102.501 6.88c-1.717.119-3.41-.452-4.706-1.584-1.295-1.133-2.087-2.734-2.2-4.451-.236-3.571 2.466-6.658 6.036-6.897l102.527-6.889c1.716-.118 3.408.452 4.702 1.585 1.295 1.133 2.084 2.735 2.195 4.451.115 1.719-.458 3.413-1.593 4.709-1.136 1.296-2.74 2.086-4.46 2.196z" transform="translate(18.436 93.705)"/>
            <path fill="#EBEBEB" d="M0.018 0.642H341.11999999999995V155.162H0.018z" transform="translate(18.436 93.705)"/>
            <path fill="#E0E0E0" d="M0.018 155.161L8.831 159.754 332.678 159.45 341.119 155.161z" transform="translate(18.436 93.705)"/>
        </g>
        <g>
            <path fill="#455A64" d="M7.986 104.282L7.378 0.219 167.275 0.219 167.275 105.354z" transform="translate(102.99 130.005)"/>
            <path fill="#FAFAFA" d="M40.977 84.47c6.188-.322 12.485 1.139 18.665 1.848l-3.318-.844c-.537-5.981 1.65-11.886 5.955-16.074 4.304-4.187 10.266-6.212 16.23-5.512 4.398.515 8.73 2.49 13.094 1.756 8.002-1.35 12.122-10.882 19.72-13.735 9.716-3.655 21.037 4.88 30.618.844 3.884-1.62 6.703-5.065 10.308-7.21 3.09-1.856 7.598-2.388 10.13-.252V22.97c-2.532 4.946-8.864 7.352-14.537 6.88-6.027-.499-11.514-3.512-16.74-6.518-5.225-3.005-10.62-6.145-16.622-6.914-8.526-1.097-16.8 2.719-25.072 5.066-7.463 2.102-15.508 3.013-22.962.844-.253-.068-.498-.16-.743-.245-.92.888-1.966 1.634-3.107 2.212-6.348 3.072-14.815-1.047-20.606 2.963-3.47 2.406-4.677 6.922-7.226 10.29-4.703 6.214-16.04 8.012-22.549 3.656V99.268h3.377c5.678-8.635 15.073-14.112 25.385-14.799zm97.925-45.857c.384-.296.828-.507 1.3-.616.056-.03.116-.053.178-.068h-.068c1.951-.587 4.025.43 4.756 2.332.73 1.902-.13 4.045-1.974 4.915-1.843.869-4.044.169-5.047-1.605-1.003-1.774-.468-4.02 1.227-5.152l-.372.194z" transform="translate(102.99 130.005)"/>
            <path fill="#EF6330" d="M162.404 45.333c-2.6-2.136-7.074-1.604-10.13.253-3.604 2.17-6.424 5.589-10.307 7.21-9.582 3.992-20.902-4.542-30.619-.845-7.598 2.854-11.717 12.384-19.72 13.735-4.365.735-8.695-1.24-13.093-1.756-5.957-.696-11.91 1.326-16.21 5.506-4.301 4.18-6.493 10.072-5.967 16.046l3.317.844c4.82.558 9.574.659 14.149-.886 13.195-4.466 20.37-21.257 34.206-22.852 7.666-.844 15.322 3.377 22.937 2.085 6.171-1.055 11.084-5.53 16.191-9.16 5.108-3.63 10.02-6.972 15.71-4.887v-4.888c-.143-.147-.298-.283-.464-.405z" transform="translate(102.99 130.005)"/>
            <path fill="#D74C41" d="M147.125 55.505c-5.065 3.63-10.02 8.104-16.192 9.16-7.597 1.291-15.271-2.972-22.936-2.086C94.16 64.16 86.95 80.966 73.79 85.432c-4.575 1.544-9.286 1.443-14.148.886-6.18-.71-12.477-2.17-18.665-1.849-10.289.703-19.658 6.175-25.326 14.79h3.377c3.327-3.375 7.542-5.74 12.156-6.82 6.852-1.635 14.075-.252 19.839 3.798 1.291.929 2.532 1.984 3.74 3.03h25.173c1.114-.624 2.229-1.249 3.377-1.823 4.558-2.321 9.758-3.925 14.764-2.861 3.055.59 5.793 2.266 7.708 4.719h26.955c.863-1.82 2.435-3.205 4.347-3.833 2.035-.625 4.382-.388 6.12-1.612 2.018-1.427 2.398-4.221 3.225-6.526 2.565-6.615 9.408-10.533 16.411-9.396V50.651c-5.698-2.119-10.704 1.275-15.718 4.854zM123.302 93.95c-4.289 2.12-10.173-.253-11.819-4.752-1.275-3.546.338-7.75 3.377-9.911l-.667.312c.753-.591 1.613-1.033 2.533-1.3.274-.11.556-.2.844-.27l-.152.068c3.554-.802 7.24.626 9.328 3.613 2.55 4.035.844 10.13-3.444 12.24zm29.892-30.568c-.705.396-1.568.384-2.263-.03-.695-.413-1.117-1.166-1.106-1.975.01-.809.452-1.55 1.158-1.945l-.228.11c.233-.184.504-.313.793-.38l.11-.043c1.102-.23 2.208.378 2.602 1.433.395 1.054-.04 2.24-1.023 2.788l-.043.042z" transform="translate(102.99 130.005)"/>
            <path fill="#6F3895" d="M146.424 87.415c-.844 2.33-1.207 5.066-3.225 6.526-1.739 1.224-4.086.988-6.12 1.612-1.913.629-3.484 2.014-4.348 3.833h30.104V78.02c-7.003-1.138-13.847 2.78-16.411 9.395zM31.235 92.447c-4.615 1.08-8.83 3.446-12.156 6.82h35.726c-1.225-1.046-2.449-2.101-3.74-3.03-5.762-4.045-12.982-5.425-19.83-3.79z" transform="translate(102.99 130.005)"/>
            <path fill="#E8505B" d="M98.069 94.642c-5.006-1.064-10.206.54-14.765 2.861-1.14.574-2.254 1.2-3.377 1.824h25.841c-1.918-2.438-4.652-4.102-7.699-4.685z" transform="translate(102.99 130.005)"/>
            <path fill="#F7B13E" d="M87.635 12.047c-4.5.337-9.286-.44-13.304 1.646-3.58 1.865-5.758 5.664-8.696 8.442l.743.253c7.454 2.152 15.5 1.25 22.97-.844 8.274-2.33 16.547-6.138 25.073-5.065 5.994.768 11.38 3.9 16.613 6.905 5.234 3.005 10.713 6.027 16.74 6.525 5.682.473 11.98-1.933 14.546-6.888V4.567H97.69c-.322 4.415-5.58 7.15-10.055 7.48z" transform="translate(102.99 130.005)"/>
            <path fill="#EF6330" d="M137.746 42.834c.674 1.92 2.755 2.953 4.693 2.331 1.937-.622 3.027-2.674 2.458-4.628-.57-1.953-2.591-3.098-4.56-2.582h.068c-.062.015-.121.037-.177.067-.473.11-.916.32-1.3.616l.371-.168c-1.412.961-2.04 2.726-1.553 4.364z" transform="translate(102.99 130.005)"/>
            <path fill="#6F3895" d="M117.41 78.096l.151-.068c-.287.07-.57.16-.844.27-.92.267-1.78.709-2.532 1.3l.666-.312c-3.013 2.161-4.626 6.365-3.376 9.91 1.62 4.5 7.505 6.872 11.818 4.753 4.314-2.118 5.994-8.205 3.436-12.24-2.086-2.984-5.768-4.41-9.32-3.613z" transform="translate(102.99 130.005)"/>
            <path fill="#FFF" d="M117.41 78.096l.151-.068c-.287.07-.57.16-.844.27-.92.267-1.78.709-2.532 1.3l.666-.312c-3.013 2.161-4.626 6.365-3.376 9.91 1.62 4.5 7.505 6.872 11.818 4.753 4.314-2.118 5.994-8.205 3.436-12.24-2.086-2.984-5.768-4.41-9.32-3.613z" opacity=".3" transform="translate(102.99 130.005)"/>
            <path fill="#6F3895" d="M154.115 60.106c-.561-.818-1.57-1.204-2.533-.97l-.11.041c-.289.068-.56.197-.793.38l.228-.11c-.774.497-1.172 1.411-1.008 2.316.164.905.857 1.622 1.756 1.815.898.194 1.825-.173 2.348-.93.522-.757.536-1.754.036-2.525l.076-.017z" transform="translate(102.99 130.005)"/>
            <path fill="#EF6330" d="M34.789 37.54c2.532-3.376 3.757-7.884 7.226-10.29 5.791-4.01 14.258.11 20.607-2.963 1.14-.577 2.187-1.323 3.106-2.212 2.93-2.743 5.065-6.542 8.695-8.441 3.993-2.086 8.805-1.317 13.305-1.647 4.5-.329 9.64-3.039 9.961-7.487H11.945l.127 36.553c.05.042.118.067.169.11 6.517 4.423 17.846 2.591 22.548-3.622z" transform="translate(102.99 130.005)"/>
            <path fill="#F2AA47" d="M162.404 45.333c-2.6-2.136-7.074-1.604-10.13.253-3.604 2.17-6.424 5.589-10.307 7.21-9.582 3.992-20.902-4.542-30.619-.845-7.598 2.854-11.717 12.384-19.72 13.735-4.365.735-8.695-1.24-13.093-1.756-5.957-.696-11.91 1.326-16.21 5.506-4.301 4.18-6.493 10.072-5.967 16.046l3.317.844c4.82.558 9.574.659 14.149-.886 13.195-4.466 20.37-21.257 34.206-22.852 7.666-.844 15.322 3.377 22.937 2.085 6.171-1.055 11.084-5.53 16.191-9.16 5.108-3.63 10.02-6.972 15.71-4.887v-4.888c-.143-.147-.298-.283-.464-.405zM73.697 4.533H11.945l.127 36.554c.05.042.118.067.169.11 6.517 4.355 17.846 2.532 22.548-3.656 2.532-3.377 3.757-7.885 7.226-10.29 5.791-4.01 14.258.11 20.607-2.964 1.14-.577 2.187-1.323 3.106-2.212 2.93-2.743 5.065-6.542 8.695-8.441 3.993-2.086 8.805-1.317 13.305-1.647 4.5-.329 9.64-3.039 9.961-7.487" opacity=".3" transform="translate(102.99 130.005)"/>
            <path fill="#263238" d="M121.04 48.836l-5.91-23.105.076.042-66.142 16.825.068-.11c2.043 8.053 4.026 15.854 5.909 23.122l-.101-.059 66.175-16.723L54.982 65.71h-.085v-.084c-1.848-7.268-3.832-15.069-5.909-23.122v-.085h.085l66.15-16.774h.059v.051c3.529 14.284 5.487 22.059 5.757 23.14z" transform="translate(102.99 130.005)"/>
            <path fill="#455A64" d="M120.091 47.734H121.85499999999999V49.498000000000005H120.091z" transform="translate(102.99 130.005) rotate(-14.25 120.973 48.616)"/>
            <path fill="#455A64" d="M53.997 64.77H55.761V66.53399999999999H53.997z" transform="translate(102.99 130.005) rotate(-14.25 54.879 65.652)"/>
            <path fill="#455A64" d="M114.195 24.514H115.95899999999999V26.278H114.195z" transform="translate(102.99 130.005) rotate(-14.25 115.077 25.396)"/>
            <path fill="#455A64" d="M80.853 32.985H82.61699999999999V34.749H80.853z" transform="translate(102.99 130.005) rotate(-14.25 81.735 33.867)"/>
            <path fill="#455A64" d="M86.741 56.196H88.505V57.96H86.741z" transform="translate(102.99 130.005) rotate(-14.25 87.623 57.079)"/>
            <path fill="#455A64" d="M50.954 52.818H52.718V54.582H50.954z" transform="translate(102.99 130.005) rotate(-14.25 51.836 53.7)"/>
            <path fill="#455A64" d="M117.121 36.003H118.88499999999999V37.767H117.121z" transform="translate(102.99 130.005) rotate(-14.25 118.003 36.885)"/>
            <path fill="#455A64" d="M48.123 41.644H49.887V43.408H48.123z" transform="translate(102.99 130.005) rotate(-14.25 49.005 42.526)"/>
            <path fill="#263238" d="M65.256 44.531L60.494 45.738 59.92 43.484 72.119 40.386 72.684 42.64 67.923 43.898 71.004 56.003 68.337 56.679zM85.482 47.325l-8.602 2.186c.718 1.52 2.313 2.204 4.22 1.689 1.13-.24 2.103-.949 2.677-1.95l1.773 1.232c-.816 1.516-2.27 2.586-3.96 2.913-3.672.928-6.652-.844-7.479-4.095-.43-1.495-.22-3.102.58-4.437.8-1.335 2.12-2.277 3.641-2.603 1.495-.44 3.106-.227 4.435.585 1.33.812 2.255 2.148 2.546 3.678.068.236.127.549.17.802zm-9.05.481l6.214-1.578c-.564-1.525-2.218-2.346-3.774-1.874-1.589.338-2.651 1.841-2.44 3.452zM95.84 49.655L92.067 46.565 90.201 51.082 87.365 51.808 90.227 45.155 84.765 40.799 87.618 40.073 91.223 42.977 92.995 38.706 95.773 38.005 93.021 44.404 98.736 48.912zM107.068 46.169c-.588.693-1.39 1.17-2.28 1.359-2.397.616-4.094-.313-4.71-2.736l-1.308-5.267-1.807.456-.523-2.052 1.806-.456-.633-2.532 2.533-.65.633 2.532 2.938-.743.523 2.052-2.938.7 1.326 5.218c.04.447.284.852.661 1.097.377.245.846.304 1.272.16.524-.125.99-.422 1.325-.844l1.182 1.706z" transform="translate(102.99 130.005)"/>
            <path fill="#263238" d="M119.706 43.602s-14.79 3.841-33.05 8.442c-18.26 4.6-33.092 8.366-33.1 8.315-.01-.05 14.823-3.799 33.057-8.442 18.235-4.643 33.084-8.365 33.093-8.315zM257.721 44.16c1.943-1.113 3.09-3.228 2.964-5.463.041-1.162-.187-2.317-.667-3.376-.588-1.25-1.522-2.306-2.693-3.04-2.482-1.688-6.222-1.975-9.675-.497-3.452 1.477-6.652 4.22-10.13 6.981-1.782 1.477-3.724 2.749-5.791 3.79-2.25 1.027-4.687 1.576-7.159 1.613-5.363.033-10.488-2.213-14.098-6.18-1.906-2.072-3.264-4.588-3.95-7.319-.78-2.833-.432-5.859.97-8.442.742-1.272 1.771-2.353 3.006-3.157 1.222-.823 2.672-1.243 4.145-1.199 1.458.108 2.83.734 3.866 1.765.976 1.025 1.678 2.279 2.043 3.647.778 2.65.474 5.5-.844 7.927-1.358 2.26-3.482 3.958-5.986 4.786-2.35.798-4.865.99-7.31.557-2.28-.435-4.484-1.2-6.543-2.27-4.001-2.018-7.344-4.5-10.611-6.391-2.862-1.828-6.04-3.105-9.37-3.765-2.53-.432-5.129-.173-7.522.751-1.511.59-2.876 1.5-4.002 2.668l-.49.54-.32.422c-.169.228-.27.338-.27.338s.076-.127.236-.363l.304-.44.481-.556c1.106-1.212 2.47-2.159 3.993-2.77 2.41-.962 5.036-1.254 7.598-.843 3.369.642 6.587 1.91 9.489 3.74 3.283 1.89 6.643 4.355 10.611 6.33 2.031 1.049 4.204 1.797 6.45 2.22 2.378.412 4.822.22 7.108-.556 2.409-.802 4.451-2.44 5.757-4.618 1.256-2.329 1.544-5.058.802-7.598-.342-1.297-1.01-2.486-1.942-3.452-.956-.961-2.227-1.543-3.579-1.638-1.38-.043-2.739.35-3.883 1.123-1.18.767-2.16 1.803-2.862 3.022-1.346 2.486-1.676 5.397-.92 8.121.667 2.66 1.987 5.112 3.84 7.133 3.532 3.879 8.541 6.078 13.786 6.053 2.416-.028 4.8-.56 6.999-1.562 2.047-1.017 3.97-2.266 5.732-3.722 3.452-2.76 6.627-5.572 10.214-6.982 3.588-1.41 7.446-1.148 9.979.591 1.2.771 2.155 1.87 2.752 3.166.476 1.092.695 2.279.641 3.47-.01 1.656-.629 3.252-1.739 4.482-.167.183-.354.347-.557.49-.137.115-.288.214-.447.295l-.406.177z" transform="translate(102.99 130.005)"/>
            <path fill="#000" d="M146.424 87.415c-.844 2.33-1.207 5.066-3.225 6.526-1.739 1.224-4.086.988-6.12 1.612-1.913.629-3.484 2.014-4.348 3.833h30.104V78.02c-7.003-1.138-13.847 2.78-16.411 9.395zM154.115 60.106c-.561-.818-1.57-1.204-2.533-.97l-.11.041c-.289.068-.56.197-.793.38l.228-.11c-.774.497-1.172 1.411-1.008 2.316.164.905.857 1.622 1.756 1.815.898.194 1.825-.173 2.348-.93.522-.757.536-1.754.036-2.525l.076-.017zM31.235 92.447c-4.615 1.08-8.83 3.446-12.156 6.82h35.726c-1.225-1.046-2.449-2.101-3.74-3.03-5.762-4.045-12.982-5.425-19.83-3.79zM98.069 94.642c-5.006-1.064-10.206.54-14.765 2.861-1.14.574-2.254 1.2-3.377 1.824h25.841c-1.918-2.438-4.652-4.102-7.699-4.685z" opacity=".3" transform="translate(102.99 130.005)"/>
            <path fill="#2077C0" d="M51.04 140.633c2.321-4.162 7.673-5.622 12.443-5.462 4.77.16 9.463 1.536 14.224 1.308 10.89-.506 20.32-9.193 31.235-8.88 6.534.194 12.925 3.663 19.357 2.448 1.554-.287 3.377-.777 4.534.32.865 1.024.907 2.51.1 3.58-.813 1.016-1.87 1.812-3.072 2.313-16.63 8.4-35.878 9.227-54.357 11.54-4.736.6-9.548 1.3-14.241.473-4.694-.828-9.354-3.487-11.245-7.86" transform="translate(102.99 130.005)"/>
            <path fill="#000" d="M51.04 140.633c2.321-4.162 7.673-5.622 12.443-5.462 4.77.16 9.463 1.536 14.224 1.308 10.89-.506 20.32-9.193 31.235-8.88 6.534.194 12.925 3.663 19.357 2.448 1.554-.287 3.377-.777 4.534.32.865 1.024.907 2.51.1 3.58-.813 1.016-1.87 1.812-3.072 2.313-16.63 8.4-35.878 9.227-54.357 11.54-4.736.6-9.548 1.3-14.241.473-4.694-.828-9.354-3.487-11.245-7.86" opacity=".5" transform="translate(102.99 130.005)"/>
            <path fill="#FFBE9D" d="M182.547 113.56L152.4 60.376l-2.457-4.753c-1.132-2.188-3.31-3.64-5.766-3.84l-4.862-.406s.355-5.639-2.28-5.192c-1.688.287-7.833 5.564-6.643 7.117 1.19 1.553 4.685-2.457 4.685-2.457l1.326 9.936s-9.244-5.386-10.739-5.065c-.614.088-1.096.571-1.182 1.186-.086.614.244 1.212.811 1.465 4.616 2.609 8.322 6.568 10.62 11.346l21.358 47.688-7.336 5.85 8.67 22.666 18.26-12.536c3.468-1.79 6.043-4.932 7.119-8.684 1.075-3.752.555-7.781-1.438-11.137z" transform="translate(102.99 130.005)"/>
            <path fill="#263238" d="M120.445 50.488H121.445V51.488H120.445z" transform="translate(102.99 130.005) rotate(27.52 120.943 50.657)"/>
            <path fill="#263238" d="M121.31 50.567l3.79.101 21.56 11.819c.78.427 1.072 1.4.659 2.186-.203.382-.549.667-.962.794-.413.127-.86.084-1.241-.119l-21.4-11.438-2.6-2.955c-.044-.076-.046-.168-.007-.246.039-.078.114-.131.2-.142z" transform="translate(102.99 130.005)"/>
            <path fill="#455A64" d="M144.508 61.347L142.98 64.276 142.102 63.82 143.647 60.866z" transform="translate(102.99 130.005)"/>
            <path fill="#FFBE9D" d="M57.86 62.47c-1.52-.152-7.234 4.947-7.234 4.947l-2.828-10.198s3.79.346 4.812-1.325c1.021-1.672-9.286-1.512-9.497-.38-.211 1.13.599 4.22.599 4.22l-3.9.752c-3.27.634-5.755 3.31-6.146 6.618l-.633 5.445h.11l-30.12 50.322c-4.79 7.992-3.149 18.269 3.89 24.372l30.172 21.442 11.262-24.549-22.304-14.655 25.554-49.283s5.749-14.427 6.922-15.145c.537-.31.803-.94.65-1.541-.154-.601-.688-1.027-1.309-1.042z" transform="translate(102.99 130.005)"/>
            <path fill="#F2AA47" d="M163.206 147.294l-.354-3.504c-.428-4.153-2.536-7.95-5.833-10.51-3.866-3-6.063-7.67-5.91-12.561l.05-1.46-15.355 9.48c-1.64 1.106-3.176 2.358-4.592 3.739v-.076s-32.923.54-80.763 7.53l-18.15-6.55 1.561 1.223c.844 4.812-.734 9.067-4.12 12.587-2.878 3.014-4.403 7.072-4.22 11.236l.143 3.52s10.814 7.05 18.69 9.7l.288.085c13.204 5.862 27.58 8.608 42.015 8.028 29.436-1.207 53.63-16.884 56.805-19.02 7.437-3.858 19.745-13.447 19.745-13.447z" transform="translate(102.99 130.005)"/>
            <path fill="#263238" d="M50.415 139.932s.126.076.329.253c.203.178.49.44.844.794 1.019 1.017 1.943 2.125 2.76 3.31 1.22 1.764 2.146 3.714 2.744 5.773.783 2.522 1.007 5.184.659 7.8-.206 1.354-.607 2.671-1.19 3.91-.565 1.13-1.214 2.217-1.942 3.25-1.203 1.784-2.732 3.325-4.508 4.541-1.202.801-2.516 1.419-3.9 1.832-.372.12-.75.222-1.131.304-.132.038-.269.058-.406.059 0 0 .532-.177 1.486-.523 1.34-.47 2.61-1.12 3.774-1.934 1.713-1.222 3.187-2.75 4.347-4.508.71-1.02 1.341-2.093 1.891-3.207.559-1.203.942-2.48 1.14-3.79.337-2.548.13-5.138-.608-7.598-.569-2.028-1.452-3.953-2.617-5.707-.782-1.195-1.66-2.325-2.625-3.377-.37-.375-.72-.77-1.047-1.182z" transform="translate(102.99 130.005)"/>
            <path fill="#000" d="M134.521 165.958c2.38-1.688 1.199-5.166-1.452-6.415-2.65-1.25-5.783-.498-8.569.413-8.99 2.938-17.491 7.243-26.473 10.215-8.982 2.971-18.8 4.575-27.858 1.908-6.323-1.857-10.578-6.01-17.129-5.268-2.971.338-3.908 4.128-8.315 5.065 6.353 2.78 12.987 4.865 19.788 6.222 8.126 1.625 16.435 2.144 24.7 1.545 8.484-.703 16.858-2.385 24.955-5.015 7.028-2.28 13.84-5.181 20.353-8.67zM57.548 152.325s.785-8.003-4.035-12.84l-3.225.481s4.238 3.056 7.26 12.359z" opacity=".2" transform="translate(102.99 130.005)"/>
            <path fill="#FFBE9D" d="M72.87 131.077c-.169.439 1.63 18.935 1.63 18.935s9.378 13.093 24.126.346l1.781-20.168-27.537.887z" transform="translate(102.99 130.005)"/>
            <path fill="#000" d="M74.5 150.012s-4.348-7.218-5.555-12.587l3.579-.439.844 1.005 1.131 12.02z" opacity=".2" transform="translate(102.99 130.005)"/>
            <path fill="#263238" d="M151.953 155.254c-.113.095-.234.18-.363.253-.236.152-.607.363-1.089.625-1.355.76-2.81 1.329-4.322 1.688-1.05.247-2.131.335-3.208.262-1.23-.106-2.444-.361-3.613-.76-2.69-.932-5.084-2.56-6.939-4.719-.961-1.112-1.757-2.358-2.364-3.697-.535-1.247-.972-2.535-1.308-3.85-.621-2.225-.796-4.552-.515-6.846.208-1.547.762-3.027 1.62-4.33.231-.354.49-.687.777-.997.093-.115.198-.22.313-.312-.065.134-.147.26-.245.371-1.186 1.543-1.932 3.378-2.161 5.31-.227 2.252-.024 4.527.6 6.703.345 1.289.785 2.55 1.316 3.774.594 1.297 1.367 2.504 2.296 3.587 3.858 4.491 9.65 6.104 13.372 5.2 1.493-.321 2.939-.83 4.305-1.51.496-.277 1.006-.528 1.528-.752z" transform="translate(102.99 130.005)"/>
            <path fill="#263238" d="M130.967 150.577l-.169.11-.506.287-1.976 1.064c-.844.456-1.908 1.021-3.165 1.587-1.258.565-2.66 1.291-4.28 1.933-1.621.642-3.377 1.41-5.302 2.068-1.925.659-4.01 1.36-6.213 2.035-4.8 1.372-9.684 2.426-14.621 3.157-4.95.676-9.938 1.037-14.934 1.08h-3.377c-1.089 0-2.144-.092-3.166-.134-2.043-.068-3.942-.262-5.673-.431-1.73-.169-3.292-.397-4.66-.566-1.367-.168-2.532-.371-3.503-.548l-2.203-.406-.566-.118-.194-.05c.067-.014.136-.014.203 0l.574.076 2.212.32c.962.152 2.135.338 3.511.482 1.376.143 2.921.388 4.652.498 1.73.11 3.621.312 5.664.371 1.022 0 2.077.118 3.158.11h3.376c4.974-.065 9.938-.434 14.866-1.106 4.92-.73 9.79-1.77 14.58-3.115 2.194-.667 4.288-1.275 6.196-1.992 1.908-.718 3.697-1.368 5.31-2.01 1.612-.641 3.03-1.316 4.297-1.865 1.266-.549 2.321-1.08 3.19-1.52l2.01-.987.523-.245c.118-.068.178-.093.186-.085z" transform="translate(102.99 130.005)"/>
            <path fill="#000" d="M82.798 155.195c-.704 1.832-.453 3.894.67 5.503 1.124 1.609 2.973 2.555 4.935 2.525.867-.139 1.753-.107 2.609.093.987.38 1.536 1.41 2.186 2.246 2.01 2.581 5.415 3.636 8.533 2.643 3.117-.993 5.284-3.824 5.43-7.092-.063-.605.077-1.214.397-1.73.844-.972 2.363 0 3.511.573 2.913 1.52 6.83 0 8.442-2.862 1.613-2.861 1.106-6.61-.743-9.286-1.971-2.665-4.785-4.587-7.986-5.453-2.017-.616-4.22-.98-5.79-2.38-2.28-2.018-2.483-5.437-2.533-8.442" opacity=".2" transform="translate(102.99 130.005)"/>
            <path fill="#263238" d="M106.806 97.782c2.06 4.525 3.132 7.133 3.453 11.954.682 8.274-1.512 16.531-6.213 23.375 0 .06.042-.05 0 0-3.512 5.335-14.022 12.03-17.095 12.933-3.073.903-15.508-6.812-18.006-15.49-2.5-8.679-5.724-13.938-1.46-29.091 4.372-15.533 25.325-16.09 25.325-16.09s14.055 0 16.63 8.154c2.575 8.155-2.634 4.255-2.634 4.255z" transform="translate(102.99 130.005)"/>
            <path fill="#263238" d="M84.672 115.18c-3.533.348-6.62 2.536-8.117 5.754-1.498 3.218-1.185 6.988.823 9.915 1.74 2.532 4.592 4.22 5.91 6.973 1.232 2.532.97 5.52.38 8.264-.592 2.744-1.487 5.48-1.444 8.29.042 2.811 1.266 5.834 3.815 7.024 2.55 1.19 6.256-.481 6.264-3.292-.844 4.448 4.28 8.813 8.543 7.26 4.264-1.554 5.361-8.198 1.85-11.05 3.106.734 6.592.725 9.285-1.04 2.693-1.764 4.019-5.689 2.204-8.323-2.145-3.115-7.05-2.828-9.76-5.47-2.245-2.178-2.371-5.665-2.532-8.788-.236-4.491-.912-9.1-3.208-12.967-2.296-3.866-6.525-6.863-10.974-6.56" transform="translate(102.99 130.005)"/>
            <path fill="#FAFAFA" d="M92.742 157.913c-.156-.054-.306-.125-.447-.21-.182-.088-.354-.192-.515-.313-.232-.143-.452-.304-.659-.481-1.341-1.126-2.368-2.58-2.98-4.221-.433-1.129-.717-2.31-.844-3.512-.125-1.382-.08-2.774.135-4.145.567-3.13 1.48-6.188 2.719-9.117 1.23-2.876 2.135-5.88 2.701-8.957.208-1.34.251-2.701.127-4.052-.127-1.175-.41-2.328-.845-3.427-.582-1.627-1.566-3.079-2.861-4.221-.929-.785-1.554-1.056-1.528-1.106.155.053.305.121.447.202.182.085.357.184.523.296.233.143.456.3.667.473 1.367 1.117 2.417 2.572 3.048 4.22.439 1.128.723 2.309.844 3.512.145 1.38.114 2.773-.093 4.145-.544 3.113-1.444 6.152-2.684 9.058-1.228 2.877-2.145 5.877-2.735 8.949-.218 1.336-.275 2.694-.17 4.043.11 1.177.372 2.335.777 3.445.569 1.616 1.529 3.066 2.795 4.22.979.862 1.604 1.149 1.578 1.2z" transform="translate(102.99 130.005)"/>
            <path fill="#455A64" d="M105.439 154.537c-.169.061-.345.1-.524.118-.511.073-1.029.095-1.544.067-3.297-.13-6.248-2.082-7.657-5.065-.645-1.381-.936-2.902-.844-4.423.148-1.66.547-3.288 1.181-4.83.67-1.622 1.256-3.28 1.756-4.963.918-3.262 1.057-6.695.406-10.02-.543-2.713-1.73-5.255-3.462-7.412-1.163-1.456-2.575-2.693-4.17-3.656-1.14-.675-1.832-.928-1.815-.97.175.034.346.09.507.168.48.183.945.4 1.393.65 1.656.924 3.125 2.15 4.33 3.614 1.8 2.175 3.04 4.757 3.613 7.521.683 3.39.556 6.892-.371 10.223-.508 1.696-1.102 3.364-1.781 4.998-.628 1.499-1.027 3.084-1.182 4.702-.155 2.77.99 5.455 3.098 7.26 1.438 1.19 3.206 1.908 5.065 2.06.667.024 1.335.01 2-.042z" transform="translate(102.99 130.005)"/>
            <path fill="#ED4634" d="M92.675 112.091c-.467-.418-.964-.802-1.486-1.148-1.287-.79-2.866-.944-4.28-.416-1.415.528-2.508 1.678-2.963 3.117-.17.604-.294 1.219-.372 1.84 0 0-.076-.177-.092-.514-.023-.48.034-.958.168-1.419.43-1.57 1.587-2.84 3.113-3.41 1.525-.57 3.232-.373 4.586.532.405.26.764.585 1.064.962.12.13.21.287.262.456z" transform="translate(102.99 130.005)"/>
            <path fill="#455A64" d="M84.638 146.542c-.113-.062-.216-.142-.304-.236-.28-.238-.542-.494-.785-.768-.922-.994-1.698-2.114-2.305-3.326-.927-1.8-1.44-3.785-1.502-5.808-.027-1.213.227-2.415.743-3.512.625-1.117 1.397-2.145 2.296-3.056.874-.873 1.55-1.924 1.984-3.082.296-1.111.258-2.286-.11-3.376-.633-2.11-1.748-3.9-1.95-5.648-.29-1.36-.042-2.778.692-3.96.227-.307.514-.566.844-.759.22-.118.338-.177.346-.16-.393.28-.736.625-1.013 1.021-.643 1.16-.833 2.516-.531 3.807.227 1.689 1.35 3.377 2.034 5.58.397 1.157.444 2.405.135 3.588-.444 1.22-1.15 2.326-2.068 3.242-.875.883-1.628 1.88-2.237 2.963-.49 1.037-.738 2.171-.726 3.318.048 1.967.517 3.902 1.376 5.673.575 1.21 1.298 2.344 2.152 3.376.574.735.954 1.098.929 1.123zM102.51 137.898c-.017-.404.003-.808.059-1.207.05-.777.135-1.891.168-3.276.156-3.598-.36-7.193-1.52-10.603-1.207-3.401-3.433-6.348-6.373-8.442-1.247-.808-2.588-1.463-3.993-1.95 0 0 .11 0 .304.042.286.057.568.133.844.228 1.057.335 2.062.812 2.989 1.419 3.06 2.063 5.378 5.05 6.618 8.526 1.183 3.458 1.662 7.117 1.41 10.763-.068 1.393-.194 2.533-.304 3.284-.027.411-.095.818-.203 1.216z" transform="translate(102.99 130.005)"/>
            <path fill="#455A64" d="M94.844 114.092c-.06-.663-.06-1.33 0-1.993.12-1.563-.116-3.133-.692-4.592-.632-1.428-1.871-2.497-3.377-2.912-.635-.142-1.282-.23-1.933-.262.654-.204 1.355-.204 2.01 0 .726.157 1.412.468 2.008.912.737.552 1.318 1.284 1.689 2.127.608 1.52.817 3.17.608 4.795-.025.652-.13 1.298-.313 1.925z" transform="translate(102.99 130.005)"/>
            <path fill="#F5F5F5" d="M96.237 98.398c-.396-.115-.783-.262-1.156-.439-.922-.328-1.903-.458-2.879-.38-.971.09-1.913.377-2.769.845-.343.233-.698.447-1.064.641 0-.042.254-.439.904-.903 1.738-1.21 3.988-1.405 5.909-.515.7.363 1.055.71 1.055.751z" transform="translate(102.99 130.005)"/>
            <path fill="#455A64" d="M106.367 98.365c-.665-.772-1.387-1.491-2.16-2.153-3.932-3.196-9.587-3.122-13.432.177-.758.678-1.46 1.415-2.102 2.203.087-.266.222-.515.397-.734.43-.622.935-1.189 1.503-1.688 3.896-3.568 9.85-3.644 13.836-.178.579.499 1.094 1.066 1.536 1.689.18.201.323.433.422.684z" transform="translate(102.99 130.005)"/>
            <path fill="#F5F5F5" d="M101.623 86.504c0 .076-1.089.143-2.752.641-4.417 1.292-7.967 4.589-9.581 8.898-.625 1.63-.769 2.71-.845 2.701-.022-.257-.005-.516.051-.768.106-.694.272-1.378.498-2.043 1.508-4.491 5.187-7.913 9.776-9.092.678-.173 1.37-.288 2.068-.346.26-.041.526-.038.785.009z" transform="translate(102.99 130.005)"/>
            <path fill="#455A64" d="M88.395 86.41c.059.051-.465.609-1.03 1.69-1.538 2.77-1.506 6.147.084 8.888.591 1.039 1.123 1.588 1.064 1.638-.548-.388-1.003-.893-1.334-1.477-1.815-2.79-1.847-6.379-.084-9.202.31-.604.755-1.13 1.3-1.536zM76.753 89.551c.156.743.374 1.471.65 2.178.783 1.649 2.03 3.034 3.588 3.985 1.585.923 3.29 1.624 5.065 2.085.75.165 1.488.388 2.204.667-.772-.034-1.537-.158-2.28-.372-1.84-.37-3.604-1.05-5.217-2.009-1.63-.985-2.905-2.463-3.638-4.22-.218-.54-.349-1.11-.389-1.69-.041-.206-.035-.42.017-.624zM83.178 126.459c-.142-.01-.282-.04-.414-.093-.27-.076-.659-.21-1.148-.405-1.389-.577-2.685-1.353-3.85-2.305-1.736-1.42-3.132-3.212-4.085-5.242-1.146-2.517-1.488-5.327-.98-8.045.477-2.738 1.87-5.233 3.951-7.074 1.72-1.459 3.82-2.399 6.053-2.71 1.496-.215 3.02-.115 4.474.295.392.114.773.26 1.14.44.253.109.38.176.371.193-.008.017-.54-.21-1.562-.464-1.435-.34-2.924-.394-4.38-.16-2.158.346-4.178 1.284-5.834 2.71-1.988 1.797-3.319 4.206-3.782 6.846-.492 2.633-.17 5.354.92 7.8.912 1.99 2.249 3.757 3.917 5.175 1.127.955 2.376 1.755 3.714 2.38.954.448 1.511.617 1.495.659z" transform="translate(102.99 130.005)"/>
            <path fill="#455A64" d="M82.055 135.374c-.183-.059-.359-.138-.524-.237-.346-.169-.844-.43-1.46-.844-4.353-2.668-7.907-6.46-10.29-10.974-.835-1.589-1.522-3.25-2.052-4.964-.58-1.85-.865-3.778-.844-5.715.036-1.958.542-3.877 1.477-5.597.848-1.608 1.994-3.04 3.377-4.221 2.356-1.966 5.21-3.24 8.248-3.68 2.026-.316 4.087-.341 6.12-.077.717.085 1.266.194 1.638.27.193.031.382.082.565.152-.192-.006-.384-.026-.574-.059-.38-.059-.928-.135-1.646-.194-2.015-.194-4.047-.123-6.044.211-2.965.48-5.744 1.751-8.045 3.68-2.84 2.355-4.546 5.804-4.694 9.49-.01 1.892.275 3.774.844 5.58.515 1.692 1.185 3.334 2 4.904 1.39 2.664 3.181 5.098 5.31 7.218 1.444 1.458 3.03 2.768 4.737 3.909 1.165.75 1.882 1.105 1.857 1.148zM102.45 126.315c.947-1.522 1.704-3.155 2.254-4.862.551-1.858.782-3.796.684-5.732-.114-2.36-.748-4.667-1.857-6.754-1.996-3.865-5.45-6.776-9.598-8.087-1.251-.36-2.569-.427-3.85-.194-.903.203-1.36.456-1.384.414.104-.074.214-.14.329-.194.324-.163.663-.293 1.013-.389 1.308-.307 2.671-.284 3.968.068 1.919.512 3.712 1.414 5.267 2.65 1.92 1.492 3.503 3.374 4.643 5.521 1.142 2.151 1.782 4.532 1.874 6.965.08 1.979-.188 3.956-.793 5.842-.417 1.265-.984 2.475-1.689 3.604-.188.307-.394.603-.616.887-.143.177-.228.278-.245.261z" transform="translate(102.99 130.005)"/>
        </g>
        <g transform="translate(0 27.014)">
            <path fill="#FFF" d="M201.203 0.87H331.19100000000003V97.79100000000001H201.203z"/>
            <path fill="#263238" d="M331.19 97.799v-1.781-5.15c0-4.508 0-11.126-.05-19.577 0-16.883-.05-41.094-.093-70.421l.186.185H201.23l.219-.22v96.93l-.194-.202 93.806.1 26.66.051h8.897-8.83l-26.61.06-93.94.092h-.203v-.194V.523h130.41v.321c0 29.37-.067 53.623-.093 70.532 0 8.442 0 15.035-.05 19.543v5.116c0 1.165-.11 1.764-.11 1.764z"/>
            <path fill="#FAFAFA" d="M268.223 58.097H347.264V88.825H268.223z"/>
            <path fill="#263238" d="M347.264 88.817v-.549-1.595-6.104c0-5.301-.05-12.967-.084-22.472l.152.152-79.033.067.22-.22v30.72l-.211-.21 56.61.101 16.47.06h5.961-5.867l-16.42.058-56.754.093h-.212v-.211V57.767h.228l79.033.068h.152v.152c0 9.548-.068 17.238-.084 22.565V88.192c0 .372-.16.625-.16.625z"/>
            <path fill="#263238" d="M268.223 58.097H347.264V64.682H268.223z"/>
            <path fill="#F7B13E" d="M277.619 69.696H285.377V77.454H277.619z"/>
            <path fill="#2077C0" d="M282.313 74.398H290.07099999999997V82.15599999999999H282.313z"/>
            <path fill="#ED4634" d="M296.115 69.696H303.873V77.454H296.115z"/>
            <path fill="#F5F5F5" d="M300.817 74.398H308.575V82.15599999999999H300.817z"/>
            <path fill="#263238" d="M308.584 82.165c-.036-.198-.053-.399-.051-.6 0-.439 0-.97-.042-1.595-.042-1.368-.085-3.284-.102-5.572l.195.194h-7.767l.22-.22v7.75l-.195-.194c2.288 0 4.221.06 5.572.102l1.596.05c.2-.006.401.008.599.042-.174.014-.35.014-.523 0l-1.554.051c-1.35 0-3.317.076-5.69.093h-.185v-.186-3.664-4.085c-.194.202.27-.27.22-.22h7.951v.186c0 2.372-.059 4.339-.092 5.69 0 .616 0 1.13-.051 1.553-.013.21-.047.42-.101.625z"/>
            <path fill="#F5F5F5" d="M313.379 69.696H321.137V77.454H313.379z"/>
            <path fill="#263238" d="M321.145 77.462c-.035-.197-.049-.398-.042-.599 0-.439 0-.962-.05-1.595-.043-1.368-.085-3.284-.102-5.572l.194.194h-7.766c-.043.05.422-.414.22-.22v7.759l-.195-.194c2.288 0 4.22.067 5.572.1l1.595.051c.2-.006.402.008.6.043-.175.014-.35.014-.524 0l-1.553.05c-1.351 0-3.318.076-5.69.093h-.211v-.186-3.663-4.086c-.194.202.27-.262.22-.22h7.952v.186c0 2.372-.06 4.34-.093 5.69 0 .616 0 1.131-.05 1.553-.007.208-.032.414-.077.616z"/>
            <path fill="#F5F5F5" d="M318.081 74.398H325.839V82.15599999999999H318.081z"/>
            <path fill="#263238" d="M325.856 82.165c-.036-.198-.053-.399-.051-.6 0-.439 0-.97-.042-1.595-.042-1.368-.085-3.284-.102-5.572l.195.194h-7.767l.22-.22v7.75l-.195-.194c2.288 0 4.221.06 5.572.102l1.596.05c.2-.006.401.008.599.042-.174.014-.35.014-.523 0l-1.554.051c-1.35 0-3.317.076-5.69.093h-.185v-.186-3.664-4.085c-.194.202.27-.27.22-.22h7.951v.186c0 2.372-.059 4.339-.092 5.69 0 .616-.043 1.13-.051 1.553-.013.21-.047.42-.101.625z"/>
            <path fill="#263238" d="M318.081 74.398H321.14500000000004V77.46199999999999H318.081z"/>
            <path fill="#E8505B" d="M329.249 69.696H337.007V77.454H329.249z"/>
            <path fill="#A8397A" d="M333.951 74.398H341.709V82.15599999999999H333.951z"/>
            <path fill="#FAFAFA" d="M333.951 74.398H337.01500000000004V77.46199999999999H333.951zM286.939 151.818H362.899V181.348H286.939z"/>
            <path fill="#222221" d="M363 181.45h-76.171v-29.741h76.17v29.74zm-75.977-.212h75.749v-29.285h-75.749v29.285z"/>
            <path fill="#263238" d="M286.939 151.818H362.899V158.149H286.939z"/>
            <path fill="#F5F5F5" d="M291.219 166.043H298.724V173.548H291.219z"/>
            <path fill="#263238" d="M298.724 173.548c-.036-.19-.05-.382-.043-.574 0-.43 0-.937-.05-1.554 0-1.317-.085-3.165-.102-5.377l.195.194-7.48.068.22-.22V173.573l-.186-.186c2.203 0 4.06.06 5.377.093l1.545.05c.195 0 .39.013.583.043-.668.066-1.339.097-2.01.093-1.3 0-3.207.076-5.495.101h-.194v-.194-3.537V166.085c-.203.194.261-.27.22-.22H298.993v.186c0 2.296-.06 4.221-.093 5.504-.023.667-.083 1.332-.177 1.993z"/>
            <path fill="#FAFAFA" d="M298.724 166.043L291.219 173.548"/>
            <path fill="#E8505B" d="M291.244 173.548c2.29-2.706 4.8-5.216 7.505-7.505-1.09 1.399-2.293 2.706-3.596 3.908-1.202 1.304-2.51 2.507-3.909 3.597z"/>
            <path fill="#2E4881" d="M300.986 166.043H308.491V173.548H300.986z"/>
            <path fill="#6F3895" d="M310.745 166.043H318.25V173.548H310.745z"/>
            <path fill="#E8505B" d="M320.512 166.043H328.017V173.548H320.512z"/>
            <path fill="#2077C0" d="M330.279 166.043H337.784V173.548H330.279z"/>
            <path fill="#F7B13E" d="M340.046 166.043H347.551V173.548H340.046z"/>
            <path fill="#E8505B" d="M349.814 166.043H357.319V173.548H349.814z"/>
            <path fill="#000" d="M0.321 0.582H7.826V8.087H0.321z" opacity=".7" transform="translate(349.493 165.46)"/>
            <path fill="#FFF" d="M63.432 0.87H169.647V74.83800000000001H63.432z"/>
            <path fill="#263238" d="M169.681 74.837v-1.35-3.91V54.67c0-12.865-.059-31.327-.093-53.8l.178.178H63.559l.093-.203v73.968l-.203-.194 76.56.092 21.838.06h7.834H161.95l-21.789.05-76.694.101h-.236v-.202V.53h106.612v.313c0 22.515-.076 41.02-.093 53.91 0 6.424 0 11.439-.05 14.866v3.883c0 .887-.018 1.334-.018 1.334z"/>
            <path fill="#263238" d="M63.432 0.87H169.647V10.113999999999999H63.432z"/>
            <path fill="#FFF" d="M69.223 5.757c-.023.61-.533 1.089-1.144 1.072-.61-.017-1.094-.522-1.083-1.133.01-.61.51-1.1 1.121-1.095.3.006.585.132.793.349.207.217.32.507.313.807zM73.689 5.757c-.028.606-.538 1.076-1.144 1.055-.606-.022-1.081-.527-1.066-1.133.015-.606.515-1.087 1.121-1.078.298.009.58.135.784.352.204.217.314.507.305.804zM78.188 5.757c-.023.61-.531 1.087-1.14 1.072-.61-.015-1.095-.518-1.087-1.127.007-.61.503-1.1 1.113-1.101.302.004.589.129.798.346.21.217.323.509.316.81z"/>
            <path fill="#61A5B0" d="M73.529 19.171H88.66499999999999V55.488H73.529z"/>
            <path fill="#EBEBEB" d="M96.87 19.171H112.006V55.488H96.87z"/>
            <path fill="#FAFAFA" d="M120.212 19.171H135.348V55.488H120.212z"/>
            <path fill="#E0E0E0" d="M143.554 19.458H158.69V55.775H143.554z"/>
            <path fill="#61A5B0" d="M71.773 59.498H163.519V67.79599999999999H71.773z"/>
            <path fill="#263238" d="M156.546 66.1L158.521 76.086 160.142 73.301 163.628 78.281 165.376 77.159 161.889 72.178 165.089 71.714z"/>
            <path fill="#FAFAFA" d="M82.19 83.633H128.941V163.822H82.19z"/>
            <path fill="#222221" d="M128.94 163.823v-.397-1.148-4.424c0-3.858 0-9.48-.058-16.563 0-14.165-.06-34.19-.093-57.658l.203.203H82.24l.219-.22c0 30.585-.042 58.646-.05 80.198l-.17-.169 34.08.085H128.983h-3.267l-9.286.042-34.19.093h-.168v-.169c0-21.544 0-49.604-.05-80.198v-.22h47.139v.204c0 23.527-.077 43.593-.102 57.792 0 7.066-.042 12.663-.05 16.521V163.3c0 .279-.068.524-.068.524z"/>
            <path fill="#263238" d="M82.19 83.633H128.941V90.386H82.19zM93.426 98.82L93.992 106.308 96.077 103.582 99.58 103.43zM113.627 98.82l.44.304 1.283.92c1.097.794 2.684 1.934 4.507 3.284l.28.211h-.347l-3.377.152h-.118l.093-.05-2.094 2.726-.202.262v-.33c-.16-2.22-.262-4.119-.338-5.444 0-.583-.06-1.09-.084-1.528-.01-.174-.01-.35 0-.524 0 0 0 .22.067.591.068.372.093.971.144 1.57.135 1.334.312 3.175.48 5.319l-.227-.068c.658-.844 1.359-1.772 2.085-2.735v-.05h.186l3.376-.127-.067.22c-1.756-1.326-3.242-2.49-4.33-3.335l-1.275-.996c-.304-.228-.473-.355-.482-.372zM92.067 131.397c-.06-.05 2.27-2.532 5.2-5.537 2.93-3.006 5.335-5.412 5.386-5.36.05.05-2.28 2.532-5.2 5.537-2.921 3.005-5.335 5.411-5.386 5.36zM124.517 125.877c-.04-.569-.125-1.133-.253-1.689-.377-1.491-1.235-2.817-2.44-3.773-.826-.65-1.796-1.092-2.828-1.292-1.187-.23-2.416-.122-3.545.312-1.246.478-2.32 1.32-3.081 2.415-1.688 2.404-1.688 5.607 0 8.011.761 1.096 1.835 1.937 3.08 2.414 1.13.434 2.359.542 3.546.313 1.032-.2 2.002-.643 2.828-1.292 1.205-.956 2.063-2.282 2.44-3.773.128-.556.212-1.12.253-1.689.035.568-.017 1.137-.152 1.689-.347 1.532-1.2 2.903-2.422 3.891-1.846 1.503-4.352 1.908-6.577 1.064-1.295-.489-2.413-1.357-3.208-2.49-1.756-2.494-1.756-5.822 0-8.316.789-1.149 1.908-2.032 3.208-2.532 2.225-.844 4.731-.439 6.577 1.064 1.222.988 2.075 2.359 2.422 3.891.144.582.195 1.183.152 1.782zM118.465 143.68l.168.127.482.405 1.84 1.579.059.05-.05.06-7.843 9.024-.946.135-1.688.262h-.186l.043-.178.607-3.098c2.136-2.532 3.985-4.634 5.336-6.12.666-.834 1.422-1.593 2.254-2.262-.048.056-.101.107-.16.151-.094.102-.246.254-.423.456-.371.397-.895 1.005-1.553 1.756-1.317 1.52-3.14 3.672-5.26 6.188v-.059c-.185.98-.388 2.018-.599 3.098l-.152-.16 1.689-.253.945-.144h-.076l7.927-8.957v.11l-1.764-1.612-.465-.448c-.066-.029-.128-.066-.185-.11zM101.361 154.621v-.836-2.304c0-2.035 0-4.82-.059-8.138l.11.118H90.438s.244-.253.126-.135v11.27l-.11-.11 7.91.06H101.227 98.44l-7.986.058h-.126v-.118-5.31-5.96l.135-.135h11.093v.118c0 3.377 0 6.163-.06 8.214V154.283c-.126.279-.126.346-.135.338z"/>
            <path fill="#263238" d="M92.067 143.343c-.786.135-1.585.18-2.38.135-.794.045-1.59 0-2.373-.135.783-.135 1.579-.18 2.372-.135.796-.046 1.595 0 2.38.135z"/>
            <path fill="#263238" d="M90.404 145.512c-.18-1.78-.18-3.572 0-5.352.169 1.78.169 3.572 0 5.352z"/>
            <path fill="#F5F5F5" d="M9.894 107.524H71.798V169.428H9.894z"/>
            <circle cx="86.159" cy="193.78" r="11.599" fill="#E0E0E0" transform="rotate(-45 86.159 193.78)"/>
            <circle cx="87.291" cy="189.134" r="10.147" fill="#FAFAFA" transform="rotate(-45 87.29 189.134)"/>
            <circle cx="87.289" cy="189.131" r="9.776" fill="#E8505B"/>
            <path fill="#263238" d="M87.289 196.628c-4.14 0-7.497-3.357-7.497-7.497s3.357-7.496 7.497-7.496 7.496 3.356 7.496 7.496c0 4.14-3.356 7.497-7.496 7.497zm0-14.942c-3.016 0-5.734 1.817-6.888 4.603-1.153 2.787-.514 5.993 1.62 8.125 2.134 2.13 5.341 2.767 8.126 1.61 2.785-1.156 4.6-3.877 4.596-6.893-.005-4.113-3.34-7.445-7.454-7.445z"/>
            <path fill="#000" d="M88.09 182.344c-1.963-.464-4.01.337-5.136 2.012-1.126 1.675-1.096 3.872.075 5.516 1.172 1.643 3.24 2.389 5.19 1.871 1.95-.518 3.376-2.19 3.578-4.199.11-1.004-.132-2.015-.684-2.862-.844-1.266-1.536-2.009-3.022-2.338" opacity=".2"/>
            <path fill="#263238" d="M85.457 195.446L86.014 196.214 88.994 196.113 89.568 195.446z"/>
            <circle cx="285.174" cy="195.142" r="6.196" fill="#263238"/>
            <path fill="#455A64" d="M287.437 195.142c0 1.25-1.013 2.262-2.263 2.262s-2.262-1.013-2.262-2.262c0-1.25 1.013-2.262 2.262-2.262.6 0 1.176.238 1.6.662.424.424.663 1 .663 1.6z"/>
            <path fill="#263238" d="M58.35 178.165c0-.11.532-.202 1.199-.202s1.199.093 1.199.202c0 .11-.54.211-1.2.211-.658 0-1.198-.092-1.198-.21zM53.555 178.165c0-.11.532-.202 1.199-.202s1.199.093 1.199.202c0 .11-.54.211-1.2.211-.658 0-1.198-.092-1.198-.21zM48.752 178.165c0-.11.54-.202 1.198-.202.659 0 1.2.093 1.2.202 0 .11-.533.211-1.2.211-.666 0-1.198-.092-1.198-.21zM43.957 178.165c0-.11.54-.202 1.198-.202.659 0 1.2.093 1.2.202 0 .11-.533.211-1.2.211-.666 0-1.198-.092-1.198-.21zM39.162 178.165c0-.11.54-.202 1.199-.202.658 0 1.198.093 1.198.202 0 .11-.532.211-1.198.211-.667 0-1.2-.092-1.2-.21zM34.367 178.165c0-.11.532-.202 1.199-.202.666 0 1.198.093 1.198.202 0 .11-.54.211-1.198.211-.659 0-1.2-.092-1.2-.21zM29.546 178.165c0-.11.532-.202 1.2-.202.666 0 1.198.093 1.198.202 0 .11-.54.211-1.199.211-.658 0-1.199-.092-1.199-.21zM24.777 178.165c0-.11.532-.202 1.199-.202.666 0 1.198.093 1.198.202 0 .11-.54.211-1.198.211-.659 0-1.2-.092-1.2-.21zM19.973 178.165c0-.11.54-.202 1.2-.202.658 0 1.198.093 1.198.202 0 .11-.532.211-1.199.211s-1.199-.092-1.199-.21zM15.195 178.165c0-.11.54-.202 1.2-.202.658 0 1.198.093 1.198.202 0 .11-.532.211-1.199.211s-1.199-.092-1.199-.21zM10.383 178.165c0-.11.54-.202 1.2-.202.658 0 1.198.093 1.198.202 0 .11-.54.211-1.199.211-.658 0-1.199-.092-1.199-.21zM5.589 178.165c0-.11.531-.202 1.198-.202.667 0 1.199.093 1.199.202 0 .11-.54.211-1.199.211-.658 0-1.198-.092-1.198-.21zM2.17 176.79c.118 0 .21.531.21 1.198v.177l-.202-.202c.574 0 1.021.101 1.021.202 0 .102-.447.195-1.021.211h-.211v-.388c-.008-.667.084-1.199.203-1.199zM2.17 171.994c.118 0 .21.532.21 1.2 0 .666-.092 1.198-.21 1.198-.119 0-.211-.54-.211-1.199 0-.658.092-1.199.21-1.199zM2.17 167.191c.118 0 .21.54.21 1.207s-.092 1.199-.21 1.199c-.119 0-.211-.54-.211-1.199 0-.658.092-1.207.21-1.207zM2.17 162.396c.118 0 .21.54.21 1.199 0 .658-.092 1.198-.21 1.198-.119 0-.211-.531-.211-1.198 0-.667.092-1.199.21-1.199zM2.17 157.601c.118 0 .21.54.21 1.199 0 .658-.092 1.198-.21 1.198-.119 0-.211-.531-.211-1.198 0-.667.092-1.199.21-1.199zM2.17 152.798c.118 0 .21.54.21 1.198 0 .659-.092 1.2-.21 1.2-.119 0-.211-.541-.211-1.2 0-.658.092-1.198.21-1.198zM2.17 148.011c.118 0 .21.532.21 1.199s-.092 1.199-.21 1.199c-.119 0-.211-.54-.211-1.2 0-.658.092-1.198.21-1.198zM2.17 143.216c.118 0 .21.532.21 1.199s-.092 1.199-.21 1.199c-.119 0-.211-.54-.211-1.2 0-.658.092-1.198.21-1.198zM2.17 138.446c.118 0 .21.54.21 1.2 0 .658-.092 1.206-.21 1.206-.119 0-.211-.54-.211-1.207s.092-1.199.21-1.199zM2.17 133.618c.118 0 .21.54.21 1.198 0 .659-.092 1.2-.21 1.2-.119 0-.211-.533-.211-1.2 0-.666.092-1.198.21-1.198zM2.17 128.823c.118 0 .21.54.21 1.198 0 .659-.092 1.2-.21 1.2-.119 0-.211-.533-.211-1.2 0-.666.092-1.198.21-1.198zM2.17 124.028c.118 0 .21.54.21 1.198 0 .659-.092 1.2-.21 1.2-.119 0-.211-.541-.211-1.2 0-.658.092-1.198.21-1.198zM2.533 119.587c0 .06-.136.11-.355.152l.152-.152c.04.28.06.562.059.845 0 .658-.093 1.198-.211 1.198s-.211-.54-.211-1.198c-.001-.283.019-.565.059-.845v-.169h.118c.245.06.389.11.389.17zM7.328 119.587c0 .119-.54.211-1.2.211-.658 0-1.198-.092-1.198-.21 0-.119.532-.203 1.199-.203s1.199.093 1.199.202zM12.123 119.587c0 .119-.54.211-1.2.211-.658 0-1.198-.092-1.198-.21 0-.119.532-.203 1.199-.203s1.199.093 1.199.202zM16.884 119.587c0 .119-.54.211-1.199.211-.658 0-1.199-.092-1.199-.21 0-.119.54-.203 1.199-.203.658 0 1.199.093 1.199.202zM21.712 119.587c0 .119-.531.211-1.198.211-.667 0-1.199-.092-1.199-.21 0-.119.54-.203 1.199-.203.658 0 1.198.093 1.198.202zM26.507 119.587c0 .119-.531.211-1.198.211-.667 0-1.2-.092-1.2-.21 0-.119.541-.203 1.2-.203.658 0 1.198.093 1.198.202zM31.31 119.587c0 .119-.54.211-1.206.211-.667 0-1.2-.092-1.2-.21 0-.119.541-.203 1.2-.203.658 0 1.207.093 1.207.202zM36.106 119.587c0 .119-.54.211-1.199.211-.658 0-1.199-.092-1.199-.21 0-.119.532-.203 1.2-.203.666 0 1.198.093 1.198.202zM40.9 119.587c0 .119-.54.211-1.198.211-.658 0-1.199-.092-1.199-.21 0-.119.532-.203 1.199-.203s1.199.093 1.199.202zM45.696 119.587c0 .119-.54.211-1.199.211-.658 0-1.199-.092-1.199-.21 0-.119.54-.203 1.199-.203.658 0 1.199.093 1.199.202zM50.49 119.587c0 .119-.531.211-1.198.211-.667 0-1.173-.092-1.173-.21 0-.119.54-.203 1.198-.203.659 0 1.174.093 1.174.202zM55.286 119.587c0 .119-.532.211-1.199.211s-1.199-.092-1.199-.21c0-.119.54-.203 1.199-.203.658 0 1.199.093 1.199.202zM60.09 119.587c0 .119-.541.211-1.2.211-.658 0-1.207-.092-1.207-.21 0-.119.54-.203 1.207-.203s1.2.093 1.2.202zM60.781 123.724c-.118 0-.21-.532-.21-1.199s.092-1.199.21-1.199c.119 0 .203.54.203 1.2 0 .658-.127 1.198-.203 1.198zM60.781 128.519c-.118 0-.21-.532-.21-1.199s.092-1.199.21-1.199c.119 0 .203.54.203 1.2 0 .658-.127 1.198-.203 1.198zM60.781 133.322c-.118 0-.21-.54-.21-1.199 0-.658.092-1.198.21-1.198.119 0 .203.532.203 1.198 0 .667-.127 1.2-.203 1.2zM60.781 138.117c-.118 0-.21-.54-.21-1.199 0-.658.092-1.198.21-1.198.119 0 .203.532.203 1.198 0 .667-.127 1.2-.203 1.2zM60.781 142.912c-.118 0-.21-.54-.21-1.199 0-.658.092-1.198.21-1.198.119 0 .203.532.203 1.198 0 .667-.127 1.2-.203 1.2zM60.781 147.732c-.118 0-.21-.531-.21-1.198 0-.667.092-1.199.21-1.199.119 0 .203.54.203 1.199 0 .658-.127 1.198-.203 1.198zM60.781 152.502c-.118 0-.21-.532-.21-1.199s.092-1.198.21-1.198c.119 0 .203.54.203 1.198 0 .659-.127 1.2-.203 1.2zM60.781 157.297c-.118 0-.21-.532-.21-1.199s.092-1.198.21-1.198c.119 0 .203.54.203 1.198 0 .659-.127 1.2-.203 1.2zM60.781 162.084c-.118 0-.21-.54-.21-1.2 0-.658.092-1.198.21-1.198.119 0 .203.532.203 1.199s-.127 1.199-.203 1.199zM60.781 166.895c-.118 0-.21-.54-.21-1.198 0-.659.092-1.199.21-1.199.119 0 .203.532.203 1.199s-.127 1.198-.203 1.198zM60.781 171.69c-.118 0-.21-.54-.21-1.198 0-.659.092-1.199.21-1.199.119 0 .203.532.203 1.199s-.127 1.198-.203 1.198zM60.781 176.485c-.118 0-.21-.531-.21-1.198 0-.667.092-1.199.21-1.199.119 0 .203.54.203 1.199 0 .658-.127 1.198-.203 1.198z"/>
            <path fill="#263238" d="M58.578 175.405H62.917V179.744H58.578zM0 175.996H4.339V180.335H0zM58.578 116.996H62.917V121.335H58.578zM0 117.418H4.339V121.757H0z"/>
        </g>
    </g>
</svg>
