<svg xmlns="http://www.w3.org/2000/svg" width="140" height="140" viewBox="0 0 140 140">
    <g fill="#D74C41" fill-rule="evenodd">
        <path d="M69.916 0c-3.305 0-5.982 2.678-5.982 5.982 0 3.305 2.677 5.985 5.982 5.985S75.9 9.287 75.9 5.982C75.9 2.678 73.22 0 69.916 0M37.95 31.967c-3.304 0-5.983 2.678-5.983 5.982 0 3.305 2.679 5.983 5.984 5.983 3.304 0 5.982-2.678 5.982-5.983 0-3.304-2.678-5.982-5.982-5.982M69.916 31.967c-3.305 0-5.982 2.678-5.982 5.982 0 3.305 2.677 5.983 5.982 5.983s5.984-2.678 5.984-5.983c0-3.304-2.68-5.982-5.984-5.982M101.882 31.967c-3.305 0-5.982 2.678-5.982 5.982 0 3.305 2.677 5.983 5.982 5.983s5.983-2.678 5.983-5.983c0-3.304-2.678-5.982-5.983-5.982M5.984 63.932C2.679 63.932 0 66.612 0 69.916c0 3.305 2.679 5.983 5.984 5.983s5.982-2.678 5.982-5.983c0-3.304-2.677-5.984-5.982-5.984M37.95 63.932c-3.304 0-5.983 2.68-5.983 5.984 0 3.305 2.679 5.983 5.984 5.983 3.304 0 5.982-2.678 5.982-5.983 0-3.304-2.678-5.984-5.982-5.984M69.916 63.932c-3.305 0-5.982 2.68-5.982 5.984 0 3.305 2.677 5.983 5.982 5.983S75.9 73.22 75.9 69.916c0-3.304-2.68-5.984-5.984-5.984M101.882 63.932c-3.305 0-5.982 2.68-5.982 5.984 0 3.305 2.677 5.983 5.982 5.983s5.983-2.678 5.983-5.983c0-3.304-2.678-5.984-5.983-5.984M133.848 63.932c-3.304 0-5.982 2.68-5.982 5.984 0 3.305 2.678 5.983 5.982 5.983 3.305 0 5.983-2.678 5.983-5.983 0-3.304-2.678-5.984-5.983-5.984M37.95 95.898c-3.304 0-5.983 2.68-5.983 5.984s2.679 5.983 5.984 5.983c3.304 0 5.982-2.678 5.982-5.983 0-3.305-2.678-5.984-5.982-5.984M69.916 95.898c-3.305 0-5.982 2.68-5.982 5.984s2.677 5.983 5.982 5.983 5.984-2.678 5.984-5.983c0-3.305-2.68-5.984-5.984-5.984M101.882 95.898c-3.305 0-5.982 2.68-5.982 5.984s2.677 5.983 5.982 5.983 5.983-2.678 5.983-5.983c0-3.305-2.678-5.984-5.983-5.984M69.916 127.865c-3.305 0-5.982 2.678-5.982 5.983 0 3.304 2.677 5.984 5.982 5.984s5.984-2.68 5.984-5.984c0-3.305-2.68-5.983-5.984-5.983"/>
    </g>
</svg>
